<?xml version="1.0" encoding="UTF-8" standalone="no"?>
<!-- Created with Inkscape (http://www.inkscape.org/) -->

<svg
   xmlns:dc="http://purl.org/dc/elements/1.1/"
   xmlns:cc="http://creativecommons.org/ns#"
   xmlns:rdf="http://www.w3.org/1999/02/22-rdf-syntax-ns#"
   xmlns:svg="http://www.w3.org/2000/svg"
   xmlns="http://www.w3.org/2000/svg"
   version="1.1"
   width="985.53088"
   height="265.7424"
   id="svg3116">
  <defs
     id="defs3118" />
  <metadata
     id="metadata3121">
    <rdf:RDF>
      <cc:Work
         rdf:about="">
        <dc:format>image/svg+xml</dc:format>
        <dc:type
           rdf:resource="http://purl.org/dc/dcmitype/StillImage" />
        <dc:title></dc:title>
      </cc:Work>
    </rdf:RDF>
  </metadata>
  <g
     transform="translate(1212.7654,-150.91956)"
     id="layer1">
    <path
       d="m -737.13318,393.76922 17.19937,0 -4.18837,-78.3186 -23.23513,0 -8.24937,26.02859 c -2.6755,8.83237 -5.35088,19.05758 -7.43713,28.12135 l -0.46187,0 c -1.75175,-9.18066 -4.07688,-18.9418 -6.62488,-27.88868 l -7.67612,-26.26126 -23.5855,0 -5.0005,78.3186 16.38725,0 1.51287,-29.74685 c 0.46188,-9.7605 0.92363,-21.84579 1.274,-32.42056 l 0.23888,0 c 1.97475,10.3421 4.52287,21.38173 7.08687,30.67753 l 8.36075,30.21155 13.83913,0 9.52337,-30.56063 c 3.02588,-9.17939 6.27463,-20.33527 8.82275,-30.32845 l 0.23888,0 c 0,11.50354 0.35025,22.7752 0.70062,32.18853 l 1.27413,29.97888"
       id="path32"
       style="fill:#000000;fill-opacity:1;fill-rule:nonzero;stroke:none" />
    <path
       d="m -656.99681,360.18723 c 0,-13.36362 -5.92412,-24.51823 -24.8595,-24.51823 -10.3515,0 -18.139,2.90447 -22.0885,5.11347 l 3.24888,11.27167 c 3.7265,-2.20901 9.88962,-4.18424 15.70237,-4.18424 8.71113,0 10.33563,4.29985 10.33563,7.32074 l 0,0.69673 c -20.09788,0 -33.34775,6.97229 -33.34775,21.72938 0,9.06377 6.84787,17.4308 18.36187,17.4308 6.7365,0 12.54925,-2.43976 16.25988,-6.97165 l 0.35037,0 1.051,5.69332 15.9095,0 c -0.68475,-3.1365 -0.92375,-8.36703 -0.92375,-13.71079 l 0,-19.8712 z m -17.08787,12.89955 c 0,1.04454 -0.11125,2.0902 -0.35038,3.02088 -1.14662,3.60121 -4.87312,6.50759 -9.173,6.50759 -3.9495,0 -6.97525,-2.20965 -6.97525,-6.74153 0,-6.73962 7.21413,-8.94688 16.49863,-8.94688 l 0,6.15994"
       id="path34"
       style="fill:#000000;fill-opacity:1;fill-rule:evenodd;stroke:none" />
    <path
       d="m -639.14443,326.25742 0,10.68991 -7.54863,0 0,13.01469 7.54863,0 0,23.35679 c 0,8.01811 1.62437,13.47876 4.87325,16.84793 2.91425,2.90575 7.676,4.88081 13.37725,4.88081 4.87312,0 9.173,-0.69673 11.38662,-1.51036 l -0.12737,-13.36362 c -1.62438,0.34893 -2.787,0.4647 -5.2235,0.4647 -5.2235,0 -6.97538,-3.1365 -6.97538,-9.99317 l 0,-20.68308 12.67663,0 0,-13.01469 -12.67663,0 0,-15.45383 -17.31087,4.76392"
       id="path36"
       style="fill:#000000;fill-opacity:1;fill-rule:nonzero;stroke:none" />
    <path
       d="m -596.63956,393.76922 17.67713,0 0,-33.69713 c 0,-1.27833 0.11125,-2.78933 0.57337,-3.83515 1.274,-3.2534 4.18838,-6.27492 8.8385,-6.27492 6.60913,0 9.173,5.11348 9.173,12.54999 l 0,31.25721 17.66125,0 0,-33.11729 c 0,-17.19702 -8.59962,-24.98293 -19.87487,-24.98293 -3.24875,0 -6.4975,0.81426 -9.173,2.20773 -2.78688,1.39538 -5.112,3.37045 -6.97525,5.92727 l -0.223,0 0,-32.53762 -17.67713,0 0,82.50284"
       id="path38"
       style="fill:#000000;fill-opacity:1;fill-rule:nonzero;stroke:none" />
    <path
       d="m -470.79731,377.7338 c -3.59912,1.51037 -9.41187,2.55666 -14.87425,2.55666 -15.6865,0 -24.98687,-9.87803 -24.98687,-25.56389 0,-17.54657 10.92475,-26.02923 24.87537,-26.02923 6.38613,0 11.38663,1.39395 14.87438,2.90447 l 3.7105,-13.94346 c -3.13725,-1.62805 -10.1125,-3.48606 -19.28563,-3.48606 -23.71287,0 -42.75962,14.75757 -42.75962,41.48305 0,22.42739 13.93475,39.39221 41.00787,39.39221 9.41188,0 16.849,-1.85928 19.98638,-3.37044 l -2.54813,-13.94331"
       id="path40"
       style="fill:#000000;fill-opacity:1;fill-rule:nonzero;stroke:none" />
    <path
       d="m -430.98381,395.04755 c 15.11313,0 29.876,-9.52847 29.876,-30.21155 0,-17.19877 -11.6255,-29.167 -28.93637,-29.167 -18.362,0 -30.44938,11.7362 -30.44938,30.09641 0,18.3602 12.78813,29.28214 29.39825,29.28214 l 0.11125,0 z m 0.12738,-12.66624 c -7.43713,0 -11.514,-7.31947 -11.514,-16.96483 0,-8.48281 3.26462,-17.08187 11.6255,-17.08187 8.0105,0 11.27512,8.59906 11.27512,16.96609 0,10.22521 -4.29987,17.08061 -11.27512,17.08061 l -0.11125,0"
       id="path42"
       style="fill:#000000;fill-opacity:1;fill-rule:evenodd;stroke:none" />
    <path
       d="m -387.88981,393.76922 17.1995,0 0,-33.0004 c 0,-1.51036 0.11125,-3.13841 0.68475,-4.53188 1.05113,-2.78886 3.7265,-6.27492 8.24938,-6.27492 5.70125,0 8.26525,4.87953 8.26525,11.96824 l 0,31.83896 17.1835,0 0,-33.23243 c 0,-1.39538 0.23887,-3.13842 0.58925,-4.41675 1.274,-3.36917 4.06087,-6.15802 8.24925,-6.15802 5.70137,0 8.36087,4.76455 8.36087,13.01469 l 0,30.79251 17.19938,0 0,-33.4651 c 0,-16.9661 -8.24938,-24.63512 -19.17413,-24.63512 -4.1725,0 -7.66012,1.04629 -10.79737,2.78948 -2.787,1.62599 -5.2395,3.95013 -7.43713,6.97166 l -0.239,0 c -2.4365,-5.926 -8.13775,-9.76114 -15.575,-9.76114 -9.63475,0 -14.74687,5.34614 -17.18337,9.0644 l -0.35038,0 -0.70075,-7.78607 -14.98575,0 c 0.22288,5.11236 0.46175,11.03963 0.46175,18.12817 l 0,38.69372"
       id="path44"
       style="fill:#000000;fill-opacity:1;fill-rule:nonzero;stroke:none" />
    <path
       d="m -285.68068,416.66195 17.66125,0 0,-28.12135 0.23887,0 c 2.548,3.71826 7.899,6.50695 14.74688,6.50695 12.67662,0 25.79912,-9.7605 25.79912,-30.44533 0,-18.12579 -11.14775,-28.93322 -23.5855,-28.93322 -8.24937,0 -14.76287,3.25403 -18.93525,9.17938 l -0.23887,0 -0.81225,-7.90105 -15.33613,0 c 0.23888,5.3463 0.46188,11.61931 0.46188,19.05694 l 0,60.65768 z m 17.66125,-55.07934 c 0,-1.04582 0.12737,-2.20901 0.35037,-3.13842 1.1625,-5.22862 5.57388,-8.94687 10.57438,-8.94687 7.899,0 11.97587,6.85476 11.97587,15.91916 0,9.64536 -4.53875,16.03542 -12.21475,16.03542 -5.112,0 -9.173,-3.6012 -10.3355,-8.36512 -0.223,-1.16335 -0.35037,-2.32479 -0.35037,-3.72001 l 0,-7.78416"
       id="path46"
       style="fill:#000000;fill-opacity:1;fill-rule:evenodd;stroke:none" />
    <path
       d="m -798.50968,211.70078 0,78.31829 17.66125,0 0,-32.65387 29.17537,0 0,32.65387 17.66125,0 0,-78.31829 -17.66125,0 0,30.21202 -29.17537,0 0,-30.21202 -17.66125,0"
       id="path48"
       style="fill:#000000;fill-opacity:1;fill-rule:nonzero;stroke:none" />
    <path
       d="m -654.33718,245.28262 -29.15938,0 0,13.82641 12.08738,0 0,16.39182 c -1.4015,0.57619 -4.65025,1.03962 -8.59975,1.03962 -14.52388,0 -24.748,-9.34995 -24.748,-25.56453 0,-17.03219 11.25925,-25.44716 26.022,-25.44716 8.59975,0 13.82325,1.40302 18.12312,3.38734 l 3.7265,-14.4268 c -3.838,-1.62758 -11.6255,-3.60233 -21.73812,-3.60233 -25.67163,0 -44.62288,14.8743 -44.73438,41.01899 0,11.47424 3.9495,21.63224 11.03625,28.46964 7.21425,6.85476 17.54988,10.45723 31.85075,10.45723 10.33563,0 20.67125,-2.55682 26.13363,-4.4169 l 0,-41.13333"
       id="path50"
       style="fill:#000000;fill-opacity:1;fill-rule:nonzero;stroke:none" />
    <path
       d="m -641.24656,286.41595 c 4.41138,2.44168 13.24988,4.8816 22.2,4.8816 21.48325,0 31.4845,-11.15652 31.4845,-24.28556 0,-11.15651 -6.38612,-18.35956 -20.22525,-23.4732 -10.22412,-3.95109 -14.524,-6.15994 -14.524,-11.15572 0,-3.95109 3.72663,-7.55342 11.38663,-7.55342 7.56462,0 13.25,2.20727 16.27575,3.71858 l 3.9495,-14.17518 c -4.65013,-2.20725 -11.03625,-3.95107 -19.98638,-3.95107 -18.36187,0 -29.63712,10.10782 -29.63712,23.4724 0,11.5029 8.59975,18.70754 21.61075,23.35616 9.41187,3.25371 13.1385,6.15834 13.1385,10.92225 0,5.22926 -4.29988,8.59971 -12.43775,8.59971 -7.54863,0 -14.98575,-2.43992 -19.636,-4.88161 l -3.59913,14.52506"
       id="path52"
       style="fill:#000000;fill-opacity:1;fill-rule:nonzero;stroke:none" />
    <path
       d="m -1097.8732,223.87414 c 11.6494,0.34876 23.3068,1.89034 34.8909,3.07996 -8.0153,13.76908 -21.4356,40.97472 -35.985,48.38687 -13.1814,6.71493 -29.3106,1.47501 -36.0264,-11.70515 -6.7157,-13.18064 -1.4747,-29.30827 11.7051,-36.0224 6.5837,-3.35548 15.7933,-4.02753 25.4154,-3.73928 z m -0.1752,5.84301 c -9.5362,-0.28506 -17.4272,0.47618 -22.5854,3.10387 -24.5649,12.51575 -5.5531,49.82635 19.0134,37.31076 11.5475,-5.88315 22.7095,-27.33511 29.0415,-38.29655 -8.5568,-0.90934 -17.3827,-1.876 -25.4695,-2.11808"
       id="path54"
       style="fill:#000000;fill-opacity:1;fill-rule:nonzero;stroke:none" />
    <path
       d="m -980.37906,328.23885 c -11.651,-0.34908 -23.30674,-1.89114 -34.89254,-3.0806 8.0153,-13.76733 21.43729,-40.97487 35.98504,-48.38638 13.17825,-6.71542 29.31063,-1.47565 36.03125,11.70451 6.7045,13.18016 1.46513,29.30826 -11.70525,36.02367 -6.593,3.35373 -15.79637,4.02673 -25.4185,3.7388 z m 0.17525,-5.84397 c 9.5345,0.28618 17.42388,-0.47585 22.58375,-3.10418 24.57288,-12.51511 5.558,-49.82525 -19.01175,-37.31012 -11.549,5.88362 -22.71112,27.33622 -29.04299,38.29622 8.55824,0.90998 17.38249,1.87617 25.47099,2.11808"
       id="path56"
       style="fill:#000000;fill-opacity:1;fill-rule:nonzero;stroke:none" />
    <path
       d="m -1198.4754,369.2803 c 85.6482,-0.73034 143.4191,1.58744 184.4445,1.84384 41.13359,0.25751 64.42134,-1.60385 81.28634,-10.201 33.77763,-17.21056 47.21863,-58.54248 30.00338,-92.32051 -17.24725,-33.83394 -58.97175,-47.96294 -92.27,-30.02778 -15.22622,8.19998 -19.62322,12.11922 -41.86622,40.04898 -22.4245,28.15861 -25.9393,30.68549 -42.2007,39.44333 -36.364,19.58439 -81.6446,4.0796 -100.3028,-32.53571 -18.6868,-36.672 -4.1055,-81.54492 32.5706,-100.23016 18.4001,-9.37367 55.734,-11.09681 108.8945,-10.842 53.45512,0.2564 125.55562,2.57354 211.17049,1.84256 l -2.86662,5.88125 c -85.63075,0.73097 -154.85675,-1.58617 -208.33247,-1.84257 -53.7737,-0.25799 -89.3669,1.62757 -106.1953,10.2002 -33.7809,17.21056 -47.2124,58.54327 -30.0001,92.32067 17.2407,33.83394 58.97,47.96342 92.2716,30.0281 15.2708,-8.22402 18.201,-10.06786 40.3883,-37.92915 22.372,-28.08997 27.3726,-32.78158 43.67859,-41.56283 36.35913,-19.58503 81.65088,-4.08009 100.2995,32.53506 18.6965,36.67199 4.10875,81.54604 -32.56737,100.23096 -18.346,9.34995 -43.09875,11.09808 -83.99842,10.84168 -41.0062,-0.25624 -101.6213,-2.57354 -187.2298,-1.84384 l 2.822,-5.88108"
       id="path58"
       style="fill:#000000;fill-opacity:1;fill-rule:nonzero;stroke:none" />
    <path
       d="m -1186.5442,344.86033 c 70.7549,0.58716 126.2915,2.1324 166.202,2.03478 40.20689,-0.0983 64.52177,-1.90913 75.49427,-7.49926 22.04075,-11.22802 30.79975,-38.19287 19.57237,-60.22833 -11.2275,-22.03642 -38.18912,-30.79697 -60.23462,-19.56958 -7.496,3.8189 -22.36402,22.40254 -27.92512,28.95313 -21.7063,27.24975 -28.1243,36.27434 -56.5335,51.57448 -47.8589,25.7749 -107.4963,5.38039 -132.0771,-42.85916 -24.611,-48.29545 -5.4067,-107.39452 42.895,-132.00082 24.1476,-12.30235 53.1573,-14.65612 104.0293,-14.31532 50.9214,0.3408 144.03554,3.7552 239.55592,2.44933 l -2.8825,5.88282 c -94.67638,1.0479 -185.77272,-2.11011 -236.71322,-2.45091 -50.9899,-0.34239 -78.6124,2.10534 -101.3188,13.67353 -45.408,23.1332 -63.461,78.69046 -40.3262,124.09148 23.165,45.45755 79.251,64.47722 124.0475,40.35092 27.6831,-14.90902 33.5516,-23.47385 54.8103,-50.16748 6.488,-7.64052 20.96267,-25.93655 29.76779,-30.42305 24.93913,-12.70207 55.43625,-2.79012 68.14463,22.13994 12.7085,24.93006 2.787,55.43655 -22.13625,68.13895 -12.51738,6.37509 -38.5235,8.04406 -78.15537,8.14057 -39.9265,0.0976 -98.2548,-1.46497 -169.0383,-2.0523 l 2.8219,-5.86372"
       id="path60"
       style="fill:#000000;fill-opacity:1;fill-rule:nonzero;stroke:none" />
    <path
       d="m -841.38068,206.56803 c -77.12663,-0.45705 -138.90438,-2.14036 -191.26372,-2.04323 -52.8198,0.0987 -89.4529,1.92538 -100.3953,7.49927 -22.0391,11.22738 -30.8012,38.19223 -19.5722,60.22833 11.229,22.0361 38.197,30.79761 60.2361,19.56958 7.4961,-3.8197 22.364,-22.40254 27.9267,-28.95313 21.7032,-27.24816 28.1227,-36.27466 56.5319,-51.57417 47.86052,-25.77521 107.50114,-5.38118 132.07389,42.85837 24.62075,48.29593 5.41463,107.39404 -42.887,132.00193 -24.04725,12.24502 -40.72112,14.65756 -79.65712,14.31405 -38.73047,-0.3408 -100.07187,-3.42332 -213.93187,-2.45219 l 2.884,-5.88124 c 113.9142,-0.97097 172.3492,2.11138 211.09887,2.45235 38.53462,0.33953 54.10962,-2.04801 76.93062,-13.67353 45.40325,-23.13288 63.46263,-78.68935 40.32313,-124.09068 -23.1555,-45.45899 -79.24463,-64.47707 -124.04442,-40.35171 -27.6846,14.90932 -33.5547,23.47877 -54.8087,50.16795 -6.4896,7.641 -20.9641,25.93654 -29.7693,30.4224 -24.9328,12.7024 -55.4426,2.79013 -68.1478,-22.13993 -12.7038,-24.9307 -2.7902,-55.43735 22.1426,-68.13942 12.5444,-6.39086 51.1347,-8.04231 103.0546,-8.13946 52.37702,-0.0971 115.70902,1.37436 194.09377,2.04163 l -2.81875,5.88283"
       id="path62"
       style="fill:#000000;fill-opacity:1;fill-rule:nonzero;stroke:none" />
  </g>
</svg>
