<?xml version="1.0" encoding="UTF-8" standalone="no"?>
<!-- Created with Inkscape (http://www.inkscape.org/) -->

<svg
   xmlns:dc="http://purl.org/dc/elements/1.1/"
   xmlns:cc="http://creativecommons.org/ns#"
   xmlns:rdf="http://www.w3.org/1999/02/22-rdf-syntax-ns#"
   xmlns:svg="http://www.w3.org/2000/svg"
   xmlns="http://www.w3.org/2000/svg"
   version="1.1"
   width="289.13498"
   height="158.21625"
   id="svg2">
  <defs
     id="defs4">
    <clipPath
       id="clipPath3039">
      <path
         d="M 0,1265.73 0,0 l 2313.08,0 0,1265.73 -2313.08,0 z"
         id="path3041" />
    </clipPath>
  </defs>
  <metadata
     id="metadata7">
    <rdf:RDF>
      <cc:Work
         rdf:about="">
        <dc:format>image/svg+xml</dc:format>
        <dc:type
           rdf:resource="http://purl.org/dc/dcmitype/StillImage" />
        <dc:title></dc:title>
      </cc:Work>
    </rdf:RDF>
  </metadata>
  <g
     transform="translate(-781.1468,-858.96835)"
     id="layer1">
    <g
       transform="matrix(1.25,0,0,-1.25,781.14677,1017.1846)"
       id="g3031">
      <g
         transform="scale(0.1,0.1)"
         id="g3033">
        <g
           id="g3035">
          <g
             clip-path="url(#clipPath3039)"
             id="g3037">
            <path
               d="M 2298.08,1250.73 2298.08,15"
               id="path3043"
               style="fill:none;stroke:#b62234;stroke-width:30;stroke-linecap:round;stroke-linejoin:miter;stroke-miterlimit:4;stroke-opacity:1;stroke-dasharray:none" />
            <path
               d="m 252.434,1047.82 c 0,27.29 -0.879,77.89 -8.364,91.1 -3.086,5.28 -11.004,8.36 -22.008,9.24 l -11,0.88 c -2.632,3.08 -1.753,8.8 0.879,10.56 16.719,-0.88 33.008,-1.31 50.168,-1.31 18.489,0 30.364,0.43 46.211,1.31 3.516,-2.2 3.075,-7.92 0.879,-10.56 l -10.566,-0.88 c -10.996,-0.88 -19.793,-4.84 -22,-10.56 -6.606,-14.52 -6.164,-65.13 -6.164,-89.78 l 0,-49.722 c 0,-38.286 -6.16,-78.77 -30.801,-105.176 -18.926,-20.684 -51.484,-32.125 -84.055,-32.125 -30.359,0 -60.7302,5.723 -82.2927,24.207 C 50,904.363 38.9922,936.488 38.9922,988.855 l 0,103.855 c 0,45.77 -0.8789,53.25 -26.3945,55.45 l -11.00395,0.88 c -2.63672,1.76 -1.761719,9.25 0.875,10.56 22.00395,-0.88 36.97655,-1.31 54.57035,-1.31 18.0507,0 32.5703,0.43 54.1329,1.31 2.637,-1.31 3.516,-8.8 0.879,-10.56 l -10.567,-0.88 c -25.5152,-2.2 -26.3942,-9.68 -26.3942,-55.45 l 0,-95.05 c 0,-70.851 22,-117.5 89.3242,-117.5 63.809,0 88.02,50.168 88.02,117.059 l 0,50.601"
               id="path3045"
               style="fill:#231f20;fill-opacity:1;fill-rule:nonzero;stroke:none" />
            <path
               d="m 520.051,922.57 c 0,-9.656 0,-47.968 0.965,-56.343 -0.645,-1.926 -2.578,-3.539 -6.114,-3.539 -3.867,5.472 -13.203,16.742 -41.211,48.617 l -74.699,84.996 c -8.687,9.979 -30.586,36.379 -37.344,43.469 l -0.64,0 c -1.289,-3.87 -1.613,-11.27 -1.613,-20.93 l 0,-70.192 c 0,-15.128 0.644,-56.984 5.793,-66.644 2.253,-3.539 8.367,-5.473 16.421,-6.117 l 9.985,-0.961 c 1.922,-2.578 1.597,-6.442 -0.649,-8.055 -14.492,0.645 -25.757,0.969 -37.675,0.969 -13.512,0 -22.208,-0.324 -33.473,-0.969 -2.258,1.613 -2.578,6.121 -0.649,8.055 l 8.696,0.961 c 7.398,0.644 12.554,2.898 14.16,6.441 4.512,11.59 4.187,50.867 4.187,66.32 l 0,93.052 c 0,9.01 -0.324,15.77 -7.082,23.18 -4.507,4.51 -12.234,6.76 -19.961,7.73 l -5.476,0.64 c -1.934,1.93 -1.934,6.76 0.644,8.05 13.528,-0.96 30.586,-0.96 36.387,-0.96 5.149,0 10.625,0.32 14.805,0.96 6.445,-16.42 44.758,-58.92 55.058,-70.84 l 31.231,-35.085 c 21.894,-25.113 37.988,-42.824 53.125,-58.277 l 0.644,0 c 1.282,1.613 1.282,6.761 1.282,13.523 l 0,68.899 c 0,15.13 -0.317,56.99 -6.438,66.64 -1.933,2.91 -7.082,4.84 -19.961,6.45 l -5.469,0.64 c -2.253,1.93 -1.933,7.09 0.633,8.05 14.817,-0.64 25.766,-0.96 38,-0.96 13.836,0 22.215,0.32 33.164,0.96 2.571,-1.61 2.571,-6.12 0.645,-8.05 l -4.512,-0.64 c -10.305,-1.61 -16.738,-4.19 -18.027,-6.76 -5.481,-11.6 -4.832,-51.51 -4.832,-66.33 l 0,-76.95"
               id="path3047"
               style="fill:#231f20;fill-opacity:1;fill-rule:nonzero;stroke:none" />
            <path
               d="m 598.953,1031.39 c 0,34.13 -0.641,39.61 -19.637,41.22 l -8.046,0.64 c -1.934,1.29 -1.29,7.09 0.644,8.05 16.094,-0.64 27.039,-0.96 40.566,-0.96 12.872,0 23.821,0.32 39.922,0.96 1.934,-0.96 2.578,-6.76 0.645,-8.05 L 645,1072.61 c -19.004,-1.61 -19.648,-7.09 -19.648,-41.22 l 0,-114.609 c 0,-34.133 0.644,-38.64 19.648,-40.894 l 8.047,-0.961 c 1.933,-1.289 1.289,-7.086 -0.645,-8.055 -16.101,0.645 -27.05,0.969 -39.922,0.969 -13.527,0 -24.472,-0.324 -40.566,-0.969 -1.934,0.969 -2.578,6.121 -0.644,8.055 l 8.046,0.961 c 18.996,2.254 19.637,6.761 19.637,40.894 l 0,114.609"
               id="path3049"
               style="fill:#231f20;fill-opacity:1;fill-rule:nonzero;stroke:none" />
            <path
               d="m 705.227,1046.2 c -7.407,18.03 -12.239,24.8 -26.086,26.41 l -5.789,0.64 c -2.258,1.93 -1.934,6.44 0.64,8.05 9.336,-0.64 19.641,-0.96 33.488,-0.96 14.161,0 25.43,0.32 38.958,0.96 2.253,-1.29 2.898,-6.12 0.64,-8.05 l -4.832,-0.64 c -12.234,-1.61 -14.805,-3.54 -15.129,-6.12 0.649,-3.22 6.113,-20.61 16.098,-45.08 14.812,-37.344 29.617,-74.367 45.723,-111.07 9.98,21.25 23.816,54.41 30.906,71.472 9.66,21.898 24.465,58.278 29.941,72.118 2.578,6.77 2.903,10.3 2.903,12.56 0,2.25 -3.223,4.83 -14.497,6.12 l -5.789,0.64 c -2.257,1.93 -1.609,6.76 0.633,8.05 9.027,-0.64 21.25,-0.96 33.488,-0.96 10.625,0 20.606,0.32 31.231,0.96 2.258,-1.29 2.258,-6.44 0.644,-8.05 l -9.66,-0.64 c -7.722,-0.65 -12.554,-4.51 -16.734,-11.27 -9.016,-15.14 -21.574,-41.22 -36.066,-74.051 l -17.383,-39.601 c -12.879,-29.626 -28.008,-66.973 -33.489,-84.032 -0.964,-0.644 -2.254,-0.968 -3.543,-0.968 -1.601,0 -3.211,0.324 -4.824,0.968 -3.547,13.52 -9.011,29.297 -14.812,42.821 l -56.66,139.723"
               id="path3051"
               style="fill:#231f20;fill-opacity:1;fill-rule:nonzero;stroke:none" />
            <path
               d="m 938.34,1032.04 c 0,33.48 -0.645,38.32 -19.641,40.57 l -5.152,0.64 c -1.926,1.29 -1.281,7.09 0.641,8.05 13.847,-0.64 24.796,-0.96 38,-0.96 l 60.522,0 c 20.61,0 39.6,0 43.47,0.96 1.93,-5.47 3.86,-28.66 5.15,-42.82 -1.29,-1.93 -6.44,-2.58 -8.05,-0.64 -4.83,15.12 -7.72,26.39 -24.47,30.58 -6.76,1.61 -17.06,1.94 -31.232,1.94 l -23.176,0 c -9.668,0 -9.668,-0.65 -9.668,-12.89 l 0,-64.384 c 0,-9.02 0.969,-9.02 10.625,-9.02 l 18.684,0 c 13.517,0 23.497,0.645 27.367,1.934 3.86,1.289 6.11,3.215 7.72,11.27 l 2.58,13.19 c 1.61,1.94 7.08,1.94 8.37,-0.32 0,-7.72 -1.29,-20.281 -1.29,-32.511 0,-11.59 1.29,-23.828 1.29,-30.906 -1.29,-2.258 -6.76,-2.258 -8.37,-0.325 l -2.9,12.555 c -1.29,5.797 -3.54,10.625 -9.98,12.235 -4.5,1.289 -12.24,1.613 -24.787,1.613 l -18.684,0 c -9.656,0 -10.625,-0.324 -10.625,-8.696 l 0,-45.394 c 0,-17.066 0.969,-28.012 6.125,-33.484 3.86,-3.868 10.625,-7.407 38.951,-7.407 24.8,0 34.14,1.289 41.22,4.828 5.8,3.223 14.49,14.489 22.86,31.231 2.25,1.613 6.75,0.644 8.04,-2.254 -2.25,-11.266 -10.3,-36.055 -14.49,-44.754 -28.97,0.645 -57.63,0.969 -86.28,0.969 l -28.972,0 c -13.848,0 -24.793,-0.324 -43.79,-0.969 -1.933,0.969 -2.578,6.121 -0.644,8.055 l 10.625,0.961 c 18.351,1.609 19.961,6.441 19.961,40.25 l 0,115.903"
               id="path3053"
               style="fill:#231f20;fill-opacity:1;fill-rule:nonzero;stroke:none" />
            <path
               d="m 1146.35,985.676 c 0,-5.797 0,-9.336 0.96,-10.625 0.97,-0.965 5.81,-1.61 22.22,-1.61 11.59,0 23.83,1.289 33.17,8.371 8.69,6.766 16.09,18.028 16.09,39.918 0,25.44 -15.77,49.59 -51.51,49.59 -19.97,0 -20.93,-1.29 -20.93,-10.3 l 0,-75.344 z m -26.4,46.034 c 0,30.59 -0.97,36.07 -14.17,37.68 l -10.3,1.29 c -2.25,1.6 -2.25,6.75 0.32,8.04 18.04,1.62 40.24,2.58 71.8,2.58 19.96,0 38.96,-1.61 53.77,-9.66 15.46,-8.05 26.73,-22.53 26.73,-45.07 0,-30.59 -24.15,-47.336 -40.26,-53.769 -1.6,-1.934 0,-5.153 1.61,-7.731 25.76,-41.531 42.83,-67.289 64.72,-85.64 5.47,-4.828 13.53,-8.371 22.22,-9.016 1.61,-0.641 1.93,-3.219 0.32,-4.508 -2.9,-0.961 -8.05,-1.605 -14.17,-1.605 -27.36,0 -43.79,8.047 -66.64,40.566 -8.37,11.914 -21.57,34.125 -31.55,48.613 -4.84,7.082 -9.98,10.301 -22.87,10.301 -14.49,0 -15.13,-0.32 -15.13,-7.078 l 0,-40.566 c 0,-33.809 0.64,-37.672 19.32,-40.25 l 6.76,-0.961 c 1.94,-1.614 1.29,-7.086 -0.64,-8.055 -14.5,0.645 -25.44,0.969 -38.31,0.969 -13.53,0 -25.12,-0.324 -40.25,-0.969 -1.93,0.969 -2.58,5.797 -0.64,8.055 l 8.04,0.961 c 18.68,2.254 19.32,6.441 19.32,40.25 l 0,115.573"
               id="path3055"
               style="fill:#231f20;fill-opacity:1;fill-rule:nonzero;stroke:none" />
            <path
               d="m 1358.54,862.688 c -27.04,0 -44.11,8.371 -50.22,11.914 -3.87,7.082 -8.05,29.941 -8.69,45.074 1.61,2.25 6.43,2.894 7.72,0.965 4.83,-16.418 18.03,-47.973 55.38,-47.973 27.05,0 40.25,17.711 40.25,37.027 0,14.164 -2.9,29.942 -26.41,45.075 l -30.58,19.96 c -16.1,10.625 -34.77,28.98 -34.77,55.38 0,30.59 23.82,55.37 65.67,55.37 9.99,0 21.58,-1.6 29.95,-4.18 4.19,-0.96 8.69,-1.93 11.27,-1.93 2.9,-7.73 5.8,-25.76 5.8,-39.28 -1.29,-1.93 -6.45,-2.9 -8.06,-0.97 -4.18,15.46 -12.87,36.38 -43.78,36.38 -31.55,0 -38.32,-20.92 -38.32,-35.73 0,-18.68 15.46,-31.88 27.37,-39.61 l 25.76,-16.094 c 20.28,-12.554 40.24,-31.23 40.24,-61.816 0,-35.414 -26.72,-59.562 -68.58,-59.562"
               id="path3057"
               style="fill:#231f20;fill-opacity:1;fill-rule:nonzero;stroke:none" />
            <path
               d="m 1478.65,1031.39 c 0,34.13 -0.64,39.61 -19.64,41.22 l -8.04,0.64 c -1.94,1.29 -1.29,7.09 0.64,8.05 16.1,-0.64 27.04,-0.96 40.57,-0.96 12.87,0 23.82,0.32 39.92,0.96 1.93,-0.96 2.58,-6.76 0.64,-8.05 l -8.04,-0.64 c -19.01,-1.61 -19.65,-7.09 -19.65,-41.22 l 0,-114.609 c 0,-34.133 0.64,-38.64 19.65,-40.894 l 8.04,-0.961 c 1.94,-1.289 1.29,-7.086 -0.64,-8.055 -16.1,0.645 -27.05,0.969 -39.92,0.969 -13.53,0 -24.47,-0.324 -40.57,-0.969 -1.93,0.969 -2.58,6.121 -0.64,8.055 l 8.04,0.961 c 19,2.254 19.64,6.761 19.64,40.894 l 0,114.609"
               id="path3059"
               style="fill:#231f20;fill-opacity:1;fill-rule:nonzero;stroke:none" />
            <path
               d="m 1664.76,916.137 c 0,-33.809 0.64,-38.317 19.32,-40.25 l 10.3,-0.961 c 1.93,-1.289 1.29,-7.086 -0.64,-8.055 -18.36,0.645 -29.3,0.969 -42.18,0.969 -12.88,0 -24.15,-0.324 -44.75,-0.969 -1.94,0.969 -2.58,6.441 0,8.055 l 11.59,0.961 c 18.35,1.609 19.96,6.441 19.96,40.25 l 0,143.913 c 0,9.98 0,10.31 -9.66,10.31 l -17.7,0 c -13.85,0 -31.56,-0.65 -39.6,-8.06 -7.74,-7.08 -10.95,-14.16 -14.5,-22.21 -2.57,-1.93 -7.08,-0.32 -8.36,2.25 5.14,14.49 9.98,35.09 12.23,47.98 0.96,0.64 5.15,0.96 6.11,0 1.94,-10.31 12.56,-9.98 27.37,-9.98 l 130.4,0 c 17.38,0 20.28,0.64 25.11,9.01 1.61,0.64 5.15,0.32 5.8,-0.97 -3.55,-13.2 -5.8,-39.27 -4.84,-48.93 -1.29,-2.58 -6.76,-2.58 -8.37,-0.65 -0.96,8.05 -3.22,19.96 -8.04,23.5 -7.42,5.48 -19.64,8.06 -37.36,8.06 l -22.85,0 c -9.66,0 -9.34,-0.33 -9.34,-10.95 l 0,-143.273"
               id="path3061"
               style="fill:#231f20;fill-opacity:1;fill-rule:nonzero;stroke:none" />
            <path
               d="m 1858.92,1111.24 c -0.33,9.34 6.76,17.06 16.42,17.06 9.34,0 15.45,-8.04 15.45,-16.09 0,-9.66 -6.11,-16.75 -15.45,-16.75 -9.33,0 -16.42,5.16 -16.42,15.78 z m -52.16,-140.052 c -2.57,-7.407 -2.25,-7.727 6.77,-7.727 l 39.6,0 c 9.33,0 9.98,1.289 7.08,9.98 l -17.39,52.479 c -2.58,7.73 -5.47,16.42 -7.4,20.28 l -0.64,0 c -0.97,-1.6 -4.19,-9.33 -7.74,-18.99 l -20.28,-56.022 z m -11.26,140.052 c -0.65,9.34 6.43,17.06 16.09,17.06 9.34,0 15.77,-8.04 15.77,-16.09 0,-9.66 -6.43,-16.75 -15.77,-16.75 -9.33,0 -16.09,5.16 -16.09,15.78 z m 75.01,-168.709 c -2.26,7.086 -3.54,8.055 -13.2,8.055 l -48.62,0 c -8.05,0 -9.98,-0.969 -12.23,-7.731 l -11.26,-33.804 c -4.84,-14.489 -7.09,-23.18 -7.09,-26.723 0,-3.863 1.61,-5.797 9.33,-6.441 l 10.63,-0.961 c 2.25,-1.614 2.25,-6.766 -0.65,-8.055 -8.37,0.645 -18.35,0.645 -33.47,0.969 -10.63,0 -22.22,-0.645 -30.91,-0.969 -1.94,1.289 -2.58,6.441 -0.65,8.055 l 10.63,0.961 c 7.72,0.644 14.8,4.187 19.31,15.777 5.8,14.813 14.81,35.734 28.33,71.797 l 32.85,86.929 c 4.5,11.59 6.43,17.71 5.46,22.86 7.74,2.25 13.21,8.05 16.75,12.23 1.93,0 4.18,-0.64 4.83,-2.89 4.19,-14.17 9.33,-28.98 14.17,-43.14 l 44.11,-129.434 c 9.33,-27.688 13.51,-32.52 27.36,-34.129 l 8.69,-0.961 c 2.26,-1.614 1.61,-6.766 0,-8.055 -13.2,0.645 -24.47,0.969 -38.95,0.969 -15.46,0 -27.69,-0.645 -37.03,-0.969 -2.57,1.289 -2.89,6.441 -0.65,8.055 l 9.35,0.961 c 6.76,0.644 11.26,2.578 11.26,5.797 0,3.543 -1.6,9.336 -4.18,17.062 l -14.17,43.785"
               id="path3063"
               style="fill:#231f20;fill-opacity:1;fill-rule:nonzero;stroke:none" />
            <path
               d="m 2039.25,916.137 c 0,-33.809 0.63,-38.317 19.31,-40.25 l 10.31,-0.961 c 1.92,-1.289 1.28,-7.086 -0.65,-8.055 -18.36,0.645 -29.29,0.969 -42.18,0.969 -12.88,0 -24.15,-0.324 -44.75,-0.969 -1.93,0.969 -2.58,6.441 0,8.055 l 11.59,0.961 c 18.35,1.609 19.96,6.441 19.96,40.25 l 0,143.913 c 0,9.98 0,10.31 -9.66,10.31 l -17.7,0 c -13.85,0 -31.55,-0.65 -39.6,-8.06 -7.74,-7.08 -10.95,-14.16 -14.49,-22.21 -2.58,-1.93 -7.08,-0.32 -8.37,2.25 5.14,14.49 9.98,35.09 12.23,47.98 0.97,0.64 5.15,0.96 6.12,0 1.93,-10.31 12.56,-9.98 27.36,-9.98 l 130.4,0 c 17.38,0 20.28,0.64 25.11,9.01 1.61,0.64 5.15,0.32 5.8,-0.97 -3.55,-13.2 -5.8,-39.27 -4.83,-48.93 -1.29,-2.58 -6.76,-2.58 -8.37,-0.65 -0.97,8.05 -3.23,19.96 -8.05,23.5 -7.41,5.48 -19.64,8.06 -37.35,8.06 l -22.86,0 c -9.65,0 -9.33,-0.33 -9.33,-10.95 l 0,-143.273"
               id="path3065"
               style="fill:#231f20;fill-opacity:1;fill-rule:nonzero;stroke:none" />
            <path
               d="m 97.1602,621.664 c -20.4922,0 -21.3399,-0.879 -21.3399,-14.082 l 0,-62.047 c 0,-46.207 2.1289,-52.367 26.0347,-55.012 l 12.375,-1.316 c 2.555,-1.762 1.708,-9.684 -0.851,-11 -23.047,0.879 -37.5587,1.316 -54.211,1.316 -18.3477,0 -32.8594,-0.878 -49.50003,-1.316 -2.56641,1.316 -3.41797,8.359 -0.85938,11 l 7.25781,1.316 c 23.9024,4.403 24.7539,8.805 24.7539,55.012 l 0,158.422 c 0,46.207 -2.9883,53.688 -25.1758,55.449 l -11.10153,0.879 c -2.5625,1.758 -1.71094,9.68 0.85547,11 20.91016,-0.437 35.42186,-1.32 53.76956,-1.32 16.6523,0 31.164,0.441 49.516,1.32 2.554,-1.32 3.406,-9.242 0.847,-11 l -8.105,-0.879 c -24.758,-2.64 -25.6057,-9.242 -25.6057,-55.449 l 0,-50.609 c 0,-13.637 0.8477,-14.082 21.3399,-14.082 l 122.0588,0 c 20.488,0 21.34,0.445 21.34,14.082 l 0,50.609 c 0,46.207 -0.852,52.809 -26.039,55.449 l -8.106,0.879 c -2.559,1.758 -1.707,9.68 0.852,11 19.636,-0.879 34.14,-1.32 51.64,-1.32 16.653,0 31.16,0.441 50.364,1.32 2.554,-1.32 3.418,-9.242 0.859,-11 l -8.969,-0.879 c -24.754,-2.64 -25.601,-9.242 -25.601,-55.449 l 0,-158.422 c 0,-46.207 0.847,-51.93 25.601,-55.012 l 10.246,-1.316 c 2.559,-1.762 1.707,-9.684 -0.859,-11 -20.481,0.879 -34.988,1.316 -51.641,1.316 -17.5,0 -32.859,-0.437 -51.64,-1.316 -2.559,1.316 -3.411,8.359 -0.852,11 l 8.106,1.316 c 26.039,3.524 25.187,8.805 26.039,55.012 l 0,62.047 c 0,13.203 -0.852,14.082 -21.34,14.082 l -122.0588,0"
               id="path3067"
               style="fill:#231f20;fill-opacity:1;fill-rule:nonzero;stroke:none" />
            <path
               d="m 361.16,643.723 c 0,33.488 -0.64,38.316 -19.637,40.566 l -5.156,0.645 c -1.926,1.289 -1.277,7.086 0.645,8.05 13.847,-0.644 24.797,-0.964 38,-0.964 l 60.523,0 c 20.61,0 39.602,0 43.469,0.964 1.926,-5.472 3.855,-28.656 5.144,-42.82 -1.289,-1.934 -6.433,-2.578 -8.043,-0.644 -4.835,15.132 -7.726,26.402 -24.472,30.585 -6.762,1.61 -17.063,1.934 -31.235,1.934 l -23.179,0 c -9.66,0 -9.66,-0.644 -9.66,-12.883 l 0,-64.386 c 0,-9.02 0.964,-9.02 10.625,-9.02 l 18.679,0 c 13.52,0 23.496,0.645 27.367,1.934 3.868,1.289 6.114,3.218 7.723,11.269 l 2.578,13.199 c 1.614,1.934 7.078,1.934 8.367,-0.324 0,-7.723 -1.289,-20.281 -1.289,-32.516 0,-11.589 1.289,-23.828 1.289,-30.906 -1.289,-2.258 -6.753,-2.258 -8.367,-0.32 l -2.898,12.551 c -1.289,5.797 -3.535,10.625 -9.985,12.238 -4.5,1.289 -12.234,1.609 -24.785,1.609 l -18.679,0 c -9.661,0 -10.625,-0.32 -10.625,-8.695 l 0,-45.394 c 0,-17.067 0.964,-28.008 6.125,-33.485 3.855,-3.867 10.625,-7.406 38.953,-7.406 24.797,0 34.133,1.289 41.211,4.832 5.793,3.215 14.492,14.484 22.863,31.226 2.254,1.614 6.758,0.649 8.047,-2.25 -2.258,-11.269 -10.305,-36.062 -14.492,-44.753 -28.977,0.644 -57.629,0.964 -86.282,0.964 l -28.972,0 c -13.852,0 -24.797,-0.32 -43.789,-0.964 -1.938,0.964 -2.578,6.117 -0.649,8.05 l 10.625,0.961 c 18.352,1.614 19.961,6.442 19.961,40.25 l 0,115.903"
               id="path3069"
               style="fill:#231f20;fill-opacity:1;fill-rule:nonzero;stroke:none" />
            <path
               d="m 560.801,643.078 c 0,34.133 -0.645,39.606 -19.641,41.211 l -8.047,0.645 c -1.929,1.289 -1.289,7.086 0.649,8.05 16.093,-0.644 27.039,-0.964 40.562,-0.964 12.871,0 23.821,0.32 39.922,0.964 1.938,-0.964 2.578,-6.761 0.649,-8.05 l -8.047,-0.645 c -19.004,-1.605 -19.653,-7.078 -19.653,-41.211 l 0,-114.617 c 0,-34.125 0.649,-38.633 19.653,-40.891 l 8.047,-0.961 c 1.929,-1.289 1.289,-7.086 -0.649,-8.05 -16.101,0.644 -27.051,0.964 -39.922,0.964 -13.523,0 -24.469,-0.32 -40.562,-0.964 -1.938,0.964 -2.578,6.117 -0.649,8.05 l 8.047,0.961 c 18.996,2.258 19.641,6.766 19.641,40.891 l 0,114.617"
               id="path3071"
               style="fill:#231f20;fill-opacity:1;fill-rule:nonzero;stroke:none" />
            <path
               d="m 707.629,535.223 c 0,-17.067 0.965,-27.368 6.441,-35.094 7.082,-9.981 19.321,-13.199 39.602,-13.199 62.461,0 90.469,40.89 90.469,100.773 0,35.414 -17.063,95.297 -101.414,95.297 -18.997,0 -29.297,-2.574 -31.875,-4.508 -2.582,-1.926 -3.223,-9.98 -3.223,-24.465 l 0,-118.804 z M 681.23,650.164 c 0,22.535 -1.613,29.297 -15.136,31.231 l -7.078,0.964 c -2.578,1.61 -2.903,6.758 0.32,8.047 27.363,1.614 53.445,2.578 80.809,2.578 27.05,0 49.906,-1.933 70.832,-9.66 43.464,-15.773 65.363,-52.476 65.363,-94.976 0,-40.887 -19.641,-75.981 -56.34,-95.942 -20.93,-11.269 -47.332,-15.461 -72.117,-15.461 -20.61,0 -41.211,2.578 -52.485,2.578 -13.523,0 -25.117,-0.32 -40.242,-0.964 -1.933,0.964 -2.578,6.117 -0.644,8.05 l 7.402,0.961 c 18.672,2.578 19.316,6.442 19.316,40.25 l 0,122.344"
               id="path3073"
               style="fill:#231f20;fill-opacity:1;fill-rule:nonzero;stroke:none" />
            <path
               d="m 931.094,643.723 c 0,33.488 -0.645,38.316 -19.641,40.566 l -5.152,0.645 c -1.926,1.289 -1.281,7.086 0.64,8.05 13.852,-0.644 24.797,-0.964 38,-0.964 l 60.529,0 c 20.6,0 39.6,0 43.47,0.964 1.92,-5.472 3.85,-28.656 5.14,-42.82 -1.29,-1.934 -6.43,-2.578 -8.04,-0.644 -4.84,15.132 -7.73,26.402 -24.48,30.585 -6.76,1.61 -17.06,1.934 -31.228,1.934 l -23.176,0 c -9.668,0 -9.668,-0.644 -9.668,-12.883 l 0,-64.386 c 0,-9.02 0.969,-9.02 10.625,-9.02 l 18.684,0 c 13.513,0 23.493,0.645 27.363,1.934 3.87,1.289 6.11,3.218 7.72,11.269 l 2.58,13.199 c 1.61,1.934 7.08,1.934 8.37,-0.324 0,-7.723 -1.29,-20.281 -1.29,-32.516 0,-11.589 1.29,-23.828 1.29,-30.906 -1.29,-2.258 -6.76,-2.258 -8.37,-0.32 l -2.9,12.551 c -1.29,5.797 -3.53,10.625 -9.98,12.238 -4.5,1.289 -12.232,1.609 -24.783,1.609 l -18.684,0 c -9.656,0 -10.625,-0.32 -10.625,-8.695 l 0,-45.394 c 0,-17.067 0.969,-28.008 6.125,-33.485 3.86,-3.867 10.625,-7.406 38.957,-7.406 24.79,0 34.13,1.289 41.21,4.832 5.8,3.215 14.49,14.484 22.86,31.226 2.26,1.614 6.76,0.649 8.05,-2.25 -2.26,-11.269 -10.31,-36.062 -14.49,-44.753 -28.98,0.644 -57.63,0.964 -86.282,0.964 l -28.977,0 c -13.847,0 -24.796,-0.32 -43.789,-0.964 -1.933,0.964 -2.578,6.117 -0.644,8.05 l 10.625,0.961 c 18.347,1.614 19.961,6.442 19.961,40.25 l 0,115.903"
               id="path3075"
               style="fill:#231f20;fill-opacity:1;fill-rule:nonzero;stroke:none" />
            <path
               d="m 1137.18,643.723 c 0,33.808 -0.65,38.961 -20.93,40.566 l -8.05,0.645 c -1.93,1.289 -1.29,7.086 0.65,8.05 18.03,-0.644 28.97,-0.964 41.85,-0.964 12.55,0 23.5,0.32 39.6,0.964 1.94,-0.964 2.58,-6.761 0.65,-8.05 l -7.73,-0.645 c -19,-1.605 -19.65,-6.758 -19.65,-40.566 l 0,-112.039 c 0,-20.286 0.97,-28.661 6.77,-34.774 3.54,-3.543 9.66,-7.406 35.09,-7.406 27.37,0 34.13,1.289 39.29,4.184 6.43,3.863 14.8,15.457 21.25,31.874 1.92,1.614 8.04,0.325 8.04,-1.933 0,-3.539 -9.01,-36.379 -13.52,-45.07 -16.42,0.644 -47,0.964 -80.17,0.964 l -29.62,0 c -13.52,0 -23.82,-0.32 -41.85,-0.964 -1.94,0.964 -2.58,6.117 -0.65,8.05 l 9.66,0.961 c 18.67,1.934 19.32,6.442 19.32,40.25 l 0,115.903"
               id="path3077"
               style="fill:#231f20;fill-opacity:1;fill-rule:nonzero;stroke:none" />
            <path
               d="m 1353.23,532.648 c 0,-11.589 0.65,-28.011 6.77,-35.097 6.11,-7.403 15.77,-9.012 25.43,-9.012 28.66,0 50.55,12.879 50.55,45.078 0,25.434 -12.87,55.051 -64.07,55.051 -17.39,0 -18.68,-1.934 -18.68,-8.371 l 0,-47.649 z m 0,74.692 c 0,-9.012 0.32,-9.656 16.75,-9.012 32.84,1.289 50.55,10.945 50.55,41.211 0,31.551 -23.51,43.461 -47.97,43.461 -7.09,0 -11.92,-0.641 -14.82,-1.93 -3.22,-0.965 -4.51,-2.578 -4.51,-8.371 l 0,-65.359 z m -26.39,42.824 c 0,23.824 -1.29,29.617 -15.78,31.231 l -10.3,0.964 c -2.58,1.93 -2.25,6.758 0.32,8.047 17.39,1.614 39.28,2.578 69.22,2.578 20.29,0 39.6,-1.609 54.09,-9.015 13.84,-6.758 24.47,-19.641 24.47,-40.246 0,-23.18 -13.53,-35.094 -32.84,-44.106 0,-3.222 2.57,-4.183 6.12,-4.828 17.38,-3.223 43.14,-19.324 43.14,-53.769 0,-37.352 -27.69,-62.461 -85.64,-62.461 -9.34,0 -25.12,0.964 -38.63,0.964 -14.17,0 -25.12,-0.644 -37.04,-0.964 -1.93,0.964 -2.57,6.117 -0.64,8.05 l 5.8,0.961 c 17.06,2.578 17.71,6.442 17.71,40.25 l 0,122.344"
               id="path3079"
               style="fill:#231f20;fill-opacity:1;fill-rule:nonzero;stroke:none" />
            <path
               d="m 1533.23,643.723 c 0,33.488 -0.64,38.316 -19.64,40.566 l -5.15,0.645 c -1.93,1.289 -1.28,7.086 0.64,8.05 13.85,-0.644 24.8,-0.964 38,-0.964 l 60.53,0 c 20.6,0 39.6,0 43.46,0.964 1.93,-5.472 3.86,-28.656 5.15,-42.82 -1.29,-1.934 -6.43,-2.578 -8.05,-0.644 -4.83,15.132 -7.72,26.402 -24.47,30.585 -6.76,1.61 -17.06,1.934 -31.23,1.934 l -23.18,0 c -9.66,0 -9.66,-0.644 -9.66,-12.883 l 0,-64.386 c 0,-9.02 0.97,-9.02 10.62,-9.02 l 18.69,0 c 13.51,0 23.49,0.645 27.36,1.934 3.87,1.289 6.11,3.218 7.72,11.269 l 2.58,13.199 c 1.61,1.934 7.08,1.934 8.37,-0.324 0,-7.723 -1.29,-20.281 -1.29,-32.516 0,-11.589 1.29,-23.828 1.29,-30.906 -1.29,-2.258 -6.76,-2.258 -8.37,-0.32 l -2.9,12.551 c -1.29,5.797 -3.53,10.625 -9.98,12.238 -4.5,1.289 -12.24,1.609 -24.78,1.609 l -18.69,0 c -9.65,0 -10.62,-0.32 -10.62,-8.695 l 0,-45.394 c 0,-17.067 0.97,-28.008 6.12,-33.485 3.86,-3.867 10.63,-7.406 38.96,-7.406 24.79,0 34.13,1.289 41.21,4.832 5.79,3.215 14.49,14.484 22.86,31.226 2.26,1.614 6.76,0.649 8.05,-2.25 -2.26,-11.269 -10.31,-36.062 -14.5,-44.753 -28.97,0.644 -57.62,0.964 -86.28,0.964 l -28.97,0 c -13.85,0 -24.79,-0.32 -43.79,-0.964 -1.93,0.964 -2.58,6.117 -0.64,8.05 l 10.62,0.961 c 18.35,1.614 19.96,6.442 19.96,40.25 l 0,115.903"
               id="path3081"
               style="fill:#231f20;fill-opacity:1;fill-rule:nonzero;stroke:none" />
            <path
               d="m 1759.27,597.359 c 0,-5.793 0,-9.336 0.96,-10.625 0.97,-0.964 5.81,-1.605 22.22,-1.605 11.59,0 23.83,1.285 33.17,8.371 8.69,6.762 16.09,18.027 16.09,39.922 0,25.433 -15.77,49.578 -51.51,49.578 -19.97,0 -20.93,-1.285 -20.93,-10.301 l 0,-75.34 z m -26.4,46.043 c 0,30.586 -0.97,36.059 -14.17,37.668 l -10.3,1.289 c -2.25,1.61 -2.25,6.758 0.32,8.047 18.04,1.614 40.24,2.578 71.8,2.578 19.96,0 38.96,-1.609 53.77,-9.66 15.46,-8.047 26.73,-22.535 26.73,-45.074 0,-30.586 -24.15,-47.328 -40.26,-53.766 -1.6,-1.933 0,-5.148 1.61,-7.73 25.76,-41.531 42.83,-67.289 64.72,-85.637 5.48,-4.832 13.53,-8.375 22.22,-9.015 1.61,-0.645 1.93,-3.223 0.32,-4.512 -2.9,-0.961 -8.05,-1.606 -14.17,-1.606 -27.36,0 -43.79,8.047 -66.64,40.567 -8.38,11.91 -21.57,34.125 -31.55,48.613 -4.84,7.086 -9.98,10.301 -22.87,10.301 -14.49,0 -15.13,-0.32 -15.13,-7.078 l 0,-40.567 c 0,-33.808 0.64,-37.672 19.32,-40.25 l 6.76,-0.961 c 1.94,-1.609 1.29,-7.086 -0.64,-8.05 -14.5,0.644 -25.44,0.964 -38.31,0.964 -13.53,0 -25.12,-0.32 -40.25,-0.964 -1.93,0.964 -2.58,5.793 -0.64,8.05 l 8.04,0.961 c 18.68,2.258 19.32,6.442 19.32,40.25 l 0,115.582"
               id="path3083"
               style="fill:#231f20;fill-opacity:1;fill-rule:nonzero;stroke:none" />
            <path
               d="m 2114.42,512.367 c 0,-12.883 1.94,-20.605 7.73,-22.863 0.97,-0.965 0.97,-2.895 -0.32,-3.863 -3.87,0 -9.66,-1.289 -15.78,-2.899 -17.07,-4.508 -40.25,-8.367 -57.63,-8.367 -38.31,0 -73.41,10.625 -98.2,35.734 -19.31,19.317 -29.61,44.75 -29.61,73.086 0,27.367 9.01,55.055 28.97,76.305 21.57,22.539 53.45,37.672 102.06,37.672 18.35,0 35.41,-3.547 40.89,-4.832 6.11,-1.289 16.09,-3.543 19.96,-2.899 0,-10.625 1.93,-27.363 4.82,-46.683 -0.95,-2.574 -6.75,-2.899 -8.69,-0.969 -9.01,34.777 -33.15,45.723 -65.99,45.723 -62.46,0 -89.84,-44.434 -89.84,-92.723 0,-61.816 31.88,-110.437 96.59,-110.437 19.97,0 31.88,4.187 35.42,9.66 1.61,2.254 3.22,8.05 3.22,18.355 l 0,12.875 c 0,27.047 -0.97,28.981 -20.93,31.231 l -14.16,1.613 c -2.58,1.281 -2.26,7.078 0,8.043 9.34,-0.645 27.04,-0.965 46.03,-0.965 12.56,0 23.51,0.32 34.14,0.965 2.25,-1.289 2.57,-6.117 0.32,-8.043 l -5.16,-0.648 c -13.51,-1.61 -13.84,-10.626 -13.84,-27.043 l 0,-18.028"
               id="path3085"
               style="fill:#231f20;fill-opacity:1;fill-rule:nonzero;stroke:none" />
            <path
               d="m 20.2812,108.91 0,19.16 94.4258,159.559 -89.5898,0 0,18.586 114.0548,0 0,-19.16 -94.1408,-159.555 98.1208,0 0,-18.59 -122.8708,0"
               id="path3087"
               style="fill:#9c9a9b;fill-opacity:1;fill-rule:nonzero;stroke:none" />
            <path
               d="m 252.617,108.91 0,31.449 -0.566,0 c -6.25,-20.871 -18.77,-34.597 -42.09,-34.597 -23.899,0 -34.707,20.308 -34.707,42.039 l 0,97.219 19.348,0 0,-75.489 c 0,-15.441 -2.278,-44.32 19.91,-44.32 27.019,0 38.105,42.32 38.105,63.769 l 0,56.04 19.348,0 0,-136.11 -19.348,0"
               id="path3089"
               style="fill:#9c9a9b;fill-opacity:1;fill-rule:nonzero;stroke:none" />
            <path
               d="m 388.84,108.91 -52.617,72.629 -0.578,0 0,-72.629 -19.336,0 0,197.305 19.336,0 0,-118.664 0.578,0 46.922,57.469 23.613,0 -48.645,-60.329 54.614,-75.781 -23.887,0"
               id="path3091"
               style="fill:#9c9a9b;fill-opacity:1;fill-rule:nonzero;stroke:none" />
            <path
               d="m 517.09,108.91 0,31.449 -0.574,0 c -6.262,-20.871 -18.774,-34.597 -42.09,-34.597 -23.899,0 -34.699,20.308 -34.699,42.039 l 0,97.219 19.335,0 0,-75.489 c 0,-15.441 -2.277,-44.32 19.915,-44.32 27.019,0 38.113,42.32 38.113,63.769 l 0,56.04 19.336,0 0,-136.11 -19.336,0"
               id="path3093"
               style="fill:#9c9a9b;fill-opacity:1;fill-rule:nonzero;stroke:none" />
            <path
               d="m 664.102,108.91 0,75.488 c 0,15.442 2.277,44.321 -19.914,44.321 -27.02,0 -38.387,-42.321 -38.387,-63.77 l 0,-56.039 -19.348,0 0,136.11 19.348,0 0,-31.45 0.566,0 c 6.824,20.871 18.77,34.602 42.371,34.602 23.899,0 34.707,-20.594 34.707,-42.043 l 0,-97.219 -19.343,0"
               id="path3095"
               style="fill:#9c9a9b;fill-opacity:1;fill-rule:nonzero;stroke:none" />
            <path
               d="m 787.812,290.773 c -30.722,0 -28.449,-22.304 -28.449,-45.753 l 38.965,0 0,-16.301 -38.965,0 0,-119.809 -19.343,0 0,119.809 -22.754,0 0,16.301 22.754,0 0,18.871 c 0,28.312 16.218,43.183 44.375,43.183 7.675,0 15.363,-0.859 23.039,-2.574 l 0,-17.445 c -6.543,2.289 -12.805,3.718 -19.622,3.718"
               id="path3097"
               style="fill:#9c9a9b;fill-opacity:1;fill-rule:nonzero;stroke:none" />
            <path
               d="m 853.77,228.719 0,-83.778 c 0,-14.589 6.828,-22.882 22.175,-22.882 5.41,0 8.254,0.863 13.086,2.582 l 0,-17.45 c -5.679,-0.851 -11.375,-1.429 -17.058,-1.429 -25.313,0 -37.547,8.867 -37.547,35.179 l 0,87.778 -22.192,0 0,16.301 22.192,0 0,31.742 19.344,12.293 0,-44.035 36.406,0 0,-16.301 -36.406,0"
               id="path3099"
               style="fill:#9c9a9b;fill-opacity:1;fill-rule:nonzero;stroke:none" />
            <path
               d="m 915.176,108.91 28.4453,0 0,28.5898 -28.4453,0 0,-28.5898 z"
               id="path3101"
               style="fill:#9c9a9b;fill-opacity:1;fill-rule:nonzero;stroke:none" />
            <path
               d="m 1108.84,105.762 c -15.36,0 -30.44,2.578 -45.23,6.008 l 0,22.878 c 15.08,-6.296 31.29,-10.296 47.79,-10.296 21.04,0 42.37,9.718 42.37,33.738 0,22.019 -15.92,30.308 -32.71,39.75 l -17.35,9.719 c -21.61,12.011 -42.37,22.589 -42.37,51.191 0,36.883 31,50.609 63.14,50.609 13.94,0 27.31,-2.285 40.96,-5.148 l 0,-22.016 c -13.09,5.434 -28.73,8.578 -42.95,8.578 -18.78,0 -36.98,-8.867 -36.98,-30.023 0,-18.02 19.06,-27.738 32.71,-35.172 l 18.21,-10.008 c 23.03,-12.582 41.52,-24.879 41.52,-54.332 0,-41.468 -32.99,-55.476 -69.11,-55.476"
               id="path3103"
               style="fill:#9c9a9b;fill-opacity:1;fill-rule:nonzero;stroke:none" />
            <path
               d="m 1256.14,231.871 c -15.93,0 -25.59,-10.871 -28.44,-25.742 l 54.32,0 c 0,14.871 -11.09,25.742 -25.88,25.742 z m -29.86,-42.039 0,-8.012 c 0,-29.73 14.78,-59.761 48.07,-59.761 9.38,0 17.63,1.429 26.73,3.722 l 0,-16.011 c -9.96,-3.149 -20.47,-4.008 -31,-4.008 -46.94,0 -65.99,31.738 -65.99,75.777 0,35.461 13.09,66.633 52.9,66.633 31.57,0 47.22,-21.742 47.22,-51.762 l 0,-6.578 -77.93,0"
               id="path3105"
               style="fill:#9c9a9b;fill-opacity:1;fill-rule:nonzero;stroke:none" />
            <path
               d="m 1344.57,108.91 0,136.11 19.34,0 0,-136.11 -19.34,0 z m -3.13,171.57 0,25.735 25.6,0 0,-25.735 -25.6,0"
               id="path3107"
               style="fill:#9c9a9b;fill-opacity:1;fill-rule:nonzero;stroke:none" />
            <path
               d="m 1443.54,228.719 0,-83.778 c 0,-14.589 6.82,-22.882 22.17,-22.882 5.41,0 8.25,0.863 13.09,2.582 l 0,-17.45 c -5.68,-0.851 -11.38,-1.429 -17.06,-1.429 -25.31,0 -37.55,8.867 -37.55,35.179 l 0,87.778 -22.19,0 0,16.301 22.19,0 0,31.742 19.35,12.293 0,-44.035 36.4,0 0,-16.301 -36.4,0"
               id="path3109"
               style="fill:#9c9a9b;fill-opacity:1;fill-rule:nonzero;stroke:none" />
            <path
               d="m 1603.07,108.91 0,159.27 -34.13,-23.16 0,21.73 37.25,23.453 18.2,0 0,-181.293 -21.32,0"
               id="path3111"
               style="fill:#9c9a9b;fill-opacity:1;fill-rule:nonzero;stroke:none" />
            <path
               d="m 1728.75,105.762 c -26.73,0 -53.18,10.867 -55.46,40.886 l 24.75,0 c 2.27,-16.867 12.51,-24.589 29.58,-24.589 23.6,0 33.28,12.011 33.28,35.171 0,28.598 -13.95,38.04 -40.39,38.04 l 0,16.289 c 23.6,0 37.25,8.011 37.25,33.171 0,18.59 -7.67,32.317 -27.58,32.317 -15.37,0 -29.3,-6.863 -29.87,-23.738 l -23.88,0 c 0,5.722 1.7,11.73 4.55,16.589 9.66,17.442 29,23.45 47.77,23.45 29.87,0 51.2,-17.16 51.2,-48.328 0,-17.161 -10.81,-38.321 -29.3,-40.891 l 0,-0.57 c 24.47,-5.43 32.43,-24.59 32.43,-48.329 0,-33.46 -23.04,-49.468 -54.33,-49.468"
               id="path3113"
               style="fill:#9c9a9b;fill-opacity:1;fill-rule:nonzero;stroke:none" />
            <path
               d="m 1878.33,277.047 c -20.2,0 -30.43,-14.586 -30.43,-33.746 0,-20.871 10.81,-32.59 31.86,-32.59 19.62,0 29.58,13.437 29.58,32.309 0,20.589 -9.67,34.027 -31.01,34.027 z m 0,-82.637 c -21.89,0 -34.13,-13.73 -34.13,-35.461 0,-23.449 10.81,-36.89 34.99,-36.89 24.45,0 33.55,13.16 33.55,36.601 0,22.309 -11.66,35.75 -34.41,35.75 z m 0,-88.648 c -34.13,0 -56.32,15.437 -56.32,51.758 0,22.878 11.39,39.75 33.85,44.609 l 0,0.57 c -21.9,6.571 -30.15,21.731 -30.15,44.321 0,31.46 24.47,46.328 53.2,46.328 28.15,0 52.61,-15.157 52.61,-45.746 0,-19.743 -9.39,-40.903 -30.44,-44.903 l 0,-0.57 c 22.19,-4.289 33.85,-23.731 33.85,-45.469 0,-35.738 -23.04,-50.898 -56.6,-50.898"
               id="path3115"
               style="fill:#9c9a9b;fill-opacity:1;fill-rule:nonzero;stroke:none" />
            <path
               d="m 2031.04,201.84 c -23.33,0 -34.7,-18.301 -34.7,-40.031 0,-22.02 11.94,-39.75 35.27,-39.75 24.74,0 32.71,17.16 32.71,39.472 0,22.867 -7.97,40.309 -33.28,40.309 z m 0.57,-96.078 c -56.03,0 -60.87,49.187 -60.87,93.508 0,43.46 6.83,94.078 61.44,94.078 19.91,0 38.4,-7.149 46.92,-26.02 1.99,-4.578 3.42,-9.437 3.42,-14.297 l -24.75,0 c 0,14.578 -12.51,24.016 -26.44,24.016 -38.69,0 -38.4,-53.188 -38.4,-80.348 l 0.57,0 c 9.38,14.582 26.44,21.442 43.23,21.442 33.85,0 49.77,-24.879 49.77,-56.61 0,-33.179 -21.62,-55.769 -54.89,-55.769"
               id="path3117"
               style="fill:#9c9a9b;fill-opacity:1;fill-rule:nonzero;stroke:none" />
            <path
               d="m 2113.2,108.91 28.4492,0 0,28.5898 -28.4492,0 0,-28.5898 z"
               id="path3119"
               style="fill:#9c9a9b;fill-opacity:1;fill-rule:nonzero;stroke:none" />
          </g>
        </g>
      </g>
    </g>
  </g>
</svg>
