<?xml version="1.0" encoding="UTF-8" standalone="no"?>
<!-- Created with Inkscape (http://www.inkscape.org/) -->

<svg
   xmlns:osb="http://www.openswatchbook.org/uri/2009/osb"
   xmlns:dc="http://purl.org/dc/elements/1.1/"
   xmlns:cc="http://creativecommons.org/ns#"
   xmlns:rdf="http://www.w3.org/1999/02/22-rdf-syntax-ns#"
   xmlns:svg="http://www.w3.org/2000/svg"
   xmlns="http://www.w3.org/2000/svg"
   xmlns:sodipodi="http://sodipodi.sourceforge.net/DTD/sodipodi-0.dtd"
   xmlns:inkscape="http://www.inkscape.org/namespaces/inkscape"
   width="744.09448"
   height="1052.3622"
   id="svg2"
   version="1.1"
   inkscape:version="0.48.0 r9654"
   sodipodi:docname="draft.eps">
  <defs
     id="defs4">
    <linearGradient
       id="linearGradient5362"
       osb:paint="solid">
      <stop
         style="stop-color:#e6e6e6;stop-opacity:1;"
         offset="0"
         id="stop5364" />
    </linearGradient>
  </defs>
  <sodipodi:namedview
     id="base"
     pagecolor="#ffffff"
     bordercolor="#666666"
     borderopacity="1.0"
     inkscape:pageopacity="0.0"
     inkscape:pageshadow="2"
     inkscape:zoom="256"
     inkscape:cx="-0.27607385"
     inkscape:cy="0.82933029"
     inkscape:document-units="px"
     inkscape:current-layer="layer1"
     showgrid="false"
     inkscape:window-width="1920"
     inkscape:window-height="1123"
     inkscape:window-x="0"
     inkscape:window-y="25"
     inkscape:window-maximized="1"
     fit-margin-top="0"
     fit-margin-left="0"
     fit-margin-right="0"
     fit-margin-bottom="0" />
  <metadata
     id="metadata7">
    <rdf:RDF>
      <cc:Work
         rdf:about="">
        <dc:format>image/svg+xml</dc:format>
        <dc:type
           rdf:resource="http://purl.org/dc/dcmitype/StillImage" />
        <dc:title></dc:title>
      </cc:Work>
    </rdf:RDF>
  </metadata>
  <g
     inkscape:label="Layer 1"
     inkscape:groupmode="layer"
     id="layer1"
     transform="translate(-70.550234,95.503921)">
    <g
       transform="matrix(1.1080277,-2.2248859,2.2248859,1.1080277,-912.74423,659.81281)"
       style="font-size:144px;font-style:normal;font-weight:normal;line-height:125%;letter-spacing:0px;word-spacing:0px;fill:#e6e6e6;fill-opacity:1;stroke:none;font-family:Sans"
       id="flowRoot2985">
      <path
         d="m 132.21475,483.91875 c 3.6,0 6.912,0.288 9.936,0.288 14.68799,0 24.76801,-2.73601 32.256,-10.512 7.48799,-7.77599 11.664,-18.72001 11.664,-31.392 0,-25.91997 -15.26402,-41.76 -38.304,-41.76 -2.736,0 -7.92001,0 -15.552,0 l -11.088,0 c -5.61599,0 -8.352,0.288 -8.352,5.04 0,3.888 2.016,5.04 6.768,5.04 0.576,0 1.152,0 1.728,0 l 0,63.36 c -0.72,0 -1.296,0 -1.872,0 -4.752,0 -6.624,1.008 -6.624,4.896 0,3.312 1.728,5.04 5.184,5.04 1.44,0 2.304,0 3.168,0 l 11.088,0 m 0,-9.936 0,-63.36 c 2.88,-0.288 5.616,-0.288 8.208,-0.288 23.61598,0 33.984,9.50402 33.984,31.968 0,22.17598 -10.36802,32.112 -33.408,32.112 -2.736,0 -5.76,-0.144 -8.784,-0.432"
         style="font-variant:normal;font-stretch:normal;fill:#e6e6e6;font-family:Courier 10 Pitch;-inkscape-font-specification:Courier 10 Pitch"
         id="path3070"
         inkscape:connector-curvature="0" />
      <path
         d="m 228.77575,473.98275 0,-29.088 c 9.35999,-10.65599 17.28001,-16.272 25.056,-16.272 5.47199,0 8.496,4.32 12.24,4.32 3.024,0 6.192,-3.168 6.192,-6.624 0,-5.18399 -5.18401,-9.072 -13.968,-9.072 -11.23199,0 -20.73601,5.47201 -29.52,16.56 l 0,-11.952 c 0,-2.016 -1.296,-2.88 -3.888,-2.88 l -15.984,0 c -3.744,0 -5.616,1.584 -5.616,4.896 0,3.6 2.016,5.04 6.624,5.04 0.72,0 2.016,0 3.6,0 l 4.752,0 0,45.072 -12.384,0 c -3.888,0 -5.904,1.584 -5.904,4.896 0,3.312 2.016,5.04 5.76,5.04 l 45.936,0 c 4.176,0 5.76,-1.008 5.76,-5.04 0,-3.456 -1.728,-4.896 -5.328,-4.896 l -23.328,0"
         style="font-variant:normal;font-stretch:normal;fill:#e6e6e6;font-family:Courier 10 Pitch;-inkscape-font-specification:Courier 10 Pitch"
         id="path3072"
         inkscape:connector-curvature="0" />
      <path
         d="m 338.29675,474.99075 0.72,4.32 c 0.576,3.024 2.304,4.608 4.896,4.608 l 11.088,0 c 3.744,0 5.616,-1.728 5.616,-5.04 0,-4.176 -2.44801,-4.896 -8.352,-4.896 l -3.6,0 0,-31.824 c 0,-16.99198 -8.35202,-24.912 -26.352,-24.912 -15.83998,0 -26.208,5.04 -26.208,9.936 0,3.6 2.16,5.904 4.752,5.904 5.47199,0 11.23201,-5.904 21.168,-5.904 10.79999,0 15.84,5.04001 15.84,15.84 0,0.144 0,0.288 0,0.432 -5.75999,-1.44 -11.23201,-2.16 -16.704,-2.16 -20.87998,0 -32.544,8.78401 -32.544,23.328 0,12.38399 9.21601,21.024 23.328,21.024 9.64799,0 18.72001,-3.74401 26.352,-10.656 m -0.432,-22.176 0,7.632 c 0,6.33599 -11.52001,14.4 -24.192,14.4 -8.20799,0 -13.824,-4.75201 -13.824,-10.944 0,-7.91999 8.20801,-13.536 23.184,-13.536 5.18399,0 10.08,0.864 14.832,2.448"
         style="font-variant:normal;font-stretch:normal;fill:#e6e6e6;font-family:Courier 10 Pitch;-inkscape-font-specification:Courier 10 Pitch"
         id="path3074"
         inkscape:connector-curvature="0" />
      <path
         d="m 430.53775,473.83875 -23.04,0 0,-42.912 24.48,0 c 3.6,0 5.616,-1.872 5.616,-5.184 0,-3.312 -2.016,-5.04 -5.904,-5.04 l -24.624,0 c -0.144,-1.44 -0.144,-2.736 -0.144,-4.032 0,-10.07999 4.17601,-14.4 14.832,-14.4 6.19199,0 10.944,1.728 14.4,1.728 3.312,0 5.76,-2.016 5.76,-5.04 0,-5.03999 -5.18401,-7.2 -15.408,-7.2 -21.45598,0 -30.816,7.05602 -30.816,23.904 0,1.584 0.144,3.312 0.288,5.04 l -11.232,0 c -3.744,0 -5.616,1.728 -5.616,5.04 0,3.312 1.872,5.184 5.76,5.184 l 11.664,0 0,42.912 -11.952,0 c -3.6,0 -5.616,1.728 -5.616,5.04 0,3.312 2.016,5.04 5.904,5.04 l 45.936,0 c 3.744,0 5.616,-1.728 5.616,-5.04 0,-3.312 -2.016,-5.04 -5.904,-5.04"
         style="font-variant:normal;font-stretch:normal;fill:#e6e6e6;font-family:Courier 10 Pitch;-inkscape-font-specification:Courier 10 Pitch"
         id="path3076"
         inkscape:connector-curvature="0" />
      <path
         d="m 514.71475,422.86275 -27.648,0 0,-14.256 c 0,-6.91199 -0.57601,-9.792 -5.616,-9.792 -3.744,0 -5.472,2.016 -5.472,5.904 0,1.872 0,3.168 0,3.744 l 0,14.4 -7.776,0 c -6.76799,0 -9.648,0.432 -9.648,5.04 0,3.456 1.728,4.896 5.616,4.896 l 11.808,0 0,23.472 c 0,0.72 0,1.44 0,2.16 0,6.47999 0.144,12.096 2.592,16.272 4.032,7.05599 11.52001,10.512 22.32,10.512 6.62399,0 13.96801,-1.872 22.752,-5.328 5.18399,-2.016 7.776,-4.032 7.776,-7.344 0,-2.592 -2.304,-5.04 -4.896,-5.04 -5.61599,0 -14.97601,7.488 -26.352,7.488 -12.38399,0 -13.248,-7.48801 -13.248,-18.72 l 0,-23.472 28.512,0 c 3.888,0 5.904,-1.584 5.904,-4.896 0,-3.6 -2.16,-5.04 -6.624,-5.04"
         style="font-variant:normal;font-stretch:normal;fill:#e6e6e6;font-family:Courier 10 Pitch;-inkscape-font-specification:Courier 10 Pitch"
         id="path3078"
         inkscape:connector-curvature="0" />
    </g>
    <rect
       style="fill:#000000;fill-opacity:0.07692309;stroke:none"
       id="rect3156"
       width="0.171875"
       height="0.16796875"
       x="70.550232"
       y="-95.501114" />
    <rect
       style="fill:#000000;fill-opacity:0.07692309;stroke:none"
       id="rect3156-7"
       width="0.171875"
       height="0.16796875"
       x="814.47211"
       y="-95.499161" />
    <rect
       style="fill:#000000;fill-opacity:0.07692309;stroke:none"
       id="rect3156-7-8"
       width="0.171875"
       height="0.16796875"
       x="814.4682"
       y="956.68445" />
    <rect
       style="fill:#000000;fill-opacity:0.07692309;stroke:none"
       id="rect3156-7-2"
       width="0.171875"
       height="0.16796875"
       x="70.550232"
       y="956.68445" />
  </g>
</svg>
