<?xml version="1.0" encoding="UTF-8" standalone="no"?>
<!-- Created with Inkscape (http://www.inkscape.org/) -->

<svg
   xmlns:dc="http://purl.org/dc/elements/1.1/"
   xmlns:cc="http://creativecommons.org/ns#"
   xmlns:rdf="http://www.w3.org/1999/02/22-rdf-syntax-ns#"
   xmlns:svg="http://www.w3.org/2000/svg"
   xmlns="http://www.w3.org/2000/svg"
   version="1.1"
   width="538.24054"
   height="589.75018"
   id="svg2">
  <defs
     id="defs4" />
  <metadata
     id="metadata7">
    <rdf:RDF>
      <cc:Work
         rdf:about="">
        <dc:format>image/svg+xml</dc:format>
        <dc:type
           rdf:resource="http://purl.org/dc/dcmitype/StillImage" />
        <dc:title></dc:title>
      </cc:Work>
    </rdf:RDF>
  </metadata>
  <g
     transform="translate(-93.292985,-260.61252)"
     id="layer1">
    <path
       d="m 339.16389,849.8092 c -1.375,-0.19862 -6.55,-0.84847 -11.5,-1.44411 -15.975,-1.92229 -48.276,-10.24669 -60,-15.46281 -1.65,-0.7341 -5.925,-2.53165 -9.5,-3.99455 -16.66354,-6.81877 -43.76562,-22.14549 -43.22522,-24.44465 0.15112,-0.64298 -0.20678,-0.87143 -0.79534,-0.50768 -1.40484,0.86823 -14.68049,-9.17256 -23.30038,-17.6228 -6.08725,-5.96746 -6.78641,-7.04721 -6.5,-10.03831 0.52407,-5.47298 3.2281,-4.84709 15.93801,3.68917 6.26061,4.20476 12.06306,8.39072 12.89433,9.30213 3.29044,3.60763 10.92276,9.1571 12.59399,9.1571 2.52722,0 -2.73735,-5.38217 -8.60539,-8.79762 -5.79023,-3.37015 -17.70896,-11.81621 -21.25,-15.05854 -5.59353,-5.12169 -2.53792,-6.60772 6.36845,-3.09715 10.67362,4.20715 21.23182,11.29337 51.78165,34.75368 4.6094,3.5397 12.9537,8.19963 14.6828,8.19963 0.2294,0 0.4171,-0.70422 0.4171,-1.56492 0,-2.5427 -9.7544,-11.29551 -19.9799,-17.92841 -11.7646,-7.63123 -23.7508,-14.36282 -40.0201,-22.47576 -15.48643,-7.72255 -18,-9.90561 -18,-15.63316 l 0,-4.22807 11.75,6.02258 c 47.1154,24.14947 60.7716,31.83195 79.4629,44.70283 17.9981,12.3935 32.3469,21.91576 37.7871,25.07659 l 5.5,3.19556 -7,-7.20826 c -6.6406,-6.83817 -6.8415,-7.17913 -3.9119,-6.641 13.4148,2.46418 42.0158,1.55125 58.3263,-1.86174 20.3316,-4.25442 49.1294,-16.32527 55.0587,-23.07838 3.858,-4.394 3.8036,-6.07298 -0.3736,-11.54373 -5.1311,-6.72003 -36.2739,-32.83413 -39.1569,-32.83413 -0.3651,0 -3.6405,-2.08085 -7.2786,-4.6241 -8.5911,-6.00557 -6.5634,-3.68179 7.7301,8.85901 23.4344,20.56083 34.3882,31.76945 35.5428,36.36953 1.374,5.47474 -6.9835,10.66169 -28.7683,17.85449 -23.3737,7.71741 -46.2835,10.66401 -66.8776,8.60164 -22.4179,-2.24504 -28.1893,-4.92307 -65.469,-30.37925 -7.7979,-5.32472 -14.4158,-9.68132 -14.7065,-9.68132 -0.2908,0 -9.88568,-5.07589 -21.32207,-11.27976 -11.43638,-6.20387 -22.06577,-11.92355 -23.62086,-12.71042 -1.55508,-0.78686 -3.24643,-2.21357 -3.75855,-3.17047 -1.1555,-2.15908 1.01467,-17.12527 4.10933,-28.33935 3.48357,-12.6233 3.47856,-12.40834 0.20334,-8.72625 -3.80133,4.27356 -6.27107,13.28514 -6.959,25.39195 -0.52891,9.30816 -0.62725,9.63738 -2.65846,8.89998 -3.06693,-1.11341 -6.31883,-6.40896 -7.68534,-12.51516 -1.1977,-5.35192 -1.08133,-6.30644 2.62752,-21.55052 l 0.60824,-2.5 -2.53328,2.75165 c -3.53152,3.83594 -4.61433,8.63117 -4.62079,20.46317 -0.007,11.97725 0.23652,11.69396 -11.88883,13.85679 -9.57697,1.70826 -15.90738,1.75543 -19.11675,0.14243 -2.49513,-1.25403 -8.29408,-8.92994 -12.00637,-15.89248 l -1.96127,-3.67844 3.23382,-1.99695 c 6.19464,-3.8253 30.4413,-15.74795 38.51154,-18.93701 4.46972,-1.76627 14.6361,-4.50381 22.59197,-6.08341 15.30493,-3.03873 17.17806,-3.891 25.47718,-11.5921 8.70762,-8.08016 17.12193,-20.8086 29.43953,-44.53365 6.072,-11.69547 6.5853,-12.11024 21.7136,-17.54869 11.3088,-4.06536 29.8957,-13.23194 34.5297,-17.02914 4.1206,-3.37653 7.3783,-8.9105 11.6091,-19.72048 l 2.2693,-5.79831 1.3551,4.79831 c 2.0059,7.1025 4.4175,13.29831 5.176,13.29831 1.297,0 -2.2396,-15.67723 -6.6548,-29.5 -6.8138,-21.33214 -6.2584,-30.98859 2.3291,-40.494 4.4802,-4.959 8.8563,-5.99978 14.509,-3.45074 4.8379,2.18158 7.8775,6.17487 7.8775,10.34911 0,2.84567 -0.8724,3.64609 -3.4355,3.15221 -5.3746,-1.03562 -10.9737,8.09602 -11.0105,17.95741 -0.022,5.75493 2.9183,12.38851 7.2127,16.27486 1.9509,1.76558 1.9626,1.72474 0.9974,-3.50122 -1.4532,-7.86931 -0.3056,-17.02201 2.8647,-22.84693 4.8317,-8.87749 11.4609,-12.0541 21.8911,-10.48999 l 4.6475,0.69693 -0.6478,4.70985 c -0.5436,3.95253 -0.2909,5.1636 1.5719,7.53177 3.6514,4.6419 7.4696,3.26778 17.3936,-6.25968 9.3487,-8.97507 12.0222,-10.63323 18.7781,-11.64634 5.7949,-0.869 6.0813,-2.01263 0.7187,-2.87014 l -4.018,-0.64251 3.268,-2.73529 c 10.9111,-9.13232 13.5749,-9.94133 35.5957,-10.81056 17.3114,-0.68333 18.1203,-0.62836 22.589,1.5349 2.7407,1.32673 7.1783,5.05874 10.859,9.13228 6.8823,7.61679 9.44,8.58028 10.3744,3.90808 0.4349,-2.17457 1.1699,-3 2.6712,-3 1.8507,0 1.7168,-0.36559 -1.2581,-3.43486 l -3.3292,-3.43487 3.3305,-3.04189 3.3304,-3.04188 -8.2671,0.10702 c -12.0965,0.15659 -12.6823,-1.29607 -2.6277,-6.51635 4.9728,-2.58184 6.245,-3.84271 15.0883,-14.95329 2.5461,-3.19886 5.7346,-6.23636 7.0856,-6.75 4.5454,-1.72817 14.2723,-1.10106 18.9193,1.21979 9.6221,4.8055 13.4068,12.26198 13.4068,26.41367 l 0,8.49745 -5.25,-3.90862 c -8.3717,-6.23269 -15.565,-9.16512 -22.25,-9.07037 -3.9019,0.0553 -3.8492,0.0998 2.1492,1.81652 25.8724,7.4044 38.1903,37.44556 22.4894,54.84768 -3.311,3.66977 -4.3877,4.25 -7.8862,4.25 -2.2376,0 -8.1093,-1.56706 -13.1144,-3.5 -4.9844,-1.925 -9.3161,-3.5 -9.626,-3.5 -0.3098,0 0.1733,1.42457 1.0737,3.16571 2.3723,4.58759 1.343,10.61867 -3.3532,19.64644 -2.1995,4.22832 -5.0455,11.73785 -6.3245,16.68785 -2.1164,8.19154 -2.3075,10.88642 -2.1273,30 0.1144,12.13971 -0.2317,22.30919 -0.8204,24.10295 -1.8345,5.58976 -5.0999,7.66916 -12.5311,7.97964 -7.4042,0.30936 -9.43,1.54272 -12.5389,7.63397 -2.815,5.51546 -7.4719,7.31068 -11.8584,4.57129 -2.8246,-1.76397 -3.7079,-0.15188 -1.3513,2.46609 3.7871,4.20702 3.7439,4.74192 -0.7074,8.77034 -2.3393,2.11698 -5.4645,4.35079 -6.945,4.96403 -1.8962,0.78545 -3.6875,3.17313 -6.0606,8.0787 -3.5784,7.39685 -7.923,12.58535 -11.7601,14.04419 -6.4121,2.43787 -17.5763,-0.0843 -30.7075,-6.93734 -8.4339,-4.40156 -24.7436,-16.48729 -29.7949,-22.07848 -5.3568,-5.92934 -10.1553,-16.22593 -14.8241,-31.80908 -2.2717,-7.58246 -4.9544,-15.3613 -5.9615,-17.2863 l -1.8311,-3.5 -0.044,5.64466 c -0.057,7.32821 2.7396,16.1837 10.2013,32.29828 7.6645,16.55253 8.675,20.90842 8.7189,37.58455 0.028,10.72149 0.3664,13.99984 1.6305,15.8046 1.9186,2.73919 8.9031,5.92637 24.3636,11.1177 31.0234,10.41702 64.294,22.62991 78.0415,28.64725 12.3256,5.39499 31.512,15.27198 36.0984,18.58313 5.7908,4.18061 14.3417,11.73153 13.8061,12.1916 -0.2225,0.19115 -2.6545,1.91718 -5.4045,3.83563 -2.75,1.91845 -8.4053,5.93868 -12.5673,8.93385 -12.4396,8.95208 -26.572,15.6895 -49.2585,23.4832 -5.4042,1.85655 -11.1575,3.37555 -12.7852,3.37555 -2.6507,0 -2.8476,-0.20887 -1.8877,-2.0024 2.1205,-3.9623 13.7596,-15.53675 27.4987,-27.3461 18.7643,-16.12869 19.4146,-16.74155 21.0661,-19.85184 1.7479,-3.29169 1.8483,-6.98522 0.2339,-8.59966 -1.9674,-1.96735 -3.0592,-1.36881 -2.3872,1.30863 0.3644,1.45187 0.013,3.70091 -0.834,5.33896 -1.5649,3.02623 -10.1252,11.24447 -18.1646,17.43884 -23.5381,18.13615 -31.5398,24.38633 -41.0008,32.02599 -6.0024,4.84684 -12.4884,9.63041 -14.4134,10.63017 -4.2738,2.2196 -12,3.65558 -12,2.23029 0,-1.42888 8.8452,-9.03989 13,-11.18603 1.925,-0.99436 13.85,-9.71586 26.5,-19.38112 12.65,-9.66526 25.379,-19.39094 28.2867,-21.61263 6.6858,-5.10846 11.2133,-12.05455 11.2133,-17.20358 0,-3.23538 -0.4966,-4.1217 -3.25,-5.80048 -1.7875,-1.08986 -3.5875,-1.98325 -4,-1.9853 -0.4125,-0.002 -0.75,3.31057 -0.75,7.3614 0,5.97772 -0.3973,7.87019 -2.1089,10.04617 -4.3101,5.47946 -52.2757,39.84371 -73.8911,52.93821 -16.7983,10.17631 -14.9365,9.66883 -34.9036,9.5143 -9.678,-0.0749 -18.7214,-0.29869 -20.0964,-0.49731 z m 16.8388,-10.41594 c 2.3863,-0.55029 13.8613,-5.31495 25.5,-10.58812 11.6386,-5.27317 22.249,-10.00444 23.5786,-10.51392 4.4144,-1.69156 34.485,-16.99308 40.5826,-20.65059 8.471,-5.08115 14.2865,-9.88442 16.0155,-13.22794 3.2716,-6.32654 0.61,-16.85891 -4.7718,-18.88294 -3.1557,-1.18682 -3.2393,0.0939 -0.2897,4.44036 1.7839,2.62866 2.546,5.08285 2.546,8.19875 0,4.06017 -0.4635,4.8963 -5.3276,9.61045 -9.1797,8.89671 -26.7814,17.95429 -58.6724,30.19198 -5.225,2.00501 -10.85,4.25322 -12.5,4.99601 -15.6412,7.04131 -32.5758,12.55482 -41,13.34866 l -7,0.65963 4.5,1.6546 c 5.2303,1.92315 10.7278,2.17227 16.8388,0.76307 z m 133.7819,-35.009 c 8.4482,-4.08973 13.8867,-13.03417 10.1793,-16.74157 -2.0175,-2.0175 -2.6994,-1.35517 -2.1419,2.08037 0.5003,3.08311 0.076,3.66276 -7.0629,9.63992 -4.1774,3.49775 -7.5952,6.52159 -7.5952,6.71963 0,0.88983 2.7106,0.1945 6.6207,-1.69835 z m -46.1787,-28.31672 c -0.8652,-3.44711 -6.9429,-7.76487 -23.3921,-16.61851 -7.3976,-3.98165 -14.2489,-7.73817 -15.2251,-8.34782 -1.3612,-0.8501 -2.072,-0.76856 -3.0498,0.34985 -0.7013,0.80206 -0.8946,1.16039 -0.4297,0.79629 2.1649,-1.6954 30.5695,16.52085 40.5237,25.98846 1.8305,1.74101 2.3681,0.99993 1.573,-2.16827 z m 37.0601,-113.26401 c 2.8215,-1.08273 -0.4167,-2.32846 -6.0971,-2.34553 -5.5187,-0.0166 -7.4257,-1.30936 -9.3335,-6.32731 -1.3004,-3.42019 -3.0715,-2.64442 -3.0715,1.34534 0,2.22071 0.707,3.28092 2.9675,4.44985 5.1373,2.65662 12.538,4.02753 15.5346,2.87765 z m 3.8764,-53.82423 c 3.7061,-3.99898 5.7852,-13.15149 3.7258,-16.40207 -1.4949,-2.35962 -10.2052,-4.04431 -15.6505,-3.02701 -8.8155,1.64692 -7.5451,2.94813 2.2028,2.2562 8.4859,-0.60235 9.2057,-0.50141 11.2902,1.58311 1.6691,1.66903 2.0632,2.8933 1.574,4.88982 -1.3492,5.50769 -5.9981,6.87908 -6.6932,1.97449 -0.2895,-2.04229 -0.9549,-2.34689 -5.7204,-2.61836 -8.7899,-0.50074 -8.6391,1.33884 0.6428,7.84206 5.0596,3.54496 5.4722,5.15958 1.0945,4.28405 -2.2557,-0.45115 -2.9518,-0.30145 -2.441,0.525 1.3322,2.15551 7.517,1.34495 9.975,-1.30729 z m -126.7506,-7.26644 c 3.125,-1.39605 6.9594,-1.74159 19.8721,-1.7908 15.9545,-0.0608 16.0185,-0.0701 22.5,-3.2811 3.575,-1.77107 9.65,-6.1364 13.5,-9.70075 8.1727,-7.56632 11.1468,-8.68605 19.7611,-7.4401 18.4924,2.67467 21.6699,1.27114 37.2386,-16.44892 8.0585,-9.17208 11.6975,-11.17103 17.4946,-9.61002 2.1567,0.58073 4.1918,1.49364 4.5225,2.02869 0.3307,0.53506 1.2497,0.97283 2.0422,0.97283 2.0453,0 1.7925,-2.95288 -0.309,-3.60982 -3.0953,-0.96759 -7.5848,-3.67226 -14.676,-8.84144 -6.0188,-4.38737 -7.5252,-5.03829 -11.5,-4.96896 -2.5157,0.0439 -6.0287,0.83893 -7.8068,1.76677 -1.778,0.92784 -5.2399,1.9621 -7.6931,2.29835 -4.0834,0.55969 -5.0719,0.22016 -11.6942,-4.01677 -6.6091,-4.22844 -8.8799,-5.31057 -8.8799,-4.23164 0,0.21808 3.4349,2.53736 7.633,5.15396 9.0779,5.65797 14.4628,6.92126 22.4609,5.26929 6.7465,-1.39347 13.2027,-0.002 14.925,3.21551 1.2945,2.41888 0.3348,4.39132 -4.1705,8.57171 -1.8416,1.70882 -5.9974,6.36368 -9.2351,10.34412 -8.7744,10.7874 -13.3927,12.31126 -30.2187,9.97098 -11.5327,-1.60405 -13.456,-0.94798 -21.7789,7.42909 -9.2535,9.31382 -14.5602,11.92442 -25.3061,12.4492 -8.9342,0.43631 -14.2543,-0.83233 -24.464,-5.83372 l -5.6543,-2.76988 -0.4379,3.65163 c -0.2408,2.00839 -1.1899,5.33912 -2.1091,7.40162 -1.8891,4.23909 -1.4649,4.45422 3.9836,2.02017 z m 31.4688,-11.96692 c 0.756,-0.75596 -1.7447,-1.02853 -8.5791,-0.93511 -8.6382,0.11808 -9.3521,0.26348 -6.8319,1.39149 3.2381,1.44933 13.8187,1.13601 15.411,-0.45638 z m -24.6023,-7.30938 c -0.9985,-1.10337 -2.0324,-1.78925 -2.2974,-1.52417 -0.672,0.67194 1.8222,3.5303 3.0804,3.5303 0.5679,0 0.2156,-0.90276 -0.783,-2.00613 z m 24.7939,-1.84557 c 1.5336,-1.01119 6.0355,-4.97869 10.0044,-8.81668 11.0738,-10.70867 14.5677,-12.7011 22.0171,-12.55543 4.0124,0.0785 9.3345,1.19455 15.1278,3.17243 9.8357,3.358 11.7416,3.58208 16.4642,1.93576 4.6011,-1.60395 3.14,-2.21781 -5.6615,-2.37853 -6.3903,-0.1167 -8.9153,-0.68803 -14.4769,-3.27578 -13.3771,-6.22411 -15.8348,-5.62731 -29.7634,7.22749 -5.225,4.82218 -10.4,9.18626 -11.5,9.69796 -1.1,0.5117 -3.125,1.5794 -4.5,2.37268 -4.3056,2.48401 -11.1542,1.87261 -15.6,-1.39267 -5.4358,-3.99248 -8.0304,-7.01634 -9.9952,-11.64918 -0.9299,-2.19249 -1.8619,-3.50482 -2.0711,-2.91627 -0.6835,1.92251 3.6187,10.20924 7.2319,13.92978 1.9432,2.00102 4.9734,4.26453 6.7338,5.03003 4.6536,2.0237 12.6297,1.83334 15.9889,-0.38159 z m -54.2883,-8.09951 c 0,-0.52317 -0.675,-3.54271 -1.5,-6.7101 -1.8264,-7.01203 -1.85,-12.61211 -0.074,-17.58869 0.736,-2.0625 0.9762,-3.75 0.5337,-3.75 -2.9038,0 -4.3422,18.2811 -1.9975,25.38568 1.083,3.28157 3.0377,4.99522 3.0377,2.66311 z m 19.6831,-4.23629 c -0.3192,-0.79773 -0.5562,-0.56078 -0.6042,0.60417 -0.043,1.05416 0.193,1.64479 0.5253,1.3125 0.3323,-0.33229 0.3678,-1.1948 0.079,-1.91667 z m 34.8169,-0.84902 c 1.65,-1.00142 5.1372,-4.29754 7.7494,-7.3247 13.5963,-15.75626 23.0601,-18.04366 35.3678,-8.54836 3.0566,2.35817 6.7557,4.91246 8.2201,5.67621 3.2911,1.71634 10.9987,1.82748 12.5294,0.18066 0.8756,-0.94211 0.6032,-1.0912 -1.1981,-0.65566 -3.4894,0.84369 -10.5211,-1.6354 -17.4745,-6.16077 -8.1756,-5.32081 -13.119,-7.29753 -18.2499,-7.29753 -6.2143,0 -9.2041,2.01583 -19.4359,13.10427 -10.4351,11.30871 -12.94,12.50724 -20.1285,9.63098 -2.2712,-0.90875 -4.3242,-1.45753 -4.5622,-1.21952 -0.4809,0.48086 4.3357,4.04161 6.6824,4.94008 2.1928,0.83956 7.0616,-0.23884 10.5,-2.32566 z m 28.0589,1.56832 c 1.5518,-1.17377 1.6285,-1.47457 0.3822,-1.5 -0.8574,-0.0175 -2.4324,0.62889 -3.5,1.4364 -1.5518,1.17377 -1.6285,1.47457 -0.3822,1.5 0.8573,0.0175 2.4323,-0.62889 3.5,-1.4364 z m 115.8246,-7.57576 c 3.3061,-3.92899 6.0097,-13.04666 5.18,-17.46901 -0.345,-1.83937 -1.4778,-4.38893 -2.5171,-5.66567 -1.8897,-2.32118 -1.8898,-2.32087 -1.3314,3.90455 0.6753,7.52916 -0.9222,13.87954 -4.8584,19.3133 -1.5711,2.16891 -2.8566,4.1882 -2.8566,4.48731 0,1.16625 3.915,-1.63685 6.3835,-4.57048 z m -7.0746,-8.20604 c 2.3429,-4.95454 2.9767,-8.41405 2.2506,-12.28436 -0.9454,-5.03966 -2.1653,-3.51155 -2.9138,3.65018 -0.3552,3.39783 -1.2862,7.4618 -2.0691,9.03103 -1.1442,2.29356 -1.1665,2.85315 -0.1139,2.85315 0.7202,0 2.001,-1.4625 2.8462,-3.25 z m -8.1089,-10.8314 c 0,-4.53575 -0.5956,-6.91794 -2.5735,-10.29294 -2.4113,-4.11453 -5.2267,-6.35881 -6.4466,-5.13887 -0.2937,0.29363 0.2061,1.09173 1.1105,1.77354 2.7506,2.07357 4.7096,8.32999 4.7096,15.04088 0,3.501 0.3126,6.67803 0.6946,7.06007 1.3383,1.33834 2.5054,-2.5944 2.5054,-8.44268 z m -12.2,-1.22747 c 0,-1.81988 -0.6607,-4.18238 -1.4682,-5.25 -1.4396,-1.90329 -1.4688,-1.8997 -1.5,0.18387 -0.053,3.52189 1.1602,8.375 2.0932,8.375 0.4812,0 0.875,-1.48899 0.875,-3.30887 z m -30.509,-9.70109 c -1.0005,-1.10548 -4.1076,-2.68961 -6.9048,-3.52029 -4.7416,-1.4081 -5.7814,-1.36189 -15.3633,0.68271 -11.4775,2.4491 -12.5625,4.14247 -1.6733,2.61146 5.5529,-0.78072 8.4192,-0.6673 13.5,0.5342 3.5477,0.83894 7.7576,1.56507 9.3554,1.61362 2.8475,0.0865 2.869,0.0485 1.086,-1.9217 z m -20.491,-8.01158 c 3.025,-0.63992 7.8625,-0.94012 10.75,-0.6671 3.8714,0.36604 5.25,0.15838 5.25,-0.79086 0,-3.10951 -8.8899,-3.27965 -19,-0.36364 -13.1402,3.78998 -11.3741,4.86236 3,1.8216 z m 77,-12.89443 c 0,-3.2268 -14.9112,-10.82281 -18.524,-9.43644 -2.0351,0.78093 -1.8563,2.3432 0.274,2.39479 0.9625,0.0233 4.9,1.81802 8.75,3.98824 7.0269,3.96099 9.5,4.75588 9.5,3.05341 z m 2,-6.94917 c 0,-1.36635 -3.9612,-6.04373 -6.0776,-7.17636 -2.9143,-1.55973 -2.3906,0.43869 1.1812,4.5067 3.005,3.42248 4.8964,4.45374 4.8964,2.66966 z m -6.75,277.1595 c -2.8875,-1.96897 -5.25,-4.22027 -5.25,-5.00289 0,-3.1453 3.2286,-7.20669 17.7611,-22.34271 20.7717,-21.63424 39.0674,-49.44267 50.2891,-76.43648 8.3627,-20.11643 17.1553,-51.52267 19.8808,-71.01228 3.2367,-23.14486 3.7889,-74.98941 0.9995,-93.84163 -6.7756,-45.79308 -19.7363,-81.75944 -42.2093,-117.13195 -40.0861,-63.09571 -99.5554,-101.6959 -173.7212,-112.75855 -13.3102,-1.98537 -52.9103,-1.65633 -67,0.55671 -52.161,8.19281 -98.43847,30.60654 -135.03118,65.40015 -38.28805,36.4056 -61.8942,81.22523 -75.46198,143.27527 -5.04901,23.09085 -6.00684,32.89741 -6.00684,61.5 0,36.19692 1.833,51.43798 10.07592,83.77951 4.45392,17.47519 8.50876,29.05996 17.36288,49.60616 3.88366,9.01212 7.0612,16.68248 7.0612,17.04526 0,0.36277 -2.94212,2.16859 -6.53805,4.01294 -8.964,4.59763 -9.81878,4.03884 -17.37385,-11.35786 -16.70896,-34.05171 -25.337809,-69.8512 -28.228709,-117.11574 -1.98263,-32.41483 0.0633,-62.90051 6.239449,-92.97027 4.86665,-23.69431 7.53465,-33.05422 14.3948,-50.5 12.9671,-32.9761 27.67982,-58.30881 46.75278,-80.5 8.32897,-9.69067 23.77443,-25.20932 30.85382,-31 20.29355,-16.59939 35.09546,-26.28834 57.39976,-37.57239 19.5734,-9.90243 24.7275,-11.95814 39.9434,-15.93142 29.1727,-7.61777 53.4984,-10.5575 80.0566,-9.67476 58.2389,1.93576 105.3311,18.00221 149.412,50.97485 11.8534,8.86643 37.2183,33.97268 47.1848,46.70372 8.5544,10.92727 18.2807,25.03395 22.753,33 29.8857,53.23272 42.6924,101.87781 42.5181,161.5 -0.1118,38.20925 -5.287,72.13512 -16.4367,107.74854 -6.5311,20.86113 -16.1088,42.53796 -27.2842,61.75146 -15.0602,25.89258 -46.0471,62.13522 -52.9552,61.93716 -1.2055,-0.0346 -4.5543,-1.67382 -7.4418,-3.6428 z M 172.11532,767.90686 c -6.21705,-4.5868 -8.44247,-11.25892 -5.33642,-15.99935 1.29722,-1.97981 2.45133,-2.46482 5.86514,-2.46482 5.00877,0 8.52258,2.37865 10.893,7.37393 4.91349,10.35442 -2.57006,17.62078 -11.42172,11.09024 z m 85.04857,-140.34554 c -17.92239,-3.89221 -31.24156,-22.06262 -29.75423,-40.59159 1.64243,-20.4613 16.80293,-25.60062 46.89763,-15.89803 l 7.6435,2.46427 0.6845,4.70336 c 0.3764,2.58685 1.3091,5.67676 2.0726,6.86646 1.9131,2.9809 6.8792,3.94483 9.9518,1.93163 6.6267,-4.34203 9.1225,-9.45121 13.4798,-27.59473 3.5057,-14.59761 6.7581,-22.74672 12.5772,-31.51364 5.0173,-7.55881 11.0749,-13.56646 12.9527,-12.84588 2.8467,1.09238 1.5581,4.98098 -3.3453,10.09512 -9.1478,9.54101 -11.216,22.69863 -8.7675,55.77793 0.8282,11.18868 0.746,12.29417 -1.196,16.10084 -2.7046,5.30148 -9.9284,12.69794 -14.8575,15.21256 -2.1378,1.09067 -11.0763,4.98136 -19.8631,8.64599 -16.1252,6.72512 -21.9022,8.07336 -28.4761,6.64571 z m 10,-4.88391 c 0,-0.42091 -2.3052,-1.584 -5.1226,-2.58465 -17.4141,-6.18496 -24.84151,-16.74058 -24.91654,-35.4108 l -0.0391,-9.73927 -1.63714,3.5 c -1.00744,2.15376 -1.65366,6.19248 -1.68009,10.5 -0.0348,5.67788 0.48416,8.08559 2.7478,12.74766 5.71844,11.77749 18.02817,21.75234 26.84397,21.75234 2.092,0 3.8037,-0.34438 3.8037,-0.76528 z m 8,-7.72218 c 0,-0.46894 -5.5099,-4.30218 -10.9095,-7.58977 -6.311,-3.84249 -9.863,-12.23223 -10.1282,-23.92277 -0.1244,-5.48443 -0.1286,-5.49151 -1.4984,-2.5 -3.2916,7.18864 -0.8949,18.37368 5.329,24.86862 4.1658,4.34734 17.2071,11.27751 17.2071,9.14392 z m 24.8287,-10.19968 c 5.867,-2.79326 11.774,-8.13779 13.2317,-11.97167 1.158,-3.04584 1.2311,-9.043 0.1186,-9.73057 -0.4516,-0.27908 -1.5916,1.63545 -2.5334,4.2545 -3.4098,9.48246 -13.9045,16.98872 -21.9529,15.70173 -5.7777,-0.92388 -12.6378,-5.11149 -16.6881,-10.18685 -5.763,-7.22166 -8.1022,-4.95098 -3.7546,3.64474 2.7994,5.5348 8.8095,9.82264 15.3096,10.92262 6.2879,1.06405 9.6412,0.52103 16.2691,-2.6345 z m -24.8287,-35.96515 c -2.475,-0.80001 -7.875,-2.11898 -12,-2.93104 -11.8505,-2.33295 -14.4793,-3.23351 -16.8714,-5.7798 -4.18387,-4.45351 -2.548,-15.63122 3.0726,-20.99486 1.0753,-1.02619 5.1596,-2.49095 9.1229,-3.27184 3.9467,-0.77763 7.9642,-1.58711 8.9277,-1.79886 1.5376,-0.33794 1.4848,7.9e-4 -0.4323,2.77185 -1.2013,1.73626 -3.9225,4.89896 -6.0471,7.02821 -5.2346,5.24597 -4.0152,5.78299 1.9195,0.84533 5.445,-4.53026 11.282,-7.63716 16.0581,-8.54735 1.7875,-0.34064 3.25,-0.45688 3.25,-0.2583 0,0.19857 -1.7991,3.05523 -3.998,6.34811 -4.2698,6.39408 -7.5216,13.25493 -6.2654,13.21902 0.4199,-0.012 3.4634,-3.7603 6.7634,-8.32955 3.3,-4.56925 7.0024,-9.07285 8.2276,-10.008 2.0435,-1.5597 12.9861,-4.26024 13.8326,-3.41374 0.2005,0.20044 -0.2161,1.46889 -0.9257,2.81877 -3.3376,6.34907 -9.2011,16.81921 -11.3038,20.18447 -1.2819,2.05157 -2.3307,4.26751 -2.3307,4.92431 0,1.94763 4.8471,-3.19318 7.6395,-8.10236 1.4241,-2.50364 3.7251,-6.55026 5.1133,-8.99249 2.9586,-5.20487 4.8699,-7.3313 8.1046,-9.01662 5.3256,-2.77482 4.8931,2.81063 -1.2639,16.32128 -7.26,15.93101 -17.0448,21.36287 -30.5935,16.98346 z m -24.4914,-39.96677 c 4.0848,-10.85236 3.8321,-11.60195 -9.57628,-28.40006 -13.96485,-17.49532 -18.2855,-24.76935 -21.07506,-35.48088 -3.11169,-11.94847 -1.80778,-36.77878 2.80943,-53.5 2.70291,-9.78855 13.71514,-30.95533 22.17201,-42.61721 12.8243,-17.68439 27.5043,-30.30188 47.7346,-41.02803 17.1244,-9.07944 31.294,-12.98196 52.4267,-14.43912 43.2455,-2.9819 82.6346,7.84854 108.8865,29.93946 6.6638,5.60767 10.6598,11.75982 16.0105,24.64998 5.1937,12.51165 7.2168,16.57875 14.164,28.47351 3.0585,5.23677 7.9812,13.79641 10.9392,19.02141 2.9581,5.225 7.6024,13.325 10.3208,18 5.3022,9.11864 16.9162,32.79622 20.754,42.3115 2.6298,6.51997 1.898,8.11475 -3.0695,6.69007 -5.8273,-1.67123 -6.7636,-2.90217 -12.4879,-16.41699 -6.5197,-15.39254 -16.0175,-32.99765 -21.3556,-39.58458 -9.5183,-11.74521 -13.0735,-11.89627 -23.7247,-1.00809 -10.9537,11.19733 -11.6612,13.62049 -5.0994,17.46594 3.7161,2.17783 5.5438,2.54215 12.7531,2.54215 13.3673,0 25.19,4.10331 27.7679,9.63735 0.8568,1.83945 0.7269,2.06711 -0.9317,1.63337 -2.9358,-0.76773 -2.3198,0.67645 1.8228,4.27341 5.8877,5.11224 3.1029,5.15238 -5.8425,0.0842 -4.4931,-2.54558 -8.7219,-4.62833 -9.3974,-4.62833 -0.6756,0 -3.8792,-1.3443 -7.1192,-2.98733 -6.562,-3.32765 -6.743,-3.39146 -5.941,-2.09376 0.3123,0.5054 3.511,2.56477 7.108,4.57637 10.9462,6.12143 15.2001,14.66705 14.2074,28.54107 -0.919,12.84447 -8.4615,21.24898 -23.8344,26.55848 -4.2345,1.4625 -8.2948,1.87345 -18.4309,1.86543 -23.6141,-0.0187 -33.6471,-5.45645 -46.995,-25.47064 -11.5714,-17.35038 -19.7072,-26.90861 -25.0705,-29.45369 -7.555,-3.58505 -19.887,-0.69399 -28.3234,6.63998 -4.7487,4.12821 -10.1111,11.65693 -10.1111,14.19589 0,1.44498 0.8155,0.7338 2.8658,-2.49907 5.8479,-9.22131 15.6136,-15.2471 24.8317,-15.32222 9.7446,-0.0794 9.7686,1.31356 0.1392,8.08615 -10.5196,7.39861 -16.8142,13.65659 -19.5142,19.40066 -2.5584,5.44265 -4.2886,15.9905 -3.3316,20.3104 0.6333,2.85913 0.7714,2.60565 1.4849,-2.72562 2.295,-17.14912 17.736,-33.14584 33.2349,-34.43113 5.2354,-0.43416 5.4487,-0.35747 5.126,1.84336 -0.2373,1.6183 -2.3676,3.50248 -7.2145,6.38102 -9.8711,5.86239 -16.1872,12.11294 -17.5924,17.40996 -0.6311,2.37891 -0.9656,5.07891 -0.7434,6 0.4481,1.85725 0.1862,2.35249 3.1153,-5.89003 2.1204,-5.96659 8.4421,-12.24075 16.1636,-16.04205 7.5138,-3.69902 13.1655,-4.62108 15.8791,-2.59063 1.8278,1.36761 1.8465,1.60441 0.3127,3.94534 -0.8975,1.36972 -4.0225,3.88396 -6.9444,5.58719 -10.1512,5.91718 -12.2481,9.02936 -12.2858,18.23422 -0.022,5.38052 0.422,7.22524 2.4539,10.19372 1.3644,1.9934 3.2769,3.83256 4.25,4.08703 1.586,0.41475 1.7692,-0.38595 1.7692,-7.73183 0,-12.73153 3.8772,-18.87198 12.5,-19.79659 2.6072,-0.27956 3.0405,0.0292 3.3096,2.35797 0.1703,1.4738 -0.3922,5.04298 -1.25,7.9315 -1.9682,6.6279 -1.9977,12.28036 -0.072,13.87828 2.0786,1.72503 4.5128,0.51916 4.5128,-2.23554 0,-3.26124 3.8829,-8.69025 6.25,-8.73858 0.4125,-0.008 0.75,1.3922 0.75,3.1125 0,3.09352 0.044,3.12073 4.0346,2.48264 l 4.0347,-0.64517 -1.4372,2.76736 c -0.7905,1.52205 -4.7436,6.19673 -8.7847,10.38817 -8.7465,9.07194 -11.7399,10.33514 -24.3474,10.27452 -7.9471,-0.0382 -9.8745,-0.42875 -16.4746,-3.33818 -6.483,-2.85781 -8.2739,-3.23274 -13.5,-2.8262 -6.5037,0.50592 -8.8607,0.12049 -7.9797,-1.30491 0.307,-0.49672 -0.1107,-0.64646 -0.9283,-0.33275 -2.1172,0.81246 -7.3128,-6.73751 -9.2703,-13.47123 -1.1082,-3.81188 -1.4193,-7.44614 -1.0115,-11.8138 0.324,-3.46954 0.2126,-6.30826 -0.2476,-6.30826 -0.4602,0 -2.8057,4.81197 -5.2124,10.69327 -5.8291,14.2452 -8.5151,17.78371 -16.1927,21.33238 -7.9981,3.69681 -17.7908,4.97435 -38.1295,4.97435 -11.9344,0 -17.441,0.40187 -20.5534,1.5 -7.9808,2.8158 -8.3489,2.47266 -5.4914,-5.11906 z m 125.4914,-3.22439 c 0,-0.4639 -0.919,-3.5014 -2.0423,-6.75 -1.1233,-3.2486 -2.3921,-9.05655 -2.8197,-12.90655 l -0.7775,-7 -0.7888,4.7166 c -1.2033,7.19554 0.4212,17.81532 3.2176,21.0334 1.6139,1.85733 3.2107,2.30818 3.2107,0.90655 z m -81,-3.78836 c 5.225,-0.8646 11.4935,-2.26928 13.9299,-3.12152 8.3794,-2.93096 13.8589,-11.00292 21.5507,-31.74667 7.3319,-19.77294 13.2833,-28.33229 23.606,-33.95062 4.5833,-2.49455 6.3462,-2.8661 13.833,-2.91551 14.4975,-0.0957 20.8075,4.54423 36.849,27.0961 11.3654,15.97802 18.8564,24.19364 25.3276,27.77738 5.3492,2.96239 5.5605,2.99265 20.9038,2.99265 13.5088,0 16.3992,-0.29686 22.5,-2.31083 13.6565,-4.50825 19.9716,-11.54106 19.9246,-22.18917 -0.06,-13.51523 -6.8584,-22.16963 -24.3312,-30.97168 -5.2764,-2.65801 -12.2669,-6.45176 -15.5346,-8.43054 -3.2676,-1.97878 -6.5301,-3.59778 -7.25,-3.59778 -2.3025,0 -1.4071,1.74268 1.9412,3.77799 1.7875,1.08654 8.0095,4.8604 13.8266,8.38634 25.0843,15.20433 29.6251,21.41907 25.818,35.33567 -1.5213,5.56062 -9.0981,12.7179 -16.0123,15.1257 -8.1321,2.83189 -29.4366,2.63876 -36.3823,-0.32982 -2.75,-1.17534 -4.8929,-2.60654 -4.762,-3.18044 0.1309,-0.57391 -0.3682,-0.81086 -1.109,-0.52656 -2.2022,0.84505 -12.6044,-10.31814 -20.0336,-21.49913 -7.1467,-10.75593 -14.5085,-20.28314 -18.0537,-23.36407 -1.1229,-0.97587 -4.2917,-3.00087 -7.0417,-4.5 -4.5281,-2.46844 -5.9438,-2.72033 -15,-2.66895 -8.6211,0.0489 -10.9395,0.44628 -16.8136,2.88182 -8.6172,3.57286 -16.8584,10.95852 -20.6132,18.47331 -1.5357,3.07348 -4.4927,10.76314 -6.5711,17.08814 -9.5184,28.96566 -12.8996,31.36196 -48.0021,34.01957 -15.2685,1.15598 -19.5,2.04126 -19.5,4.0796 0,1.5297 24.1118,0.40167 37,-1.73098 z m 207.415,-38.55031 c 2.2807,-3.25609 1.9917,-4.27795 -1.665,-5.88741 -2.8366,-1.2485 -3.2891,-1.9711 -3.5575,-5.68047 -0.1691,-2.3375 0.1056,-4.25 0.6105,-4.25 2.6357,0 14.197,9.46188 14.197,11.619 0,1.62439 -4.7323,4.90352 -8.335,5.77556 -2.7772,0.67222 -2.8027,0.64009 -1.25,-1.57668 z m -10.415,-38.39411 c -2.475,-0.79335 -8.9824,-1.88666 -14.4608,-2.4296 -11.8125,-1.17066 -15.8048,-3.38192 -8.1723,-4.52649 6.5647,-0.98443 6.1793,-3.27414 -0.6169,-3.66542 -4.445,-0.25591 -5.25,-0.60283 -5.25,-2.26243 0,-1.11303 1.4685,-2.94977 3.3979,-4.25 6.8232,-4.59815 17.9444,-2.06451 23.8902,5.44267 3.223,4.06934 7.7276,13.32244 6.4264,13.2006 -0.393,-0.0368 -2.7395,-0.71599 -5.2145,-1.50933 z m -12.4411,-15.95557 c -2.1696,-1.64097 -5.5589,-1.96884 -5.5589,-0.53775 0,0.86735 2.4933,1.65755 6,1.90156 1.0974,0.0764 0.979,-0.2897 -0.4411,-1.36381 z"
       id="path3050"
       style="fill:#0000cc;fill-opacity:1" />
  </g>
</svg>
