<?xml version="1.0" encoding="UTF-8" standalone="no"?>
<!-- Created with Inkscape (http://www.inkscape.org/) -->

<svg
   xmlns:dc="http://purl.org/dc/elements/1.1/"
   xmlns:cc="http://creativecommons.org/ns#"
   xmlns:rdf="http://www.w3.org/1999/02/22-rdf-syntax-ns#"
   xmlns:svg="http://www.w3.org/2000/svg"
   xmlns="http://www.w3.org/2000/svg"
   version="1.1"
   width="437.58249"
   height="242.19923"
   id="svg2"
   xml:space="preserve"><metadata
     id="metadata8"><rdf:RDF><cc:Work
         rdf:about=""><dc:format>image/svg+xml</dc:format><dc:type
           rdf:resource="http://purl.org/dc/dcmitype/StillImage" /><dc:title></dc:title></cc:Work></rdf:RDF></metadata><defs
     id="defs6"><clipPath
       id="clipPath18"><path
         d="M 0,2705.59 0,0 l 3504.2,0 0,2705.59 -3504.2,0 z"
         id="path20" /></clipPath></defs><g
     transform="matrix(1.25,0,0,-1.25,0,338.19924)"
     id="g10"><g
       transform="scale(0.1,0.1)"
       clip-path="url(#clipPath18)"
       id="g16"><path
         d="M 271.156,902.379 C 271.156,828.1719 210.453,768 135.57,768 60.7031,768 0,828.1719 0,902.379 c 0,74.211 60.7031,134.371 135.57,134.371 74.883,0 135.586,-60.16 135.586,-134.371"
         id="path22"
         style="fill:#2a2a2b;fill-opacity:1;fill-rule:nonzero;stroke:none" /><path
         d="M 868.414,902.379 C 868.414,828.1719 807.711,768 732.828,768 c -74.867,0 -135.57,60.1719 -135.57,134.379 0,74.211 60.703,134.371 135.57,134.371 74.883,0 135.586,-60.16 135.586,-134.371"
         id="path24"
         style="fill:#2a2a2b;fill-opacity:1;fill-rule:nonzero;stroke:none" /><path
         d="m 1465.67,902.379 c 0,-74.2071 -60.7,-134.379 -135.59,-134.379 -74.87,0 -135.57,60.1719 -135.57,134.379 0,74.211 60.7,134.371 135.57,134.371 74.89,0 135.59,-60.16 135.59,-134.371"
         id="path26"
         style="fill:#2a2a2b;fill-opacity:1;fill-rule:nonzero;stroke:none" /><path
         d="m 2062.93,902.801 c 0,-74.2112 -60.7,-134.37912 -135.59,-134.37912 -74.87,0 -135.57,60.16792 -135.57,134.37912 0,74.211 60.7,134.371 135.57,134.371 74.89,0 135.59,-60.16 135.59,-134.371"
         id="path28"
         style="fill:#2a2a2b;fill-opacity:1;fill-rule:nonzero;stroke:none" /><path
         d="m 2660.19,904.051 c 0,-74.2112 -60.71,-134.37912 -135.59,-134.37912 -74.87,0 -135.58,60.16792 -135.58,134.37912 0,74.211 60.71,134.371 135.58,134.371 74.88,0 135.59,-60.16 135.59,-134.371"
         id="path30"
         style="fill:#2a2a2b;fill-opacity:1;fill-rule:nonzero;stroke:none" /><path
         d="m 3500.66,888.422 c 0,-66.2736 -60.21,-120.00012 -134.5,-120.00012 l -275.99,0 c -74.29,0 -134.51,53.72652 -134.51,120.00012 l 0,30 c 0,66.269 60.22,120 134.51,120 l 275.99,0 c 74.29,0 134.5,-53.731 134.5,-120 l 0,-30"
         id="path32"
         style="fill:#a1131b;fill-opacity:1;fill-rule:nonzero;stroke:none" /><path
         d="m 270.164,1459.17 c -3.75,-84.68 -50.625,-147.81 -135.215,-146.52 l 0,0 C 55.668,1311.24 -1.08203,1383.24 1.10547,1459.17 l 0.10156,1111.27 c 0.52344,44.99 40.58597,135.35 133.74197,132.61 l 0,0 c 89.59,2.06 135.84,-84.5 135.531,-132.62 l -0.316,-1111.26"
         id="path34"
         style="fill:#2a2a2b;fill-opacity:1;fill-rule:nonzero;stroke:none" /><path
         d="m 863.5,1459.16 c -3.75,-84.68 -50.625,-147.81 -135.215,-146.52 l 0,0 c -79.281,-1.41 -136.035,70.59 -133.847,146.52 l 0.105,1111.27 c 0.519,44.98 40.586,135.35 133.742,132.61 l 0,0 c 89.59,2.06 135.84,-84.5 135.527,-132.63 L 863.5,1459.16"
         id="path36"
         style="fill:#2a2a2b;fill-opacity:1;fill-rule:nonzero;stroke:none" /><path
         d="m 2056.84,1459.16 c -3.75,-84.68 -50.63,-147.81 -135.22,-146.52 l 0,0 c -79.29,-1.41 -136.03,70.59 -133.85,146.52 l 0.11,1111.27 c 0.52,44.98 40.59,135.35 133.74,132.61 l 0,0 c 89.59,2.06 135.84,-84.5 135.53,-132.63 l -0.31,-1111.25"
         id="path38"
         style="fill:#2a2a2b;fill-opacity:1;fill-rule:nonzero;stroke:none" /><path
         d="m 2662.78,1459.16 c -3.75,-84.68 -50.62,-147.81 -135.21,-146.52 l 0,0 c -79.29,-1.41 -136.04,70.59 -133.85,146.52 l 0.11,1111.27 c 0.52,44.98 40.58,135.35 133.74,132.61 l 0,0 c 89.59,2.06 135.84,-84.5 135.53,-132.63 l -0.32,-1111.25"
         id="path40"
         style="fill:#2a2a2b;fill-opacity:1;fill-rule:nonzero;stroke:none" /><path
         d="m 1857.04,1329.49 c -58.75,36.67 -271.56,260.93 -545.94,259.68 -263.33,-4.18 -433.932,-201.24 -496.432,-246.24 l 46.836,354.86 c 0,0 237.206,140.92 459.706,138.42 215.63,7.5 472.52,-142.21 472.52,-142.21 l 63.31,-364.51"
         id="path42"
         style="fill:#2a2a2b;fill-opacity:1;fill-rule:nonzero;stroke:none" /><path
         d="m 2708.92,2596.83 c 15.94,132.35 132.81,107.35 290.31,106.1 239.38,-2.5 311.46,-47.5 389.79,-131.25 82.09,-84.18 100,-259.18 68.34,-372.5 -62.93,-215 -255.43,-245.84 -281.68,-256.68 83.33,-140.41 284.17,-376.45 311.68,-481.66 18.74,-49.58 3.13,-96.04 -46.26,-127.92 -99.68,-50 -166.7,2.95 -200.45,47.95 -101.11,137.05 -234.15,456.48 -375.8,511.43 -27.18,6.56 -145.93,-15.32 -155.62,115.63 11.56,165.93 177.91,92.28 374.37,121.25 119.58,17.5 172.5,33.75 175.42,168.32 -0.27,102.39 -78.33,155 -129.16,165 -235.01,43.55 -421.26,-54.27 -420.94,134.33"
         id="path44"
         style="fill:#2a2a2b;fill-opacity:1;fill-rule:nonzero;stroke:none" /></g></g></svg>