<?xml version="1.0" encoding="UTF-8" standalone="no"?>
<!-- Created with Inkscape (http://www.inkscape.org/) -->

<svg
   xmlns:dc="http://purl.org/dc/elements/1.1/"
   xmlns:cc="http://creativecommons.org/ns#"
   xmlns:rdf="http://www.w3.org/1999/02/22-rdf-syntax-ns#"
   xmlns:svg="http://www.w3.org/2000/svg"
   xmlns="http://www.w3.org/2000/svg"
   xmlns:sodipodi="http://sodipodi.sourceforge.net/DTD/sodipodi-0.dtd"
   xmlns:inkscape="http://www.inkscape.org/namespaces/inkscape"
   id="svg2"
   version="1.1"
   inkscape:version="0.48.0 r9654"
   width="438.02499"
   height="338.19876"
   xml:space="preserve"
   sodipodi:docname="iwr-logo_text_fin.eps"><metadata
     id="metadata8"><rdf:RDF><cc:Work
         rdf:about=""><dc:format>image/svg+xml</dc:format><dc:type
           rdf:resource="http://purl.org/dc/dcmitype/StillImage" /><dc:title></dc:title></cc:Work></rdf:RDF></metadata><defs
     id="defs6"><clipPath
       clipPathUnits="userSpaceOnUse"
       id="clipPath18"><path
         d="M 0,2705.59 0,0 l 3504.2,0 0,2705.59 -3504.2,0 z"
         id="path20"
         inkscape:connector-curvature="0" /></clipPath></defs><sodipodi:namedview
     pagecolor="#ffffff"
     bordercolor="#666666"
     borderopacity="1"
     objecttolerance="10"
     gridtolerance="10"
     guidetolerance="10"
     inkscape:pageopacity="0"
     inkscape:pageshadow="2"
     inkscape:window-width="1920"
     inkscape:window-height="1123"
     id="namedview4"
     showgrid="false"
     fit-margin-top="0"
     fit-margin-left="0"
     fit-margin-right="0"
     fit-margin-bottom="0"
     inkscape:zoom="2.7705602"
     inkscape:cx="184.57149"
     inkscape:cy="193.32536"
     inkscape:window-x="0"
     inkscape:window-y="25"
     inkscape:window-maximized="1"
     inkscape:current-layer="g10" /><g
     id="g10"
     inkscape:groupmode="layer"
     inkscape:label="ink_ext_XXXXXX"
     transform="matrix(1.25,0,0,-1.25,0,338.19875)"><g
       id="g12"
       transform="scale(0.1,0.1)"><g
         id="g14"><g
           id="g16"
           clip-path="url(#clipPath18)"><path
             d="M 271.156,134.379 C 271.156,60.1719 210.453,0 135.57,0 60.7031,0 0,60.1719 0,134.379 0,208.59 60.7031,268.75 135.57,268.75 c 74.883,0 135.586,-60.16 135.586,-134.371"
             style="fill:#2a2a2b;fill-opacity:1;fill-rule:nonzero;stroke:none"
             id="path22"
             inkscape:connector-curvature="0" /><path
             d="M 868.414,134.379 C 868.414,60.1719 807.711,0 732.828,0 c -74.867,0 -135.57,60.1719 -135.57,134.379 0,74.211 60.703,134.371 135.57,134.371 74.883,0 135.586,-60.16 135.586,-134.371"
             style="fill:#2a2a2b;fill-opacity:1;fill-rule:nonzero;stroke:none"
             id="path24"
             inkscape:connector-curvature="0" /><path
             d="M 1465.67,134.379 C 1465.67,60.1719 1404.97,0 1330.08,0 c -74.87,0 -135.57,60.1719 -135.57,134.379 0,74.211 60.7,134.371 135.57,134.371 74.89,0 135.59,-60.16 135.59,-134.371"
             style="fill:#2a2a2b;fill-opacity:1;fill-rule:nonzero;stroke:none"
             id="path26"
             inkscape:connector-curvature="0" /><path
             d="m 2062.93,134.801 c 0,-74.2112 -60.7,-134.379125 -135.59,-134.379125 -74.87,0 -135.57,60.167925 -135.57,134.379125 0,74.211 60.7,134.371 135.57,134.371 74.89,0 135.59,-60.16 135.59,-134.371"
             style="fill:#2a2a2b;fill-opacity:1;fill-rule:nonzero;stroke:none"
             id="path28"
             inkscape:connector-curvature="0" /><path
             d="m 2660.19,136.051 c 0,-74.2112 -60.71,-134.37912 -135.59,-134.37912 -74.87,0 -135.58,60.16792 -135.58,134.37912 0,74.211 60.71,134.371 135.58,134.371 74.88,0 135.59,-60.16 135.59,-134.371"
             style="fill:#2a2a2b;fill-opacity:1;fill-rule:nonzero;stroke:none"
             id="path30"
             inkscape:connector-curvature="0" /><path
             d="m 3500.66,120.422 c 0,-66.2736 -60.21,-120.000125 -134.5,-120.000125 l -275.99,0 c -74.29,0 -134.51,53.726525 -134.51,120.000125 l 0,30 c 0,66.269 60.22,120 134.51,120 l 275.99,0 c 74.29,0 134.5,-53.731 134.5,-120 l 0,-30"
             style="fill:#a1131b;fill-opacity:1;fill-rule:nonzero;stroke:none"
             id="path32"
             inkscape:connector-curvature="0" /><path
             d="m 270.164,1459.17 c -3.75,-84.68 -50.625,-147.81 -135.215,-146.52 l 0,0 C 55.668,1311.24 -1.08203,1383.24 1.10547,1459.17 l 0.10156,1111.27 c 0.52344,44.99 40.58597,135.35 133.74197,132.61 l 0,0 c 89.59,2.06 135.84,-84.5 135.531,-132.62 l -0.316,-1111.26"
             style="fill:#2a2a2b;fill-opacity:1;fill-rule:nonzero;stroke:none"
             id="path34"
             inkscape:connector-curvature="0" /><path
             d="m 863.5,1459.16 c -3.75,-84.68 -50.625,-147.81 -135.215,-146.52 l 0,0 c -79.281,-1.41 -136.035,70.59 -133.847,146.52 l 0.105,1111.27 c 0.519,44.98 40.586,135.35 133.742,132.61 l 0,0 c 89.59,2.06 135.84,-84.5 135.527,-132.63 L 863.5,1459.16"
             style="fill:#2a2a2b;fill-opacity:1;fill-rule:nonzero;stroke:none"
             id="path36"
             inkscape:connector-curvature="0" /><path
             d="m 2056.84,1459.16 c -3.75,-84.68 -50.63,-147.81 -135.22,-146.52 l 0,0 c -79.29,-1.41 -136.03,70.59 -133.85,146.52 l 0.11,1111.27 c 0.52,44.98 40.59,135.35 133.74,132.61 l 0,0 c 89.59,2.06 135.84,-84.5 135.53,-132.63 l -0.31,-1111.25"
             style="fill:#2a2a2b;fill-opacity:1;fill-rule:nonzero;stroke:none"
             id="path38"
             inkscape:connector-curvature="0" /><path
             d="m 2662.78,1459.16 c -3.75,-84.68 -50.62,-147.81 -135.21,-146.52 l 0,0 c -79.29,-1.41 -136.04,70.59 -133.85,146.52 l 0.11,1111.27 c 0.52,44.98 40.58,135.35 133.74,132.61 l 0,0 c 89.59,2.06 135.84,-84.5 135.53,-132.63 l -0.32,-1111.25"
             style="fill:#2a2a2b;fill-opacity:1;fill-rule:nonzero;stroke:none"
             id="path40"
             inkscape:connector-curvature="0" /><path
             d="m 1857.04,1329.49 c -58.75,36.67 -271.56,260.93 -545.94,259.68 -263.33,-4.18 -433.932,-201.24 -496.432,-246.24 l 46.836,354.86 c 0,0 237.206,140.92 459.706,138.42 215.63,7.5 472.52,-142.21 472.52,-142.21 l 63.31,-364.51"
             style="fill:#2a2a2b;fill-opacity:1;fill-rule:nonzero;stroke:none"
             id="path42"
             inkscape:connector-curvature="0" /><path
             d="m 2708.92,2596.83 c 15.94,132.35 132.81,107.35 290.31,106.1 239.38,-2.5 311.46,-47.5 389.79,-131.25 82.09,-84.18 100,-259.18 68.34,-372.5 -62.93,-215 -255.43,-245.84 -281.68,-256.68 83.33,-140.41 284.17,-376.45 311.68,-481.66 18.74,-49.58 3.13,-96.04 -46.26,-127.92 -99.68,-50 -166.7,2.95 -200.45,47.95 -101.11,137.05 -234.15,456.48 -375.8,511.43 -27.18,6.56 -145.93,-15.32 -155.62,115.63 11.56,165.93 177.91,92.28 374.37,121.25 119.58,17.5 172.5,33.75 175.42,168.32 -0.27,102.39 -78.33,155 -129.16,165 -235.01,43.55 -421.26,-54.27 -420.94,134.33"
             style="fill:#2a2a2b;fill-opacity:1;fill-rule:nonzero;stroke:none"
             id="path44"
             inkscape:connector-curvature="0" /><path
             d="m 25.207,866.672 22.25,0 0,222.656 -22.25,0 0,-222.656 z"
             style="fill:#2a2a2b;fill-opacity:1;fill-rule:nonzero;stroke:none"
             id="path46"
             inkscape:connector-curvature="0" /><path
             d="m 97.4648,1031.36 21.1912,0 0,-29.51 c 8.477,11.3 17.864,19.75 28.156,25.35 10.293,5.6 21.493,8.4 33.602,8.4 12.313,0 23.238,-3.13 32.77,-9.39 9.543,-6.25 16.578,-14.67 21.117,-25.28 4.543,-10.578 6.812,-27.09 6.812,-49.489 l 0,-84.769 -21.191,0 0,78.558 c 0,18.969 -0.785,31.641 -2.36,38 -2.457,10.899 -7.167,19.09 -14.128,24.6 -6.965,5.49 -16.047,8.24 -27.246,8.24 -12.821,0 -24.301,-4.24 -34.446,-12.72 -10.14,-8.471 -16.832,-18.959 -20.058,-31.479 -2.02,-8.16 -3.028,-23.109 -3.028,-44.812 l 0,-60.387 -21.1912,0 0,164.688"
             style="fill:#2a2a2b;fill-opacity:1;fill-rule:nonzero;stroke:none"
             id="path48"
             inkscape:connector-curvature="0" /><path
             d="m 307.473,1092.51 21.187,0 0,-61.15 33.606,0 0,-18.32 -33.606,0 0,-146.368 -21.187,0 0,146.368 -28.914,0 0,18.32 28.914,0 0,61.15"
             style="fill:#2a2a2b;fill-opacity:1;fill-rule:nonzero;stroke:none"
             id="path50"
             inkscape:connector-curvature="0" /><path
             d="m 535.188,965.668 c -2.829,11.301 -6.95,20.332 -12.356,27.102 -5.406,6.761 -12.555,12.2 -21.445,16.35 -8.891,4.13 -18.239,6.2 -28.035,6.2 -16.168,0 -30.059,-5.2 -41.676,-15.601 -8.492,-7.559 -14.906,-18.918 -19.25,-34.051 l 122.762,0 z m 0,-44.348 17.859,-9.39 c -5.859,-11.508 -12.625,-20.782 -20.305,-27.852 -7.676,-7.058 -16.312,-12.437 -25.906,-16.117 -9.594,-3.68 -20.453,-5.52 -32.574,-5.52 -26.867,0 -47.875,8.789 -63.028,26.411 -15.148,17.609 -22.722,37.507 -22.722,59.718 0,20.879 6.41,39.5 19.238,55.85 16.258,20.79 38.027,31.18 65.297,31.18 28.082,0 50.504,-10.64 67.269,-31.93 11.914,-15.041 17.977,-33.811 18.18,-56.311 l -148.187,0 c 0.398,-19.129 6.511,-34.82 18.336,-47.05 11.82,-12.231 26.417,-18.34 43.796,-18.34 8.387,0 16.543,1.453 24.477,4.359 7.93,2.922 14.676,6.793 20.23,11.613 5.555,4.829 11.575,12.618 18.04,23.379"
             style="fill:#2a2a2b;fill-opacity:1;fill-rule:nonzero;stroke:none"
             id="path52"
             inkscape:connector-curvature="0" /><path
             d="m 592.461,1031.36 21.644,0 0,-24.06 c 6.457,9.48 13.266,16.57 20.438,21.26 7.16,4.7 14.629,7.04 22.398,7.04 5.852,0 12.114,-1.87 18.774,-5.61 l -11.051,-17.85 c -4.445,1.92 -8.176,2.87 -11.203,2.87 -7.066,0 -13.875,-2.9 -20.434,-8.7 -6.562,-5.81 -11.558,-14.81 -14.984,-27.021 -2.629,-9.379 -3.938,-28.359 -3.938,-56.91 l 0,-55.707 -21.644,0 0,164.688"
             style="fill:#2a2a2b;fill-opacity:1;fill-rule:nonzero;stroke:none"
             id="path54"
             inkscape:connector-curvature="0" /><path
             d="m 775.898,1015.17 c -11.793,0 -22.675,-2.9 -32.656,-8.7 -9.98,-5.79 -17.914,-13.939 -23.812,-24.419 -5.895,-10.481 -8.844,-21.571 -8.844,-33.262 0,-11.59 2.973,-22.68 8.922,-33.258 5.941,-10.582 13.933,-18.832 23.961,-24.73 10.027,-5.891 20.789,-8.832 32.285,-8.832 11.586,0 22.57,2.922 32.957,8.769 10.383,5.84 18.363,13.75 23.961,23.731 5.594,9.98 8.39,21.222 8.39,33.722 0,19.039 -6.273,34.969 -18.82,47.77 -12.551,12.799 -28,19.209 -46.344,19.209 z m 84.692,79.77 0,-228.268 -20.887,0 0,28.297 c -8.883,-10.789 -18.844,-18.91 -29.898,-24.36 -11.043,-5.449 -23.133,-8.168 -36.25,-8.168 -23.313,0 -43.211,8.438 -59.715,25.348 -16.496,16.902 -24.746,37.461 -24.746,61.68 0,23.722 8.324,44 24.972,60.861 16.653,16.84 36.68,25.27 60.094,25.27 13.52,0 25.758,-2.87 36.707,-8.63 10.949,-5.75 20.559,-14.38 28.836,-25.88 l 0,93.85 20.887,0"
             style="fill:#2a2a2b;fill-opacity:1;fill-rule:nonzero;stroke:none"
             id="path56"
             inkscape:connector-curvature="0" /><path
             d="m 907.871,1031.36 21.191,0 0,-164.688 -21.191,0 0,164.688 z m 10.52,67.81 c 4.824,0 8.945,-1.71 12.355,-5.14 3.418,-3.43 5.129,-7.57 5.129,-12.41 0,-4.75 -1.711,-8.83 -5.129,-12.27 -3.41,-3.43 -7.531,-5.14 -12.355,-5.14 -4.723,0 -8.789,1.71 -12.207,5.14 -3.414,3.44 -5.125,7.52 -5.125,12.27 0,4.84 1.711,8.98 5.125,12.41 3.418,3.43 7.484,5.14 12.207,5.14"
             style="fill:#2a2a2b;fill-opacity:1;fill-rule:nonzero;stroke:none"
             id="path58"
             inkscape:connector-curvature="0" /><path
             d="m 1058.39,1013.35 -13.62,-14.08 c -11.34,11 -22.42,16.51 -33.24,16.51 -6.88,0 -12.776,-2.28 -17.682,-6.82 -4.907,-4.54 -7.36,-9.839 -7.36,-15.901 0,-5.34 2.024,-10.438 6.067,-15.278 4.047,-4.941 12.545,-10.75 25.485,-17.41 15.77,-8.172 26.5,-16.043 32.16,-23.621 5.56,-7.66 8.34,-16.289 8.34,-25.879 0,-13.519 -4.75,-24.98 -14.25,-34.351 -9.5,-9.399 -21.38,-14.079 -35.63,-14.079 -9.5,0 -18.566,2.071 -27.211,6.207 -8.64,4.133 -15.789,9.832 -21.449,17.102 l 13.32,15.129 c 10.821,-12.199 22.305,-18.309 34.44,-18.309 8.49,0 15.73,2.719 21.7,8.168 5.96,5.453 8.95,11.864 8.95,19.223 0,6.059 -1.97,11.457 -5.91,16.207 -3.95,4.633 -12.85,10.48 -26.7,17.551 -14.87,7.672 -24.984,15.242 -30.347,22.699 -5.355,7.473 -8.035,16 -8.035,25.594 0,12.508 4.266,22.908 12.812,31.178 8.54,8.27 19.332,12.41 32.37,12.41 15.16,0 30.43,-7.42 45.79,-22.25"
             style="fill:#2a2a2b;fill-opacity:1;fill-rule:nonzero;stroke:none"
             id="path60"
             inkscape:connector-curvature="0" /><path
             d="m 1258.25,997.148 -16.8,-10.437 c -14.52,19.269 -34.32,28.909 -59.42,28.909 -20.06,0 -36.71,-6.46 -49.96,-19.358 -13.26,-12.903 -19.89,-28.571 -19.89,-47.024 0,-11.988 3.05,-23.277 9.15,-33.859 6.1,-10.59 14.47,-18.801 25.1,-24.641 10.63,-5.847 22.55,-8.769 35.75,-8.769 24.19,0 43.95,9.633 59.27,28.902 l 16.8,-11.051 c -7.87,-11.851 -18.44,-21.05 -31.71,-27.582 -13.27,-6.527 -28.38,-9.797 -45.33,-9.797 -26.04,0 -47.64,8.27 -64.79,24.821 -17.16,16.547 -25.73,36.679 -25.73,60.386 0,15.954 4.01,30.75 12.03,44.43 8.02,13.682 19.05,24.352 33.08,32.022 14.02,7.66 29.71,11.5 47.07,11.5 10.9,0 21.42,-1.66 31.56,-5 10.14,-3.32 18.74,-7.67 25.81,-13.01 7.06,-5.35 13.07,-12.17 18.01,-20.442"
             style="fill:#2a2a2b;fill-opacity:1;fill-rule:nonzero;stroke:none"
             id="path62"
             inkscape:connector-curvature="0" /><path
             d="m 1298.27,1031.36 21.19,0 0,-164.688 -21.19,0 0,164.688 z m 10.52,67.81 c 4.82,0 8.94,-1.71 12.36,-5.14 3.42,-3.43 5.12,-7.57 5.12,-12.41 0,-4.75 -1.7,-8.83 -5.12,-12.27 -3.42,-3.43 -7.54,-5.14 -12.36,-5.14 -4.72,0 -8.79,1.71 -12.21,5.14 -3.41,3.44 -5.12,7.52 -5.12,12.27 0,4.84 1.71,8.98 5.12,12.41 3.42,3.43 7.49,5.14 12.21,5.14"
             style="fill:#2a2a2b;fill-opacity:1;fill-rule:nonzero;stroke:none"
             id="path64"
             inkscape:connector-curvature="0" /><path
             d="m 1451.06,1015.17 c -18.33,0 -33.76,-6.41 -46.29,-19.209 -12.53,-12.801 -18.8,-28.731 -18.8,-47.77 0,-12.5 2.79,-23.742 8.39,-33.722 5.58,-9.981 13.58,-17.891 24,-23.731 10.42,-5.847 21.43,-8.769 33,-8.769 11.38,0 22.07,2.941 32.09,8.832 10.02,5.898 18,14.148 23.94,24.73 5.94,10.578 8.91,21.668 8.91,33.258 0,11.691 -2.95,22.781 -8.84,33.262 -5.89,10.48 -13.81,18.629 -23.78,24.419 -9.97,5.8 -20.84,8.7 -32.62,8.7 z m -84.77,16.19 21.2,0 0,-30.27 c 8.36,11.5 17.99,20.13 28.88,25.88 10.89,5.76 23.03,8.63 36.44,8.63 23.39,0 43.4,-8.43 60.03,-25.27 16.63,-16.861 24.95,-37.139 24.95,-60.861 0,-24.219 -8.24,-44.778 -24.72,-61.68 -16.48,-16.91 -36.37,-25.348 -59.66,-25.348 -13.1,0 -25.15,2.719 -36.13,8.168 -11,5.45 -20.93,13.571 -29.79,24.36 l 0,-88.539 -21.2,0 0,224.93"
             style="fill:#2a2a2b;fill-opacity:1;fill-rule:nonzero;stroke:none"
             id="path66"
             inkscape:connector-curvature="0" /><path
             d="m 1576.75,866.672 21.1914,0 0,228.27 -21.1914,0 0,-228.27 z"
             style="fill:#2a2a2b;fill-opacity:1;fill-rule:nonzero;stroke:none"
             id="path68"
             inkscape:connector-curvature="0" /><path
             d="m 1641.29,1031.36 21.2,0 0,-164.688 -21.2,0 0,164.688 z m 10.53,67.81 c 4.82,0 8.94,-1.71 12.35,-5.14 3.42,-3.43 5.13,-7.57 5.13,-12.41 0,-4.75 -1.71,-8.83 -5.13,-12.27 -3.41,-3.43 -7.53,-5.14 -12.35,-5.14 -4.73,0 -8.8,1.71 -12.22,5.14 -3.41,3.44 -5.12,7.52 -5.12,12.27 0,4.84 1.71,8.98 5.12,12.41 3.42,3.43 7.49,5.14 12.22,5.14"
             style="fill:#2a2a2b;fill-opacity:1;fill-rule:nonzero;stroke:none"
             id="path70"
             inkscape:connector-curvature="0" /><path
             d="m 1709.01,1031.36 21.2,0 0,-29.51 c 8.47,11.3 17.86,19.75 28.15,25.35 10.29,5.6 21.49,8.4 33.6,8.4 12.32,0 23.24,-3.13 32.78,-9.39 9.53,-6.25 16.57,-14.67 21.11,-25.28 4.54,-10.578 6.81,-27.09 6.81,-49.489 l 0,-84.769 -21.2,0 0,78.558 c 0,18.969 -0.78,31.641 -2.35,38 -2.45,10.899 -7.17,19.09 -14.13,24.6 -6.96,5.49 -16.04,8.24 -27.25,8.24 -12.82,0 -24.3,-4.24 -34.44,-12.72 -10.15,-8.471 -16.83,-18.959 -20.06,-31.479 -2.02,-8.16 -3.02,-23.109 -3.02,-44.812 l 0,-60.387 -21.2,0 0,164.688"
             style="fill:#2a2a2b;fill-opacity:1;fill-rule:nonzero;stroke:none"
             id="path72"
             inkscape:connector-curvature="0" /><path
             d="m 1979.94,1015.17 c -11.8,0 -22.68,-2.9 -32.65,-8.7 -9.99,-5.79 -17.92,-13.939 -23.82,-24.419 -5.9,-10.481 -8.84,-21.571 -8.84,-33.262 0,-11.59 2.97,-22.68 8.91,-33.258 5.95,-10.582 13.94,-18.832 23.97,-24.73 10.03,-5.891 20.78,-8.832 32.28,-8.832 11.59,0 22.57,2.922 32.95,8.769 10.39,5.84 18.37,13.75 23.97,23.731 5.59,9.98 8.39,21.222 8.39,33.722 0,19.039 -6.27,34.969 -18.82,47.77 -12.55,12.799 -28,19.209 -46.34,19.209 z m 84.69,16.19 0,-164.688 -20.89,0 0,28.297 c -8.88,-10.789 -18.85,-18.91 -29.89,-24.36 -11.06,-5.449 -23.14,-8.168 -36.25,-8.168 -23.32,0 -43.22,8.438 -59.72,25.348 -16.5,16.902 -24.75,37.461 -24.75,61.68 0,23.722 8.33,44 24.98,60.861 16.65,16.84 36.68,25.27 60.09,25.27 13.52,0 25.76,-2.87 36.7,-8.63 10.95,-5.75 20.57,-14.38 28.84,-25.88 l 0,30.27 20.89,0"
             style="fill:#2a2a2b;fill-opacity:1;fill-rule:nonzero;stroke:none"
             id="path74"
             inkscape:connector-curvature="0" /><path
             d="m 2106.78,1031.36 21.64,0 0,-24.06 c 6.45,9.48 13.27,16.57 20.43,21.26 7.17,4.7 14.64,7.04 22.4,7.04 5.86,0 12.11,-1.87 18.77,-5.61 l -11.05,-17.85 c -4.44,1.92 -8.17,2.87 -11.2,2.87 -7.06,0 -13.87,-2.9 -20.43,-8.7 -6.56,-5.81 -11.56,-14.81 -14.99,-27.021 -2.62,-9.379 -3.93,-28.359 -3.93,-56.91 l 0,-55.707 -21.64,0 0,164.688"
             style="fill:#2a2a2b;fill-opacity:1;fill-rule:nonzero;stroke:none"
             id="path76"
             inkscape:connector-curvature="0" /><path
             d="m 2192.81,1031.36 22.4,0 56.6,-126.809 54.96,126.809 22.55,0 -98.24,-224.93 -22.38,0 31.7,72.711 -67.59,152.219"
             style="fill:#2a2a2b;fill-opacity:1;fill-rule:nonzero;stroke:none"
             id="path78"
             inkscape:connector-curvature="0" /><path
             d="m 2678.36,1048.01 -17.56,-13.46 c -9.69,12.6 -21.33,22.16 -34.89,28.68 -13.58,6.5 -28.49,9.75 -44.74,9.75 -17.75,0 -34.2,-4.26 -49.33,-12.78 -15.14,-8.54 -26.88,-19.98 -35.2,-34.37 -8.33,-14.37 -12.49,-30.541 -12.49,-48.51 0,-27.14 9.31,-49.8 27.93,-67.961 18.61,-18.16 42.1,-27.25 70.46,-27.25 31.18,0 57.26,12.211 78.26,36.629 l 17.56,-13.316 c -11.1,-14.133 -24.96,-25.043 -41.55,-32.774 -16.6,-7.707 -35.15,-11.578 -55.64,-11.578 -38.94,0 -69.68,12.969 -92.18,38.899 -18.86,21.902 -28.31,48.34 -28.31,79.32 0,32.601 11.44,60.021 34.29,82.271 22.86,22.25 51.49,33.38 85.91,33.38 20.78,0 39.55,-4.12 56.31,-12.34 16.75,-8.23 30.47,-19.75 41.17,-34.59"
             style="fill:#2a2a2b;fill-opacity:1;fill-rule:nonzero;stroke:none"
             id="path80"
             inkscape:connector-curvature="0" /><path
             d="m 2860.66,965.668 c -2.83,11.301 -6.94,20.332 -12.35,27.102 -5.41,6.761 -12.55,12.2 -21.44,16.35 -8.89,4.13 -18.24,6.2 -28.04,6.2 -16.16,0 -30.06,-5.2 -41.68,-15.601 -8.49,-7.559 -14.9,-18.918 -19.24,-34.051 l 122.75,0 z m 0,-44.348 17.87,-9.39 c -5.86,-11.508 -12.63,-20.782 -20.31,-27.852 -7.67,-7.058 -16.31,-12.437 -25.91,-16.117 -9.6,-3.68 -20.45,-5.52 -32.57,-5.52 -26.87,0 -47.87,8.789 -63.02,26.411 -15.16,17.609 -22.74,37.507 -22.74,59.718 0,20.879 6.42,39.5 19.25,55.85 16.26,20.79 38.03,31.18 65.3,31.18 28.07,0 50.49,-10.64 67.26,-31.93 11.92,-15.041 17.98,-33.811 18.18,-56.311 l -148.19,0 c 0.41,-19.129 6.52,-34.82 18.34,-47.05 11.83,-12.231 26.43,-18.34 43.8,-18.34 8.39,0 16.54,1.453 24.47,4.359 7.93,2.922 14.68,6.793 20.24,11.613 5.55,4.829 11.57,12.618 18.03,23.379"
             style="fill:#2a2a2b;fill-opacity:1;fill-rule:nonzero;stroke:none"
             id="path82"
             inkscape:connector-curvature="0" /><path
             d="m 2925.96,1031.36 21.19,0 0,-29.51 c 8.48,11.3 17.86,19.75 28.15,25.35 10.3,5.6 21.5,8.4 33.61,8.4 12.31,0 23.23,-3.13 32.77,-9.39 9.53,-6.25 16.57,-14.67 21.11,-25.28 4.54,-10.578 6.82,-27.09 6.82,-49.489 l 0,-84.769 -21.19,0 0,78.558 c 0,18.969 -0.79,31.641 -2.37,38 -2.45,10.899 -7.16,19.09 -14.13,24.6 -6.96,5.49 -16.04,8.24 -27.24,8.24 -12.82,0 -24.31,-4.24 -34.45,-12.72 -10.14,-8.471 -16.82,-18.959 -20.05,-31.479 -2.03,-8.16 -3.03,-23.109 -3.03,-44.812 l 0,-60.387 -21.19,0 0,164.688"
             style="fill:#2a2a2b;fill-opacity:1;fill-rule:nonzero;stroke:none"
             id="path84"
             inkscape:connector-curvature="0" /><path
             d="m 3135.97,1092.51 21.19,0 0,-61.15 33.6,0 0,-18.32 -33.6,0 0,-146.368 -21.19,0 0,146.368 -28.92,0 0,18.32 28.92,0 0,61.15"
             style="fill:#2a2a2b;fill-opacity:1;fill-rule:nonzero;stroke:none"
             id="path86"
             inkscape:connector-curvature="0" /><path
             d="m 3363.67,965.668 c -2.83,11.301 -6.94,20.332 -12.35,27.102 -5.41,6.761 -12.55,12.2 -21.45,16.35 -8.88,4.13 -18.23,6.2 -28.03,6.2 -16.17,0 -30.06,-5.2 -41.68,-15.601 -8.49,-7.559 -14.91,-18.918 -19.24,-34.051 l 122.75,0 z m 0,-44.348 17.86,-9.39 c -5.86,-11.508 -12.62,-20.782 -20.3,-27.852 -7.68,-7.058 -16.31,-12.437 -25.91,-16.117 -9.6,-3.68 -20.46,-5.52 -32.58,-5.52 -26.86,0 -47.87,8.789 -63.01,26.411 -15.16,17.609 -22.74,37.507 -22.74,59.718 0,20.879 6.42,39.5 19.25,55.85 16.26,20.79 38.03,31.18 65.29,31.18 28.08,0 50.5,-10.64 67.27,-31.93 11.92,-15.041 17.98,-33.811 18.18,-56.311 l -148.19,0 c 0.41,-19.129 6.52,-34.82 18.34,-47.05 11.83,-12.231 26.42,-18.34 43.8,-18.34 8.39,0 16.54,1.453 24.47,4.359 7.93,2.922 14.68,6.793 20.23,11.613 5.56,4.829 11.58,12.618 18.04,23.379"
             style="fill:#2a2a2b;fill-opacity:1;fill-rule:nonzero;stroke:none"
             id="path88"
             inkscape:connector-curvature="0" /><path
             d="m 3420.96,1031.36 21.64,0 0,-24.06 c 6.45,9.48 13.27,16.57 20.43,21.26 7.17,4.7 14.64,7.04 22.4,7.04 5.86,0 12.11,-1.87 18.77,-5.61 l -11.05,-17.85 c -4.44,1.92 -8.17,2.87 -11.2,2.87 -7.06,0 -13.87,-2.9 -20.43,-8.7 -6.56,-5.81 -11.56,-14.81 -14.99,-27.021 -2.62,-9.379 -3.93,-28.359 -3.93,-56.91 l 0,-55.707 -21.64,0 0,164.688"
             style="fill:#2a2a2b;fill-opacity:1;fill-rule:nonzero;stroke:none"
             id="path90"
             inkscape:connector-curvature="0" /><path
             d="m 88.7812,728.691 0,-20.75 c -7.7734,3.34 -14.4374,5 -19.9843,5 -4.1407,0 -7.5664,-0.832 -10.2891,-2.5 -2.7266,-1.66 -4.4453,-3.582 -5.1484,-5.75 -0.7071,-2.171 -1.0586,-7.941 -1.0586,-17.332 l -0.0196,-22.25 34.379,0 0,-18.32 -34.3946,0 -0.1172,-146.367 -21.1914,0 0,146.367 -21.6445,0 0,18.32 21.6445,0 0,25.731 c 0,11.808 1.0821,20.238 3.2539,25.289 2.1719,5.039 5.8516,9.101 11.0547,12.172 5.1953,3.078 11.4727,4.621 18.8399,4.621 6.8633,0 15.0859,-1.41 24.6757,-4.231"
             style="fill:#2a2a2b;fill-opacity:1;fill-rule:nonzero;stroke:none"
             id="path92"
             inkscape:connector-curvature="0" /><path
             d="m 192.148,648.609 c -17.621,0 -32.761,-6.507 -45.418,-19.519 -12.664,-13.02 -18.992,-28.762 -18.992,-47.231 0,-11.898 2.887,-23.007 8.657,-33.3 5.773,-10.289 13.57,-18.239 23.394,-23.84 9.824,-5.598 20.609,-8.399 32.359,-8.399 11.743,0 22.532,2.801 32.356,8.399 9.816,5.601 17.613,13.551 23.391,23.84 5.773,10.293 8.66,21.402 8.66,33.3 0,18.469 -6.36,34.211 -19.071,47.231 -12.711,13.012 -27.82,19.519 -45.336,19.519 z m 0.075,20.743 c 25.371,0 46.394,-9.184 63.082,-27.551 15.16,-16.75 22.742,-36.582 22.742,-59.481 0,-23.011 -8.012,-43.129 -24.031,-60.32 -16.028,-17.211 -36.621,-25.809 -61.793,-25.809 -25.274,0 -45.922,8.598 -61.946,25.809 -16.019,17.191 -24.031,37.309 -24.031,60.32 0,22.801 7.578,42.578 22.742,59.328 16.68,18.461 37.758,27.704 63.235,27.704"
             style="fill:#2a2a2b;fill-opacity:1;fill-rule:nonzero;stroke:none"
             id="path94"
             inkscape:connector-curvature="0" /><path
             d="m 305.195,665.109 21.645,0 0,-24.058 c 6.457,9.48 13.265,16.57 20.433,21.258 7.165,4.703 14.629,7.043 22.407,7.043 5.847,0 12.105,-1.872 18.765,-5.614 l -11.047,-17.847 c -4.445,1.918 -8.175,2.871 -11.203,2.871 -7.062,0 -13.875,-2.903 -20.433,-8.703 -6.563,-5.809 -11.559,-14.809 -14.985,-27.02 -2.629,-9.379 -3.937,-28.359 -3.937,-56.91 l 0,-55.707 -21.645,0 0,164.687"
             style="fill:#2a2a2b;fill-opacity:1;fill-rule:nonzero;stroke:none"
             id="path96"
             inkscape:connector-curvature="0" /><path
             d="m 464.703,541.898 18.918,11.364 c 13.32,-24.543 28.707,-36.793 46.168,-36.793 7.469,0 14.481,1.742 21.039,5.222 6.559,3.477 11.555,8.149 14.988,14.008 3.426,5.852 5.145,12.051 5.145,18.61 0,7.472 -2.523,14.793 -7.566,21.953 -6.965,9.886 -19.68,21.797 -38.145,35.726 -18.57,14.024 -30.121,24.16 -34.664,30.422 -7.871,10.488 -11.809,21.84 -11.809,34.051 0,9.687 2.321,18.519 6.965,26.488 4.641,7.973 11.176,14.25 19.602,18.852 8.426,4.59 17.582,6.89 27.472,6.89 10.496,0 20.309,-2.601 29.442,-7.8 9.133,-5.2 18.793,-14.762 28.988,-28.692 L 573.082,678.43 c -8.379,11.109 -15.516,18.422 -21.422,21.949 -5.898,3.531 -12.336,5.301 -19.297,5.301 -8.984,0 -16.324,-2.731 -22.019,-8.18 -5.703,-5.449 -8.559,-12.148 -8.559,-20.121 0,-4.848 1.008,-9.539 3.027,-14.078 2.02,-4.551 5.7,-9.492 11.051,-14.84 2.926,-2.82 12.512,-10.242 28.762,-22.25 19.27,-14.223 32.488,-26.891 39.656,-37.992 7.164,-11.11 10.746,-22.25 10.746,-33.457 0,-16.141 -6.132,-30.172 -18.386,-42.071 -12.266,-11.91 -27.172,-17.871 -44.731,-17.871 -13.527,0 -25.789,3.61 -36.781,10.828 -11.004,7.211 -21.145,19.301 -30.426,36.25"
             style="fill:#2a2a2b;fill-opacity:1;fill-rule:nonzero;stroke:none"
             id="path98"
             inkscape:connector-curvature="0" /><path
             d="m 794.434,630.898 -16.801,-10.437 c -14.52,19.269 -34.321,28.91 -59.418,28.91 -20.063,0 -36.715,-6.461 -49.969,-19.359 -13.258,-12.903 -19.883,-28.571 -19.883,-47.024 0,-11.988 3.047,-23.277 9.149,-33.859 6.097,-10.59 14.465,-18.801 25.093,-24.641 10.637,-5.847 22.555,-8.769 35.758,-8.769 24.192,0 43.946,9.633 59.27,28.902 l 16.801,-11.051 c -7.872,-11.851 -18.442,-21.05 -31.707,-27.582 -13.274,-6.527 -28.387,-9.797 -45.34,-9.797 -26.035,0 -47.629,8.27 -64.785,24.821 -17.157,16.547 -25.731,36.679 -25.731,60.386 0,15.954 4.008,30.75 12.035,44.43 8.02,13.684 19.043,24.352 33.071,32.024 14.023,7.66 29.718,11.5 47.078,11.5 10.894,0 21.414,-1.661 31.558,-5 10.141,-3.321 18.742,-7.672 25.809,-13.012 7.058,-5.352 13.066,-12.168 18.012,-20.442"
             style="fill:#2a2a2b;fill-opacity:1;fill-rule:nonzero;stroke:none"
             id="path100"
             inkscape:connector-curvature="0" /><path
             d="m 827.945,665.109 21.192,0 0,-164.687 -21.192,0 0,164.687 z m 10.524,67.813 c 4.816,0 8.937,-1.711 12.351,-5.141 3.418,-3.429 5.125,-7.57 5.125,-12.41 0,-4.75 -1.707,-8.832 -5.125,-12.269 -3.414,-3.43 -7.535,-5.141 -12.351,-5.141 -4.731,0 -8.797,1.711 -12.215,5.141 -3.41,3.437 -5.121,7.519 -5.121,12.269 0,4.84 1.711,8.981 5.121,12.41 3.418,3.43 7.484,5.141 12.215,5.141"
             style="fill:#2a2a2b;fill-opacity:1;fill-rule:nonzero;stroke:none"
             id="path102"
             inkscape:connector-curvature="0" /><path
             d="m 1027.81,599.422 c -2.83,11.297 -6.95,20.328 -12.36,27.098 -5.4,6.761 -12.55,12.199 -21.442,16.351 -8.891,4.129 -18.238,6.199 -28.031,6.199 -16.172,0 -30.063,-5.199 -41.68,-15.601 -8.492,-7.559 -14.906,-18.918 -19.246,-34.047 l 122.759,0 z m 0,-44.352 17.86,-9.39 c -5.86,-11.508 -12.63,-20.782 -20.3,-27.852 -7.68,-7.058 -16.32,-12.437 -25.913,-16.117 -9.594,-3.68 -20.453,-5.52 -32.57,-5.52 -26.871,0 -47.879,8.789 -63.032,26.411 -15.148,17.609 -22.722,37.507 -22.722,59.718 0,20.879 6.41,39.5 19.238,55.852 16.262,20.789 38.027,31.18 65.305,31.18 28.074,0 50.494,-10.641 67.264,-31.93 11.91,-15.043 17.97,-33.813 18.18,-56.313 l -148.19,0 c 0.398,-19.129 6.511,-34.82 18.336,-47.05 11.82,-12.231 26.422,-18.34 43.8,-18.34 8.387,0 16.539,1.453 24.477,4.359 7.93,2.922 14.667,6.793 20.227,11.613 5.56,4.829 11.57,12.618 18.04,23.379"
             style="fill:#2a2a2b;fill-opacity:1;fill-rule:nonzero;stroke:none"
             id="path104"
             inkscape:connector-curvature="0" /><path
             d="m 1086.59,665.109 21.19,0 0,-29.507 c 8.48,11.296 17.86,19.75 28.16,25.347 10.29,5.602 21.49,8.403 33.6,8.403 12.31,0 23.23,-3.133 32.77,-9.391 9.54,-6.25 16.58,-14.672 21.12,-25.281 4.54,-10.578 6.81,-27.09 6.81,-49.489 l 0,-84.769 -21.19,0 0,78.558 c 0,18.969 -0.79,31.641 -2.36,38 -2.46,10.899 -7.17,19.09 -14.13,24.598 -6.96,5.492 -16.05,8.242 -27.25,8.242 -12.81,0 -24.3,-4.242 -34.44,-12.718 -10.15,-8.473 -16.83,-18.961 -20.06,-31.481 -2.02,-8.16 -3.03,-23.109 -3.03,-44.812 l 0,-60.387 -21.19,0 0,164.687"
             style="fill:#2a2a2b;fill-opacity:1;fill-rule:nonzero;stroke:none"
             id="path106"
             inkscape:connector-curvature="0" /><path
             d="m 1290.09,726.262 21.19,0 0,-61.153 33.6,0 0,-18.32 -33.6,0 0,-146.367 -21.19,0 0,146.367 -28.91,0 0,18.32 28.91,0 0,61.153"
             style="fill:#2a2a2b;fill-opacity:1;fill-rule:nonzero;stroke:none"
             id="path108"
             inkscape:connector-curvature="0" /><path
             d="m 1369.46,665.109 21.19,0 0,-164.687 -21.19,0 0,164.687 z m 10.52,67.813 c 4.82,0 8.95,-1.711 12.36,-5.141 3.42,-3.429 5.13,-7.57 5.13,-12.41 0,-4.75 -1.71,-8.832 -5.13,-12.269 -3.41,-3.43 -7.54,-5.141 -12.36,-5.141 -4.72,0 -8.79,1.711 -12.21,5.141 -3.41,3.437 -5.12,7.519 -5.12,12.269 0,4.84 1.71,8.981 5.12,12.41 3.42,3.43 7.49,5.141 12.21,5.141"
             style="fill:#2a2a2b;fill-opacity:1;fill-rule:nonzero;stroke:none"
             id="path110"
             inkscape:connector-curvature="0" /><path
             d="m 1498.48,728.691 0,-20.75 c -7.77,3.34 -14.43,5 -19.98,5 -4.14,0 -7.57,-0.832 -10.29,-2.5 -2.73,-1.66 -4.45,-3.582 -5.15,-5.75 -0.71,-2.171 -1.06,-7.941 -1.06,-17.332 l -0.02,-22.25 34.38,0 0,-18.32 -34.39,0 -0.12,-146.367 -21.19,0 0,146.367 -21.65,0 0,18.32 21.65,0 0,25.731 c 0,11.808 1.08,20.238 3.26,25.289 2.16,5.039 5.85,9.101 11.04,12.172 5.2,3.078 11.48,4.621 18.85,4.621 6.86,0 15.08,-1.41 24.67,-4.231"
             style="fill:#2a2a2b;fill-opacity:1;fill-rule:nonzero;stroke:none"
             id="path112"
             inkscape:connector-curvature="0" /><path
             d="m 1520.79,665.109 21.19,0 0,-164.687 -21.19,0 0,164.687 z m 10.52,67.813 c 4.82,0 8.94,-1.711 12.36,-5.141 3.41,-3.429 5.12,-7.57 5.12,-12.41 0,-4.75 -1.71,-8.832 -5.12,-12.269 -3.42,-3.43 -7.54,-5.141 -12.36,-5.141 -4.72,0 -8.79,1.711 -12.21,5.141 -3.41,3.437 -5.12,7.519 -5.12,12.269 0,4.84 1.71,8.981 5.12,12.41 3.42,3.43 7.49,5.141 12.21,5.141"
             style="fill:#2a2a2b;fill-opacity:1;fill-rule:nonzero;stroke:none"
             id="path114"
             inkscape:connector-curvature="0" /><path
             d="m 1741.85,630.898 -16.8,-10.437 c -14.52,19.269 -34.33,28.91 -59.42,28.91 -20.06,0 -36.72,-6.461 -49.97,-19.359 -13.26,-12.903 -19.88,-28.571 -19.88,-47.024 0,-11.988 3.04,-23.277 9.14,-33.859 6.1,-10.59 14.47,-18.801 25.1,-24.641 10.63,-5.847 22.55,-8.769 35.76,-8.769 24.19,0 43.95,9.633 59.27,28.902 l 16.8,-11.051 c -7.88,-11.851 -18.45,-21.05 -31.71,-27.582 -13.27,-6.527 -28.39,-9.797 -45.34,-9.797 -26.04,0 -47.63,8.27 -64.79,24.821 -17.15,16.547 -25.73,36.679 -25.73,60.386 0,15.954 4.01,30.75 12.04,44.43 8.02,13.684 19.04,24.352 33.07,32.024 14.02,7.66 29.72,11.5 47.07,11.5 10.9,0 21.42,-1.661 31.57,-5 10.13,-3.321 18.74,-7.672 25.81,-13.012 7.06,-5.352 13.06,-12.168 18.01,-20.442"
             style="fill:#2a2a2b;fill-opacity:1;fill-rule:nonzero;stroke:none"
             id="path116"
             inkscape:connector-curvature="0" /><path
             d="m 2071.18,681.762 -17.56,-13.461 c -9.68,12.597 -21.33,22.16 -34.89,28.679 -13.57,6.5 -28.49,9.75 -44.74,9.75 -17.75,0 -34.2,-4.261 -49.33,-12.781 -15.14,-8.539 -26.88,-19.98 -35.2,-34.371 -8.33,-14.367 -12.49,-30.539 -12.49,-48.508 0,-27.14 9.31,-49.8 27.93,-67.961 18.62,-18.16 42.1,-27.25 70.46,-27.25 31.18,0 57.27,12.211 78.26,36.629 l 17.56,-13.316 c -11.1,-14.133 -24.96,-25.043 -41.55,-32.774 -16.6,-7.707 -35.15,-11.578 -55.64,-11.578 -38.94,0 -69.67,12.969 -92.17,38.899 -18.87,21.902 -28.31,48.34 -28.31,79.32 0,32.602 11.43,60.02 34.28,82.27 22.86,22.25 51.5,33.382 85.91,33.382 20.78,0 39.55,-4.121 56.31,-12.339 16.75,-8.231 30.47,-19.75 41.17,-34.59"
             style="fill:#2a2a2b;fill-opacity:1;fill-rule:nonzero;stroke:none"
             id="path118"
             inkscape:connector-curvature="0" /><path
             d="m 2186.2,648.609 c -17.63,0 -32.76,-6.507 -45.42,-19.519 -12.65,-13.02 -18.99,-28.762 -18.99,-47.231 0,-11.898 2.89,-23.007 8.66,-33.3 5.77,-10.289 13.57,-18.239 23.4,-23.84 9.81,-5.598 20.6,-8.399 32.35,-8.399 11.74,0 22.53,2.801 32.35,8.399 9.83,5.601 17.62,13.551 23.39,23.84 5.77,10.293 8.67,21.402 8.67,33.3 0,18.469 -6.36,34.211 -19.07,47.231 -12.71,13.012 -27.82,19.519 -45.34,19.519 z m 0.08,20.743 c 25.37,0 46.4,-9.184 63.08,-27.551 15.16,-16.75 22.74,-36.582 22.74,-59.481 0,-23.011 -8.02,-43.129 -24.03,-60.32 -16.03,-17.211 -36.62,-25.809 -61.79,-25.809 -25.28,0 -45.93,8.598 -61.94,25.809 -16.03,17.191 -24.04,37.309 -24.04,60.32 0,22.801 7.58,42.578 22.75,59.328 16.68,18.461 37.75,27.704 63.23,27.704"
             style="fill:#2a2a2b;fill-opacity:1;fill-rule:nonzero;stroke:none"
             id="path120"
             inkscape:connector-curvature="0" /><path
             d="m 2307.12,665.109 21.19,0 0,-28.461 c 7.38,10.5 14.95,18.172 22.73,23.012 10.72,6.461 21.98,9.692 33.8,9.692 7.98,0 15.56,-1.563 22.73,-4.692 7.18,-3.129 13.04,-7.289 17.58,-12.488 4.55,-5.203 8.48,-12.641 11.82,-22.332 7.04,12.922 15.85,22.73 26.43,29.441 10.56,6.707 21.94,10.071 34.13,10.071 11.37,0 21.42,-2.872 30.13,-8.633 8.7,-5.75 15.16,-13.77 19.39,-24.071 4.23,-10.289 6.35,-25.726 6.35,-46.308 l 0,-89.918 -21.65,0 0,89.918 c 0,17.648 -1.25,29.789 -3.77,36.398 -2.51,6.602 -6.82,11.942 -12.9,15.973 -6.09,4.027 -13.35,6.051 -21.8,6.051 -10.26,0 -19.64,-3.024 -28.13,-9.082 -8.51,-6.051 -14.72,-14.129 -18.64,-24.219 -3.92,-10.082 -5.88,-26.941 -5.88,-50.551 l 0,-64.488 -21.19,0 0,84.316 c 0,19.871 -1.24,33.371 -3.71,40.492 -2.48,7.11 -6.78,12.809 -12.95,17.098 -6.15,4.293 -13.46,6.434 -21.94,6.434 -9.79,0 -18.95,-2.953 -27.47,-8.852 -8.54,-5.898 -14.83,-13.851 -18.93,-23.84 -4.08,-9.992 -6.13,-25.269 -6.13,-45.859 l 0,-69.789 -21.19,0 0,164.687"
             style="fill:#2a2a2b;fill-opacity:1;fill-rule:nonzero;stroke:none"
             id="path122"
             inkscape:connector-curvature="0" /><path
             d="m 2679.09,648.918 c -18.32,0 -33.75,-6.406 -46.29,-19.207 -12.53,-12.801 -18.8,-28.731 -18.8,-47.77 0,-12.5 2.8,-23.742 8.38,-33.722 5.59,-9.981 13.6,-17.891 24.02,-23.731 10.42,-5.847 21.41,-8.769 32.99,-8.769 11.38,0 22.07,2.941 32.09,8.832 10.02,5.898 18,14.148 23.94,24.73 5.94,10.578 8.91,21.668 8.91,33.258 0,11.691 -2.94,22.781 -8.83,33.262 -5.89,10.48 -13.82,18.629 -23.79,24.418 -9.96,5.801 -20.84,8.699 -32.62,8.699 z m -84.76,16.191 21.19,0 0,-30.269 c 8.37,11.5 18,20.129 28.88,25.879 10.88,5.761 23.03,8.633 36.44,8.633 23.39,0 43.4,-8.43 60.03,-25.274 16.64,-16.859 24.96,-37.137 24.96,-60.859 0,-24.219 -8.25,-44.778 -24.73,-61.68 -16.48,-16.91 -36.36,-25.348 -59.65,-25.348 -13.11,0 -25.15,2.719 -36.15,8.168 -10.98,5.45 -20.92,13.571 -29.78,24.36 l 0,-88.539 -21.19,0 0,224.929"
             style="fill:#2a2a2b;fill-opacity:1;fill-rule:nonzero;stroke:none"
             id="path124"
             inkscape:connector-curvature="0" /><path
             d="m 2798.73,665.109 21.19,0 0,-76.89 c 0,-18.77 1.01,-31.688 3.03,-38.75 3.04,-10.09 8.82,-18.071 17.36,-23.918 8.54,-5.852 18.72,-8.781 30.55,-8.781 11.82,0 21.85,2.851 30.09,8.558 8.23,5.692 13.92,13.192 17.06,22.481 2.12,6.339 3.17,19.82 3.17,40.41 l 0,76.89 21.65,0 0,-80.828 c 0,-22.703 -2.64,-39.812 -7.95,-51.32 -5.29,-11.5 -13.27,-20.5 -23.91,-27.012 -10.65,-6.508 -23.99,-9.758 -40.04,-9.758 -16.04,0 -29.44,3.25 -40.19,9.758 -10.74,6.512 -18.77,15.59 -24.06,27.25 -5.3,11.653 -7.95,29.192 -7.95,52.602 l 0,79.308"
             style="fill:#2a2a2b;fill-opacity:1;fill-rule:nonzero;stroke:none"
             id="path126"
             inkscape:connector-curvature="0" /><path
             d="m 3004.35,726.262 21.19,0 0,-61.153 33.6,0 0,-18.32 -33.6,0 0,-146.367 -21.19,0 0,146.367 -28.91,0 0,18.32 28.91,0 0,61.153"
             style="fill:#2a2a2b;fill-opacity:1;fill-rule:nonzero;stroke:none"
             id="path128"
             inkscape:connector-curvature="0" /><path
             d="m 3083.72,665.109 21.19,0 0,-164.687 -21.19,0 0,164.687 z m 10.52,67.813 c 4.82,0 8.93,-1.711 12.35,-5.141 3.42,-3.429 5.13,-7.57 5.13,-12.41 0,-4.75 -1.71,-8.832 -5.13,-12.269 -3.42,-3.43 -7.53,-5.141 -12.35,-5.141 -4.73,0 -8.8,1.711 -12.21,5.141 -3.42,3.437 -5.13,7.519 -5.13,12.269 0,4.84 1.71,8.981 5.13,12.41 3.41,3.43 7.48,5.141 12.21,5.141"
             style="fill:#2a2a2b;fill-opacity:1;fill-rule:nonzero;stroke:none"
             id="path130"
             inkscape:connector-curvature="0" /><path
             d="m 3144.92,665.109 21.19,0 0,-29.507 c 8.48,11.296 17.86,19.75 28.16,25.347 10.29,5.602 21.49,8.403 33.6,8.403 12.32,0 23.23,-3.133 32.77,-9.391 9.54,-6.25 16.58,-14.672 21.12,-25.281 4.54,-10.578 6.8,-27.09 6.8,-49.489 l 0,-84.769 -21.19,0 0,78.558 c 0,18.969 -0.78,31.641 -2.35,38 -2.45,10.899 -7.17,19.09 -14.13,24.598 -6.96,5.492 -16.05,8.242 -27.25,8.242 -12.82,0 -24.3,-4.242 -34.44,-12.718 -10.15,-8.473 -16.83,-18.961 -20.06,-31.481 -2.02,-8.16 -3.03,-23.109 -3.03,-44.812 l 0,-60.387 -21.19,0 0,164.687"
             style="fill:#2a2a2b;fill-opacity:1;fill-rule:nonzero;stroke:none"
             id="path132"
             inkscape:connector-curvature="0" /><path
             d="m 3409.42,648.918 c -12.01,0 -23.16,-2.906 -33.45,-8.707 -10.3,-5.801 -18.37,-13.832 -24.22,-24.063 -5.85,-10.25 -8.78,-21.32 -8.78,-33.226 0,-18.063 6.05,-33 18.16,-44.801 12.11,-11.82 27.81,-17.723 47.08,-17.723 19.48,0 35.14,5.852 47,17.563 11.85,11.711 17.79,27.09 17.79,46.168 0,12.41 -2.74,23.48 -8.19,33.23 -5.44,9.731 -13.16,17.43 -23.15,23.082 -9.99,5.649 -20.73,8.477 -32.24,8.477 z m 62.51,16.191 21.2,0 0,-131.23 c 0,-23.109 -2.03,-40.02 -6.06,-50.707 -5.55,-15.141 -15.19,-26.793 -28.92,-34.973 -13.72,-8.168 -30.21,-12.258 -49.49,-12.258 -14.13,0 -26.81,2 -38.06,6 -11.26,3.989 -20.41,9.36 -27.48,16.09 -7.07,6.731 -13.57,16.571 -19.53,29.52 l 23.01,0 c 6.26,-10.903 14.35,-18.961 24.25,-24.223 9.9,-5.238 22.18,-7.867 36.83,-7.867 14.44,0 26.65,2.699 36.6,8.078 9.95,5.379 17.05,12.152 21.29,20.289 4.24,8.152 6.36,21.293 6.36,39.453 l 0,8.469 c -7.97,-10.09 -17.72,-17.832 -29.24,-23.23 -11.52,-5.399 -23.73,-8.098 -36.66,-8.098 -15.16,0 -29.4,3.758 -42.74,11.277 -13.33,7.512 -23.63,17.629 -30.91,30.352 -7.27,12.711 -10.91,26.687 -10.91,41.929 0,15.231 3.79,29.442 11.37,42.61 7.57,13.172 18.06,23.59 31.44,31.262 13.39,7.66 27.5,11.5 42.35,11.5 12.33,0 23.81,-2.551 34.47,-7.653 10.66,-5.09 20.93,-13.488 30.83,-25.199 l 0,28.609"
             style="fill:#2a2a2b;fill-opacity:1;fill-rule:nonzero;stroke:none"
             id="path134"
             inkscape:connector-curvature="0" /></g></g></g></g></svg>