<?xml version="1.0" encoding="UTF-8" standalone="no"?>
<!-- Created with Inkscape (http://www.inkscape.org/) -->

<svg
   xmlns:dc="http://purl.org/dc/elements/1.1/"
   xmlns:cc="http://creativecommons.org/ns#"
   xmlns:rdf="http://www.w3.org/1999/02/22-rdf-syntax-ns#"
   xmlns:svg="http://www.w3.org/2000/svg"
   xmlns="http://www.w3.org/2000/svg"
   xmlns:sodipodi="http://sodipodi.sourceforge.net/DTD/sodipodi-0.dtd"
   xmlns:inkscape="http://www.inkscape.org/namespaces/inkscape"
   id="svg3004"
   version="1.1"
   inkscape:version="0.48.0 r9654"
   width="483.125"
   height="158.75"
   xml:space="preserve"
   sodipodi:docname="UniHD+IWR-Logo.pdf"><metadata
     id="metadata3010"><rdf:RDF><cc:Work
         rdf:about=""><dc:format>image/svg+xml</dc:format><dc:type
           rdf:resource="http://purl.org/dc/dcmitype/StillImage" /><dc:title></dc:title></cc:Work></rdf:RDF></metadata><defs
     id="defs3008"><clipPath
       clipPathUnits="userSpaceOnUse"
       id="clipPath3018"><path
         d="m 0,0 231.306,0 0,126.573 L 0,126.573 0,0 z"
         id="path3020" /></clipPath><clipPath
       clipPathUnits="userSpaceOnUse"
       id="clipPath3176"><path
         d="m 250.074,10.478 136.426,0 0,105.333 -136.426,0 0,-105.333 z"
         id="path3178" /></clipPath></defs><sodipodi:namedview
     pagecolor="#ffffff"
     bordercolor="#666666"
     borderopacity="1"
     objecttolerance="10"
     gridtolerance="10"
     guidetolerance="10"
     inkscape:pageopacity="0"
     inkscape:pageshadow="2"
     inkscape:window-width="1920"
     inkscape:window-height="1123"
     id="namedview3006"
     showgrid="false"
     inkscape:zoom="3.6698596"
     inkscape:cx="241.56238"
     inkscape:cy="79.10825"
     inkscape:window-x="0"
     inkscape:window-y="25"
     inkscape:window-maximized="1"
     inkscape:current-layer="g3012" /><g
     id="g3012"
     inkscape:groupmode="layer"
     inkscape:label="UniHD+IWR-Logo"
     transform="matrix(1.25,0,0,-1.25,0,158.75)"><g
       id="g3022"
       transform="translate(229.8076,125.0732)"><path
         d="M 0,0 0,-123.573"
         style="fill:none;stroke:#b62234;stroke-width:3;stroke-linecap:round;stroke-linejoin:miter;stroke-miterlimit:4;stroke-opacity:1;stroke-dasharray:none"
         id="path3024"
         inkscape:connector-curvature="0" /></g><g
       id="g3026"
       transform="translate(25.2432,104.7822)"><path
         d="m 0,0 c 0,2.729 -0.088,7.789 -0.836,9.11 -0.309,0.528 -1.101,0.836 -2.201,0.924 l -1.1,0.088 c -0.263,0.308 -0.176,0.88 0.088,1.056 1.672,-0.088 3.301,-0.131 5.017,-0.131 1.848,0 3.036,0.043 4.621,0.131 0.351,-0.22 0.307,-0.792 0.088,-1.056 L 4.62,10.034 C 3.521,9.946 2.641,9.55 2.42,8.978 1.76,7.526 1.804,2.465 1.804,0 l 0,-4.973 c 0,-3.828 -0.616,-7.877 -3.08,-10.517 -1.893,-2.069 -5.149,-3.213 -8.406,-3.213 -3.036,0 -6.073,0.573 -8.229,2.421 -2.332,1.936 -3.433,5.149 -3.433,10.386 l 0,10.385 c 0,4.577 -0.088,5.325 -2.639,5.545 l -1.101,0.088 c -0.264,0.176 -0.176,0.925 0.088,1.056 2.2,-0.088 3.697,-0.131 5.457,-0.131 1.805,0 3.257,0.043 5.413,0.131 0.264,-0.131 0.352,-0.88 0.088,-1.056 l -1.057,-0.088 c -2.551,-0.22 -2.639,-0.968 -2.639,-5.545 l 0,-9.505 c 0,-7.086 2.2,-11.75 8.932,-11.75 6.381,0 8.802,5.016 8.802,11.705 L 0,0"
         style="fill:#231f20;fill-opacity:1;fill-rule:nonzero;stroke:none"
         id="path3028"
         inkscape:connector-curvature="0" /></g><g
       id="g3030"
       transform="translate(52.0049,92.2568)"><path
         d="m 0,0 c 0,-0.965 0,-4.797 0.097,-5.634 -0.065,-0.193 -0.258,-0.354 -0.612,-0.354 -0.386,0.547 -1.32,1.674 -4.121,4.862 l -7.469,8.499 c -0.87,0.998 -3.059,3.638 -3.735,4.347 l -0.064,0 c -0.129,-0.387 -0.161,-1.127 -0.161,-2.093 l 0,-7.019 c 0,-1.513 0.064,-5.698 0.579,-6.665 0.225,-0.353 0.837,-0.547 1.642,-0.611 l 0.998,-0.096 c 0.193,-0.258 0.16,-0.644 -0.064,-0.806 -1.449,0.065 -2.576,0.097 -3.768,0.097 -1.351,0 -2.22,-0.032 -3.347,-0.097 -0.226,0.162 -0.258,0.612 -0.065,0.806 l 0.869,0.096 c 0.741,0.064 1.256,0.29 1.416,0.644 0.451,1.159 0.419,5.087 0.419,6.632 l 0,9.305 c 0,0.901 -0.032,1.577 -0.708,2.318 -0.451,0.451 -1.223,0.676 -1.996,0.773 l -0.548,0.064 c -0.193,0.193 -0.193,0.676 0.065,0.805 1.352,-0.096 3.058,-0.096 3.638,-0.096 0.515,0 1.063,0.032 1.481,0.096 0.644,-1.642 4.475,-5.892 5.506,-7.084 l 3.123,-3.508 c 2.189,-2.511 3.799,-4.283 5.312,-5.828 l 0.065,0 c 0.128,0.161 0.128,0.676 0.128,1.352 l 0,6.89 c 0,1.513 -0.032,5.699 -0.644,6.664 -0.193,0.291 -0.708,0.484 -1.996,0.645 l -0.547,0.064 c -0.225,0.193 -0.193,0.709 0.064,0.805 1.481,-0.064 2.576,-0.096 3.799,-0.096 1.384,0 2.222,0.032 3.317,0.096 C 2.93,15.712 2.93,15.261 2.737,15.068 L 2.286,15.004 C 1.256,14.843 0.612,14.585 0.483,14.328 -0.064,13.168 0,9.177 0,7.695 L 0,0"
         style="fill:#231f20;fill-opacity:1;fill-rule:nonzero;stroke:none"
         id="path3032"
         inkscape:connector-curvature="0" /></g><g
       id="g3034"
       transform="translate(59.8955,103.1392)"><path
         d="M 0,0 C 0,3.413 -0.064,3.961 -1.964,4.122 L -2.769,4.186 C -2.962,4.315 -2.897,4.895 -2.704,4.991 -1.095,4.927 0,4.895 1.353,4.895 2.64,4.895 3.734,4.927 5.345,4.991 5.538,4.895 5.603,4.315 5.409,4.186 L 4.604,4.122 C 2.704,3.961 2.64,3.413 2.64,0 l 0,-11.461 c 0,-3.414 0.064,-3.864 1.964,-4.089 l 0.805,-0.096 c 0.194,-0.129 0.129,-0.709 -0.064,-0.806 -1.611,0.064 -2.705,0.097 -3.992,0.097 -1.353,0 -2.448,-0.033 -4.057,-0.097 -0.193,0.097 -0.258,0.612 -0.065,0.806 l 0.805,0.096 c 1.9,0.225 1.964,0.675 1.964,4.089 L 0,0"
         style="fill:#231f20;fill-opacity:1;fill-rule:nonzero;stroke:none"
         id="path3036"
         inkscape:connector-curvature="0" /></g><g
       id="g3038"
       transform="translate(70.5225,104.6201)"><path
         d="m 0,0 c -0.74,1.803 -1.224,2.48 -2.608,2.641 l -0.58,0.064 C -3.413,2.898 -3.381,3.349 -3.123,3.51 -2.189,3.446 -1.159,3.414 0.226,3.414 1.642,3.414 2.769,3.446 4.121,3.51 4.347,3.381 4.411,2.898 4.186,2.705 L 3.702,2.641 C 2.479,2.48 2.222,2.287 2.189,2.029 2.254,1.707 2.801,-0.032 3.799,-2.479 5.28,-6.213 6.761,-9.916 8.371,-13.586 c 0.998,2.125 2.382,5.441 3.091,7.147 0.966,2.19 2.446,5.828 2.994,7.212 0.258,0.677 0.29,1.03 0.29,1.256 0,0.225 -0.322,0.483 -1.449,0.612 l -0.579,0.064 c -0.226,0.193 -0.161,0.676 0.063,0.805 0.903,-0.064 2.125,-0.096 3.349,-0.096 1.062,0 2.06,0.032 3.123,0.096 0.226,-0.129 0.226,-0.644 0.064,-0.805 L 18.352,2.641 C 17.579,2.576 17.096,2.19 16.678,1.514 15.776,0 14.521,-2.608 13.071,-5.891 l -1.738,-3.961 c -1.288,-2.962 -2.801,-6.697 -3.349,-8.402 -0.096,-0.065 -0.225,-0.098 -0.354,-0.098 -0.16,0 -0.321,0.033 -0.483,0.098 -0.354,1.352 -0.901,2.929 -1.481,4.281 L 0,0"
         style="fill:#231f20;fill-opacity:1;fill-rule:nonzero;stroke:none"
         id="path3040"
         inkscape:connector-curvature="0" /></g><g
       id="g3042"
       transform="translate(93.834,103.2041)"><path
         d="M 0,0 C 0,3.348 -0.064,3.832 -1.964,4.057 L -2.479,4.121 C -2.672,4.25 -2.607,4.83 -2.415,4.926 -1.03,4.862 0.064,4.83 1.385,4.83 l 6.052,0 c 2.061,0 3.96,0 4.347,0.096 C 11.977,4.379 12.17,2.06 12.299,0.644 12.17,0.451 11.655,0.386 11.494,0.58 11.011,2.092 10.722,3.219 9.047,3.638 8.371,3.799 7.341,3.832 5.924,3.832 l -2.318,0 C 2.64,3.832 2.64,3.767 2.64,2.543 l 0,-6.439 c 0,-0.901 0.096,-0.901 1.062,-0.901 l 1.868,0 c 1.352,0 2.35,0.064 2.737,0.193 0.386,0.129 0.611,0.321 0.772,1.127 l 0.258,1.319 c 0.161,0.194 0.708,0.194 0.837,-0.032 0,-0.772 -0.129,-2.028 -0.129,-3.251 0,-1.159 0.129,-2.383 0.129,-3.091 -0.129,-0.226 -0.676,-0.226 -0.837,-0.032 l -0.29,1.255 c -0.129,0.58 -0.354,1.063 -0.998,1.224 -0.45,0.128 -1.224,0.161 -2.479,0.161 l -1.868,0 c -0.966,0 -1.062,-0.033 -1.062,-0.869 l 0,-4.54 c 0,-1.707 0.096,-2.801 0.612,-3.349 0.386,-0.386 1.062,-0.74 3.895,-0.74 2.48,0 3.414,0.129 4.122,0.483 0.58,0.322 1.449,1.449 2.286,3.123 0.225,0.161 0.675,0.064 0.804,-0.226 -0.225,-1.126 -1.03,-3.605 -1.449,-4.475 -2.897,0.064 -5.763,0.097 -8.628,0.097 l -2.897,0 c -1.385,0 -2.48,-0.033 -4.379,-0.097 -0.194,0.097 -0.258,0.612 -0.065,0.806 l 1.063,0.096 C -0.161,-15.455 0,-14.971 0,-11.59 L 0,0"
         style="fill:#231f20;fill-opacity:1;fill-rule:nonzero;stroke:none"
         id="path3044"
         inkscape:connector-curvature="0" /></g><g
       id="g3046"
       transform="translate(114.6348,98.5674)"><path
         d="m 0,0 c 0,-0.58 0,-0.934 0.096,-1.063 0.097,-0.096 0.581,-0.16 2.222,-0.16 1.161,0 2.383,0.129 3.317,0.837 0.869,0.677 1.609,1.803 1.609,3.991 0,2.544 -1.577,4.959 -5.151,4.959 C 0.096,8.564 0,8.436 0,7.535 L 0,0 z m -2.64,4.604 c 0,3.059 -0.097,3.606 -1.417,3.768 L -5.087,8.5 c -0.225,0.161 -0.225,0.676 0.032,0.805 1.804,0.162 4.024,0.258 7.18,0.258 1.996,0 3.896,-0.162 5.377,-0.966 1.546,-0.805 2.673,-2.253 2.673,-4.507 0,-3.059 -2.415,-4.734 -4.026,-5.377 -0.16,-0.193 0,-0.516 0.162,-0.774 2.576,-4.152 4.282,-6.728 6.471,-8.564 0.547,-0.482 1.353,-0.836 2.222,-0.901 0.161,-0.064 0.193,-0.322 0.032,-0.451 -0.29,-0.096 -0.805,-0.16 -1.417,-0.16 -2.736,0 -4.379,0.804 -6.664,4.056 C 6.118,-6.889 4.798,-4.668 3.8,-3.219 3.316,-2.511 2.802,-2.189 1.513,-2.189 0.064,-2.189 0,-2.221 0,-2.897 l 0,-4.057 c 0,-3.38 0.064,-3.767 1.933,-4.025 l 0.675,-0.096 c 0.194,-0.161 0.129,-0.708 -0.064,-0.805 -1.45,0.064 -2.544,0.097 -3.831,0.097 -1.353,0 -2.512,-0.033 -4.025,-0.097 -0.193,0.097 -0.258,0.579 -0.064,0.805 l 0.804,0.096 c 1.868,0.226 1.932,0.645 1.932,4.025 l 0,11.558"
         style="fill:#231f20;fill-opacity:1;fill-rule:nonzero;stroke:none"
         id="path3048"
         inkscape:connector-curvature="0" /></g><g
       id="g3050"
       transform="translate(135.8535,86.2686)"><path
         d="m 0,0 c -2.703,0 -4.41,0.837 -5.021,1.191 -0.387,0.709 -0.805,2.995 -0.87,4.508 0.162,0.225 0.644,0.289 0.773,0.096 0.482,-1.641 1.803,-4.797 5.538,-4.797 2.704,0 4.024,1.772 4.024,3.703 0,1.416 -0.29,2.994 -2.64,4.507 l -3.059,1.997 c -1.609,1.062 -3.476,2.898 -3.476,5.538 0,3.058 2.381,5.536 6.567,5.536 0.999,0 2.157,-0.159 2.994,-0.418 0.419,-0.095 0.869,-0.193 1.127,-0.193 0.29,-0.772 0.58,-2.576 0.58,-3.928 -0.129,-0.193 -0.644,-0.29 -0.806,-0.096 -0.418,1.545 -1.287,3.637 -4.377,3.637 -3.156,0 -3.833,-2.092 -3.833,-3.573 0,-1.868 1.546,-3.187 2.738,-3.96 l 2.576,-1.61 C 4.862,10.883 6.858,9.015 6.858,5.957 6.858,2.415 4.187,0 0,0"
         style="fill:#231f20;fill-opacity:1;fill-rule:nonzero;stroke:none"
         id="path3052"
         inkscape:connector-curvature="0" /></g><g
       id="g3054"
       transform="translate(147.8652,103.1392)"><path
         d="M 0,0 C 0,3.413 -0.064,3.961 -1.964,4.122 L -2.77,4.186 C -2.962,4.315 -2.897,4.895 -2.704,4.991 -1.094,4.927 0,4.895 1.353,4.895 2.64,4.895 3.734,4.927 5.345,4.991 5.538,4.895 5.603,4.315 5.409,4.186 L 4.604,4.122 C 2.704,3.961 2.64,3.413 2.64,0 l 0,-11.461 c 0,-3.414 0.064,-3.864 1.964,-4.089 l 0.805,-0.096 c 0.194,-0.129 0.129,-0.709 -0.064,-0.806 -1.611,0.064 -2.705,0.097 -3.992,0.097 -1.353,0 -2.447,-0.033 -4.057,-0.097 -0.193,0.097 -0.258,0.612 -0.066,0.806 l 0.806,0.096 c 1.9,0.225 1.964,0.675 1.964,4.089 L 0,0"
         style="fill:#231f20;fill-opacity:1;fill-rule:nonzero;stroke:none"
         id="path3056"
         inkscape:connector-curvature="0" /></g><g
       id="g3058"
       transform="translate(166.4756,91.6138)"><path
         d="m 0,0 c 0,-3.381 0.064,-3.832 1.933,-4.025 l 1.03,-0.096 C 3.155,-4.25 3.092,-4.83 2.898,-4.927 c -1.835,0.065 -2.929,0.097 -4.217,0.097 -1.288,0 -2.415,-0.032 -4.476,-0.097 -0.193,0.097 -0.258,0.644 0,0.806 l 1.159,0.096 C -2.801,-3.864 -2.64,-3.381 -2.64,0 l 0,14.391 c 0,0.998 0,1.031 -0.965,1.031 l -1.771,0 c -1.385,0 -3.155,-0.065 -3.96,-0.806 -0.773,-0.708 -1.095,-1.416 -1.449,-2.221 -0.258,-0.193 -0.708,-0.032 -0.837,0.225 0.515,1.449 0.998,3.509 1.224,4.798 0.095,0.064 0.514,0.096 0.611,0 0.193,-1.031 1.256,-0.998 2.736,-0.998 l 13.04,0 c 1.739,0 2.029,0.064 2.511,0.901 0.161,0.064 0.516,0.032 0.58,-0.097 C 8.726,15.904 8.5,13.297 8.597,12.331 8.468,12.073 7.921,12.073 7.76,12.266 7.663,13.071 7.438,14.262 6.955,14.616 6.214,15.164 4.991,15.422 3.22,15.422 l -2.285,0 C -0.031,15.422 0,15.389 0,14.327 L 0,0"
         style="fill:#231f20;fill-opacity:1;fill-rule:nonzero;stroke:none"
         id="path3060"
         inkscape:connector-curvature="0" /></g><g
       id="g3062"
       transform="translate(185.8916,111.124)"><path
         d="m 0,0 c -0.032,0.934 0.677,1.706 1.643,1.706 0.933,0 1.545,-0.804 1.545,-1.609 0,-0.966 -0.612,-1.675 -1.545,-1.675 C 0.709,-1.578 0,-1.062 0,0 m -5.216,-14.005 c -0.257,-0.741 -0.224,-0.773 0.677,-0.773 l 3.961,0 c 0.932,0 0.997,0.129 0.708,0.998 l -1.739,5.248 c -0.258,0.773 -0.547,1.642 -0.741,2.028 l -0.064,0 c -0.097,-0.16 -0.419,-0.933 -0.774,-1.899 l -2.028,-5.602 z M -6.342,0 c -0.064,0.934 0.644,1.706 1.61,1.706 0.933,0 1.577,-0.804 1.577,-1.609 0,-0.966 -0.644,-1.675 -1.577,-1.675 -0.934,0 -1.61,0.516 -1.61,1.578 m 7.501,-16.871 c -0.225,0.709 -0.353,0.806 -1.319,0.806 l -4.862,0 c -0.805,0 -0.999,-0.097 -1.223,-0.773 l -1.127,-3.381 c -0.483,-1.449 -0.709,-2.318 -0.709,-2.672 0,-0.386 0.161,-0.58 0.934,-0.644 l 1.062,-0.096 c 0.226,-0.162 0.226,-0.677 -0.064,-0.806 -0.837,0.064 -1.835,0.064 -3.348,0.097 -1.063,0 -2.222,-0.064 -3.091,-0.097 -0.193,0.129 -0.258,0.644 -0.064,0.806 l 1.062,0.096 c 0.773,0.064 1.481,0.418 1.932,1.577 0.58,1.481 1.48,3.574 2.833,7.18 l 3.284,8.693 c 0.45,1.159 0.644,1.771 0.547,2.286 0.773,0.225 1.32,0.805 1.675,1.223 0.192,0 0.418,-0.064 0.482,-0.289 0.419,-1.417 0.934,-2.898 1.417,-4.314 l 4.411,-12.944 c 0.934,-2.768 1.352,-3.252 2.737,-3.412 l 0.869,-0.096 c 0.225,-0.162 0.161,-0.677 0,-0.806 -1.321,0.064 -2.448,0.097 -3.896,0.097 -1.546,0 -2.768,-0.064 -3.703,-0.097 -0.257,0.129 -0.289,0.644 -0.064,0.806 l 0.934,0.096 c 0.676,0.064 1.126,0.258 1.126,0.579 0,0.354 -0.16,0.934 -0.418,1.706 l -1.417,4.379"
         style="fill:#231f20;fill-opacity:1;fill-rule:nonzero;stroke:none"
         id="path3064"
         inkscape:connector-curvature="0" /></g><g
       id="g3066"
       transform="translate(203.9248,91.6138)"><path
         d="m 0,0 c 0,-3.381 0.063,-3.832 1.932,-4.025 l 1.03,-0.096 C 3.154,-4.25 3.09,-4.83 2.897,-4.927 c -1.835,0.065 -2.929,0.097 -4.218,0.097 -1.287,0 -2.414,-0.032 -4.475,-0.097 -0.193,0.097 -0.258,0.644 0,0.806 l 1.159,0.096 c 1.835,0.161 1.996,0.644 1.996,4.025 l 0,14.391 c 0,0.998 0,1.031 -0.965,1.031 l -1.771,0 c -1.385,0 -3.155,-0.065 -3.96,-0.806 -0.773,-0.708 -1.095,-1.416 -1.449,-2.221 -0.258,-0.193 -0.708,-0.032 -0.837,0.225 0.515,1.449 0.998,3.509 1.224,4.798 0.096,0.064 0.514,0.096 0.611,0 0.193,-1.031 1.256,-0.998 2.736,-0.998 l 13.04,0 c 1.739,0 2.029,0.064 2.511,0.901 0.161,0.064 0.516,0.032 0.58,-0.097 C 8.725,15.904 8.499,13.297 8.597,12.331 8.467,12.073 7.92,12.073 7.759,12.266 7.662,13.071 7.437,14.262 6.954,14.616 6.213,15.164 4.99,15.422 3.219,15.422 l -2.285,0 C -0.032,15.422 0,15.389 0,14.327 L 0,0"
         style="fill:#231f20;fill-opacity:1;fill-rule:nonzero;stroke:none"
         id="path3068"
         inkscape:connector-curvature="0" /></g><g
       id="g3070"
       transform="translate(9.7158,62.166)"><path
         d="m 0,0 c -2.049,0 -2.134,-0.088 -2.134,-1.408 l 0,-6.204 c 0,-4.621 0.213,-5.238 2.604,-5.501 l 1.237,-0.132 c 0.256,-0.177 0.171,-0.969 -0.085,-1.101 -2.305,0.088 -3.756,0.132 -5.421,0.132 -1.835,0 -3.286,-0.088 -4.95,-0.132 -0.257,0.132 -0.342,0.836 -0.086,1.101 l 0.726,0.132 c 2.39,0.439 2.475,0.88 2.475,5.501 l 0,15.841 c 0,4.622 -0.299,5.37 -2.517,5.545 l -1.111,0.088 c -0.256,0.176 -0.171,0.969 0.086,1.1 2.091,-0.043 3.542,-0.131 5.377,-0.131 1.665,0 3.116,0.044 4.951,0.131 0.256,-0.131 0.341,-0.924 0.085,-1.1 L 0.427,13.774 C -2.049,13.511 -2.134,12.851 -2.134,8.229 l 0,-5.06 C -2.134,1.805 -2.049,1.761 0,1.761 l 12.206,0 c 2.049,0 2.134,0.044 2.134,1.408 l 0,5.06 c 0,4.622 -0.085,5.282 -2.604,5.545 l -0.81,0.088 c -0.256,0.176 -0.171,0.969 0.085,1.1 1.964,-0.087 3.414,-0.131 5.164,-0.131 1.665,0 3.116,0.044 5.036,0.131 0.256,-0.131 0.342,-0.924 0.086,-1.1 L 20.4,13.774 C 17.925,13.511 17.84,12.851 17.84,8.229 l 0,-15.841 c 0,-4.621 0.085,-5.194 2.56,-5.501 l 1.025,-0.132 c 0.256,-0.177 0.171,-0.969 -0.086,-1.101 -2.048,0.088 -3.499,0.132 -5.164,0.132 -1.75,0 -3.286,-0.044 -5.164,-0.132 -0.256,0.132 -0.341,0.836 -0.085,1.101 l 0.81,0.132 c 2.604,0.351 2.519,0.88 2.604,5.501 l 0,6.204 C 14.34,-0.088 14.255,0 12.206,0 L 0,0"
         style="fill:#231f20;fill-opacity:1;fill-rule:nonzero;stroke:none"
         id="path3072"
         inkscape:connector-curvature="0" /></g><g
       id="g3074"
       transform="translate(36.1162,64.3721)"><path
         d="M 0,0 C 0,3.349 -0.064,3.832 -1.964,4.057 L -2.479,4.121 C -2.672,4.25 -2.607,4.83 -2.415,4.926 -1.03,4.862 0.064,4.83 1.385,4.83 l 6.053,0 c 2.06,0 3.959,0 4.346,0.096 C 11.977,4.379 12.17,2.061 12.299,0.645 12.17,0.451 11.655,0.387 11.494,0.58 11.011,2.093 10.722,3.22 9.047,3.639 8.371,3.799 7.341,3.832 5.924,3.832 l -2.319,0 C 2.64,3.832 2.64,3.768 2.64,2.543 l 0,-6.439 c 0,-0.901 0.096,-0.901 1.062,-0.901 l 1.868,0 c 1.352,0 2.35,0.065 2.737,0.193 0.386,0.129 0.611,0.322 0.772,1.127 l 0.258,1.32 c 0.161,0.193 0.708,0.193 0.837,-0.032 0,-0.773 -0.129,-2.029 -0.129,-3.251 0,-1.16 0.129,-2.383 0.129,-3.091 -0.129,-0.226 -0.676,-0.226 -0.837,-0.032 l -0.29,1.254 c -0.129,0.58 -0.354,1.063 -0.998,1.224 -0.45,0.129 -1.224,0.161 -2.479,0.161 l -1.868,0 c -0.966,0 -1.062,-0.032 -1.062,-0.869 l 0,-4.54 c 0,-1.706 0.096,-2.801 0.612,-3.348 0.386,-0.386 1.062,-0.741 3.895,-0.741 2.48,0 3.414,0.129 4.122,0.484 0.579,0.321 1.449,1.448 2.286,3.123 0.225,0.161 0.675,0.064 0.804,-0.226 -0.225,-1.127 -1.03,-3.606 -1.449,-4.476 -2.897,0.065 -5.763,0.097 -8.628,0.097 l -2.897,0 c -1.385,0 -2.48,-0.032 -4.379,-0.097 -0.194,0.097 -0.258,0.613 -0.065,0.806 l 1.063,0.096 C -0.161,-15.454 0,-14.971 0,-11.59 L 0,0"
         style="fill:#231f20;fill-opacity:1;fill-rule:nonzero;stroke:none"
         id="path3076"
         inkscape:connector-curvature="0" /></g><g
       id="g3078"
       transform="translate(56.0801,64.3076)"><path
         d="M 0,0 C 0,3.414 -0.064,3.961 -1.964,4.121 L -2.769,4.186 C -2.962,4.314 -2.897,4.895 -2.704,4.991 -1.095,4.926 0,4.895 1.353,4.895 2.64,4.895 3.734,4.926 5.345,4.991 5.538,4.895 5.603,4.314 5.409,4.186 L 4.604,4.121 C 2.704,3.961 2.64,3.414 2.64,0 l 0,-11.462 c 0,-3.412 0.064,-3.863 1.964,-4.089 l 0.805,-0.095 c 0.194,-0.129 0.129,-0.709 -0.064,-0.806 -1.611,0.064 -2.705,0.097 -3.992,0.097 -1.353,0 -2.448,-0.033 -4.057,-0.097 -0.193,0.097 -0.258,0.612 -0.065,0.806 l 0.805,0.095 c 1.9,0.226 1.964,0.677 1.964,4.089 L 0,0"
         style="fill:#231f20;fill-opacity:1;fill-rule:nonzero;stroke:none"
         id="path3080"
         inkscape:connector-curvature="0" /></g><g
       id="g3082"
       transform="translate(70.7627,53.5225)"><path
         d="m 0,0 c 0,-1.707 0.097,-2.737 0.645,-3.51 0.708,-0.998 1.931,-1.319 3.959,-1.319 6.247,0 9.047,4.089 9.047,10.077 0,3.541 -1.706,9.529 -10.141,9.529 -1.9,0 -2.93,-0.257 -3.188,-0.45 C 0.064,14.134 0,13.329 0,11.88 L 0,0 z m -2.64,11.494 c 0,2.254 -0.161,2.93 -1.513,3.123 l -0.708,0.096 c -0.258,0.162 -0.29,0.676 0.032,0.805 2.736,0.162 5.345,0.258 8.081,0.258 2.705,0 4.99,-0.193 7.083,-0.966 4.347,-1.578 6.536,-5.247 6.536,-9.497 0,-4.089 -1.964,-7.599 -5.634,-9.595 -2.092,-1.127 -4.733,-1.546 -7.212,-1.546 -2.06,0 -4.121,0.258 -5.248,0.258 -1.352,0 -2.511,-0.033 -4.024,-0.097 -0.193,0.097 -0.258,0.612 -0.065,0.806 l 0.741,0.095 c 1.867,0.258 1.931,0.645 1.931,4.026 l 0,12.234"
         style="fill:#231f20;fill-opacity:1;fill-rule:nonzero;stroke:none"
         id="path3084"
         inkscape:connector-curvature="0" /></g><g
       id="g3086"
       transform="translate(93.1094,64.3721)"><path
         d="M 0,0 C 0,3.349 -0.064,3.832 -1.964,4.057 L -2.479,4.121 C -2.672,4.25 -2.607,4.83 -2.415,4.926 -1.03,4.862 0.064,4.83 1.385,4.83 l 6.053,0 c 2.06,0 3.959,0 4.347,0.096 C 11.977,4.379 12.169,2.061 12.299,0.645 12.169,0.451 11.656,0.387 11.495,0.58 11.011,2.093 10.722,3.22 9.046,3.639 8.371,3.799 7.341,3.832 5.924,3.832 l -2.318,0 C 2.64,3.832 2.64,3.768 2.64,2.543 l 0,-6.439 c 0,-0.901 0.096,-0.901 1.062,-0.901 l 1.868,0 c 1.351,0 2.349,0.065 2.737,0.193 0.387,0.129 0.61,0.322 0.772,1.127 l 0.257,1.32 c 0.162,0.193 0.708,0.193 0.838,-0.032 0,-0.773 -0.13,-2.029 -0.13,-3.251 0,-1.16 0.13,-2.383 0.13,-3.091 -0.13,-0.226 -0.676,-0.226 -0.838,-0.032 l -0.29,1.254 c -0.129,0.58 -0.352,1.063 -0.997,1.224 -0.45,0.129 -1.224,0.161 -2.479,0.161 l -1.868,0 c -0.966,0 -1.062,-0.032 -1.062,-0.869 l 0,-4.54 c 0,-1.706 0.096,-2.801 0.612,-3.348 0.386,-0.386 1.062,-0.741 3.895,-0.741 2.479,0 3.414,0.129 4.122,0.484 0.58,0.321 1.449,1.448 2.286,3.123 0.226,0.161 0.675,0.064 0.804,-0.226 -0.225,-1.127 -1.03,-3.606 -1.448,-4.476 -2.898,0.065 -5.764,0.097 -8.629,0.097 l -2.897,0 c -1.385,0 -2.48,-0.032 -4.379,-0.097 -0.194,0.097 -0.258,0.613 -0.065,0.806 l 1.063,0.096 C -0.161,-15.454 0,-14.971 0,-11.59 L 0,0"
         style="fill:#231f20;fill-opacity:1;fill-rule:nonzero;stroke:none"
         id="path3088"
         inkscape:connector-curvature="0" /></g><g
       id="g3090"
       transform="translate(113.7178,64.3721)"><path
         d="M 0,0 C 0,3.381 -0.065,3.896 -2.093,4.057 L -2.898,4.121 C -3.091,4.25 -3.027,4.83 -2.833,4.926 -1.03,4.862 0.064,4.83 1.352,4.83 2.607,4.83 3.702,4.862 5.313,4.926 5.506,4.83 5.57,4.25 5.377,4.121 L 4.604,4.057 C 2.704,3.896 2.639,3.381 2.639,0 l 0,-11.204 c 0,-2.028 0.097,-2.865 0.677,-3.477 0.354,-0.354 0.966,-0.741 3.509,-0.741 2.738,0 3.413,0.129 3.929,0.419 0.643,0.386 1.48,1.545 2.125,3.188 0.192,0.161 0.805,0.032 0.805,-0.194 0,-0.354 -0.902,-3.638 -1.353,-4.508 -1.642,0.065 -4.7,0.097 -8.017,0.097 l -2.962,0 c -1.352,0 -2.382,-0.032 -4.185,-0.097 -0.194,0.097 -0.258,0.613 -0.065,0.806 l 0.966,0.096 C -0.065,-15.422 0,-14.971 0,-11.59 L 0,0"
         style="fill:#231f20;fill-opacity:1;fill-rule:nonzero;stroke:none"
         id="path3092"
         inkscape:connector-curvature="0" /></g><g
       id="g3094"
       transform="translate(135.3232,53.2646)"><path
         d="m 0,0 c 0,-1.159 0.063,-2.801 0.677,-3.51 0.611,-0.74 1.577,-0.901 2.543,-0.901 2.866,0 5.054,1.288 5.054,4.508 0,2.544 -1.287,5.506 -6.406,5.506 C 0.129,5.603 0,5.409 0,4.765 L 0,0 z M 0,7.47 C 0,6.568 0.032,6.504 1.675,6.568 c 3.284,0.129 5.054,1.095 5.054,4.121 0,3.155 -2.35,4.346 -4.796,4.346 -0.709,0 -1.192,-0.064 -1.482,-0.193 C 0.129,14.746 0,14.584 0,14.005 L 0,7.47 z m -2.64,4.282 c 0,2.382 -0.13,2.961 -1.577,3.123 l -1.03,0.096 c -0.258,0.193 -0.226,0.676 0.032,0.805 1.737,0.162 3.928,0.258 6.922,0.258 2.028,0 3.96,-0.161 5.409,-0.902 1.384,-0.675 2.447,-1.964 2.447,-4.025 0,-2.317 -1.353,-3.508 -3.285,-4.41 0,-0.322 0.258,-0.419 0.613,-0.483 1.738,-0.322 4.314,-1.932 4.314,-5.377 0,-3.734 -2.769,-6.246 -8.564,-6.246 -0.934,0 -2.512,0.096 -3.864,0.096 -1.417,0 -2.511,-0.064 -3.703,-0.096 -0.193,0.096 -0.258,0.612 -0.064,0.805 l 0.58,0.096 c 1.706,0.258 1.77,0.645 1.77,4.026 l 0,12.234"
         style="fill:#231f20;fill-opacity:1;fill-rule:nonzero;stroke:none"
         id="path3096"
         inkscape:connector-curvature="0" /></g><g
       id="g3098"
       transform="translate(153.3232,64.3721)"><path
         d="M 0,0 C 0,3.349 -0.064,3.832 -1.964,4.057 L -2.479,4.121 C -2.672,4.25 -2.607,4.83 -2.415,4.926 -1.03,4.862 0.063,4.83 1.385,4.83 l 6.053,0 c 2.06,0 3.958,0 4.346,0.096 C 11.977,4.379 12.17,2.061 12.299,0.645 12.17,0.451 11.655,0.387 11.494,0.58 11.011,2.093 10.722,3.22 9.047,3.639 8.371,3.799 7.341,3.832 5.924,3.832 l -2.32,0 C 2.64,3.832 2.64,3.768 2.64,2.543 l 0,-6.439 c 0,-0.901 0.096,-0.901 1.062,-0.901 l 1.868,0 c 1.352,0 2.35,0.065 2.737,0.193 0.386,0.129 0.611,0.322 0.772,1.127 l 0.258,1.32 c 0.161,0.193 0.708,0.193 0.837,-0.032 0,-0.773 -0.129,-2.029 -0.129,-3.251 0,-1.16 0.129,-2.383 0.129,-3.091 -0.129,-0.226 -0.676,-0.226 -0.837,-0.032 l -0.29,1.254 c -0.129,0.58 -0.354,1.063 -0.998,1.224 -0.45,0.129 -1.224,0.161 -2.479,0.161 l -1.868,0 c -0.966,0 -1.062,-0.032 -1.062,-0.869 l 0,-4.54 c 0,-1.706 0.096,-2.801 0.612,-3.348 0.386,-0.386 1.061,-0.741 3.894,-0.741 2.481,0 3.415,0.129 4.123,0.484 0.579,0.321 1.449,1.448 2.286,3.123 0.225,0.161 0.674,0.064 0.804,-0.226 -0.225,-1.127 -1.03,-3.606 -1.449,-4.476 -2.897,0.065 -5.764,0.097 -8.628,0.097 l -2.897,0 c -1.385,0 -2.48,-0.032 -4.379,-0.097 -0.194,0.097 -0.258,0.613 -0.065,0.806 l 1.063,0.096 C -0.161,-15.454 0,-14.971 0,-11.59 L 0,0"
         style="fill:#231f20;fill-opacity:1;fill-rule:nonzero;stroke:none"
         id="path3100"
         inkscape:connector-curvature="0" /></g><g
       id="g3102"
       transform="translate(175.9268,59.7363)"><path
         d="m 0,0 c 0,-0.58 0,-0.934 0.097,-1.063 0.096,-0.096 0.58,-0.161 2.221,-0.161 1.161,0 2.383,0.129 3.317,0.837 0.869,0.677 1.609,1.803 1.609,3.993 0,2.543 -1.577,4.957 -5.151,4.957 C 0.097,8.563 0,8.435 0,7.534 L 0,0 z m -2.64,4.604 c 0,3.059 -0.096,3.606 -1.417,3.767 L -5.087,8.5 c -0.225,0.161 -0.225,0.675 0.032,0.804 1.804,0.162 4.025,0.258 7.18,0.258 1.996,0 3.896,-0.161 5.377,-0.966 1.546,-0.804 2.673,-2.253 2.673,-4.507 0,-3.059 -2.415,-4.735 -4.026,-5.377 -0.16,-0.193 0,-0.515 0.163,-0.773 2.575,-4.153 4.281,-6.729 6.47,-8.564 0.548,-0.482 1.353,-0.837 2.222,-0.901 0.161,-0.065 0.193,-0.323 0.032,-0.453 -0.29,-0.094 -0.805,-0.159 -1.417,-0.159 -2.736,0 -4.379,0.805 -6.664,4.057 C 6.117,-6.891 4.798,-4.669 3.8,-3.22 3.316,-2.512 2.802,-2.189 1.514,-2.189 0.064,-2.189 0,-2.222 0,-2.897 l 0,-4.057 c 0,-3.381 0.064,-3.768 1.933,-4.025 l 0.675,-0.096 c 0.194,-0.161 0.129,-0.709 -0.064,-0.806 -1.449,0.065 -2.544,0.097 -3.831,0.097 -1.353,0 -2.512,-0.032 -4.025,-0.097 -0.193,0.097 -0.257,0.58 -0.064,0.806 l 0.805,0.096 c 1.867,0.225 1.931,0.644 1.931,4.025 l 0,11.558"
         style="fill:#231f20;fill-opacity:1;fill-rule:nonzero;stroke:none"
         id="path3104"
         inkscape:connector-curvature="0" /></g><g
       id="g3106"
       transform="translate(211.4424,51.2363)"><path
         d="M 0,0 C 0,-1.288 0.193,-2.061 0.772,-2.286 0.87,-2.383 0.87,-2.575 0.74,-2.672 c -0.386,0 -0.966,-0.129 -1.577,-0.29 -1.707,-0.451 -4.025,-0.837 -5.764,-0.837 -3.831,0 -7.34,1.063 -9.819,3.573 -1.932,1.932 -2.962,4.476 -2.962,7.309 0,2.737 0.902,5.506 2.898,7.631 2.157,2.254 5.344,3.767 10.206,3.767 1.835,0 3.541,-0.355 4.089,-0.483 0.611,-0.129 1.609,-0.354 1.996,-0.29 0,-1.062 0.193,-2.736 0.482,-4.668 -0.096,-0.258 -0.676,-0.29 -0.869,-0.098 -0.901,3.478 -3.316,4.573 -6.6,4.573 -6.246,0 -8.983,-4.444 -8.983,-9.273 0,-6.181 3.187,-11.043 9.658,-11.043 1.997,0 3.189,0.418 3.543,0.966 0.16,0.226 0.321,0.805 0.321,1.835 l 0,1.288 c 0,2.704 -0.096,2.898 -2.092,3.123 l -1.416,0.161 c -0.258,0.128 -0.226,0.708 0,0.805 0.933,-0.064 2.704,-0.097 4.603,-0.097 1.256,0 2.351,0.033 3.413,0.097 C 2.093,5.248 2.125,4.765 1.899,4.572 L 1.384,4.508 C 0.032,4.347 0,3.445 0,1.803 L 0,0"
         style="fill:#231f20;fill-opacity:1;fill-rule:nonzero;stroke:none"
         id="path3108"
         inkscape:connector-curvature="0" /></g><g
       id="g3110"
       transform="translate(2.0283,10.8906)"><path
         d="m 0,0 0,1.916 9.442,15.956 -8.959,0 0,1.857 11.406,0 0,-1.915 -9.414,-15.955 9.812,0 L 12.287,0 0,0 z"
         style="fill:#9c9a9b;fill-opacity:1;fill-rule:nonzero;stroke:none"
         id="path3112"
         inkscape:connector-curvature="0" /></g><g
       id="g3114"
       transform="translate(25.2617,10.8906)"><path
         d="m 0,0 0,3.146 -0.057,0 c -0.625,-2.087 -1.877,-3.46 -4.209,-3.46 -2.39,0 -3.47,2.031 -3.47,4.204 l 0,9.721 1.934,0 0,-7.548 c 0,-1.544 -0.227,-4.432 1.991,-4.432 C -1.108,1.631 0,5.862 0,8.008 l 0,5.603 1.935,0 L 1.935,0 0,0"
         style="fill:#9c9a9b;fill-opacity:1;fill-rule:nonzero;stroke:none"
         id="path3116"
         inkscape:connector-curvature="0" /></g><g
       id="g3118"
       transform="translate(38.8838,10.8906)"><path
         d="m 0,0 -5.262,7.264 -0.057,0 0,-7.264 -1.934,0 0,19.729 1.934,0 0,-11.865 0.057,0 4.693,5.747 2.361,0 L -3.072,7.578 2.389,0 0,0 z"
         style="fill:#9c9a9b;fill-opacity:1;fill-rule:nonzero;stroke:none"
         id="path3120"
         inkscape:connector-curvature="0" /></g><g
       id="g3122"
       transform="translate(51.709,10.8906)"><path
         d="m 0,0 0,3.146 -0.058,0 c -0.626,-2.087 -1.877,-3.46 -4.209,-3.46 -2.389,0 -3.469,2.031 -3.469,4.204 l 0,9.721 1.933,0 0,-7.548 C -5.803,4.519 -6.03,1.631 -3.812,1.631 -1.109,1.631 0,5.862 0,8.008 l 0,5.603 1.934,0 L 1.934,0 0,0"
         style="fill:#9c9a9b;fill-opacity:1;fill-rule:nonzero;stroke:none"
         id="path3124"
         inkscape:connector-curvature="0" /></g><g
       id="g3126"
       transform="translate(66.4102,10.8906)"><path
         d="m 0,0 0,7.549 c 0,1.545 0.228,4.432 -1.991,4.432 -2.702,0 -3.839,-4.232 -3.839,-6.377 l 0,-5.604 -1.935,0 0,13.611 1.935,0 0,-3.144 0.057,0 c 0.682,2.087 1.877,3.46 4.237,3.46 2.39,0 3.471,-2.06 3.471,-4.204 L 1.935,0 0,0"
         style="fill:#9c9a9b;fill-opacity:1;fill-rule:nonzero;stroke:none"
         id="path3128"
         inkscape:connector-curvature="0" /></g><g
       id="g3130"
       transform="translate(78.7813,29.0771)"><path
         d="m 0,0 c -3.072,0 -2.845,-2.23 -2.845,-4.575 l 3.897,0 0,-1.63 -3.897,0 0,-11.983 -1.934,0 0,11.983 -2.276,0 0,1.63 2.276,0 0,1.887 c 0,2.832 1.622,4.318 4.437,4.318 0.768,0 1.536,-0.086 2.304,-0.257 l 0,-1.745 C 1.308,-0.143 0.682,0 0,0"
         style="fill:#9c9a9b;fill-opacity:1;fill-rule:nonzero;stroke:none"
         id="path3132"
         inkscape:connector-curvature="0" /></g><g
       id="g3134"
       transform="translate(85.377,22.8721)"><path
         d="m 0,0 0,-8.378 c 0,-1.459 0.683,-2.288 2.218,-2.288 0.541,0 0.825,0.086 1.308,0.258 l 0,-1.745 c -0.568,-0.085 -1.137,-0.143 -1.706,-0.143 -2.531,0 -3.755,0.887 -3.755,3.518 l 0,8.778 -2.218,0 0,1.63 2.218,0 0,3.174 L 0,6.033 0,1.63 3.641,1.63 3.641,0 0,0"
         style="fill:#9c9a9b;fill-opacity:1;fill-rule:nonzero;stroke:none"
         id="path3136"
         inkscape:connector-curvature="0" /></g><path
       d="m 91.518,10.891 2.845,0 0,2.859 -2.845,0 0,-2.859 z"
       style="fill:#9c9a9b;fill-opacity:1;fill-rule:nonzero;stroke:none"
       id="path3138"
       inkscape:connector-curvature="0" /><g
       id="g3140"
       transform="translate(110.8838,10.5762)"><path
         d="m 0,0 c -1.536,0 -3.044,0.258 -4.523,0.601 l 0,2.288 c 1.508,-0.63 3.129,-1.03 4.779,-1.03 2.104,0 4.237,0.972 4.237,3.373 0,2.203 -1.592,3.032 -3.271,3.976 l -1.735,0.972 c -2.161,1.201 -4.237,2.258 -4.237,5.119 0,3.688 3.1,5.06 6.314,5.06 1.394,0 2.731,-0.228 4.096,-0.514 l 0,-2.201 c -1.309,0.544 -2.873,0.857 -4.295,0.857 -1.878,0 -3.698,-0.887 -3.698,-3.002 0,-1.802 1.906,-2.774 3.271,-3.518 L 2.759,10.98 C 5.062,9.723 6.911,8.493 6.911,5.548 6.911,1.4 3.612,0 0,0"
         style="fill:#9c9a9b;fill-opacity:1;fill-rule:nonzero;stroke:none"
         id="path3142"
         inkscape:connector-curvature="0" /></g><g
       id="g3144"
       transform="translate(125.6143,23.1875)"><path
         d="m 0,0 c -1.593,0 -2.56,-1.088 -2.845,-2.574 l 5.433,0 C 2.588,-1.088 1.479,0 0,0 m -2.986,-4.204 0,-0.802 c 0,-2.973 1.478,-5.975 4.806,-5.975 0.939,0 1.764,0.142 2.674,0.372 l 0,-1.602 c -0.996,-0.314 -2.048,-0.4 -3.1,-0.4 -4.694,0 -6.599,3.173 -6.599,7.578 0,3.546 1.309,6.663 5.29,6.663 3.157,0 4.722,-2.175 4.722,-5.177 l 0,-0.657 -7.793,0"
         style="fill:#9c9a9b;fill-opacity:1;fill-rule:nonzero;stroke:none"
         id="path3146"
         inkscape:connector-curvature="0" /></g><path
       d="m 134.457,24.502 1.934,0 0,-13.611 -1.934,0 0,13.611 z m -0.313,6.119 2.562,0 0,-2.573 -2.562,0 0,2.573 z"
       style="fill:#9c9a9b;fill-opacity:1;fill-rule:nonzero;stroke:none"
       id="path3148"
       inkscape:connector-curvature="0" /><g
       id="g3150"
       transform="translate(144.3535,22.8721)"><path
         d="m 0,0 0,-8.378 c 0,-1.459 0.683,-2.288 2.218,-2.288 0.541,0 0.825,0.086 1.308,0.258 l 0,-1.745 c -0.568,-0.085 -1.137,-0.143 -1.706,-0.143 -2.531,0 -3.755,0.887 -3.755,3.518 l 0,8.778 -2.218,0 0,1.63 2.218,0 0,3.174 L 0,6.033 0,1.63 3.641,1.63 3.641,0 0,0"
         style="fill:#9c9a9b;fill-opacity:1;fill-rule:nonzero;stroke:none"
         id="path3152"
         inkscape:connector-curvature="0" /></g><g
       id="g3154"
       transform="translate(160.3066,10.8906)"><path
         d="m 0,0 0,15.928 -3.413,-2.317 0,2.173 3.726,2.346 1.82,0 L 2.133,0 0,0 z"
         style="fill:#9c9a9b;fill-opacity:1;fill-rule:nonzero;stroke:none"
         id="path3156"
         inkscape:connector-curvature="0" /></g><g
       id="g3158"
       transform="translate(172.875,10.5762)"><path
         d="m 0,0 c -2.673,0 -5.318,1.087 -5.546,4.089 l 2.475,0 C -2.844,2.402 -1.82,1.63 -0.113,1.63 c 2.36,0 3.328,1.201 3.328,3.516 0,2.861 -1.395,3.805 -4.039,3.805 l 0,1.629 c 2.36,0 3.725,0.801 3.725,3.316 0,1.86 -0.767,3.233 -2.758,3.233 -1.537,0 -2.93,-0.687 -2.987,-2.374 l -2.388,0 c 0,0.572 0.169,1.173 0.455,1.659 0.966,1.744 2.9,2.345 4.777,2.345 2.987,0 5.12,-1.716 5.12,-4.833 0,-1.716 -1.081,-3.832 -2.93,-4.089 l 0,-0.058 C 4.637,9.236 5.433,7.32 5.433,4.947 5.433,1.601 3.129,0 0,0"
         style="fill:#9c9a9b;fill-opacity:1;fill-rule:nonzero;stroke:none"
         id="path3160"
         inkscape:connector-curvature="0" /></g><g
       id="g3162"
       transform="translate(187.833,27.7051)"><path
         d="m 0,0 c -2.021,0 -3.043,-1.459 -3.043,-3.375 0,-2.087 1.081,-3.259 3.186,-3.259 1.961,0 2.958,1.344 2.958,3.231 C 3.101,-1.344 2.134,0 0,0 m 0,-8.264 c -2.189,0 -3.413,-1.373 -3.413,-3.547 0,-2.344 1.081,-3.688 3.499,-3.688 2.445,0 3.355,1.315 3.355,3.66 0,2.231 -1.166,3.575 -3.441,3.575 m 0,-8.865 c -3.413,0 -5.632,1.544 -5.632,5.176 0,2.288 1.139,3.974 3.385,4.461 l 0,0.056 c -2.191,0.658 -3.015,2.174 -3.015,4.433 0,3.146 2.447,4.633 5.32,4.633 2.815,0 5.261,-1.516 5.261,-4.575 0,-1.974 -0.939,-4.09 -3.044,-4.491 l 0,-0.056 c 2.219,-0.429 3.385,-2.373 3.385,-4.547 0,-3.574 -2.304,-5.09 -5.66,-5.09"
         style="fill:#9c9a9b;fill-opacity:1;fill-rule:nonzero;stroke:none"
         id="path3164"
         inkscape:connector-curvature="0" /></g><g
       id="g3166"
       transform="translate(203.1035,20.1836)"><path
         d="m 0,0 c -2.332,0 -3.47,-1.83 -3.47,-4.003 0,-2.202 1.195,-3.975 3.528,-3.975 2.473,0 3.27,1.716 3.27,3.948 C 3.328,-1.744 2.531,0 0,0 m 0.058,-9.607 c -5.604,0 -6.087,4.919 -6.087,9.35 0,4.347 0.682,9.408 6.143,9.408 1.991,0 3.84,-0.714 4.693,-2.602 0.199,-0.457 0.341,-0.944 0.341,-1.43 l -2.474,0 c 0,1.458 -1.251,2.402 -2.645,2.402 -3.869,0 -3.84,-5.319 -3.84,-8.035 l 0.057,0 c 0.939,1.458 2.645,2.145 4.323,2.145 3.385,0 4.978,-2.488 4.978,-5.661 0,-3.319 -2.162,-5.577 -5.489,-5.577"
         style="fill:#9c9a9b;fill-opacity:1;fill-rule:nonzero;stroke:none"
         id="path3168"
         inkscape:connector-curvature="0" /></g><path
       d="m 211.32,10.891 2.845,0 0,2.859 -2.845,0 0,-2.859 z"
       style="fill:#9c9a9b;fill-opacity:1;fill-rule:nonzero;stroke:none"
       id="path3170"
       inkscape:connector-curvature="0" /><g
       id="g3172"><g
         id="g3174"
         clip-path="url(#clipPath3176)"><g
           id="g3180"
           transform="translate(260.6309,15.709)"><path
             d="m 0,0 c 0,-2.889 -2.364,-5.231 -5.277,-5.231 -2.915,0 -5.28,2.342 -5.28,5.231 0,2.888 2.365,5.231 5.28,5.231 C -2.364,5.231 0,2.888 0,0"
             style="fill:#292a2b;fill-opacity:1;fill-rule:nonzero;stroke:none"
             id="path3182" /></g><g
           id="g3184"
           transform="translate(283.8838,15.709)"><path
             d="m 0,0 c 0,-2.889 -2.364,-5.231 -5.278,-5.231 -2.916,0 -5.279,2.342 -5.279,5.231 0,2.888 2.363,5.231 5.279,5.231 C -2.364,5.231 0,2.888 0,0"
             style="fill:#292a2b;fill-opacity:1;fill-rule:nonzero;stroke:none"
             id="path3186" /></g><g
           id="g3188"
           transform="translate(307.1348,15.709)"><path
             d="m 0,0 c 0,-2.889 -2.361,-5.231 -5.278,-5.231 -2.914,0 -5.279,2.342 -5.279,5.231 0,2.888 2.365,5.231 5.279,5.231 C -2.361,5.231 0,2.888 0,0"
             style="fill:#292a2b;fill-opacity:1;fill-rule:nonzero;stroke:none"
             id="path3190" /></g><g
           id="g3192"
           transform="translate(330.3896,15.7256)"><path
             d="m 0,0 c 0,-2.89 -2.365,-5.231 -5.279,-5.231 -2.914,0 -5.279,2.341 -5.279,5.231 0,2.888 2.365,5.229 5.279,5.229 C -2.365,5.229 0,2.888 0,0"
             style="fill:#292a2b;fill-opacity:1;fill-rule:nonzero;stroke:none"
             id="path3194" /></g><g
           id="g3196"
           transform="translate(353.6416,15.7744)"><path
             d="m 0,0 c 0,-2.89 -2.362,-5.23 -5.278,-5.23 -2.916,0 -5.28,2.34 -5.28,5.23 0,2.89 2.364,5.229 5.28,5.229 C -2.362,5.229 0,2.89 0,0"
             style="fill:#292a2b;fill-opacity:1;fill-rule:nonzero;stroke:none"
             id="path3198" /></g><g
           id="g3200"
           transform="translate(386.3623,15.1641)"><path
             d="m 0,0 c 0,-2.579 -2.345,-4.67 -5.236,-4.67 l -10.746,0 c -2.892,0 -5.235,2.091 -5.235,4.67 l 0,1.17 c 0,2.58 2.343,4.67 5.235,4.67 l 10.746,0 C -2.345,5.84 0,3.75 0,1.17 L 0,0"
             style="fill:#a1131b;fill-opacity:1;fill-rule:nonzero;stroke:none"
             id="path3202" /></g><g
           id="g3204"
           transform="translate(260.5938,67.2856)"><path
             d="M 0,0 C -0.146,-3.296 -1.974,-5.754 -5.267,-5.705 -8.352,-5.758 -10.561,-2.956 -10.478,0 l 0.004,43.264 c 0.024,1.751 1.581,5.27 5.207,5.163 3.49,0.081 5.289,-3.29 5.278,-5.163 L 0,0"
             style="fill:#292a2b;fill-opacity:1;fill-rule:nonzero;stroke:none"
             id="path3206" /></g><g
           id="g3208"
           transform="translate(283.6924,67.2856)"><path
             d="m 0,0 c -0.146,-3.296 -1.97,-5.754 -5.265,-5.705 -3.086,-0.054 -5.296,2.749 -5.21,5.705 l 0.003,43.264 c 0.022,1.751 1.581,5.27 5.207,5.163 3.488,0.081 5.289,-3.29 5.277,-5.163 L 0,0"
             style="fill:#292a2b;fill-opacity:1;fill-rule:nonzero;stroke:none"
             id="path3210" /></g><g
           id="g3212"
           transform="translate(330.1514,67.2856)"><path
             d="M 0,0 C -0.146,-3.296 -1.971,-5.754 -5.265,-5.705 -8.352,-5.759 -10.562,-2.956 -10.477,0 l 0.006,43.264 c 0.021,1.751 1.578,5.27 5.206,5.163 3.49,0.081 5.288,-3.29 5.277,-5.163 L 0,0"
             style="fill:#292a2b;fill-opacity:1;fill-rule:nonzero;stroke:none"
             id="path3214" /></g><g
           id="g3216"
           transform="translate(353.7412,67.2856)"><path
             d="M 0,0 C -0.146,-3.296 -1.97,-5.754 -5.263,-5.705 -8.352,-5.759 -10.56,-2.956 -10.474,0 l 0.004,43.264 c 0.021,1.751 1.579,5.27 5.207,5.163 3.487,0.081 5.287,-3.29 5.276,-5.163 L 0,0"
             style="fill:#292a2b;fill-opacity:1;fill-rule:nonzero;stroke:none"
             id="path3218" /></g><g
           id="g3220"
           transform="translate(322.373,62.2363)"><path
             d="M 0,0 C -2.287,1.429 -10.573,10.159 -21.256,10.111 -31.508,9.949 -38.148,2.276 -40.583,0.523 l 1.824,13.816 c 0,0 9.236,5.487 17.899,5.389 8.395,0.293 18.394,-5.537 18.394,-5.537 L 0,0"
             style="fill:#292a2b;fill-opacity:1;fill-rule:nonzero;stroke:none"
             id="path3222" /></g><g
           id="g3224"
           transform="translate(355.5391,111.5771)"><path
             d="m 0,0 c 0.619,5.152 5.169,4.179 11.301,4.13 9.32,-0.096 12.126,-1.848 15.178,-5.109 3.194,-3.277 3.893,-10.091 2.659,-14.502 -2.451,-8.371 -9.944,-9.571 -10.965,-9.994 3.242,-5.465 11.06,-14.654 12.134,-18.751 0.729,-1.93 0.12,-3.739 -1.802,-4.98 -3.882,-1.947 -6.489,0.113 -7.805,1.866 -3.937,5.337 -9.117,17.773 -14.63,19.912 -1.058,0.255 -5.683,-0.596 -6.058,4.501 0.45,6.461 6.925,3.593 14.574,4.72 4.654,0.682 6.719,1.315 6.829,6.554 -0.01,3.986 -3.049,6.034 -5.026,6.423 C 7.238,-3.534 -0.012,-7.342 0,0"
             style="fill:#292a2b;fill-opacity:1;fill-rule:nonzero;stroke:none"
             id="path3226" /></g><path
           d="m 251.056,44.22 0.866,0 0,8.669 -0.866,0 0,-8.669 z"
           style="fill:#292a2b;fill-opacity:1;fill-rule:nonzero;stroke:none"
           id="path3228" /><g
           id="g3230"
           transform="translate(253.8691,50.6309)"><path
             d="m 0,0 0.825,0 0,-1.15 c 0.329,0.44 0.696,0.768 1.096,0.988 0.4,0.218 0.837,0.327 1.309,0.327 0.478,0 0.905,-0.122 1.274,-0.366 0.373,-0.244 0.644,-0.571 0.824,-0.984 0.177,-0.412 0.264,-1.053 0.264,-1.927 l 0,-3.299 -0.824,0 0,3.058 c 0,0.739 -0.032,1.232 -0.093,1.479 -0.095,0.424 -0.279,0.744 -0.55,0.958 -0.271,0.213 -0.624,0.32 -1.062,0.32 -0.497,0 -0.944,-0.166 -1.34,-0.494 C 1.33,-1.421 1.068,-1.829 0.944,-2.316 0.864,-2.634 0.825,-3.215 0.825,-4.062 l 0,-2.349 L 0,-6.411 0,0"
             style="fill:#292a2b;fill-opacity:1;fill-rule:nonzero;stroke:none"
             id="path3232" /></g><g
           id="g3234"
           transform="translate(262.0449,53.0098)"><path
             d="m 0,0 0.823,0 0,-2.379 1.312,0 0,-0.714 -1.312,0 0,-5.697 -0.823,0 0,5.697 -1.126,0 0,0.714 1.126,0 L 0,0 z"
             style="fill:#292a2b;fill-opacity:1;fill-rule:nonzero;stroke:none"
             id="path3236" /></g><g
           id="g3238"
           transform="translate(270.9082,48.0732)"><path
             d="m 0,0 c -0.108,0.439 -0.268,0.791 -0.479,1.056 -0.209,0.262 -0.489,0.473 -0.835,0.635 -0.345,0.161 -0.709,0.243 -1.092,0.243 -0.628,0 -1.17,-0.205 -1.622,-0.609 C -4.359,1.031 -4.607,0.59 -4.777,0 L 0,0 z m 0,-1.727 0.698,-0.364 c -0.23,-0.449 -0.493,-0.81 -0.792,-1.086 -0.3,-0.275 -0.634,-0.484 -1.007,-0.627 -0.376,-0.144 -0.797,-0.217 -1.267,-0.217 -1.047,0 -1.864,0.344 -2.456,1.029 -0.589,0.686 -0.885,1.462 -0.885,2.328 0,0.811 0.25,1.535 0.749,2.173 0.634,0.809 1.48,1.214 2.542,1.214 1.094,0 1.967,-0.415 2.62,-1.244 0.463,-0.586 0.7,-1.315 0.709,-2.192 l -5.77,0 c 0.016,-0.745 0.254,-1.356 0.713,-1.832 0.459,-0.476 1.029,-0.715 1.707,-0.715 0.326,0 0.642,0.058 0.952,0.17 0.308,0.114 0.571,0.265 0.786,0.452 0.218,0.189 0.451,0.492 0.701,0.911"
             style="fill:#292a2b;fill-opacity:1;fill-rule:nonzero;stroke:none"
             id="path3240" /></g><g
           id="g3242"
           transform="translate(273.1396,50.6309)"><path
             d="m 0,0 0.844,0 0,-0.938 c 0.251,0.371 0.516,0.647 0.795,0.829 0.278,0.182 0.571,0.274 0.872,0.274 0.226,0 0.472,-0.073 0.73,-0.219 L 2.811,-0.749 C 2.638,-0.674 2.493,-0.638 2.376,-0.638 2.1,-0.638 1.835,-0.75 1.581,-0.975 1.325,-1.201 1.131,-1.554 0.996,-2.027 0.895,-2.393 0.844,-3.131 0.844,-4.242 l 0,-2.169 L 0,-6.411 0,0"
             style="fill:#292a2b;fill-opacity:1;fill-rule:nonzero;stroke:none"
             id="path3244" /></g><g
           id="g3246"
           transform="translate(280.2822,50)"><path
             d="m 0,0 c -0.462,0 -0.883,-0.112 -1.271,-0.339 -0.39,-0.224 -0.697,-0.544 -0.928,-0.951 -0.23,-0.408 -0.344,-0.839 -0.344,-1.294 0,-0.452 0.116,-0.882 0.348,-1.296 0.231,-0.409 0.542,-0.733 0.931,-0.962 0.389,-0.228 0.81,-0.345 1.257,-0.345 0.452,0 0.879,0.116 1.284,0.343 0.404,0.227 0.714,0.533 0.932,0.924 0.22,0.388 0.328,0.826 0.328,1.312 0,0.743 -0.244,1.361 -0.734,1.86 C 1.316,-0.25 0.714,0 0,0 m 3.297,3.106 0,-8.886 -0.815,0 0,1.1 C 2.138,-5.1 1.751,-5.418 1.318,-5.628 0.889,-5.839 0.42,-5.947 -0.092,-5.947 c -0.908,0 -1.683,0.331 -2.324,0.987 -0.643,0.658 -0.965,1.46 -0.965,2.403 0,0.922 0.324,1.711 0.973,2.37 0.648,0.655 1.428,0.983 2.34,0.983 0.525,0 1.003,-0.112 1.43,-0.336 0.423,-0.224 0.8,-0.561 1.12,-1.009 l 0,3.655 0.815,0"
             style="fill:#292a2b;fill-opacity:1;fill-rule:nonzero;stroke:none"
             id="path3248" /></g><path
           d="m 285.419,50.631 0.825,0 0,-6.411 -0.825,0 0,6.411 z m 0.409,2.64 c 0.187,0 0.349,-0.066 0.484,-0.201 0.132,-0.133 0.2,-0.295 0.2,-0.482 0,-0.187 -0.068,-0.345 -0.2,-0.479 -0.135,-0.131 -0.297,-0.2 -0.484,-0.2 -0.183,0 -0.341,0.069 -0.474,0.2 -0.132,0.134 -0.2,0.292 -0.2,0.479 0,0.187 0.068,0.349 0.2,0.482 0.133,0.135 0.291,0.201 0.474,0.201"
           style="fill:#292a2b;fill-opacity:1;fill-rule:nonzero;stroke:none"
           id="path3250" /><g
           id="g3252"
           transform="translate(291.2783,49.9297)"><path
             d="m 0,0 -0.53,-0.549 c -0.44,0.43 -0.872,0.644 -1.292,0.644 -0.268,0 -0.498,-0.09 -0.69,-0.266 -0.191,-0.177 -0.286,-0.384 -0.286,-0.619 0,-0.207 0.08,-0.406 0.236,-0.594 0.159,-0.194 0.49,-0.418 0.992,-0.679 0.615,-0.319 1.031,-0.625 1.253,-0.919 0.216,-0.298 0.324,-0.634 0.324,-1.008 0,-0.526 -0.183,-0.974 -0.556,-1.336 -0.37,-0.367 -0.831,-0.551 -1.385,-0.551 -0.371,0 -0.724,0.083 -1.059,0.244 -0.338,0.159 -0.616,0.383 -0.836,0.665 l 0.518,0.589 c 0.422,-0.474 0.869,-0.714 1.34,-0.714 0.332,0 0.615,0.109 0.846,0.32 0.232,0.21 0.348,0.46 0.348,0.747 0,0.236 -0.077,0.447 -0.23,0.631 -0.153,0.18 -0.5,0.41 -1.04,0.684 -0.579,0.298 -0.972,0.595 -1.182,0.882 -0.208,0.294 -0.311,0.625 -0.311,0.998 0,0.486 0.166,0.892 0.498,1.214 0.331,0.323 0.753,0.483 1.26,0.483 C -1.191,0.866 -0.598,0.578 0,0"
             style="fill:#292a2b;fill-opacity:1;fill-rule:nonzero;stroke:none"
             id="path3254" /></g><g
           id="g3256"
           transform="translate(299.0625,49.2988)"><path
             d="m 0,0 -0.656,-0.406 c -0.564,0.749 -1.337,1.125 -2.315,1.125 -0.78,0 -1.428,-0.252 -1.943,-0.752 -0.516,-0.505 -0.774,-1.114 -0.774,-1.833 0,-0.467 0.117,-0.905 0.355,-1.317 0.238,-0.413 0.563,-0.733 0.979,-0.96 0.413,-0.227 0.876,-0.342 1.391,-0.342 0.942,0 1.71,0.376 2.307,1.126 L 0,-3.79 c -0.308,-0.46 -0.72,-0.819 -1.236,-1.073 -0.517,-0.254 -1.106,-0.383 -1.765,-0.383 -1.014,0 -1.857,0.322 -2.524,0.968 -0.666,0.644 -0.999,1.428 -0.999,2.35 0,0.621 0.154,1.197 0.468,1.73 0.312,0.533 0.741,0.948 1.286,1.247 0.547,0.299 1.157,0.448 1.833,0.448 0.425,0 0.834,-0.065 1.228,-0.195 C -1.313,1.173 -0.977,1.003 -0.703,0.796 -0.43,0.586 -0.194,0.321 0,0"
             style="fill:#292a2b;fill-opacity:1;fill-rule:nonzero;stroke:none"
             id="path3258" /></g><path
           d="m 300.618,50.631 0.826,0 0,-6.411 -0.826,0 0,6.411 z m 0.411,2.64 c 0.187,0 0.348,-0.066 0.482,-0.201 0.132,-0.133 0.199,-0.295 0.199,-0.482 0,-0.187 -0.067,-0.345 -0.199,-0.479 -0.134,-0.131 -0.295,-0.2 -0.482,-0.2 -0.183,0 -0.343,0.069 -0.477,0.2 -0.131,0.134 -0.199,0.292 -0.199,0.479 0,0.187 0.068,0.349 0.199,0.482 0.134,0.135 0.294,0.201 0.477,0.201"
           style="fill:#292a2b;fill-opacity:1;fill-rule:nonzero;stroke:none"
           id="path3260" /><g
           id="g3262"
           transform="translate(306.5654,50)"><path
             d="m 0,0 c -0.713,0 -1.313,-0.25 -1.8,-0.748 -0.487,-0.499 -0.732,-1.117 -0.732,-1.86 0,-0.486 0.109,-0.924 0.327,-1.312 0.217,-0.391 0.527,-0.697 0.934,-0.924 0.405,-0.227 0.835,-0.343 1.284,-0.343 0.442,0 0.861,0.117 1.249,0.345 0.391,0.229 0.702,0.553 0.932,0.962 0.232,0.414 0.348,0.844 0.348,1.296 0,0.455 -0.115,0.886 -0.344,1.294 C 1.97,-0.883 1.66,-0.563 1.271,-0.339 0.884,-0.112 0.461,0 0,0 m -3.3,0.631 0.826,0 0,-1.18 c 0.326,0.448 0.702,0.785 1.125,1.009 0.423,0.224 0.898,0.336 1.419,0.336 0.909,0 1.69,-0.328 2.337,-0.983 0.646,-0.659 0.971,-1.448 0.971,-2.37 0,-0.943 -0.321,-1.745 -0.962,-2.403 -0.642,-0.656 -1.417,-0.987 -2.323,-0.987 -0.509,0 -0.979,0.108 -1.407,0.319 -0.428,0.21 -0.815,0.528 -1.16,0.948 l 0,-3.446 -0.826,0 0,8.757"
             style="fill:#292a2b;fill-opacity:1;fill-rule:nonzero;stroke:none"
             id="path3264" /></g><path
           d="m 311.459,44.22 0.826,0 0,8.887 -0.826,0 0,-8.887 z"
           style="fill:#292a2b;fill-opacity:1;fill-rule:nonzero;stroke:none"
           id="path3266" /><path
           d="m 313.973,50.631 0.827,0 0,-6.411 -0.827,0 0,6.411 z m 0.41,2.64 c 0.188,0 0.347,-0.066 0.479,-0.201 0.133,-0.133 0.201,-0.295 0.201,-0.482 0,-0.187 -0.068,-0.345 -0.201,-0.479 -0.132,-0.131 -0.291,-0.2 -0.479,-0.2 -0.185,0 -0.343,0.069 -0.476,0.2 -0.134,0.134 -0.198,0.292 -0.198,0.479 0,0.187 0.064,0.349 0.198,0.482 0.133,0.135 0.291,0.201 0.476,0.201"
           style="fill:#292a2b;fill-opacity:1;fill-rule:nonzero;stroke:none"
           id="path3268" /><g
           id="g3270"
           transform="translate(316.6094,50.6309)"><path
             d="m 0,0 0.826,0 0,-1.15 c 0.33,0.44 0.695,0.768 1.096,0.988 0.4,0.218 0.835,0.327 1.308,0.327 0.478,0 0.904,-0.122 1.276,-0.366 0.372,-0.244 0.645,-0.571 0.821,-0.984 0.178,-0.412 0.265,-1.053 0.265,-1.927 l 0,-3.299 -0.823,0 0,3.058 c 0,0.739 -0.033,1.232 -0.093,1.479 C 4.579,-1.45 4.396,-1.13 4.125,-0.916 3.855,-0.703 3.5,-0.596 3.064,-0.596 2.566,-0.596 2.12,-0.762 1.725,-1.09 1.329,-1.421 1.067,-1.829 0.942,-2.316 0.864,-2.634 0.826,-3.215 0.826,-4.062 l 0,-2.349 L 0,-6.411 0,0"
             style="fill:#292a2b;fill-opacity:1;fill-rule:nonzero;stroke:none"
             id="path3272" /></g><g
           id="g3274"
           transform="translate(327.1582,50)"><path
             d="m 0,0 c -0.459,0 -0.884,-0.112 -1.271,-0.339 -0.389,-0.224 -0.7,-0.544 -0.927,-0.951 -0.233,-0.408 -0.345,-0.839 -0.345,-1.294 0,-0.452 0.114,-0.882 0.347,-1.296 0.232,-0.409 0.542,-0.733 0.933,-0.962 0.39,-0.228 0.808,-0.345 1.255,-0.345 0.453,0 0.88,0.116 1.283,0.343 0.406,0.227 0.716,0.533 0.935,0.924 0.216,0.388 0.326,0.826 0.326,1.312 0,0.743 -0.245,1.361 -0.731,1.86 C 1.315,-0.25 0.712,0 0,0 m 3.295,0.631 0,-6.411 -0.812,0 0,1.1 C 2.139,-5.1 1.751,-5.418 1.319,-5.628 0.89,-5.839 0.42,-5.947 -0.092,-5.947 c -0.908,0 -1.683,0.331 -2.326,0.987 -0.642,0.658 -0.962,1.46 -0.962,2.403 0,0.922 0.324,1.711 0.972,2.37 0.648,0.655 1.428,0.983 2.34,0.983 0.525,0 1.004,-0.112 1.428,-0.336 0.427,-0.224 0.8,-0.561 1.123,-1.009 l 0,1.18 0.812,0"
             style="fill:#292a2b;fill-opacity:1;fill-rule:nonzero;stroke:none"
             id="path3276" /></g><g
           id="g3278"
           transform="translate(332.0957,50.6309)"><path
             d="m 0,0 0.842,0 0,-0.938 c 0.252,0.371 0.517,0.647 0.796,0.829 0.279,0.182 0.569,0.274 0.871,0.274 0.23,0 0.472,-0.073 0.731,-0.219 L 2.812,-0.749 C 2.638,-0.674 2.492,-0.638 2.374,-0.638 2.099,-0.638 1.835,-0.75 1.58,-0.975 1.324,-1.201 1.13,-1.554 0.996,-2.027 0.894,-2.393 0.842,-3.131 0.842,-4.242 l 0,-2.169 L 0,-6.411 0,0"
             style="fill:#292a2b;fill-opacity:1;fill-rule:nonzero;stroke:none"
             id="path3280" /></g><g
           id="g3282"
           transform="translate(335.4463,50.6309)"><path
             d="M 0,0 0.87,0 3.075,-4.938 5.213,0 6.091,0 2.268,-8.757 l -0.872,0 1.235,2.829 L 0,0 z"
             style="fill:#292a2b;fill-opacity:1;fill-rule:nonzero;stroke:none"
             id="path3284" /></g><g
           id="g3286"
           transform="translate(354.3496,51.2793)"><path
             d="m 0,0 -0.685,-0.526 c -0.375,0.491 -0.831,0.864 -1.358,1.119 -0.529,0.252 -1.108,0.378 -1.742,0.378 -0.693,0 -1.331,-0.166 -1.92,-0.497 -0.591,-0.332 -1.046,-0.779 -1.369,-1.339 -0.325,-0.558 -0.489,-1.189 -0.489,-1.886 0,-1.059 0.363,-1.942 1.088,-2.647 0.725,-0.708 1.639,-1.063 2.745,-1.063 1.212,0 2.227,0.477 3.045,1.428 L 0,-5.551 c -0.437,-0.552 -0.974,-0.973 -1.619,-1.277 -0.646,-0.3 -1.368,-0.45 -2.166,-0.45 -1.516,0 -2.713,0.505 -3.589,1.514 -0.733,0.854 -1.104,1.883 -1.104,3.088 0,1.27 0.446,2.337 1.338,3.203 0.889,0.867 2.003,1.3 3.343,1.3 0.81,0 1.541,-0.16 2.193,-0.48 C -0.953,1.025 -0.418,0.577 0,0"
             style="fill:#292a2b;fill-opacity:1;fill-rule:nonzero;stroke:none"
             id="path3288" /></g><g
           id="g3290"
           transform="translate(361.4463,48.0732)"><path
             d="m 0,0 c -0.11,0.439 -0.271,0.791 -0.481,1.056 -0.209,0.262 -0.488,0.473 -0.834,0.635 -0.347,0.161 -0.711,0.243 -1.092,0.243 -0.63,0 -1.17,-0.205 -1.622,-0.609 C -4.361,1.031 -4.61,0.59 -4.778,0 L 0,0 z M 0,-1.727 0.694,-2.091 C 0.467,-2.54 0.204,-2.901 -0.095,-3.177 -0.396,-3.452 -0.73,-3.661 -1.104,-3.804 -1.478,-3.948 -1.9,-4.021 -2.372,-4.021 c -1.047,0 -1.864,0.344 -2.453,1.029 -0.59,0.686 -0.886,1.462 -0.886,2.328 0,0.811 0.25,1.535 0.749,2.173 0.633,0.809 1.482,1.214 2.542,1.214 1.093,0 1.967,-0.415 2.619,-1.244 0.464,-0.586 0.7,-1.315 0.708,-2.192 l -5.769,0 c 0.016,-0.745 0.254,-1.356 0.715,-1.832 0.458,-0.476 1.027,-0.715 1.704,-0.715 0.327,0 0.645,0.058 0.953,0.17 0.308,0.114 0.57,0.265 0.787,0.452 0.217,0.189 0.45,0.492 0.703,0.911"
             style="fill:#292a2b;fill-opacity:1;fill-rule:nonzero;stroke:none"
             id="path3292" /></g><g
           id="g3294"
           transform="translate(363.9873,50.6309)"><path
             d="m 0,0 0.826,0 0,-1.15 c 0.33,0.44 0.694,0.768 1.095,0.988 0.401,0.218 0.839,0.327 1.308,0.327 0.481,0 0.905,-0.122 1.278,-0.366 0.371,-0.244 0.643,-0.571 0.82,-0.984 0.177,-0.412 0.266,-1.053 0.266,-1.927 l 0,-3.299 -0.825,0 0,3.058 c 0,0.739 -0.029,1.232 -0.092,1.479 -0.096,0.424 -0.279,0.744 -0.549,0.958 -0.273,0.213 -0.626,0.32 -1.062,0.32 -0.5,0 -0.947,-0.166 -1.34,-0.494 C 1.33,-1.421 1.069,-1.829 0.943,-2.316 0.866,-2.634 0.826,-3.215 0.826,-4.062 l 0,-2.349 L 0,-6.411 0,0"
             style="fill:#292a2b;fill-opacity:1;fill-rule:nonzero;stroke:none"
             id="path3296" /></g><g
           id="g3298"
           transform="translate(372.1641,53.0098)"><path
             d="m 0,0 0.827,0 0,-2.379 1.305,0 0,-0.714 -1.305,0 0,-5.697 -0.827,0 0,5.697 -1.126,0 0,0.714 1.126,0 L 0,0 z"
             style="fill:#292a2b;fill-opacity:1;fill-rule:nonzero;stroke:none"
             id="path3300" /></g><g
           id="g3302"
           transform="translate(381.0303,48.0732)"><path
             d="m 0,0 c -0.111,0.439 -0.271,0.791 -0.482,1.056 -0.212,0.262 -0.49,0.473 -0.834,0.635 -0.347,0.161 -0.71,0.243 -1.092,0.243 -0.63,0 -1.171,-0.205 -1.622,-0.609 C -4.361,1.031 -4.611,0.59 -4.779,0 L 0,0 z m 0,-1.727 0.694,-0.364 c -0.226,-0.449 -0.491,-0.81 -0.79,-1.086 -0.299,-0.275 -0.634,-0.484 -1.009,-0.627 -0.373,-0.144 -0.796,-0.217 -1.27,-0.217 -1.045,0 -1.862,0.344 -2.452,1.029 -0.592,0.686 -0.885,1.462 -0.885,2.328 0,0.811 0.25,1.535 0.75,2.173 0.633,0.809 1.481,1.214 2.542,1.214 1.093,0 1.967,-0.415 2.617,-1.244 0.466,-0.586 0.701,-1.315 0.71,-2.192 l -5.77,0 c 0.015,-0.745 0.255,-1.356 0.714,-1.832 0.461,-0.476 1.029,-0.715 1.707,-0.715 0.324,0 0.641,0.058 0.951,0.17 0.309,0.114 0.572,0.265 0.787,0.452 0.217,0.189 0.451,0.492 0.704,0.911"
             style="fill:#292a2b;fill-opacity:1;fill-rule:nonzero;stroke:none"
             id="path3304" /></g><g
           id="g3306"
           transform="translate(383.2598,50.6309)"><path
             d="m 0,0 0.842,0 0,-0.938 c 0.252,0.371 0.518,0.647 0.796,0.829 0.278,0.182 0.569,0.274 0.87,0.274 0.231,0 0.473,-0.073 0.732,-0.219 L 2.812,-0.749 C 2.636,-0.674 2.492,-0.638 2.373,-0.638 2.098,-0.638 1.835,-0.75 1.576,-0.975 1.322,-1.201 1.128,-1.554 0.995,-2.027 0.894,-2.393 0.842,-3.131 0.842,-4.242 l 0,-2.169 L 0,-6.411 0,0"
             style="fill:#292a2b;fill-opacity:1;fill-rule:nonzero;stroke:none"
             id="path3308" /></g><g
           id="g3310"
           transform="translate(253.5322,38.8457)"><path
             d="m 0,0 0,-0.808 c -0.304,0.131 -0.563,0.197 -0.778,0.197 -0.162,0 -0.295,-0.033 -0.402,-0.097 -0.107,-0.067 -0.173,-0.14 -0.199,-0.228 -0.028,-0.082 -0.044,-0.306 -0.044,-0.672 l -10e-4,-0.866 1.339,0 0,-0.714 -1.339,0 -0.003,-5.698 -0.826,0 0,5.698 -0.842,0 0,0.714 0.842,0 0,1.001 c 0,0.46 0.043,0.788 0.127,0.985 0.085,0.196 0.229,0.354 0.431,0.473 0.202,0.121 0.447,0.181 0.733,0.181 C -0.695,0.166 -0.375,0.11 0,0"
             style="fill:#292a2b;fill-opacity:1;fill-rule:nonzero;stroke:none"
             id="path3312" /></g><g
           id="g3314"
           transform="translate(257.5547,35.7285)"><path
             d="m 0,0 c -0.686,0 -1.274,-0.253 -1.768,-0.759 -0.493,-0.507 -0.739,-1.12 -0.739,-1.84 0,-0.464 0.111,-0.894 0.337,-1.296 0.224,-0.4 0.529,-0.709 0.91,-0.927 0.384,-0.217 0.804,-0.329 1.26,-0.329 0.458,0 0.878,0.112 1.261,0.329 0.382,0.218 0.685,0.527 0.91,0.927 0.224,0.402 0.336,0.832 0.336,1.296 0,0.72 -0.246,1.333 -0.74,1.84 C 1.27,-0.253 0.681,0 0,0 m 0.003,0.808 c 0.988,0 1.808,-0.358 2.456,-1.073 0.591,-0.651 0.885,-1.424 0.885,-2.316 0,-0.894 -0.312,-1.679 -0.935,-2.348 -0.625,-0.67 -1.425,-1.006 -2.406,-1.006 -0.983,0 -1.787,0.336 -2.411,1.006 -0.625,0.669 -0.937,1.454 -0.937,2.348 0,0.888 0.295,1.66 0.888,2.311 0.647,0.718 1.47,1.078 2.46,1.078"
             style="fill:#292a2b;fill-opacity:1;fill-rule:nonzero;stroke:none"
             id="path3316" /></g><g
           id="g3318"
           transform="translate(261.9551,36.3721)"><path
             d="m 0,0 0.844,0 0,-0.936 c 0.252,0.368 0.517,0.645 0.796,0.826 0.28,0.183 0.569,0.274 0.872,0.274 0.228,0 0.47,-0.073 0.73,-0.219 L 2.812,-0.749 C 2.641,-0.674 2.494,-0.637 2.376,-0.637 2.101,-0.637 1.836,-0.75 1.58,-0.977 1.324,-1.202 1.13,-1.552 0.998,-2.027 0.896,-2.394 0.844,-3.132 0.844,-4.244 l 0,-2.168 L 0,-6.412 0,0"
             style="fill:#292a2b;fill-opacity:1;fill-rule:nonzero;stroke:none"
             id="path3320" /></g><g
           id="g3322"
           transform="translate(268.165,31.5752)"><path
             d="m 0,0 0.737,0.44 c 0.519,-0.954 1.119,-1.432 1.799,-1.432 0.289,0 0.562,0.069 0.818,0.205 0.254,0.136 0.45,0.317 0.584,0.546 0.133,0.227 0.2,0.47 0.2,0.723 0,0.291 -0.098,0.577 -0.293,0.856 C 3.574,1.722 3.076,2.185 2.357,2.729 1.636,3.274 1.187,3.668 1.01,3.913 0.702,4.32 0.55,4.762 0.55,5.238 0.55,5.614 0.641,5.959 0.82,6.271 1,6.58 1.256,6.826 1.583,7.002 c 0.328,0.181 0.686,0.269 1.071,0.269 0.408,0 0.791,-0.1 1.144,-0.304 0.357,-0.2 0.733,-0.574 1.13,-1.115 L 4.221,5.315 C 3.894,5.748 3.615,6.033 3.387,6.169 3.156,6.308 2.907,6.377 2.635,6.377 2.286,6.377 2,6.271 1.777,6.058 1.556,5.846 1.445,5.585 1.445,5.273 1.445,5.086 1.484,4.903 1.563,4.728 1.642,4.548 1.783,4.356 1.994,4.148 2.107,4.038 2.479,3.75 3.112,3.282 3.861,2.729 4.378,2.235 4.656,1.803 4.937,1.369 5.075,0.938 5.075,0.501 5.075,-0.128 4.836,-0.675 4.358,-1.138 3.881,-1.602 3.302,-1.832 2.616,-1.832 2.091,-1.832 1.613,-1.693 1.187,-1.411 0.758,-1.133 0.362,-0.66 0,0"
             style="fill:#292a2b;fill-opacity:1;fill-rule:nonzero;stroke:none"
             id="path3324" /></g><g
           id="g3326"
           transform="translate(281.0029,35.0391)"><path
             d="m 0,0 -0.653,-0.406 c -0.565,0.752 -1.336,1.126 -2.314,1.126 -0.782,0 -1.43,-0.251 -1.945,-0.753 -0.518,-0.503 -0.776,-1.113 -0.776,-1.831 0,-0.467 0.12,-0.908 0.358,-1.318 0.237,-0.413 0.562,-0.733 0.977,-0.96 0.414,-0.227 0.878,-0.339 1.39,-0.339 0.943,0 1.713,0.374 2.31,1.123 L 0,-3.789 c -0.307,-0.461 -0.718,-0.819 -1.234,-1.074 -0.517,-0.253 -1.104,-0.382 -1.764,-0.382 -1.015,0 -1.856,0.322 -2.523,0.969 -0.667,0.642 -1.002,1.427 -1.002,2.35 0,0.621 0.156,1.197 0.469,1.729 0.312,0.534 0.74,0.949 1.286,1.248 0.546,0.296 1.157,0.446 1.833,0.446 0.425,0 0.834,-0.064 1.23,-0.193 0.393,-0.131 0.73,-0.299 1.004,-0.506 C -0.425,0.587 -0.191,0.323 0,0"
             style="fill:#292a2b;fill-opacity:1;fill-rule:nonzero;stroke:none"
             id="path3328" /></g><path
           d="m 282.309,36.372 0.824,0 0,-6.412 -0.824,0 0,6.412 z m 0.408,2.64 c 0.188,0 0.349,-0.068 0.481,-0.2 0.134,-0.134 0.198,-0.294 0.198,-0.484 0,-0.184 -0.064,-0.344 -0.198,-0.477 -0.132,-0.133 -0.293,-0.202 -0.481,-0.202 -0.183,0 -0.342,0.069 -0.476,0.202 -0.131,0.133 -0.198,0.293 -0.198,0.477 0,0.19 0.067,0.35 0.198,0.484 0.134,0.132 0.293,0.2 0.476,0.2"
           style="fill:#292a2b;fill-opacity:1;fill-rule:nonzero;stroke:none"
           id="path3330" /><g
           id="g3332"
           transform="translate(290.0889,33.8135)"><path
             d="m 0,0 c -0.11,0.441 -0.27,0.792 -0.48,1.057 -0.211,0.261 -0.488,0.473 -0.836,0.636 -0.345,0.16 -0.71,0.241 -1.091,0.241 -0.63,0 -1.17,-0.203 -1.622,-0.608 C -4.359,1.031 -4.61,0.591 -4.779,0 L 0,0 z M 0,-1.726 0.696,-2.092 C 0.468,-2.54 0.204,-2.9 -0.094,-3.175 -0.396,-3.449 -0.729,-3.659 -1.103,-3.804 -1.478,-3.948 -1.899,-4.02 -2.373,-4.02 c -1.045,0 -1.862,0.345 -2.452,1.031 -0.589,0.684 -0.887,1.459 -0.887,2.323 0,0.813 0.252,1.538 0.751,2.177 0.633,0.807 1.48,1.212 2.541,1.212 1.094,0 1.968,-0.414 2.62,-1.244 0.464,-0.583 0.699,-1.316 0.707,-2.19 l -5.767,0 c 0.014,-0.745 0.254,-1.356 0.713,-1.832 0.459,-0.477 1.028,-0.713 1.705,-0.713 0.326,0 0.645,0.057 0.952,0.168 0.309,0.112 0.572,0.264 0.787,0.452 0.219,0.188 0.452,0.49 0.703,0.91"
             style="fill:#292a2b;fill-opacity:1;fill-rule:nonzero;stroke:none"
             id="path3334" /></g><g
           id="g3336"
           transform="translate(292.3779,36.3721)"><path
             d="m 0,0 0.826,0 0,-1.149 c 0.329,0.439 0.693,0.77 1.095,0.987 0.401,0.218 0.837,0.326 1.308,0.326 0.479,0 0.905,-0.121 1.277,-0.365 0.371,-0.244 0.643,-0.57 0.821,-0.984 0.178,-0.412 0.266,-1.056 0.266,-1.927 l 0,-3.3 -0.826,0 0,3.06 c 0,0.737 -0.029,1.23 -0.09,1.478 -0.097,0.425 -0.281,0.742 -0.553,0.958 -0.27,0.213 -0.622,0.32 -1.061,0.32 -0.499,0 -0.945,-0.166 -1.339,-0.495 C 1.327,-1.42 1.067,-1.828 0.943,-2.316 0.862,-2.633 0.826,-3.216 0.826,-4.061 l 0,-2.351 L 0,-6.412 0,0"
             style="fill:#292a2b;fill-opacity:1;fill-rule:nonzero;stroke:none"
             id="path3338" /></g><g
           id="g3340"
           transform="translate(300.2988,38.7529)"><path
             d="m 0,0 0.825,0 0,-2.381 1.309,0 0,-0.715 -1.309,0 0,-5.697 -0.825,0 0,5.697 -1.125,0 0,0.715 1.125,0 L 0,0 z"
             style="fill:#292a2b;fill-opacity:1;fill-rule:nonzero;stroke:none"
             id="path3342" /></g><path
           d="m 303.392,36.372 0.822,0 0,-6.412 -0.822,0 0,6.412 z m 0.408,2.64 c 0.186,0 0.348,-0.068 0.482,-0.2 0.131,-0.134 0.198,-0.294 0.198,-0.484 0,-0.184 -0.067,-0.344 -0.198,-0.477 -0.134,-0.133 -0.296,-0.202 -0.482,-0.202 -0.184,0 -0.343,0.069 -0.476,0.202 -0.132,0.133 -0.198,0.293 -0.198,0.477 0,0.19 0.066,0.35 0.198,0.484 0.133,0.132 0.292,0.2 0.476,0.2"
           style="fill:#292a2b;fill-opacity:1;fill-rule:nonzero;stroke:none"
           id="path3344" /><g
           id="g3346"
           transform="translate(308.4141,38.8457)"><path
             d="m 0,0 0,-0.808 c -0.302,0.131 -0.562,0.197 -0.78,0.197 -0.16,0 -0.293,-0.033 -0.401,-0.097 -0.105,-0.067 -0.172,-0.14 -0.199,-0.228 -0.028,-0.082 -0.042,-0.306 -0.042,-0.672 l 0,-0.866 1.338,0 0,-0.714 -1.339,0 -0.004,-5.698 -0.825,0 0,5.698 -0.843,0 0,0.714 0.843,0 0,1.001 c 0,0.46 0.042,0.788 0.126,0.985 0.087,0.196 0.23,0.354 0.431,0.473 0.203,0.121 0.447,0.181 0.733,0.181 C -0.694,0.166 -0.374,0.11 0,0"
             style="fill:#292a2b;fill-opacity:1;fill-rule:nonzero;stroke:none"
             id="path3348" /></g><path
           d="m 309.282,36.372 0.825,0 0,-6.412 -0.825,0 0,6.412 z m 0.408,2.64 c 0.189,0 0.349,-0.068 0.483,-0.2 0.133,-0.134 0.199,-0.294 0.199,-0.484 0,-0.184 -0.066,-0.344 -0.199,-0.477 -0.134,-0.133 -0.294,-0.202 -0.483,-0.202 -0.182,0 -0.339,0.069 -0.475,0.202 -0.133,0.133 -0.198,0.293 -0.198,0.477 0,0.19 0.065,0.35 0.198,0.484 0.136,0.132 0.293,0.2 0.475,0.2"
           style="fill:#292a2b;fill-opacity:1;fill-rule:nonzero;stroke:none"
           id="path3350" /><g
           id="g3352"
           transform="translate(317.8877,35.0391)"><path
             d="M 0,0 -0.652,-0.406 C -1.218,0.346 -1.99,0.72 -2.967,0.72 c -0.781,0 -1.429,-0.251 -1.946,-0.753 -0.517,-0.503 -0.774,-1.113 -0.774,-1.831 0,-0.467 0.119,-0.908 0.358,-1.318 0.236,-0.413 0.562,-0.733 0.975,-0.96 0.414,-0.227 0.878,-0.339 1.392,-0.339 0.942,0 1.712,0.374 2.31,1.123 L 0,-3.789 C -0.305,-4.25 -0.718,-4.608 -1.233,-4.863 -1.751,-5.116 -2.341,-5.245 -3,-5.245 c -1.014,0 -1.853,0.322 -2.521,0.969 -0.668,0.642 -1.002,1.427 -1.002,2.35 0,0.621 0.155,1.197 0.469,1.729 0.313,0.534 0.741,0.949 1.287,1.248 0.547,0.296 1.156,0.446 1.831,0.446 0.425,0 0.835,-0.064 1.231,-0.193 C -1.313,1.173 -0.976,1.005 -0.699,0.798 -0.427,0.587 -0.191,0.323 0,0"
             style="fill:#292a2b;fill-opacity:1;fill-rule:nonzero;stroke:none"
             id="path3354" /></g><g
           id="g3356"
           transform="translate(330.71,37.0195)"><path
             d="m 0,0 -0.685,-0.523 c -0.377,0.489 -0.831,0.863 -1.359,1.116 -0.525,0.254 -1.106,0.38 -1.74,0.38 -0.691,0 -1.332,-0.167 -1.921,-0.499 -0.59,-0.331 -1.045,-0.777 -1.369,-1.336 -0.323,-0.562 -0.488,-1.189 -0.488,-1.889 0,-1.058 0.364,-1.94 1.089,-2.647 0.724,-0.706 1.638,-1.06 2.742,-1.06 1.214,0 2.23,0.476 3.046,1.427 L 0,-5.551 c -0.433,-0.551 -0.971,-0.974 -1.617,-1.276 -0.647,-0.298 -1.369,-0.449 -2.167,-0.449 -1.516,0 -2.713,0.503 -3.589,1.512 -0.734,0.854 -1.101,1.882 -1.101,3.089 0,1.269 0.445,2.336 1.334,3.203 0.891,0.865 2.006,1.298 3.344,1.298 0.81,0 1.543,-0.16 2.194,-0.478 C -0.951,1.026 -0.417,0.58 0,0"
             style="fill:#292a2b;fill-opacity:1;fill-rule:nonzero;stroke:none"
             id="path3358" /></g><g
           id="g3360"
           transform="translate(335.1885,35.7285)"><path
             d="m 0,0 c -0.687,0 -1.277,-0.253 -1.769,-0.759 -0.493,-0.507 -0.739,-1.12 -0.739,-1.84 0,-0.464 0.113,-0.894 0.336,-1.296 0.225,-0.4 0.529,-0.709 0.911,-0.927 0.383,-0.217 0.803,-0.329 1.261,-0.329 0.455,0 0.874,0.112 1.258,0.329 0.383,0.218 0.688,0.527 0.911,0.927 0.225,0.402 0.337,0.832 0.337,1.296 0,0.72 -0.245,1.333 -0.74,1.84 C 1.268,-0.253 0.683,0 0,0 m 0.003,0.808 c 0.986,0 1.805,-0.358 2.453,-1.073 0.593,-0.651 0.887,-1.424 0.887,-2.316 0,-0.894 -0.312,-1.679 -0.936,-2.348 -0.624,-0.67 -1.424,-1.006 -2.404,-1.006 -0.984,0 -1.788,0.336 -2.413,1.006 -0.623,0.669 -0.935,1.454 -0.935,2.348 0,0.888 0.294,1.66 0.885,2.311 0.648,0.718 1.47,1.078 2.463,1.078"
             style="fill:#292a2b;fill-opacity:1;fill-rule:nonzero;stroke:none"
             id="path3362" /></g><g
           id="g3364"
           transform="translate(339.8965,36.3721)"><path
             d="m 0,0 0.823,0 0,-1.11 c 0.288,0.411 0.583,0.71 0.884,0.897 0.419,0.251 0.857,0.377 1.317,0.377 0.311,0 0.607,-0.06 0.887,-0.182 0.278,-0.12 0.506,-0.285 0.682,-0.486 0.178,-0.205 0.331,-0.491 0.461,-0.87 0.275,0.503 0.617,0.886 1.029,1.146 0.412,0.262 0.854,0.392 1.328,0.392 0.443,0 0.835,-0.111 1.174,-0.335 0.337,-0.224 0.59,-0.539 0.755,-0.939 0.164,-0.399 0.246,-1 0.246,-1.801 l 0,-3.501 -0.841,0 0,3.501 c 0,0.686 -0.05,1.16 -0.147,1.418 -0.097,0.256 -0.265,0.462 -0.501,0.62 -0.239,0.157 -0.522,0.236 -0.85,0.236 -0.4,0 -0.765,-0.117 -1.095,-0.354 C 5.819,-1.227 5.578,-1.542 5.425,-1.935 5.272,-2.326 5.196,-2.982 5.196,-3.901 l 0,-2.511 -0.824,0 0,3.281 c 0,0.775 -0.049,1.302 -0.144,1.578 C 4.13,-1.278 3.962,-1.055 3.723,-0.888 3.483,-0.721 3.2,-0.637 2.87,-0.637 2.488,-0.637 2.131,-0.751 1.8,-0.981 1.466,-1.212 1.222,-1.521 1.061,-1.909 0.904,-2.299 0.823,-2.894 0.823,-3.695 l 0,-2.717 L 0,-6.412 0,0"
             style="fill:#292a2b;fill-opacity:1;fill-rule:nonzero;stroke:none"
             id="path3366" /></g><g
           id="g3368"
           transform="translate(354.376,35.7402)"><path
             d="m 0,0 c -0.712,0 -1.313,-0.249 -1.801,-0.748 -0.487,-0.497 -0.731,-1.117 -0.731,-1.858 0,-0.487 0.107,-0.923 0.323,-1.313 0.22,-0.389 0.53,-0.697 0.938,-0.924 0.404,-0.227 0.834,-0.34 1.284,-0.34 0.441,0 0.858,0.113 1.249,0.341 0.389,0.231 0.702,0.551 0.931,0.964 0.232,0.411 0.348,0.844 0.348,1.295 0,0.454 -0.115,0.886 -0.344,1.295 C 1.968,-0.881 1.659,-0.563 1.271,-0.339 0.884,-0.113 0.459,0 0,0 m -3.299,0.632 0.824,0 0,-1.178 c 0.326,0.446 0.704,0.783 1.125,1.007 0.422,0.224 0.897,0.335 1.418,0.335 0.911,0 1.691,-0.326 2.338,-0.984 0.648,-0.656 0.972,-1.445 0.972,-2.37 C 3.378,-3.5 3.057,-4.3 2.415,-4.958 1.774,-5.616 1,-5.946 0.094,-5.946 c -0.511,0 -0.979,0.107 -1.409,0.32 -0.429,0.21 -0.815,0.527 -1.16,0.947 l 0,-3.447 -0.824,0 0,8.758"
             style="fill:#292a2b;fill-opacity:1;fill-rule:nonzero;stroke:none"
             id="path3370" /></g><g
           id="g3372"
           transform="translate(359.0352,36.3721)"><path
             d="m 0,0 0.822,0 0,-2.994 c 0,-0.731 0.042,-1.234 0.119,-1.508 0.12,-0.394 0.343,-0.705 0.677,-0.932 0.331,-0.227 0.728,-0.342 1.189,-0.342 0.461,0 0.851,0.112 1.172,0.336 0.321,0.218 0.542,0.512 0.665,0.873 0.083,0.249 0.124,0.77 0.124,1.573 l 0,2.994 0.841,0 0,-3.147 c 0,-0.884 -0.102,-1.55 -0.308,-1.999 -0.206,-0.446 -0.517,-0.797 -0.933,-1.052 -0.415,-0.253 -0.932,-0.38 -1.557,-0.38 -0.624,0 -1.146,0.127 -1.564,0.38 C 0.826,-5.943 0.515,-5.59 0.308,-5.138 0.102,-4.681 0,-3.998 0,-3.088 L 0,0"
             style="fill:#292a2b;fill-opacity:1;fill-rule:nonzero;stroke:none"
             id="path3374" /></g><g
           id="g3376"
           transform="translate(367.04,38.7529)"><path
             d="m 0,0 0.824,0 0,-2.381 1.31,0 0,-0.715 -1.31,0 0,-5.697 -0.824,0 0,5.697 -1.125,0 0,0.715 1.125,0 L 0,0 z"
             style="fill:#292a2b;fill-opacity:1;fill-rule:nonzero;stroke:none"
             id="path3378" /></g><path
           d="m 370.13,36.372 0.827,0 0,-6.412 -0.827,0 0,6.412 z m 0.41,2.64 c 0.189,0 0.349,-0.068 0.481,-0.2 0.133,-0.134 0.198,-0.294 0.198,-0.484 0,-0.184 -0.065,-0.344 -0.198,-0.477 -0.132,-0.133 -0.292,-0.202 -0.481,-0.202 -0.184,0 -0.344,0.069 -0.477,0.202 -0.131,0.133 -0.199,0.293 -0.199,0.477 0,0.19 0.068,0.35 0.199,0.484 0.133,0.132 0.293,0.2 0.477,0.2"
           style="fill:#292a2b;fill-opacity:1;fill-rule:nonzero;stroke:none"
           id="path3380" /><g
           id="g3382"
           transform="translate(372.5127,36.3721)"><path
             d="m 0,0 0.824,0 0,-1.149 c 0.331,0.439 0.696,0.77 1.096,0.987 0.4,0.218 0.839,0.326 1.309,0.326 0.48,0 0.904,-0.121 1.277,-0.365 0.371,-0.244 0.644,-0.57 0.82,-0.984 0.178,-0.412 0.267,-1.056 0.267,-1.927 l 0,-3.3 -0.826,0 0,3.06 c 0,0.737 -0.029,1.23 -0.091,1.478 -0.095,0.425 -0.28,0.742 -0.55,0.958 -0.271,0.213 -0.626,0.32 -1.063,0.32 -0.498,0 -0.946,-0.166 -1.339,-0.495 C 1.329,-1.42 1.069,-1.828 0.943,-2.316 0.864,-2.633 0.824,-3.216 0.824,-4.061 l 0,-2.351 L 0,-6.412 0,0"
             style="fill:#292a2b;fill-opacity:1;fill-rule:nonzero;stroke:none"
             id="path3384" /></g><g
           id="g3386"
           transform="translate(382.8096,35.7402)"><path
             d="m 0,0 c -0.468,0 -0.9,-0.113 -1.304,-0.339 -0.398,-0.224 -0.714,-0.537 -0.941,-0.935 -0.229,-0.401 -0.341,-0.83 -0.341,-1.293 0,-0.704 0.235,-1.287 0.708,-1.745 0.472,-0.461 1.082,-0.692 1.832,-0.692 0.758,0 1.367,0.229 1.828,0.686 0.463,0.454 0.695,1.052 0.695,1.797 0,0.482 -0.108,0.912 -0.32,1.294 C 1.946,-0.85 1.645,-0.549 1.257,-0.33 0.865,-0.109 0.449,0 0,0 m 2.436,0.632 0.824,0 0,-5.11 C 3.26,-5.376 3.181,-6.036 3.024,-6.451 2.807,-7.042 2.432,-7.495 1.898,-7.813 1.363,-8.132 0.722,-8.29 -0.028,-8.29 c -0.551,0 -1.045,0.077 -1.482,0.232 -0.439,0.156 -0.796,0.365 -1.071,0.627 -0.273,0.263 -0.527,0.646 -0.759,1.149 l 0.897,0 c 0.242,-0.424 0.557,-0.738 0.941,-0.942 0.386,-0.205 0.864,-0.306 1.433,-0.306 0.562,0 1.041,0.105 1.426,0.316 0.388,0.206 0.664,0.47 0.83,0.786 0.165,0.32 0.249,0.83 0.249,1.537 l 0,0.33 C 2.124,-4.952 1.744,-5.254 1.297,-5.466 0.848,-5.676 0.373,-5.78 -0.134,-5.78 c -0.588,0 -1.141,0.146 -1.66,0.439 -0.521,0.293 -0.922,0.686 -1.204,1.182 -0.284,0.495 -0.425,1.04 -0.425,1.632 0,0.591 0.148,1.146 0.442,1.659 0.294,0.514 0.704,0.919 1.223,1.218 0.522,0.296 1.071,0.446 1.65,0.446 0.481,0 0.926,-0.099 1.342,-0.296 0.415,-0.199 0.815,-0.526 1.202,-0.982 l 0,1.114"
             style="fill:#292a2b;fill-opacity:1;fill-rule:nonzero;stroke:none"
             id="path3388" /></g></g></g></g></svg>