<?xml version="1.0" encoding="UTF-8" standalone="no"?>
<svg
   xmlns:ns2="http://www.iki.fi/pav/software/textext/"
   xmlns:dc="http://purl.org/dc/elements/1.1/"
   xmlns:cc="http://creativecommons.org/ns#"
   xmlns:rdf="http://www.w3.org/1999/02/22-rdf-syntax-ns#"
   xmlns:svg="http://www.w3.org/2000/svg"
   xmlns="http://www.w3.org/2000/svg"
   xmlns:sodipodi="http://sodipodi.sourceforge.net/DTD/sodipodi-0.dtd"
   xmlns:inkscape="http://www.inkscape.org/namespaces/inkscape"
   inkscape:export-ydpi="90"
   inkscape:export-xdpi="90"
   inkscape:export-filename="/export/home/hmara/Desktop/GigaMesh/forms/gigamesh_icon_background_grids_highlight_center.png"
   sodipodi:docname="gigamesh_icon_export_xml.svg"
   inkscape:version="1.0 (4035a4fb49, 2020-05-01)"
   version="1.1"
   id="svg2"
   viewBox="0 0 400 400.00001"
   height="400"
   width="400">
  <defs
     id="defs4">
    <g
       id="g1315">
      <symbol
         id="symbol1309"
         overflow="visible">
        <path
           id="path1307"
           d=""
           style="stroke:none" />
      </symbol>
      <symbol
         id="symbol1313"
         overflow="visible">
        <path
           id="path1311"
           d="m 2.9375,-1.640625 v 0.859375 c 0,0.359375 -0.03125,0.46875 -0.765625,0.46875 H 1.96875 V 0 C 2.375,-0.03125 2.890625,-0.03125 3.3125,-0.03125 c 0.421875,0 0.9375,0 1.359375,0.03125 v -0.3125 h -0.21875 c -0.734375,0 -0.75,-0.109375 -0.75,-0.46875 V -1.640625 H 4.6875 v -0.3125 H 3.703125 v -4.53125 c 0,-0.203125 0,-0.265625 -0.171875,-0.265625 -0.078125,0 -0.109375,0 -0.1875,0.125 l -3.0625,4.671875 v 0.3125 z m 0.046875,-0.3125 H 0.5625 l 2.421875,-3.71875 z m 0,0"
           style="stroke:none" />
      </symbol>
    </g>
    <g
       id="g1337">
      <symbol
         id="symbol1331"
         overflow="visible">
        <path
           id="path1329"
           d=""
           style="stroke:none" />
      </symbol>
      <symbol
         id="symbol1335"
         overflow="visible">
        <path
           id="path1333"
           d="m 7.1875,-3.375 c 0,-2.03125 -1.5,-3.65625 -3.3125,-3.65625 -1.796875,0 -3.3125,1.59375 -3.3125,3.65625 0,2.046875 1.53125,3.59375 3.3125,3.59375 1.8125,0 3.3125,-1.578125 3.3125,-3.59375 z M 3.875,-0.046875 c -0.953125,0 -2.296875,-0.875 -2.296875,-3.46875 0,-2.578125 1.46875,-3.265625 2.296875,-3.265625 0.859375,0 2.28125,0.703125 2.28125,3.265625 0,2.640625 -1.359375,3.46875 -2.28125,3.46875 z m 0,0"
           style="stroke:none" />
      </symbol>
    </g>
    <g
       id="g2038">
      <symbol
         overflow="visible"
         id="symbol2032">
        <path
           style="stroke:none"
           d=""
           id="path2030" />
      </symbol>
      <symbol
         overflow="visible"
         id="symbol2036">
        <path
           style="stroke:none"
           d="m 2.9375,-1.640625 v 0.859375 c 0,0.359375 -0.03125,0.46875 -0.765625,0.46875 H 1.96875 V 0 C 2.375,-0.03125 2.890625,-0.03125 3.3125,-0.03125 c 0.421875,0 0.9375,0 1.359375,0.03125 v -0.3125 h -0.21875 c -0.734375,0 -0.75,-0.109375 -0.75,-0.46875 V -1.640625 H 4.6875 v -0.3125 H 3.703125 v -4.53125 c 0,-0.203125 0,-0.265625 -0.171875,-0.265625 -0.078125,0 -0.109375,0 -0.1875,0.125 l -3.0625,4.671875 v 0.3125 z m 0.046875,-0.3125 H 0.5625 l 2.421875,-3.71875 z m 0,0"
           id="path2034" />
      </symbol>
    </g>
    <g
       id="g2054">
      <symbol
         overflow="visible"
         id="symbol2048">
        <path
           style="stroke:none"
           d=""
           id="path2046" />
      </symbol>
      <symbol
         overflow="visible"
         id="symbol2052">
        <path
           style="stroke:none"
           d="m 7.1875,-3.375 c 0,-2.03125 -1.5,-3.65625 -3.3125,-3.65625 -1.796875,0 -3.3125,1.59375 -3.3125,3.65625 0,2.046875 1.53125,3.59375 3.3125,3.59375 1.8125,0 3.3125,-1.578125 3.3125,-3.59375 z M 3.875,-0.046875 c -0.953125,0 -2.296875,-0.875 -2.296875,-3.46875 0,-2.578125 1.46875,-3.265625 2.296875,-3.265625 0.859375,0 2.28125,0.703125 2.28125,3.265625 0,2.640625 -1.359375,3.46875 -2.28125,3.46875 z m 0,0"
           id="path2050" />
      </symbol>
    </g>
  </defs>
  <sodipodi:namedview
     inkscape:snap-global="false"
     inkscape:document-rotation="0"
     inkscape:window-maximized="1"
     inkscape:window-y="27"
     inkscape:window-x="45"
     inkscape:window-height="1016"
     inkscape:window-width="1875"
     inkscape:bbox-paths="true"
     inkscape:snap-bbox="true"
     inkscape:snap-grids="true"
     units="px"
     showgrid="true"
     inkscape:current-layer="layer2"
     inkscape:document-units="px"
     inkscape:cy="242.79176"
     inkscape:cx="198.47685"
     inkscape:zoom="0.7"
     inkscape:pageshadow="2"
     inkscape:pageopacity="0.0"
     borderopacity="1.0"
     bordercolor="#666666"
     pagecolor="#ffffff"
     id="base">
    <inkscape:grid
       empspacing="5"
       spacingy="5.0000001"
       spacingx="5"
       id="grid4140"
       type="xygrid" />
  </sodipodi:namedview>
  <metadata
     id="metadata7">
    <rdf:RDF>
      <cc:Work
         rdf:about="">
        <dc:format>image/svg+xml</dc:format>
        <dc:type
           rdf:resource="http://purl.org/dc/dcmitype/StillImage" />
        <dc:title></dc:title>
      </cc:Work>
    </rdf:RDF>
  </metadata>
  <g
     style="display:none"
     sodipodi:insensitive="true"
     transform="translate(0,-652.3622)"
     id="layer1"
     inkscape:groupmode="layer"
     inkscape:label="White Backgrund">
    <rect
       y="652.36218"
       x="0"
       height="400"
       width="400"
       id="rect4905"
       style="color:#000000;clip-rule:nonzero;display:inline;overflow:visible;visibility:visible;opacity:1;isolation:auto;mix-blend-mode:normal;color-interpolation:sRGB;color-interpolation-filters:linearRGB;solid-color:#000000;solid-opacity:1;fill:#ffffff;fill-opacity:1;fill-rule:evenodd;stroke:none;stroke-width:16;stroke-linecap:butt;stroke-linejoin:miter;stroke-miterlimit:4;stroke-dasharray:none;stroke-dashoffset:0;stroke-opacity:1;marker:none;color-rendering:auto;image-rendering:auto;shape-rendering:auto;text-rendering:auto;enable-background:accumulate" />
  </g>
  <g
     inkscape:label="Icon"
     id="layer2"
     inkscape:groupmode="layer">
    <path
       id="path2178"
       d="M 196.9834,0.00937223 C 148.2981,-0.09965808 101.36127,23.694901 69.087701,59.5237 36.644853,95.659282 18.074506,143.60427 16.303233,192.03488 c -2.665246,56.30577 17.381712,114.14485 57.565746,154.21682 30.856621,31.6824 73.735921,51.7041 118.007291,53.73261 20.12654,0.19419 40.46174,-1.35911 59.67615,-7.75009 55.5605,-17.04253 99.95055,-62.92914 119.30436,-117.23227 9.53699,-25.88393 13.72548,-53.61041 12.47524,-81.15824 -0.29964,-30.8782 -8.53094,-61.4587 -22.0057,-89.1382 C 344.9851,72.174282 319.71415,43.892479 288.65923,24.7919 263.27014,9.4973882 234.08217,0.07023922 204.29414,0.043266 201.85755,-0.00923803 199.42036,-0.00485377 196.9834,0.00937009 Z m 5.2675,33.71511677 c 35.25601,1.055184 67.11677,24.501715 83.37883,55.068374 18.90396,33.455337 24.01792,72.720687 23.20278,110.613347 -0.10036,32.87801 -5.09058,66.5303 -18.2752,96.99356 -12.16086,28.37483 -35.21858,54.81416 -65.65766,64.98962 -21.39542,7.39955 -45.49735,4.33781 -65.1222,-6.60444 C 128.55536,337.28199 108.80264,304.56441 99.544968,270.75814 90.34502,237.184 88.608175,202.38119 91.158829,167.84017 94.248437,131.19334 104.85153,93.127235 130.65492,65.793944 149.07836,46.335731 174.9967,32.848221 202.2509,33.724489 Z"
       style="fill:#ffffff;stroke-width:1.2;stop-color:#000000" />
    <ellipse
       ry="180.33537"
       rx="128.06795"
       cy="200"
       cx="200"
       id="path2180"
       style="fill:#ffccaa;stroke-width:1.2;stop-color:#000000" />
    <g
       id="g1327"
       ns2:jacobian_sqrt="1.57288"
       ns2:inkscapeversion="0.92.1"
       ns2:alignment="middle center"
       ns2:scale="1.1796593472"
       ns2:preamble="/home/hmara/.config/inkscape/extensions/textext/default_packages.tex"
       ns2:text="$4$\n\n"
       ns2:pdfconverter="inkscape"
       ns2:texconverter="pdflatex"
       ns2:version="1.0.1"
       transform="matrix(35.481807,0,0,35.481807,108.75405,65.276222)"
       style="stroke-width:0.0443291">
      <defs
         id="defs1317">
        <g
           id="g2136">
          <symbol
             overflow="visible"
             id="symbol2130">
            <path
               style="stroke:none"
               d=""
               id="path2128" />
          </symbol>
          <symbol
             overflow="visible"
             id="symbol2134">
            <path
               style="stroke:none"
               d="m 2.9375,-1.640625 v 0.859375 c 0,0.359375 -0.03125,0.46875 -0.765625,0.46875 H 1.96875 V 0 C 2.375,-0.03125 2.890625,-0.03125 3.3125,-0.03125 c 0.421875,0 0.9375,0 1.359375,0.03125 v -0.3125 h -0.21875 c -0.734375,0 -0.75,-0.109375 -0.75,-0.46875 V -1.640625 H 4.6875 v -0.3125 H 3.703125 v -4.53125 c 0,-0.203125 0,-0.265625 -0.171875,-0.265625 -0.078125,0 -0.109375,0 -0.1875,0.125 l -3.0625,4.671875 v 0.3125 z m 0.046875,-0.3125 H 0.5625 l 2.421875,-3.71875 z m 0,0"
               id="path2132" />
          </symbol>
        </g>
      </defs>
      <g
         id="g1325"
         transform="translate(-148.993,-128.015)"
         style="stroke-width:0.0443291">
        <g
           style="fill:#000000;fill-opacity:1;stroke-width:0.0443291"
           id="g1323">
          <g
             id="g1321"
             transform="translate(148.712,134.765)"
             style="stroke-width:0.0443291">
            <path
               style="stroke:none;stroke-width:0.0443291"
               d="m 2.9375,-1.640625 v 0.859375 c 0,0.359375 -0.03125,0.46875 -0.765625,0.46875 H 1.96875 V 0 C 2.375,-0.03125 2.890625,-0.03125 3.3125,-0.03125 c 0.421875,0 0.9375,0 1.359375,0.03125 v -0.3125 h -0.21875 c -0.734375,0 -0.75,-0.109375 -0.75,-0.46875 V -1.640625 H 4.6875 v -0.3125 H 3.703125 v -4.53125 c 0,-0.203125 0,-0.265625 -0.171875,-0.265625 -0.078125,0 -0.109375,0 -0.1875,0.125 l -3.0625,4.671875 v 0.3125 z m 0.046875,-0.3125 H 0.5625 l 2.421875,-3.71875 z m 0,0"
               id="path1319" />
          </g>
        </g>
      </g>
    </g>
    <g
       style="stroke-width:0.0300089"
       id="g1349"
       ns2:jacobian_sqrt="1.57288"
       ns2:inkscapeversion="0.92.1"
       ns2:alignment="middle center"
       ns2:scale="1.1796593472"
       ns2:preamble="/home/hmara/.config/inkscape/extensions/textext/default_packages.tex"
       ns2:text="O\n\n\n"
       ns2:pdfconverter="inkscape"
       ns2:texconverter="pdflatex"
       ns2:version="1.0.1"
       transform="matrix(52.413793,0,0,52.413793,26.405518,10.013104)">
      <defs
         id="defs1339">
        <g
           id="g2152">
          <symbol
             overflow="visible"
             id="symbol2146">
            <path
               style="stroke:none"
               d=""
               id="path2144" />
          </symbol>
          <symbol
             overflow="visible"
             id="symbol2150">
            <path
               style="stroke:none"
               d="m 7.1875,-3.375 c 0,-2.03125 -1.5,-3.65625 -3.3125,-3.65625 -1.796875,0 -3.3125,1.59375 -3.3125,3.65625 0,2.046875 1.53125,3.59375 3.3125,3.59375 1.8125,0 3.3125,-1.578125 3.3125,-3.59375 z M 3.875,-0.046875 c -0.953125,0 -2.296875,-0.875 -2.296875,-3.46875 0,-2.578125 1.46875,-3.265625 2.296875,-3.265625 0.859375,0 2.28125,0.703125 2.28125,3.265625 0,2.640625 -1.359375,3.46875 -2.28125,3.46875 z m 0,0"
               id="path2148" />
          </symbol>
        </g>
      </defs>
      <g
         style="stroke-width:0.0300089"
         id="g1347"
         transform="translate(-149.275,-127.734)">
        <g
           style="fill:#000000;fill-opacity:1;stroke-width:0.0300089"
           id="g1345">
          <g
             style="stroke-width:0.0300089"
             id="g1343"
             transform="translate(148.712,134.765)">
            <path
               style="stroke:none;stroke-width:0.0300089"
               d="m 7.1875,-3.375 c 0,-2.03125 -1.5,-3.65625 -3.3125,-3.65625 -1.796875,0 -3.3125,1.59375 -3.3125,3.65625 0,2.046875 1.53125,3.59375 3.3125,3.59375 1.8125,0 3.3125,-1.578125 3.3125,-3.59375 z M 3.875,-0.046875 c -0.953125,0 -2.296875,-0.875 -2.296875,-3.46875 0,-2.578125 1.46875,-3.265625 2.296875,-3.265625 0.859375,0 2.28125,0.703125 2.28125,3.265625 0,2.640625 -1.359375,3.46875 -2.28125,3.46875 z m 0,0"
               id="path1341" />
          </g>
        </g>
      </g>
    </g>
  </g>
</svg>
