<?xml version="1.0" encoding="UTF-8" standalone="no"?>
<!-- Created with Inkscape (http://www.inkscape.org/) -->

<svg
   xmlns:dc="http://purl.org/dc/elements/1.1/"
   xmlns:cc="http://creativecommons.org/ns#"
   xmlns:rdf="http://www.w3.org/1999/02/22-rdf-syntax-ns#"
   xmlns:svg="http://www.w3.org/2000/svg"
   xmlns="http://www.w3.org/2000/svg"
   xmlns:xlink="http://www.w3.org/1999/xlink"
   version="1.1"
   width="354.48874"
   height="50.467678"
   id="svg2"
   xml:space="preserve"><metadata
     id="metadata8"><rdf:RDF><cc:Work
         rdf:about=""><dc:format>image/svg+xml</dc:format><dc:type
           rdf:resource="http://purl.org/dc/dcmitype/StillImage" /><dc:title></dc:title></cc:Work></rdf:RDF></metadata><defs
     id="defs6"><clipPath
       id="clipPath18"><path
         d="m 3200,660 0,0 0,0 0,0 z"
         id="path20" /></clipPath><clipPath
       id="clipPath34"><path
         d="m 0,0 3200,0 0,660 L 0,660 0,0 z"
         id="path36" /></clipPath></defs><g
     transform="matrix(1.25,0,0,-1.25,-22.834315,67.819846)"
     id="g10"><g
       transform="scale(0.1,0.1)"
       id="g12"><g
         id="g14"><g
           clip-path="url(#clipPath18)"
           id="g16"><g
             transform="matrix(3088.44,0,0,2364.21,2911.47,6395.66)"
             id="g22"><image
               xlink:href="ink_ext_XXXXXX_img0.png"
               id="image24"
               transform="matrix(1,0,0,-1,0,1)"
               height="1"
               width="1" /></g><g
             transform="matrix(0,2572.31,-2994.3,0,2934.86,6067.62)"
             id="g26"><image
               xlink:href="ink_ext_XXXXXX_img1.png"
               id="image28"
               transform="matrix(1,0,0,-1,0,1)"
               height="1"
               width="1" /></g></g></g><g
         id="g30"><g
           clip-path="url(#clipPath34)"
           id="g32"><g
             transform="scale(10,10)"
             id="g38"><text
               transform="matrix(1,0,0,-1,91.282,43.1477)"
               id="text40"><tspan
                 x="0 9.3891487 16.994843 20.842941 28.874868 36.480564 40.328663 48.360588 55.966282 61.496887 69.528816 73.432999 82.642677 88.173279 95.745323 103.77725 111.76431 119.33636 124.69872 132.3044 136.20859 144.28539 150.93765 158.92471 166.63136 174.338 178.1861 182.09029 189.79694 194.67697"
                 y="0"
                 id="tspan42"
                 style="font-size:11.2166996px;font-variant:normal;font-weight:bold;writing-mode:lr-tb;fill:#3d6cb4;fill-opacity:1;fill-rule:nonzero;stroke:none;font-family:DejaVu Sans;-inkscape-font-specification:DejaVuSans-Bold">Heidelberg Graduate School of </tspan><tspan
                 x="0 11.162663 18.735983 24.099613 32.087952 39.69492 51.384769 58.958088 64.321716 68.171089 74.824638 82.397964 86.247337 90.152794 97.726112 105.71445 113.74766 117.65311 125.88822 133.59615 145.28598 153.3192 161.30753 166.67116 174.24448 179.60811 183.45749 191.16541 199.15373 206.72707 210.57643"
                 y="13.4602"
                 id="tspan44"
                 style="font-size:11.2166996px;font-variant:normal;font-weight:bold;writing-mode:lr-tb;fill:#3d6cb4;fill-opacity:1;fill-rule:nonzero;stroke:none;font-family:DejaVu Sans;-inkscape-font-specification:DejaVuSans-Bold">Mathematical and Computational </tspan><tspan
                 x="0 11.159858 18.764021 24.124844 32.110374 39.815491 47.845886 54.519066 58.421715 63.30022 71.005333 76.534409 80.437065 85.797882 93.783417 101.38758 105.29023 113.36549 120.01624 123.86281 131.46698 139.4525 146.10324 153.70741"
                 y="26.920401"
                 id="tspan46"
                 style="font-size:11.2166996px;font-variant:normal;font-weight:bold;writing-mode:lr-tb;fill:#3d6cb4;fill-opacity:1;fill-rule:nonzero;stroke:none;font-family:DejaVu Sans;-inkscape-font-specification:DejaVuSans-Bold">Methods for the Sciences</tspan></text>
</g><path
             d="m 368.246,415.098 c -15.43,0.48 -28.199,-0.782 -36.539,-5.032 -39.73,-20.238 -8.98,-80.597 30.762,-60.347 18.679,9.519 36.738,44.219 46.988,61.937 -13.859,1.473 -28.129,3.063 -41.211,3.442 m 0.281,9.461 c 18.852,-0.582 37.711,-3.071 56.442,-4.993 -12.961,-22.277 -34.672,-66.277 -58.211,-78.277 -21.32,-10.859 -47.41,-2.391 -58.27,18.949 -10.871,21.301 -2.39,47.399 18.93,58.282 10.648,5.398 25.551,6.476 41.109,6.039"
             id="path48"
             style="fill:#3d6cb4;fill-opacity:1;fill-rule:nonzero;stroke:none" /><path
             d="m 558.883,265.168 c 15.418,-0.48 28.187,0.777 36.527,5.02 39.742,20.25 8.981,80.609 -30.75,60.359 -18.68,-9.52 -36.738,-44.223 -46.988,-61.942 13.851,-1.468 28.129,-3.058 41.211,-3.437 m -0.281,-9.461 c -18.848,0.578 -37.719,3.051 -56.45,4.988 12.969,22.282 34.68,66.282 58.211,78.282 21.328,10.859 47.418,2.39 58.289,-18.95 10.86,-21.3 2.379,-47.402 -18.941,-58.269 -10.66,-5.41 -25.551,-6.492 -41.109,-6.051"
             id="path50"
             style="fill:#3d6cb4;fill-opacity:1;fill-rule:nonzero;stroke:none" /><path
             d="m 205.785,189.324 c 138.551,1.192 232.012,-2.578 298.383,-3 66.527,-0.418 104.199,2.614 131.488,16.543 54.66,27.821 76.379,94.66 48.539,149.321 -27.89,54.73 -95.398,77.589 -149.257,48.578 -24.641,-13.282 -31.762,-19.59 -67.743,-64.782 -36.269,-45.546 -41.961,-49.66 -68.257,-63.808 -58.821,-31.668 -132.071,-6.629 -162.262,52.629 -30.238,59.312 -6.641,131.929 52.691,162.14 29.77,15.172 90.16,17.95 176.149,17.532 86.492,-0.411 203.109,-4.161 341.601,-2.969 l -4.621,-9.512 c -138.539,-1.199 -250.512,2.539 -337.019,2.988 -86.993,0.383 -144.571,-2.629 -171.789,-16.539 -54.653,-27.808 -76.383,-94.668 -48.532,-149.32 27.891,-54.719 95.391,-77.57 149.262,-48.57 24.707,13.293 29.449,16.293 65.34,61.371 36.187,45.429 44.277,53.012 70.66,67.199 58.816,31.68 132.066,6.609 162.25,-52.617 30.227,-59.332 6.648,-131.891 -52.691,-162.133 -29.68,-15.148 -69.711,-17.949 -135.879,-17.57 -66.332,0.461 -164.383,4.172 -302.883,3 l 4.57,9.519"
             id="path52"
             style="fill:#3d6cb4;fill-opacity:1;fill-rule:nonzero;stroke:none" /><path
             d="m 225.094,228.828 c 114.461,-0.949 204.301,-3.449 268.859,-3.308 65.031,0.179 104.371,3.109 122.129,12.16 35.641,18.16 49.832,61.777 31.66,97.418 -18.168,35.64 -61.801,49.808 -97.437,31.648 -12.121,-6.187 -36.192,-36.226 -45.184,-46.828 -35.109,-44.109 -45.488,-58.691 -91.457,-83.43 -77.422,-41.691 -173.883,-8.711 -213.652,69.309 -39.809,78.141 -8.739,173.762 69.402,213.582 39.051,19.879 85.981,23.687 168.277,23.129 82.371,-0.551 233,-6.078 387.532,-3.93 l -4.668,-9.531 c -153.16,-1.707 -300.532,3.383 -382.942,3.98 -82.48,0.52 -127.16,-3.418 -163.89,-22.14 -73.461,-37.43 -102.661,-127.289 -65.231,-200.758 37.461,-73.512 128.199,-104.301 200.672,-65.262 44.77,24.129 54.27,37.961 88.648,81.16 10.5,12.34 33.922,41.942 48.172,49.211 40.34,20.532 89.68,4.52 110.231,-35.8 20.547,-40.348 4.508,-89.7 -35.82,-110.25 -20.243,-10.321 -62.313,-13.02 -126.422,-13.149 -64.578,-0.172 -158.942,2.359 -273.45,3.301 l 4.571,9.488"
             id="path54"
             style="fill:#3d6cb4;fill-opacity:1;fill-rule:nonzero;stroke:none" /><path
             d="m 783.469,452.551 c -124.793,0.719 -224.723,3.457 -309.422,3.297 -85.442,-0.168 -144.699,-3.11 -162.41,-12.118 -35.649,-18.171 -49.828,-61.812 -31.649,-97.453 18.168,-35.648 61.789,-49.816 97.438,-31.66 12.121,6.16 36.179,36.231 45.172,46.863 35.109,44.079 45.488,58.668 91.449,83.399 77.422,41.699 173.891,8.719 213.672,-69.328 39.797,-78.121 8.726,-173.711 -69.41,-213.524 -38.871,-19.797 -65.84,-23.718 -128.852,-23.16 -62.641,0.551 -161.879,5.551 -346.07,3.961 l 4.66,9.52 c 184.289,1.582 278.808,-3.41 341.5,-3.969 62.34,-0.559 87.539,3.309 124.449,22.121 73.461,37.43 102.66,127.277 65.231,200.738 -37.461,73.551 -128.2,104.313 -200.661,65.27 -44.789,-24.11 -54.281,-37.969 -88.668,-81.141 -10.5,-12.359 -33.91,-41.969 -48.16,-49.199 -40.34,-20.559 -89.691,-4.527 -110.242,35.781 -20.539,40.371 -4.5,89.699 35.832,110.239 20.289,10.339 82.719,13.011 166.699,13.171 84.731,0.149 187.18,-2.218 314,-3.3 l -4.558,-9.508"
             id="path56"
             style="fill:#3d6cb4;fill-opacity:1;fill-rule:nonzero;stroke:none" /></g></g></g></g></svg>