<?xml version="1.0" encoding="UTF-8" standalone="no"?>
<!-- Created with Inkscape (http://www.inkscape.org/) -->

<svg
   xmlns:dc="http://purl.org/dc/elements/1.1/"
   xmlns:cc="http://creativecommons.org/ns#"
   xmlns:rdf="http://www.w3.org/1999/02/22-rdf-syntax-ns#"
   xmlns:svg="http://www.w3.org/2000/svg"
   xmlns="http://www.w3.org/2000/svg"
   xmlns:xlink="http://www.w3.org/1999/xlink"
   version="1.1"
   width="80.318558"
   height="50.467678"
   id="svg2"
   xml:space="preserve"><metadata
     id="metadata8"><rdf:RDF><cc:Work
         rdf:about=""><dc:format>image/svg+xml</dc:format><dc:type
           rdf:resource="http://purl.org/dc/dcmitype/StillImage" /><dc:title></dc:title></cc:Work></rdf:RDF></metadata><defs
     id="defs6"><clipPath
       id="clipPath18"><path
         d="m 3200,660 0,0 0,0 0,0 z"
         id="path20" /></clipPath><clipPath
       id="clipPath34"><path
         d="m 0,0 3200,0 0,660 L 0,660 0,0 z"
         id="path36" /></clipPath></defs><g
     transform="matrix(1.25,0,0,-1.25,-22.834315,67.819846)"
     id="g10"><g
       transform="scale(0.1,0.1)"
       id="g14"><g
         clip-path="url(#clipPath18)"
         id="g16"><g
           transform="matrix(3088.44,0,0,2364.21,2911.47,6395.66)"
           id="g22"><image
             xlink:href="ink_ext_XXXXXX_img0.png"
             id="image24"
             transform="matrix(1,0,0,-1,0,1)"
             height="1"
             width="1" /></g><g
           transform="matrix(0,2572.31,-2994.3,0,2934.86,6067.62)"
           id="g26"><image
             xlink:href="ink_ext_XXXXXX_img1.png"
             id="image28"
             transform="matrix(1,0,0,-1,0,1)"
             height="1"
             width="1" /></g></g></g><path
       d="m 36.8246,41.5098 c -1.543,0.048 -2.8199,-0.0782 -3.6539,-0.5032 -3.973,-2.0238 -0.898,-8.0597 3.0762,-6.0347 1.8679,0.9519 3.6738,4.4219 4.6988,6.1937 -1.3859,0.1473 -2.8129,0.3063 -4.1211,0.3442 m 0.0281,0.9461 c 1.8852,-0.0582 3.7711,-0.3071 5.6442,-0.4993 -1.2961,-2.2277 -3.4672,-6.6277 -5.8211,-7.8277 -2.132,-1.0859 -4.741,-0.2391 -5.827,1.8949 -1.0871,2.1301 -0.239,4.7399 1.893,5.8282 1.0648,0.5398 2.5551,0.6476 4.1109,0.6039"
       id="path48"
       style="fill:#3d6cb4;fill-opacity:1;fill-rule:nonzero;stroke:none" /><path
       d="m 55.8883,26.5168 c 1.5418,-0.048 2.8187,0.0777 3.6527,0.502 3.9742,2.025 0.8981,8.0609 -3.075,6.0359 -1.868,-0.952 -3.6738,-4.4223 -4.6988,-6.1942 1.3851,-0.1468 2.8129,-0.3058 4.1211,-0.3437 m -0.0281,-0.9461 c -1.8848,0.0578 -3.7719,0.3051 -5.645,0.4988 1.2969,2.2282 3.468,6.6282 5.8211,7.8282 2.1328,1.0859 4.7418,0.239 5.8289,-1.895 1.086,-2.13 0.2379,-4.7402 -1.8941,-5.8269 -1.066,-0.541 -2.5551,-0.6492 -4.1109,-0.6051"
       id="path50"
       style="fill:#3d6cb4;fill-opacity:1;fill-rule:nonzero;stroke:none" /><path
       d="m 20.5785,18.9324 c 13.8551,0.1192 23.2012,-0.2578 29.8383,-0.3 6.6527,-0.0418 10.4199,0.2614 13.1488,1.6543 5.466,2.7821 7.6379,9.466 4.8539,14.9321 -2.789,5.473 -9.5398,7.7589 -14.9257,4.8578 -2.4641,-1.3282 -3.1762,-1.959 -6.7743,-6.4782 -3.6269,-4.5546 -4.1961,-4.966 -6.8257,-6.3808 -5.8821,-3.1668 -13.2071,-0.6629 -16.2262,5.2629 -3.0238,5.9312 -0.6641,13.1929 5.2691,16.214 2.977,1.5172 9.016,1.795 17.6149,1.7532 8.6492,-0.0411 20.3109,-0.4161 34.1601,-0.2969 l -0.4621,-0.9512 c -13.8539,-0.1199 -25.0512,0.2539 -33.7019,0.2988 -8.6993,0.0383 -14.4571,-0.2629 -17.1789,-1.6539 -5.4653,-2.7808 -7.6383,-9.4668 -4.8532,-14.932 2.7891,-5.4719 9.5391,-7.757 14.9262,-4.857 2.4707,1.3293 2.9449,1.6293 6.534,6.1371 3.6187,4.5429 4.4277,5.3012 7.066,6.7199 5.8816,3.168 13.2066,0.6609 16.225,-5.2617 3.0227,-5.9332 0.6648,-13.1891 -5.2691,-16.2133 -2.968,-1.5148 -6.9711,-1.7949 -13.5879,-1.757 -6.6332,0.0461 -16.4383,0.4172 -30.2883,0.3 l 0.457,0.9519"
       id="path52"
       style="fill:#3d6cb4;fill-opacity:1;fill-rule:nonzero;stroke:none" /><path
       d="m 22.5094,22.8828 c 11.4461,-0.0949 20.4301,-0.3449 26.8859,-0.3308 6.5031,0.0179 10.4371,0.3109 12.2129,1.216 3.5641,1.816 4.9832,6.1777 3.166,9.7418 -1.8168,3.564 -6.1801,4.9808 -9.7437,3.1648 -1.2121,-0.6187 -3.6192,-3.6226 -4.5184,-4.6828 -3.5109,-4.4109 -4.5488,-5.8691 -9.1457,-8.343 -7.7422,-4.1691 -17.3883,-0.8711 -21.3652,6.9309 -3.9809,7.8141 -0.8739,17.3762 6.9402,21.3582 3.9051,1.9879 8.5981,2.3687 16.8277,2.3129 8.2371,-0.0551 23.3,-0.6078 38.7532,-0.393 l -0.4668,-0.9531 c -15.316,-0.1707 -30.0532,0.3383 -38.2942,0.398 -8.248,0.052 -12.716,-0.3418 -16.389,-2.214 -7.3461,-3.743 -10.2661,-12.7289 -6.5231,-20.0758 3.7461,-7.3512 12.8199,-10.4301 20.0672,-6.5262 4.477,2.4129 5.427,3.7961 8.8648,8.116 1.05,1.234 3.3922,4.1942 4.8172,4.9211 4.034,2.0532 8.968,0.452 11.0231,-3.58 2.0547,-4.0348 0.4508,-8.97 -3.582,-11.025 -2.0243,-1.0321 -6.2313,-1.302 -12.6422,-1.3149 -6.4578,-0.0172 -15.8942,0.2359 -27.345,0.3301 l 0.4571,0.9488"
       id="path54"
       style="fill:#3d6cb4;fill-opacity:1;fill-rule:nonzero;stroke:none" /><path
       d="M 78.3469,45.2551 C 65.8676,45.327 55.8746,45.6008 47.4047,45.5848 38.8605,45.568 32.9348,45.2738 31.1637,44.373 c -3.5649,-1.8171 -4.9828,-6.1812 -3.1649,-9.7453 1.8168,-3.5648 6.1789,-4.9816 9.7438,-3.166 1.2121,0.616 3.6179,3.6231 4.5172,4.6863 3.5109,4.4079 4.5488,5.8668 9.1449,8.3399 7.7422,4.1699 17.3891,0.8719 21.3672,-6.9328 3.9797,-7.8121 0.8726,-17.3711 -6.941,-21.3524 -3.8871,-1.9797 -6.584,-2.3718 -12.8852,-2.316 -6.2641,0.0551 -16.1879,0.5551 -34.607,0.3961 l 0.466,0.952 c 18.4289,0.1582 27.8808,-0.341 34.15,-0.3969 6.234,-0.0559 8.7539,0.3309 12.4449,2.2121 7.3461,3.743 10.266,12.7277 6.5231,20.0738 -3.7461,7.3551 -12.82,10.4313 -20.0661,6.527 -4.4789,-2.411 -5.4281,-3.7969 -8.8668,-8.1141 -1.05,-1.2359 -3.391,-4.1969 -4.816,-4.9199 -4.034,-2.0559 -8.9691,-0.4527 -11.0242,3.5781 -2.0539,4.0371 -0.45,8.9699 3.5832,11.0239 2.0289,1.0339 8.2719,1.3011 16.6699,1.3171 8.4731,0.0149 18.718,-0.2218 31.4,-0.33 l -0.4558,-0.9508"
       id="path56"
       style="fill:#3d6cb4;fill-opacity:1;fill-rule:nonzero;stroke:none" /></g></svg>