<?xml version="1.0" encoding="UTF-8" standalone="no"?>
<!-- Created with Inkscape (http://www.inkscape.org/) -->

<svg
   xmlns:dc="http://purl.org/dc/elements/1.1/"
   xmlns:cc="http://creativecommons.org/ns#"
   xmlns:rdf="http://www.w3.org/1999/02/22-rdf-syntax-ns#"
   xmlns:svg="http://www.w3.org/2000/svg"
   xmlns="http://www.w3.org/2000/svg"
   xmlns:xlink="http://www.w3.org/1999/xlink"
   version="1.1"
   width="80.352539"
   height="62.328011"
   id="svg2"
   xml:space="preserve"><metadata
     id="metadata8"><rdf:RDF><cc:Work
         rdf:about=""><dc:format>image/svg+xml</dc:format><dc:type
           rdf:resource="http://purl.org/dc/dcmitype/StillImage" /><dc:title></dc:title></cc:Work></rdf:RDF></metadata><defs
     id="defs6"><clipPath
       id="clipPath18"><path
         d="m 3200,660 0,0 0,0 0,0 z"
         id="path20" /></clipPath><clipPath
       id="clipPath34"><path
         d="m 0,0 3200,0 0,660 L 0,660 0,0 z"
         id="path36" /></clipPath></defs><g
     transform="matrix(1.25,0,0,-1.25,-22.834315,67.819846)"
     id="g10"><g
       transform="scale(0.1,0.1)"
       id="g14"><g
         clip-path="url(#clipPath18)"
         id="g16"><g
           transform="matrix(3088.44,0,0,2364.21,2911.47,6395.66)"
           id="g22"><image
             xlink:href="ink_ext_XXXXXX_img0.png"
             id="image24"
             transform="matrix(1,0,0,-1,0,1)"
             height="1"
             width="1" /></g><g
           transform="matrix(0,2572.31,-2994.3,0,2934.86,6067.62)"
           id="g26"><image
             xlink:href="ink_ext_XXXXXX_img1.png"
             id="image28"
             transform="matrix(1,0,0,-1,0,1)"
             height="1"
             width="1" /></g></g></g><path
       d="m 36.8246,41.5098 c -1.543,0.048 -2.8199,-0.0782 -3.6539,-0.5032 -3.973,-2.0238 -0.898,-8.0597 3.0762,-6.0347 1.8679,0.9519 3.6738,4.4219 4.6988,6.1937 -1.3859,0.1473 -2.8129,0.3063 -4.1211,0.3442 m 0.0281,0.9461 c 1.8852,-0.0582 3.7711,-0.3071 5.6442,-0.4993 -1.2961,-2.2277 -3.4672,-6.6277 -5.8211,-7.8277 -2.132,-1.0859 -4.741,-0.2391 -5.827,1.8949 -1.0871,2.1301 -0.239,4.7399 1.893,5.8282 1.0648,0.5398 2.5551,0.6476 4.1109,0.6039"
       id="path48"
       style="fill:#3d6cb4;fill-opacity:1;fill-rule:nonzero;stroke:none" /><path
       d="m 55.8883,26.5168 c 1.5418,-0.048 2.8187,0.0777 3.6527,0.502 3.9742,2.025 0.8981,8.0609 -3.075,6.0359 -1.868,-0.952 -3.6738,-4.4223 -4.6988,-6.1942 1.3851,-0.1468 2.8129,-0.3058 4.1211,-0.3437 m -0.0281,-0.9461 c -1.8848,0.0578 -3.7719,0.3051 -5.645,0.4988 1.2969,2.2282 3.468,6.6282 5.8211,7.8282 2.1328,1.0859 4.7418,0.239 5.8289,-1.895 1.086,-2.13 0.2379,-4.7402 -1.8941,-5.8269 -1.066,-0.541 -2.5551,-0.6492 -4.1109,-0.6051"
       id="path50"
       style="fill:#3d6cb4;fill-opacity:1;fill-rule:nonzero;stroke:none" /><path
       d="m 20.5785,18.9324 c 13.8551,0.1192 23.2012,-0.2578 29.8383,-0.3 6.6527,-0.0418 10.4199,0.2614 13.1488,1.6543 5.466,2.7821 7.6379,9.466 4.8539,14.9321 -2.789,5.473 -9.5398,7.7589 -14.9257,4.8578 -2.4641,-1.3282 -3.1762,-1.959 -6.7743,-6.4782 -3.6269,-4.5546 -4.1961,-4.966 -6.8257,-6.3808 -5.8821,-3.1668 -13.2071,-0.6629 -16.2262,5.2629 -3.0238,5.9312 -0.6641,13.1929 5.2691,16.214 2.977,1.5172 9.016,1.795 17.6149,1.7532 8.6492,-0.0411 20.3109,-0.4161 34.1601,-0.2969 l -0.4621,-0.9512 c -13.8539,-0.1199 -25.0512,0.2539 -33.7019,0.2988 -8.6993,0.0383 -14.4571,-0.2629 -17.1789,-1.6539 -5.4653,-2.7808 -7.6383,-9.4668 -4.8532,-14.932 2.7891,-5.4719 9.5391,-7.757 14.9262,-4.857 2.4707,1.3293 2.9449,1.6293 6.534,6.1371 3.6187,4.5429 4.4277,5.3012 7.066,6.7199 5.8816,3.168 13.2066,0.6609 16.225,-5.2617 3.0227,-5.9332 0.6648,-13.1891 -5.2691,-16.2133 -2.968,-1.5148 -6.9711,-1.7949 -13.5879,-1.757 -6.6332,0.0461 -16.4383,0.4172 -30.2883,0.3 l 0.457,0.9519"
       id="path52"
       style="fill:#3d6cb4;fill-opacity:1;fill-rule:nonzero;stroke:none" /><path
       d="m 22.5094,22.8828 c 11.4461,-0.0949 20.4301,-0.3449 26.8859,-0.3308 6.5031,0.0179 10.4371,0.3109 12.2129,1.216 3.5641,1.816 4.9832,6.1777 3.166,9.7418 -1.8168,3.564 -6.1801,4.9808 -9.7437,3.1648 -1.2121,-0.6187 -3.6192,-3.6226 -4.5184,-4.6828 -3.5109,-4.4109 -4.5488,-5.8691 -9.1457,-8.343 -7.7422,-4.1691 -17.3883,-0.8711 -21.3652,6.9309 -3.9809,7.8141 -0.8739,17.3762 6.9402,21.3582 3.9051,1.9879 8.5981,2.3687 16.8277,2.3129 8.2371,-0.0551 23.3,-0.6078 38.7532,-0.393 l -0.4668,-0.9531 c -15.316,-0.1707 -30.0532,0.3383 -38.2942,0.398 -8.248,0.052 -12.716,-0.3418 -16.389,-2.214 -7.3461,-3.743 -10.2661,-12.7289 -6.5231,-20.0758 3.7461,-7.3512 12.8199,-10.4301 20.0672,-6.5262 4.477,2.4129 5.427,3.7961 8.8648,8.116 1.05,1.234 3.3922,4.1942 4.8172,4.9211 4.034,2.0532 8.968,0.452 11.0231,-3.58 2.0547,-4.0348 0.4508,-8.97 -3.582,-11.025 -2.0243,-1.0321 -6.2313,-1.302 -12.6422,-1.3149 -6.4578,-0.0172 -15.8942,0.2359 -27.345,0.3301 l 0.4571,0.9488"
       id="path54"
       style="fill:#3d6cb4;fill-opacity:1;fill-rule:nonzero;stroke:none" /><path
       d="M 78.3469,45.2551 C 65.8676,45.327 55.8746,45.6008 47.4047,45.5848 38.8605,45.568 32.9348,45.2738 31.1637,44.373 c -3.5649,-1.8171 -4.9828,-6.1812 -3.1649,-9.7453 1.8168,-3.5648 6.1789,-4.9816 9.7438,-3.166 1.2121,0.616 3.6179,3.6231 4.5172,4.6863 3.5109,4.4079 4.5488,5.8668 9.1449,8.3399 7.7422,4.1699 17.3891,0.8719 21.3672,-6.9328 3.9797,-7.8121 0.8726,-17.3711 -6.941,-21.3524 -3.8871,-1.9797 -6.584,-2.3718 -12.8852,-2.316 -6.2641,0.0551 -16.1879,0.5551 -34.607,0.3961 l 0.466,0.952 c 18.4289,0.1582 27.8808,-0.341 34.15,-0.3969 6.234,-0.0559 8.7539,0.3309 12.4449,2.2121 7.3461,3.743 10.266,12.7277 6.5231,20.0738 -3.7461,7.3551 -12.82,10.4313 -20.0661,6.527 -4.4789,-2.411 -5.4281,-3.7969 -8.8668,-8.1141 -1.05,-1.2359 -3.391,-4.1969 -4.816,-4.9199 -4.034,-2.0559 -8.9691,-0.4527 -11.0242,3.5781 -2.0539,4.0371 -0.45,8.9699 3.5832,11.0239 2.0289,1.0339 8.2719,1.3011 16.6699,1.3171 8.4731,0.0149 18.718,-0.2218 31.4,-0.33 l -0.4558,-0.9508"
       id="path56"
       style="fill:#3d6cb4;fill-opacity:1;fill-rule:nonzero;stroke:none" /></g><g
     transform="matrix(0.68493556,0,0,0.68493556,4.4261832e-7,16.710461)"
     id="g3571"><path
       d="m 0,53.467678 2.635761,0 0,3.895448 3.888602,0 0,-3.895448 2.63576,0 0,10.221273 -2.63576,0 0,-4.333601 -3.888602,0 0,4.333601 -2.635761,0 0,-10.221273"
       id="path3090"
       style="font-size:11.2166996px;font-variant:normal;font-weight:bold;writing-mode:lr-tb;fill:#3d6cb4;fill-opacity:1;fill-rule:nonzero;stroke:none;font-family:DejaVu Sans;-inkscape-font-specification:DejaVuSans-Bold" /><path
       d="m 20.428901,62.731745 c -0.65724,0.319486 -1.339567,0.5591 -2.046987,0.718843 -0.70744,0.159743 -1.437701,0.239615 -2.19076,0.239615 -1.702411,0 -3.0511,-0.474665 -4.046061,-1.423995 -0.994979,-0.953892 -1.492459,-2.245528 -1.492459,-3.87491 0,-1.647629 0.50661,-2.943828 1.51984,-3.888602 1.01322,-0.944756 2.40071,-1.417139 4.16245,-1.417149 0.68004,1e-5 1.33042,0.06391 1.95114,0.191692 0.62527,0.127804 1.214037,0.317213 1.766297,0.568228 l 0,2.115455 c -0.57052,-0.324043 -1.138737,-0.565939 -1.704677,-0.72569 -0.56139,-0.159735 -1.12506,-0.239606 -1.691001,-0.239615 -1.04974,9e-6 -1.859869,0.294392 -2.43037,0.883151 -0.565949,0.58421 -0.84893,1.421719 -0.84892,2.51253 -9e-6,1.081692 0.27384,1.91692 0.821531,2.505684 0.54769,0.588769 1.325869,0.883152 2.33453,0.88315 0.273839,2e-6 0.52715,-0.01597 0.75993,-0.04792 0.23732,-0.03651 0.44955,-0.09128 0.63669,-0.164307 l 0,-1.985378 -1.60885,0 0,-1.766302 4.107677,0 0,4.915522"
       id="path3110"
       style="font-size:11.2166996px;font-variant:normal;font-weight:bold;writing-mode:lr-tb;fill:#3d6cb4;fill-opacity:1;fill-rule:nonzero;stroke:none;font-family:DejaVu Sans;-inkscape-font-specification:DejaVuSans-Bold" /><path
       d="m 29.707819,53.578766 0,2.163377 c -0.56138,-0.251017 -1.10908,-0.440427 -1.64307,-0.568229 -0.534,-0.127786 -1.03834,-0.191683 -1.51299,-0.191692 -0.62985,9e-6 -1.09539,0.08673 -1.39661,0.260153 -0.30124,0.173444 -0.45185,0.442724 -0.45185,0.807843 0,0.273853 0.10037,0.488365 0.30124,0.643537 0.20537,0.150621 0.57506,0.280698 1.10906,0.390229 l 1.12277,0.225922 c 1.13645,0.228211 1.94429,0.575081 2.42353,1.040612 0.47922,0.465542 0.71884,1.127334 0.71885,1.985378 -10e-6,1.127332 -0.33548,1.967123 -1.00639,2.519376 -0.66636,0.547691 -1.68644,0.821536 -3.06022,0.821536 -0.64811,0 -1.29848,-0.06162 -1.95114,-0.184846 -0.65268,-0.12323 -1.30534,-0.305793 -1.958,-0.54769 l 0,-2.224993 c 0.65266,0.346874 1.28251,0.609308 1.88954,0.787305 0.61158,0.173438 1.20035,0.260155 1.7663,0.260153 0.57506,2e-6 1.01549,-0.09584 1.3213,-0.287537 0.30578,-0.19169 0.45868,-0.465534 0.45868,-0.821536 0,-0.319483 -0.105,-0.565943 -0.31491,-0.739382 -0.2054,-0.173431 -0.61844,-0.32861 -1.23915,-0.465537 l -1.02007,-0.225922 c -1.02237,-0.219072 -1.77088,-0.568224 -2.24554,-1.047458 -0.4701,-0.479223 -0.70515,-1.125041 -0.70515,-1.937455 0,-1.017783 0.32861,-1.800523 0.98585,-2.348222 0.65722,-0.547681 1.60199,-0.821526 2.8343,-0.821536 0.56137,10e-6 1.13872,0.04337 1.73206,0.130076 0.59333,0.08216 1.2072,0.207676 1.84161,0.376538"
       id="path3126"
       style="font-size:11.2166996px;font-variant:normal;font-weight:bold;writing-mode:lr-tb;fill:#3d6cb4;fill-opacity:1;fill-rule:nonzero;stroke:none;font-family:DejaVu Sans;-inkscape-font-specification:DejaVuSans-Bold" /><g
       transform="translate(-57.533015,32.980339)"
       id="g3395"><path
         d="m 92.555257,20.489199 3.354604,0 2.327684,5.470058 2.341375,-5.470058 3.34776,0 0,10.221272 -2.49199,0 0,-7.475974 -2.35507,5.511135 -1.670456,0 -2.355069,-5.511135 0,7.475974 -2.498838,0 0,-10.221272"
         id="path3142"
         style="font-size:11.2166996px;font-variant:normal;font-weight:bold;writing-mode:lr-tb;fill:#3d6cb4;fill-opacity:1;fill-rule:nonzero;stroke:none;font-family:DejaVu Sans;-inkscape-font-specification:DejaVuSans-Bold" /><path
         d="m 109.83581,27.260022 c -0.51119,3e-6 -0.89685,0.08673 -1.157,0.260153 -0.25559,0.173438 -0.38339,0.429027 -0.38338,0.766766 -1e-5,0.31036 0.10268,0.554539 0.30807,0.732536 0.20995,0.173436 0.49977,0.260154 0.86946,0.260153 0.46097,10e-7 0.84892,-0.164305 1.16384,-0.492922 0.31492,-0.333176 0.47238,-0.748507 0.47239,-1.245995 l 0,-0.280691 -1.27338,0 m 3.74483,-0.924228 0,4.374677 -2.47145,0 0,-1.136458 c -0.32862,0.465538 -0.69831,0.805563 -1.10908,1.020074 -0.41077,0.209948 -0.91054,0.314921 -1.4993,0.314923 -0.79415,-2e-6 -1.43997,-0.230488 -1.93745,-0.69146 -0.49293,-0.465535 -0.73939,-1.067995 -0.73939,-1.807378 0,-0.899122 0.30808,-1.558632 0.92423,-1.978532 0.62072,-0.419891 1.59287,-0.629839 2.91645,-0.629844 l 1.44454,0 0,-0.191692 c -1e-5,-0.387942 -0.15291,-0.670915 -0.45869,-0.84892 -0.3058,-0.182557 -0.78275,-0.273839 -1.43085,-0.273845 -0.52487,6e-6 -1.01323,0.05249 -1.46507,0.157461 -0.45184,0.10498 -0.87174,0.262441 -1.25968,0.472383 l 0,-1.868994 c 0.52486,-0.127786 1.05201,-0.223632 1.58145,-0.287537 0.52943,-0.06845 1.05887,-0.102684 1.5883,-0.102692 1.38292,7e-6 2.38017,0.273852 2.99176,0.821535 0.61615,0.543133 0.92422,1.428565 0.92423,2.656299"
         id="path3144"
         style="font-size:11.2166996px;font-variant:normal;font-weight:bold;writing-mode:lr-tb;fill:#3d6cb4;fill-opacity:1;fill-rule:nonzero;stroke:none;font-family:DejaVu Sans;-inkscape-font-specification:DejaVuSans-Bold" /><path
         d="m 118.54254,20.865736 0,2.17707 2.52622,0 0,1.752609 -2.52622,0 0,3.251912 c -1e-5,0.356 0.0707,0.597898 0.21222,0.725689 0.14149,0.123237 0.42218,0.184848 0.84208,0.184846 l 1.25969,0 0,1.752609 -2.10176,0 c -0.96759,0 -1.65449,-0.200819 -2.06069,-0.602459 -0.40164,-0.406202 -0.60246,-1.093097 -0.60246,-2.060685 l 0,-3.251912 -1.21861,0 0,-1.752609 1.21861,0 0,-2.17707 2.45092,0"
         id="path3146"
         style="font-size:11.2166996px;font-variant:normal;font-weight:bold;writing-mode:lr-tb;fill:#3d6cb4;fill-opacity:1;fill-rule:nonzero;stroke:none;font-family:DejaVu Sans;-inkscape-font-specification:DejaVuSans-Bold" /><path
         d="m 130.27898,26.041411 0,4.66906 -2.46461,0 0,-0.75992 0,-2.800068 c 0,-0.670916 -0.016,-1.131888 -0.0479,-1.382918 -0.0274,-0.251019 -0.0776,-0.435865 -0.15062,-0.554536 -0.0958,-0.159738 -0.22593,-0.282968 -0.39023,-0.369691 -0.16431,-0.09128 -0.35144,-0.136917 -0.56138,-0.136923 -0.51118,6e-6 -0.91282,0.198544 -1.20492,0.595614 -0.2921,0.392516 -0.43816,0.937924 -0.43815,1.636224 l 0,3.772218 -2.45092,0 0,-10.652578 2.45092,0 0,4.107678 c 0.36969,-0.447274 0.7622,-0.775888 1.17753,-0.985843 0.41533,-0.214504 0.87402,-0.32176 1.37608,-0.321768 0.88542,8e-6 1.55634,0.271571 2.01276,0.81469 0.46096,0.543132 0.69145,1.332719 0.69146,2.368761"
         id="path3148"
         style="font-size:11.2166996px;font-variant:normal;font-weight:bold;writing-mode:lr-tb;fill:#3d6cb4;fill-opacity:1;fill-rule:nonzero;stroke:none;font-family:DejaVu Sans;-inkscape-font-specification:DejaVuSans-Bold" /></g><g
       transform="translate(-164.96824,32.974308)"
       id="g3401"><path
         d="m 247.72746,30.149088 c -0.4838,0.251026 -0.98814,0.440435 -1.513,0.568229 -0.52487,0.127795 -1.07256,0.191691 -1.64306,0.191693 -1.70242,-2e-6 -3.0511,-0.474665 -4.04607,-1.423997 -0.99497,-0.953891 -1.49246,-2.245526 -1.49246,-3.874909 0,-1.633936 0.49749,-2.925571 1.49246,-3.874909 0.99497,-0.953884 2.34365,-1.430831 4.04607,-1.430841 0.5705,10e-6 1.11819,0.06391 1.64306,0.191691 0.52486,0.127805 1.0292,0.317214 1.513,0.568229 l 0,2.115454 c -0.48836,-0.33317 -0.96988,-0.577349 -1.44454,-0.732536 -0.47467,-0.15517 -0.97443,-0.23276 -1.4993,-0.232768 -0.94021,8e-6 -1.67959,0.301238 -2.21815,0.903689 -0.53856,0.602466 -0.80784,1.433129 -0.80784,2.491991 0,1.054308 0.26928,1.882689 0.80784,2.485146 0.53856,0.602461 1.27794,0.903691 2.21815,0.903689 0.52487,2e-6 1.02463,-0.07759 1.4993,-0.232768 0.47466,-0.155178 0.95618,-0.399356 1.44454,-0.732536 l 0,2.115454"
         id="path3172"
         style="font-size:11.2166996px;font-variant:normal;font-weight:bold;writing-mode:lr-tb;fill:#3d6cb4;fill-opacity:1;fill-rule:nonzero;stroke:none;font-family:DejaVu Sans;-inkscape-font-specification:DejaVuSans-Bold" /><path
         d="m 253.45499,24.610569 c -0.54314,6e-6 -0.95847,0.196262 -1.24601,0.588768 -0.28297,0.387952 -0.42446,0.949334 -0.42446,1.684148 0,0.734821 0.14149,1.298485 0.42446,1.690994 0.28754,0.38795 0.70287,0.581922 1.24601,0.581921 0.53398,10e-7 0.94247,-0.193971 1.22544,-0.581921 0.28298,-0.392509 0.42447,-0.956173 0.42447,-1.690994 0,-0.734814 -0.14149,-1.296196 -0.42447,-1.684148 -0.28297,-0.392506 -0.69146,-0.588761 -1.22544,-0.588768 m 0,-1.752609 c 1.31901,8e-6 2.34821,0.356006 3.08759,1.067996 0.74394,0.712004 1.11592,1.697846 1.11593,2.957529 -10e-6,1.25969 -0.37199,2.245532 -1.11593,2.957527 -0.73938,0.711999 -1.76858,1.067996 -3.08759,1.067998 -1.32359,-2e-6 -2.35964,-0.355999 -3.10816,-1.067998 -0.74393,-0.711995 -1.11591,-1.697837 -1.11591,-2.957527 0,-1.259683 0.37198,-2.245525 1.11591,-2.957529 0.74852,-0.71199 1.78457,-1.067988 3.10816,-1.067996"
         id="path3174"
         style="font-size:11.2166996px;font-variant:normal;font-weight:bold;writing-mode:lr-tb;fill:#3d6cb4;fill-opacity:1;fill-rule:nonzero;stroke:none;font-family:DejaVu Sans;-inkscape-font-specification:DejaVuSans-Bold" /><path
         d="m 266.54719,24.316186 c 0.31034,-0.474658 0.67776,-0.835221 1.10222,-1.081689 0.42901,-0.251017 0.89911,-0.376529 1.4103,-0.376537 0.88086,8e-6 1.55179,0.271571 2.01276,0.81469 0.46096,0.543132 0.69145,1.332719 0.69146,2.368761 l 0,4.66906 -2.4646,0 0,-3.99814 c 0.005,-0.05932 0.006,-0.120938 0.006,-0.184845 0.005,-0.06389 0.006,-0.155175 0.006,-0.273845 -10e-6,-0.543122 -0.0799,-0.935633 -0.23961,-1.177535 -0.15976,-0.246455 -0.41762,-0.369685 -0.77361,-0.369691 -0.46555,6e-6 -0.82611,0.191698 -1.08169,0.575075 -0.25103,0.383388 -0.38111,0.937924 -0.39024,1.66361 l 0,3.765371 -2.46459,0 0,-3.99814 c -2e-5,-0.848915 -0.073,-1.394323 -0.21908,-1.636225 -0.14606,-0.246455 -0.40621,-0.369685 -0.78046,-0.369691 -0.47012,6e-6 -0.83295,0.19398 -1.08854,0.581921 -0.25559,0.383389 -0.38339,0.93336 -0.38339,1.649917 l 0,3.772218 -2.4646,0 0,-7.667665 2.4646,0 0,1.122765 c 0.30124,-0.433581 0.64583,-0.759913 1.03378,-0.978997 0.3925,-0.219068 0.82381,-0.328606 1.29391,-0.328614 0.52942,8e-6 0.99725,0.127802 1.40346,0.383383 0.40619,0.255596 0.71426,0.613877 0.92423,1.074843"
         id="path3176"
         style="font-size:11.2166996px;font-variant:normal;font-weight:bold;writing-mode:lr-tb;fill:#3d6cb4;fill-opacity:1;fill-rule:nonzero;stroke:none;font-family:DejaVu Sans;-inkscape-font-specification:DejaVuSans-Bold" /><path
         d="m 276.50411,29.601398 0,4.025524 -2.45091,0 0,-10.584116 2.45091,0 0,1.122765 c 0.33774,-0.447274 0.71199,-0.775888 1.12276,-0.985843 0.41077,-0.214504 0.88315,-0.32176 1.41715,-0.321768 0.94476,8e-6 1.72065,0.376545 2.32769,1.129612 0.60701,0.748516 0.91053,1.713819 0.91054,2.895913 -10e-6,1.182101 -0.30353,2.149686 -0.91054,2.902758 -0.60704,0.748512 -1.38292,1.122766 -2.32769,1.122767 -0.534,-10e-7 -1.00638,-0.104975 -1.41715,-0.314923 -0.41077,-0.214511 -0.78502,-0.545407 -1.12276,-0.992688 m 1.62937,-4.963445 c -0.52487,6e-6 -0.92878,0.19398 -1.21176,0.581921 -0.27841,0.383388 -0.41761,0.937924 -0.41761,1.66361 0,0.725692 0.1392,1.282511 0.41761,1.670456 0.28298,0.383385 0.68689,0.575076 1.21176,0.575074 0.52487,2e-6 0.92423,-0.191689 1.19808,-0.575074 0.2784,-0.383381 0.41761,-0.9402 0.41761,-1.670456 0,-0.73025 -0.13921,-1.287068 -0.41761,-1.670456 -0.27385,-0.383378 -0.67321,-0.575069 -1.19808,-0.575075"
         id="path3178"
         style="font-size:11.2166996px;font-variant:normal;font-weight:bold;writing-mode:lr-tb;fill:#3d6cb4;fill-opacity:1;fill-rule:nonzero;stroke:none;font-family:DejaVu Sans;-inkscape-font-specification:DejaVuSans-Bold" /></g></g></svg>