<svg id="svg2" xmlns="http://www.w3.org/2000/svg" viewBox="0 0 400 400"><defs><style>.cls-1{fill:#ffc384;}.cls-2{fill:none;stroke:#000;stroke-linecap:round;stroke-linejoin:round;stroke-width:23px;}</style></defs><circle class="cls-1" cx="200" cy="200.29" r="200"/><path class="cls-2" d="M247.24,285.41h4.45c14.63-.52,20.9-8.1,20.9-23,0-6-1-12.28-1.83-18.56-1-6.53-2.09-13.06-2.09-19.86,0-16.72,7.32-25.61,18.82-28.74v-.52c-11.5-2.88-18.82-11.24-18.82-28a119.38,119.38,0,0,1,2.09-19.87c.79-6.27,1.83-12.54,1.83-18.55,0-14.37-5.49-22.21-20.64-22.73h-4.71"/><path class="cls-2" d="M148.48,105.63h-4.7c-15.16.52-20.65,8.36-20.65,22.73,0,6,1.05,12.28,1.83,18.55a118.33,118.33,0,0,1,2.09,19.87c0,16.72-7.32,25.08-18.81,28v.52c11.49,3.13,18.81,12,18.81,28.74A124.14,124.14,0,0,1,125,243.86c-.78,6.28-1.83,12.55-1.83,18.56,0,14.89,6.27,22.47,20.91,23h4.44"/></svg>