<?xml version="1.0" encoding="UTF-8" standalone="no"?>
<!-- Created with Inkscape (http://www.inkscape.org/) -->

<svg
   width="400"
   height="400"
   viewBox="0 0 400 400.00001"
   id="svg2"
   version="1.1"
   inkscape:version="1.1.2 (0a00cf5339, 2022-02-04)"
   sodipodi:docname="gigamesh_icon_feature_vector_norm1.svg"
   inkscape:export-filename="/export/home/hmara/Desktop/GigaMesh/forms/gigamesh_icon_background_grids_highlight_center.png"
   inkscape:export-xdpi="90"
   inkscape:export-ydpi="90"
   xmlns:inkscape="http://www.inkscape.org/namespaces/inkscape"
   xmlns:sodipodi="http://sodipodi.sourceforge.net/DTD/sodipodi-0.dtd"
   xmlns="http://www.w3.org/2000/svg"
   xmlns:svg="http://www.w3.org/2000/svg"
   xmlns:rdf="http://www.w3.org/1999/02/22-rdf-syntax-ns#"
   xmlns:cc="http://creativecommons.org/ns#"
   xmlns:dc="http://purl.org/dc/elements/1.1/"
   xmlns:ns1="http://www.iki.fi/pav/software/textext/">
  <defs
     id="defs4" />
  <sodipodi:namedview
     id="base"
     pagecolor="#ffffff"
     bordercolor="#666666"
     borderopacity="1.0"
     inkscape:pageopacity="0.0"
     inkscape:pageshadow="2"
     inkscape:zoom="1.4"
     inkscape:cx="162.85714"
     inkscape:cy="181.42857"
     inkscape:document-units="px"
     inkscape:current-layer="layer2"
     showgrid="true"
     units="px"
     inkscape:snap-grids="true"
     inkscape:snap-bbox="true"
     inkscape:bbox-paths="true"
     inkscape:window-width="2122"
     inkscape:window-height="1177"
     inkscape:window-x="0"
     inkscape:window-y="0"
     inkscape:window-maximized="1"
     inkscape:pagecheckerboard="0">
    <inkscape:grid
       type="xygrid"
       id="grid4140"
       spacingx="5"
       spacingy="5.0000001"
       empspacing="5" />
  </sodipodi:namedview>
  <metadata
     id="metadata7">
    <rdf:RDF>
      <cc:Work
         rdf:about="">
        <dc:format>image/svg+xml</dc:format>
        <dc:type
           rdf:resource="http://purl.org/dc/dcmitype/StillImage" />
      </cc:Work>
    </rdf:RDF>
  </metadata>
  <g
     inkscape:label="White Backgrund"
     inkscape:groupmode="layer"
     id="layer1"
     transform="translate(0,-652.3622)"
     sodipodi:insensitive="true"
     style="display:none">
    <rect
       style="color:#000000;clip-rule:nonzero;display:inline;overflow:visible;visibility:visible;opacity:1;isolation:auto;mix-blend-mode:normal;color-interpolation:sRGB;color-interpolation-filters:linearRGB;solid-color:#000000;solid-opacity:1;fill:#ffffff;fill-opacity:1;fill-rule:evenodd;stroke:none;stroke-width:16;stroke-linecap:butt;stroke-linejoin:miter;stroke-miterlimit:4;stroke-dasharray:none;stroke-dashoffset:0;stroke-opacity:1;marker:none;color-rendering:auto;image-rendering:auto;shape-rendering:auto;text-rendering:auto;enable-background:accumulate"
       id="rect4905"
       width="400"
       height="400"
       x="0"
       y="652.36218" />
  </g>
  <g
     inkscape:groupmode="layer"
     id="layer2"
     inkscape:label="Icon">
    <path
       id="path16820"
       style="fill:#e6e6e6;fill-opacity:1;stroke:none;stroke-width:8.09899;stroke-linecap:round;stop-color:#000000"
       d="m 329.75195,179.00195 c -6.55799,0.65393 -13.02744,2.77576 -19.67383,2.08008 -5.49177,-0.0277 -10.72924,3.29184 -13.31849,8.09009 -1.9032,3.33835 -2.58665,7.30115 -2.14152,11.09936 -0.6033,6.69439 3.60869,13.39462 9.75824,16.00429 2.84834,1.28097 6.05514,1.51642 9.12474,1.12846 7.97988,-0.42152 16.17463,-1.23869 23.4749,-4.73344 2.894,-1.37443 5.73529,-3.16405 7.49529,-5.91858 4.98581,-7.22972 3.66696,-18.04984 -2.92108,-23.85703 -2.68969,-2.39341 -6.23363,-3.68975 -9.81046,-3.85794 -0.66049,-0.0438 -1.32693,-0.0698 -1.98779,-0.0353 z" />
    <path
       id="path16459"
       style="fill:#e6e6e6;fill-opacity:1;stroke:none;stroke-width:8.09899;stroke-linecap:round;stop-color:#000000"
       d="m 159.03906,123.94141 c -6.99186,0.42901 -13.43887,3.71563 -19.07244,7.68689 -3.80987,2.66703 -7.43842,5.58182 -11.06441,8.4891 -6.82206,5.89714 -13.13331,12.76192 -16.71617,21.14612 -2.29227,5.37161 -3.11929,11.37585 -2.20245,17.15398 0.44383,4.62696 1.92356,9.09728 3.87579,13.29539 -8.22766,-1.36973 -16.610227,0.16201 -24.521851,2.47515 -3.452067,1.02911 -6.904554,2.09802 -10.247372,3.44246 -5.658447,2.46584 -11.786458,4.26381 -16.567,8.34021 -5.237165,4.30183 -7.705877,11.67062 -6.069361,18.25487 1.236872,5.58164 5.258476,10.72778 10.823636,12.46133 3.649987,1.17876 7.566438,0.77766 11.251642,-0.002 0.523736,-0.0726 0.122998,0.94458 0.210785,1.36324 -0.438575,9.23529 -2.970411,18.27213 -2.89025,27.54759 0.01013,2.42299 0.236534,4.83714 0.375267,7.25401 1.304636,14.49215 10.543647,27.91037 23.480558,34.5091 5.884236,3.00768 12.421746,4.48199 18.941046,5.29978 13.53038,1.57568 27.28213,-0.70102 40.06239,-5.20637 7.54437,-2.67205 14.86078,-6.04146 21.69379,-10.21658 11.49421,-7.15188 21.48291,-16.83625 28.61444,-28.36842 5.34156,-9.39281 8.67323,-20.20701 7.98939,-31.0897 -0.351,-5.62118 -1.96235,-11.13438 -4.57855,-16.11541 -1.78923,-3.7056 -3.90634,-7.24661 -6.21896,-10.64805 3.27481,-0.0994 6.43353,-1.36784 9.02019,-3.34936 6.71511,-4.59896 13.03653,-9.90532 18.13411,-16.27954 2.60082,-4.13568 2.93138,-9.45064 1.28057,-14.00214 -1.72921,-5.2173 -5.08705,-9.65296 -8.11532,-14.16681 -3.56733,-5.07775 -7.23536,-10.37476 -12.61106,-13.70136 -4.30616,-2.66654 -9.83983,-3.57455 -14.63605,-1.72828 -6.55226,2.21907 -11.87658,6.80913 -17.17186,11.08823 -3.14679,2.48311 -6.39817,4.82901 -9.51329,7.3532 -0.99521,0.77707 -1.99278,1.55111 -2.98885,2.32708 -1.92617,-2.58355 -4.1701,-5.20761 -4.68087,-8.4951 -0.0356,-0.48943 -0.23198,-1.11849 0.32659,-1.38611 3.63877,-3.33767 7.58842,-6.67031 9.57858,-11.3184 1.75465,-4.06785 1.59583,-8.82386 0.0179,-12.91953 -2.53157,-6.23699 -9.04032,-10.68868 -15.81055,-10.49414 z m -19.96289,102.19531 c 5.44443,6.2031 11.02737,12.32421 15.72071,19.13281 0.37336,0.54128 0.91396,1.3463 1.33464,2.00031 1.21708,1.88295 2.43522,3.94297 3.49543,6.0075 0.59877,1.61389 0.47383,3.40553 0.32227,5.0918 -0.41643,2.93788 -1.5984,5.86254 -3.6789,8.01093 -4.48574,4.01939 -10.33266,6.84936 -16.44368,6.7954 -1.55717,-0.0623 -3.21198,-0.17594 -4.61026,-0.90143 -1.70658,-1.42884 -1.7892,-3.86716 -1.76621,-5.92361 0.0638,-2.82751 0.33653,-5.64786 0.55475,-8.46541 1.2709,-10.80354 3.93267,-21.40272 4.6025,-32.28541 0.15625,0.17904 0.3125,0.35807 0.46875,0.53711 z" />
    <path
       id="path16498"
       style="fill:#e6e6e6;fill-opacity:1;stroke:none;stroke-width:8.09899;stroke-linecap:round;stop-color:#000000"
       d="m 127.67188,80.738281 c -19.9026,0.825415 -39.301174,10.800451 -51.293179,26.749219 -3.524586,4.70047 -6.322038,9.89442 -8.992613,15.11219 -3.394242,6.91056 -6.036144,14.39787 -6.208354,22.16593 0.134851,5.79845 3.687393,11.18919 8.616187,14.11257 5.53102,3.41583 12.926353,4.05242 18.691629,0.83358 3.704149,-1.96708 6.433303,-5.43462 7.947406,-9.30317 1.696076,-3.97559 2.393379,-8.45395 5.123124,-11.92669 0.72531,-1.14323 1.35995,-2.36769 2.35603,-3.21238 3.48815,-3.25956 8.81629,-3.90517 13.25744,-2.50434 3.12476,0.84853 6.27361,1.6211 9.32472,2.71906 7.61369,2.62186 14.9857,5.93392 22.73482,8.16191 2.80964,0.98596 5.78329,0.18526 8.59122,-0.36491 3.02531,5.73043 9.05388,9.57604 15.42666,10.40357 4.39487,0.72393 8.6832,1.9623 13.03334,2.9051 6.07338,1.35136 12.33643,2.3987 18.5693,1.74992 2.18738,-0.42831 4.22597,-1.42376 6.17881,-2.46991 6.5192,-3.6299 11.31902,-9.47898 16.88087,-14.31676 2.1338,-1.94991 4.1696,-4.00055 6.29969,-5.95161 3.87559,-3.67873 7.68366,-7.77445 9.44427,-12.9247 1.38408,-4.12014 1.28976,-8.74576 -0.32708,-12.78428 -2.12791,-5.07636 -6.98148,-8.72997 -12.32481,-9.82075 -3.75855,-0.817742 -7.76021,-0.375686 -11.26104,1.20909 -3.04741,0.87288 -5.51369,3.0942 -8.59384,3.86556 -1.17852,0.0695 -2.15903,-0.74891 -3.2893,-0.95977 -3.08022,-0.98525 -6.18216,-2.07764 -9.13089,-3.20469 -15.74514,-5.962589 -30.96761,-13.506633 -47.38603,-17.536602 -7.73013,-1.885457 -15.69946,-2.992219 -23.66838,-2.707137 z" />
    <path
       id="path16537"
       style="fill:#e6e6e6;fill-opacity:1;stroke:none;stroke-width:8.09899;stroke-linecap:round;stop-color:#000000"
       d="m 36.259766,63.041016 c -1.730662,0.156256 -3.463387,0.190236 -5.199922,0.171605 -3.088578,0.0913 -6.266638,0.336379 -9.142328,1.5459 -4.265398,2.001686 -7.172967,6.243134 -8.137117,10.786851 -0.936078,3.801273 -0.672018,7.742655 -0.547446,11.614003 0.08786,78.446155 -0.190096,156.893575 0.160114,235.338865 0.198015,5.17957 3.544852,9.95002 8.1265,12.26363 3.526445,1.90114 7.65886,2.51869 11.613281,2.04733 5.405574,0.49478 11.234446,-0.49833 15.52516,-4.01875 2.828547,-2.35662 4.770081,-5.88147 4.823857,-9.60518 1.064666,-12.80225 0.0882,-25.65188 0.427915,-38.47433 -0.08846,-69.06959 0.193681,-138.14052 -0.160269,-207.209176 -0.196155,-5.160645 -3.520808,-9.910289 -8.072035,-12.239896 -2.878183,-1.540781 -6.158322,-2.284156 -9.41771,-2.220852 z" />
    <path
       id="path16615"
       style="fill:#e6e6e6;fill-opacity:1;stroke:none;stroke-width:8.09899;stroke-linecap:round;stop-color:#000000"
       d="m 266.25977,63.041016 c -1.73067,0.156256 -3.46339,0.190236 -5.19993,0.171605 -3.08857,0.0913 -6.26663,0.336379 -9.14232,1.5459 -4.2654,2.001686 -7.17297,6.243134 -8.13712,10.786851 -0.93608,3.801273 -0.67202,7.742655 -0.54745,11.614003 0.0879,78.446155 -0.19009,156.893575 0.16012,235.338865 0.19801,5.17957 3.54485,9.95002 8.1265,12.26363 3.52644,1.90114 7.65886,2.51869 11.61328,2.04733 5.40557,0.49478 11.23444,-0.49833 15.52516,-4.01875 2.82854,-2.35662 4.77008,-5.88147 4.82386,-9.60518 1.06466,-12.80225 0.0882,-25.65188 0.42791,-38.47433 -0.0885,-69.06959 0.19368,-138.14052 -0.16027,-207.209176 -0.19615,-5.160645 -3.52081,-9.910289 -8.07203,-12.239896 -2.87819,-1.540781 -6.15833,-2.284156 -9.41771,-2.220852 z" />
    <path
       id="path16654"
       style="fill:#e6e6e6;fill-opacity:1;stroke:none;stroke-width:8.09899;stroke-linecap:round;stop-color:#000000"
       d="m 343.73633,170.76758 c -4.47929,0.21547 -8.60251,2.32013 -12.18536,4.88614 -2.51499,1.75048 -4.96675,3.63722 -7.75605,4.93808 -4.92489,3.24749 -7.66795,9.16039 -7.70409,14.97835 -0.0795,3.8667 0.84316,7.76446 2.72948,11.14665 0.17717,23.58806 0.22539,47.17815 -0.0547,70.76562 -4.82012,-0.0846 -9.881,-0.22059 -14.33719,1.91445 -3.74966,1.79908 -6.45061,5.39696 -7.48142,9.39009 -1.88842,6.32173 -1.23379,13.61701 2.68068,19.06012 1.50869,2.22537 3.99678,3.50016 6.43481,4.4537 4.67225,1.71308 9.72969,1.47764 14.61349,1.22941 2.57711,-0.1489 5.16053,-0.14047 7.73531,0.0165 15.29022,-0.25827 30.60801,0.59726 45.8769,-0.49607 4.84056,-0.65495 9.05183,-4.1533 10.8809,-8.64066 2.10157,-4.70765 2.15656,-10.10152 0.95849,-15.05426 -0.89251,-4.72125 -4.55881,-8.58678 -8.95692,-10.32977 -3.4442,-1.46154 -7.25919,-1.816 -10.96037,-1.51982 -1.02072,-0.05 -2.04108,0.0399 -3.06186,0.0447 0.13156,-1.73215 -0.014,-3.47547 0.0365,-5.21328 -0.11054,-28.52878 0.35951,-57.06808 -0.54823,-85.5875 -0.88821,-7.89741 -7.49127,-14.81497 -15.4082,-15.84766 -1.15729,-0.15945 -2.32617,-0.18524 -3.49219,-0.13476 z" />
    <g
       transform="matrix(24.470781,0,0,24.470781,28.429237,78.034569)"
       ns1:version="1.6.0"
       ns1:texconverter="pdflatex"
       ns1:pdfconverter="inkscape"
       ns1:text="$|\\boldsymbol{\\mathfrak{F}}|_1$"
       ns1:preamble="/home/hmara/Documents/diss/thesis_defines.tex"
       ns1:scale="31.648417046834098"
       ns1:alignment="middle center"
       ns1:stroke-to-path="0"
       ns1:inkscapeversion="1.1.2"
       ns1:jacobian_sqrt="42.1978"
       id="g1067">
      <defs
         id="id-f6fe633c-50a4-47ad-886d-84a91fbfc92f">
        <g
           id="id-34ea1ba8-2499-4b68-84e7-68a5dd1e3e24">
          <symbol
             overflow="visible"
             id="id-b725cba4-6d87-46f0-aaad-92552191532c">
            <path
               style="stroke:none"
               d=""
               id="id-d81e01f7-3282-46c0-97c5-85a94bdbbd2d" />
          </symbol>
          <symbol
             overflow="visible"
             id="id-3c491060-68a3-4f55-b685-b7794e865569">
            <path
               style="stroke:none"
               d="M 1.3125,-7.53125 H 0.90625 c -0.015625,0 -0.015625,0 -0.015625,0.015625 v 9.9375 c 0,0.015625 0,0.015625 0.015625,0.015625 H 1.3125 c 0,0 0.015625,0 0.015625,-0.015625 v -9.9375 C 1.328125,-7.53125 1.3125,-7.53125 1.3125,-7.53125 Z m 0,0"
               id="id-586b7d05-e0d4-4779-920e-552c4b10a55b" />
          </symbol>
          <symbol
             overflow="visible"
             id="id-8cab28cb-eaca-4bf7-a225-66957b3fa57e">
            <path
               style="stroke:none"
               d=""
               id="id-8dcb81da-d158-49a6-a2a2-a286c6c6176b" />
          </symbol>
          <symbol
             overflow="visible"
             id="id-5a171c5c-6503-4314-961e-0b2194a5c47d">
            <path
               style="stroke:none"
               d="M 4.359375,-2.984375 C 4.015625,-3.34375 3.625,-3.796875 3.625,-4.21875 c 0,-0.46875 0.515625,-0.71875 0.96875,-0.859375 0.375,0.109375 0.8125,0.21875 1.21875,0.234375 0.34375,-0.265625 1.046875,-0.953125 1.5,-1.390625 L 7.203125,-6.40625 c -0.3125,0.25 -0.765625,0.609375 -1.015625,0.609375 -0.25,0 -0.875,-0.265625 -1.296875,-0.4375 C 4.265625,-6.5 3.546875,-6.8125 2.875,-6.8125 c -1.375,0 -2.046875,1.015625 -2.28125,2.015625 l 0.25,0.15625 c 0.140625,-0.546875 0.4375,-1.296875 1.25,-1.296875 0.515625,0 1.453125,0.421875 2.140625,0.734375 C 3.5,-4.859375 2.59375,-4.234375 2.59375,-3.59375 c 0,0.546875 0.671875,1.265625 1.125,1.78125 0.390625,0.453125 0.953125,1.078125 0.953125,1.46875 0,0.359375 -0.078125,0.75 -0.390625,1 -0.296875,0.25 -0.671875,0.40625 -1.078125,0.40625 -0.625,0 -0.859375,-0.46875 -0.859375,-0.90625 0,-0.5625 0.25,-1.3125 0.25,-1.90625 0,-0.296875 -0.28125,-0.546875 -0.625,-0.546875 -0.640625,0 -1.25,0.296875 -1.796875,0.609375 l 0.03125,0.234375 C 0.40625,-1.5625 0.671875,-1.6875 0.84375,-1.6875 c 0.359375,0 0.515625,0.265625 0.515625,0.53125 0,0.53125 -0.140625,0.859375 -0.140625,1.296875 0,0.796875 0.46875,1.328125 1.46875,1.328125 1.484375,0 3.09375,-1.09375 3.09375,-2.375 C 5.78125,-1.5 5.078125,-2.25 4.546875,-2.796875 4.734375,-2.953125 5,-3.125 5.21875,-3.125 c 0.328125,0 0.46875,0.21875 0.65625,0.5 l 0.6875,-0.609375 c -0.203125,-0.359375 -0.390625,-0.6875 -0.703125,-0.9375 z m 0,0"
               id="id-7f9c91fb-1c24-4f8f-b0cc-762327f67ac2" />
          </symbol>
          <symbol
             overflow="visible"
             id="id-bb753f11-ba59-4233-842a-bbde75d3762b">
            <path
               style="stroke:none"
               d=""
               id="id-63d9ee83-d627-4133-9485-4a75704f5089" />
          </symbol>
          <symbol
             overflow="visible"
             id="id-638dc59c-c232-472c-a181-b7881c5ec287">
            <path
               style="stroke:none"
               d="m 2.328125,-4.4375 c 0,-0.1875 0,-0.1875 -0.203125,-0.1875 -0.453125,0.4375 -1.078125,0.4375 -1.359375,0.4375 v 0.25 c 0.15625,0 0.625,0 1,-0.1875 v 3.546875 c 0,0.234375 0,0.328125 -0.6875,0.328125 H 0.8125 V 0 c 0.125,0 0.984375,-0.03125 1.234375,-0.03125 0.21875,0 1.09375,0.03125 1.25,0.03125 V -0.25 H 3.03125 c -0.703125,0 -0.703125,-0.09375 -0.703125,-0.328125 z m 0,0"
               id="id-e8043225-f482-40b1-9803-58c25f166d26" />
          </symbol>
        </g>
      </defs>
      <g
         id="id-9ad57225-2c8f-48ca-a243-08b43858ec9b"
         transform="translate(-149.603,-127.234)">
        <g
           style="fill:#000000;fill-opacity:1"
           id="id-b6ad05bd-63f3-4c7c-b44b-b19e80aec19c">
          <g
             transform="translate(148.712,134.765)"
             id="g16276">
            <path
               style="stroke:none"
               d="M 1.3125,-7.53125 H 0.90625 c -0.015625,0 -0.015625,0 -0.015625,0.015625 v 9.9375 c 0,0.015625 0,0.015625 0.015625,0.015625 H 1.3125 c 0,0 0.015625,0 0.015625,-0.015625 v -9.9375 C 1.328125,-7.53125 1.3125,-7.53125 1.3125,-7.53125 Z m 0,0"
               id="id-68353193-4219-4aaa-83a8-a4d4f3bd391e" />
          </g>
        </g>
        <g
           style="fill:#000000;fill-opacity:1"
           id="id-6977ffe1-8c5c-4fc3-8c0e-809a602b1fef">
          <g
             transform="translate(150.926,134.765)"
             id="g16280">
            <path
               style="stroke:none"
               d="M 4.359375,-2.984375 C 4.015625,-3.34375 3.625,-3.796875 3.625,-4.21875 c 0,-0.46875 0.515625,-0.71875 0.96875,-0.859375 0.375,0.109375 0.8125,0.21875 1.21875,0.234375 0.34375,-0.265625 1.046875,-0.953125 1.5,-1.390625 L 7.203125,-6.40625 c -0.3125,0.25 -0.765625,0.609375 -1.015625,0.609375 -0.25,0 -0.875,-0.265625 -1.296875,-0.4375 C 4.265625,-6.5 3.546875,-6.8125 2.875,-6.8125 c -1.375,0 -2.046875,1.015625 -2.28125,2.015625 l 0.25,0.15625 c 0.140625,-0.546875 0.4375,-1.296875 1.25,-1.296875 0.515625,0 1.453125,0.421875 2.140625,0.734375 C 3.5,-4.859375 2.59375,-4.234375 2.59375,-3.59375 c 0,0.546875 0.671875,1.265625 1.125,1.78125 0.390625,0.453125 0.953125,1.078125 0.953125,1.46875 0,0.359375 -0.078125,0.75 -0.390625,1 -0.296875,0.25 -0.671875,0.40625 -1.078125,0.40625 -0.625,0 -0.859375,-0.46875 -0.859375,-0.90625 0,-0.5625 0.25,-1.3125 0.25,-1.90625 0,-0.296875 -0.28125,-0.546875 -0.625,-0.546875 -0.640625,0 -1.25,0.296875 -1.796875,0.609375 l 0.03125,0.234375 C 0.40625,-1.5625 0.671875,-1.6875 0.84375,-1.6875 c 0.359375,0 0.515625,0.265625 0.515625,0.53125 0,0.53125 -0.140625,0.859375 -0.140625,1.296875 0,0.796875 0.46875,1.328125 1.46875,1.328125 1.484375,0 3.09375,-1.09375 3.09375,-2.375 C 5.78125,-1.5 5.078125,-2.25 4.546875,-2.796875 4.734375,-2.953125 5,-3.125 5.21875,-3.125 c 0.328125,0 0.46875,0.21875 0.65625,0.5 l 0.6875,-0.609375 c -0.203125,-0.359375 -0.390625,-0.6875 -0.703125,-0.9375 z m 0,0"
               id="id-fd347057-097e-4896-99a3-fdfec64daea6" />
          </g>
        </g>
        <g
           style="fill:#000000;fill-opacity:1"
           id="id-415e3d7a-2288-4625-84c5-10f1338f6893">
          <g
             transform="translate(158.116,134.765)"
             id="g16284">
            <path
               style="stroke:none"
               d="M 1.3125,-7.53125 H 0.90625 c -0.015625,0 -0.015625,0 -0.015625,0.015625 v 9.9375 c 0,0.015625 0,0.015625 0.015625,0.015625 H 1.3125 c 0,0 0.015625,0 0.015625,-0.015625 v -9.9375 C 1.328125,-7.53125 1.3125,-7.53125 1.3125,-7.53125 Z m 0,0"
               id="id-116dd242-2213-42f2-8ed3-b15268d0f8fa" />
          </g>
        </g>
        <g
           style="fill:#000000;fill-opacity:1"
           id="id-927c152b-e50e-4e5e-8fa0-2dd530675e4d">
          <g
             transform="translate(160.329,136.259)"
             id="g16288">
            <path
               style="stroke:none"
               d="m 2.328125,-4.4375 c 0,-0.1875 0,-0.1875 -0.203125,-0.1875 -0.453125,0.4375 -1.078125,0.4375 -1.359375,0.4375 v 0.25 c 0.15625,0 0.625,0 1,-0.1875 v 3.546875 c 0,0.234375 0,0.328125 -0.6875,0.328125 H 0.8125 V 0 c 0.125,0 0.984375,-0.03125 1.234375,-0.03125 0.21875,0 1.09375,0.03125 1.25,0.03125 V -0.25 H 3.03125 c -0.703125,0 -0.703125,-0.09375 -0.703125,-0.328125 z m 0,0"
               id="id-fba2afc6-6f8c-4997-b4ce-b657ac61789d" />
          </g>
        </g>
      </g>
    </g>
  </g>
</svg>
