<?xml version="1.0" encoding="UTF-8" standalone="no"?>
<!-- Created with Inkscape (http://www.inkscape.org/) -->

<svg
   xmlns:ns0="http://www.iki.fi/pav/software/textext/"
   xmlns:dc="http://purl.org/dc/elements/1.1/"
   xmlns:cc="http://creativecommons.org/ns#"
   xmlns:rdf="http://www.w3.org/1999/02/22-rdf-syntax-ns#"
   xmlns:svg="http://www.w3.org/2000/svg"
   xmlns="http://www.w3.org/2000/svg"
   xmlns:sodipodi="http://sodipodi.sourceforge.net/DTD/sodipodi-0.dtd"
   xmlns:inkscape="http://www.inkscape.org/namespaces/inkscape"
   width="400"
   height="400"
   viewBox="0 0 400 400.00001"
   id="svg2"
   version="1.1"
   inkscape:version="0.91 r13725"
   sodipodi:docname="gigamesh_icon_autopolish.svg"
   inkscape:export-filename="/export/home/hmara/Desktop/GigaMesh/forms/gigamesh_icon_background_grids_highlight_center.png"
   inkscape:export-xdpi="90"
   inkscape:export-ydpi="90">
  <sodipodi:namedview
     id="base"
     pagecolor="#ffffff"
     bordercolor="#666666"
     borderopacity="1.0"
     inkscape:pageopacity="0.0"
     inkscape:pageshadow="2"
     inkscape:zoom="1.4"
     inkscape:cx="261.87951"
     inkscape:cy="174.48041"
     inkscape:document-units="px"
     inkscape:current-layer="layer2"
     showgrid="true"
     units="px"
     inkscape:snap-grids="true"
     inkscape:snap-bbox="true"
     inkscape:bbox-paths="true"
     inkscape:window-width="1920"
     inkscape:window-height="1176"
     inkscape:window-x="0"
     inkscape:window-y="24"
     inkscape:window-maximized="1"
     showguides="false">
    <inkscape:grid
       type="xygrid"
       id="grid4140"
       spacingx="5"
       spacingy="5.0000001"
       empspacing="5" />
  </sodipodi:namedview>
  <defs
     id="defs4" />
  <metadata
     id="metadata7">
    <rdf:RDF>
      <cc:Work
         rdf:about="">
        <dc:format>image/svg+xml</dc:format>
        <dc:type
           rdf:resource="http://purl.org/dc/dcmitype/StillImage" />
        <dc:title></dc:title>
      </cc:Work>
    </rdf:RDF>
  </metadata>
  <g
     inkscape:label="White Backgrund"
     inkscape:groupmode="layer"
     id="layer1"
     transform="translate(0,-652.3622)"
     sodipodi:insensitive="true"
     style="display:none">
    <rect
       style="color:#000000;clip-rule:nonzero;display:inline;overflow:visible;visibility:visible;opacity:1;isolation:auto;mix-blend-mode:normal;color-interpolation:sRGB;color-interpolation-filters:linearRGB;solid-color:#000000;solid-opacity:1;fill:#ffffff;fill-opacity:1;fill-rule:evenodd;stroke:none;stroke-width:16;stroke-linecap:butt;stroke-linejoin:miter;stroke-miterlimit:4;stroke-dasharray:none;stroke-dashoffset:0;stroke-opacity:1;marker:none;color-rendering:auto;image-rendering:auto;shape-rendering:auto;text-rendering:auto;enable-background:accumulate"
       id="rect4905"
       width="400"
       height="400"
       x="0"
       y="652.36218" />
  </g>
  <g
     inkscape:groupmode="layer"
     id="layer2"
     inkscape:label="Icon">
    <path
       style="color:#000000;clip-rule:nonzero;display:inline;overflow:visible;visibility:visible;opacity:1;isolation:auto;mix-blend-mode:normal;color-interpolation:sRGB;color-interpolation-filters:linearRGB;solid-color:#000000;solid-opacity:1;fill:#e6e6e6;fill-opacity:1;fill-rule:evenodd;stroke:none;stroke-width:7.08661413;stroke-linecap:round;stroke-linejoin:round;stroke-miterlimit:4;stroke-dasharray:none;stroke-dashoffset:0;stroke-opacity:1;marker:none;color-rendering:auto;image-rendering:auto;shape-rendering:auto;text-rendering:auto;enable-background:accumulate"
       d="m 222.25116,1.6373412 c -7.78951,1.0697159 -8.63439,10.0648498 -11.09617,15.9464978 -2.47393,7.322452 -4.59046,14.328391 -7.30226,21.549316 -12.0953,1.030105 -24.4696,0.02358 -36.53196,2.159232 -7.1036,1.404671 -7.99063,11.766919 -1.7194,14.952794 8.87702,6.496921 17.86591,12.844223 26.59678,19.538365 -2.76227,11.869399 -6.65314,23.512542 -9.31715,35.361824 -0.28248,6.95542 8.66042,10.6688 13.8498,6.37645 9.16819,-5.98383 17.98321,-13.03591 26.81361,-19.172704 10.62614,6.224274 20.39202,13.933774 31.17534,19.824974 6.58997,2.5749 13.00646,-5.10211 10.01188,-11.2968 -3.16702,-10.511124 -6.77638,-20.883916 -9.8842,-31.413219 9.37435,-7.997759 19.63764,-15.051934 28.72837,-23.294866 4.90628,-4.840263 0.2743,-13.640232 -6.40126,-13.161503 -11.59649,-0.202146 -23.19297,-0.404339 -34.78945,-0.606968 -4.28986,-10.93591 -7.74137,-22.298203 -12.69925,-32.9211152 -1.43968,-2.529768 -4.61979,-3.9063037 -7.43468,-3.8422776 z"
       id="path8570"
       inkscape:connector-curvature="0" />
    <path
       style="color:#000000;clip-rule:nonzero;display:inline;overflow:visible;visibility:visible;opacity:1;isolation:auto;mix-blend-mode:normal;color-interpolation:sRGB;color-interpolation-filters:linearRGB;solid-color:#000000;solid-opacity:1;fill:#e6e6e6;fill-opacity:1;fill-rule:evenodd;stroke:none;stroke-width:7.08661413;stroke-linecap:round;stroke-linejoin:round;stroke-miterlimit:4;stroke-dasharray:none;stroke-dashoffset:0;stroke-opacity:1;marker:none;color-rendering:auto;image-rendering:auto;shape-rendering:auto;text-rendering:auto;enable-background:accumulate"
       d="m 331.0472,18.301683 c -7.25177,2.845271 -6.94793,11.958588 -9.81327,18.104269 -2.28323,6.897255 -4.56645,13.794512 -6.84968,20.691768 -12.15539,0.739334 -24.46207,0.387322 -36.51739,2.056095 -6.59905,2.054807 -7.25543,11.516555 -1.45275,14.933302 8.62556,6.809097 17.68445,13.0414 26.48716,19.614956 -3.01124,11.948707 -7.3129,23.656017 -9.53883,35.752447 -0.0542,7.04837 9.28739,10.34938 14.26261,5.71658 9.04406,-6.12261 17.63349,-12.89475 26.7592,-18.90067 10.40646,6.43497 20.1909,14.12519 30.91647,19.89827 6.53907,2.77739 12.9936,-4.92271 10.13543,-11.10641 -3.3852,-10.6006 -6.9409,-21.14927 -10.29715,-31.760608 9.57092,-7.839374 19.79994,-15.026813 28.95912,-23.2735 4.93267,-4.862112 0.23178,-13.695085 -6.46607,-13.157505 -11.57227,-0.107296 -23.14455,-0.214536 -34.71682,-0.321227 -4.47824,-11.436186 -8.12904,-23.300408 -13.12577,-34.468329 -1.59001,-3.2539 -5.38201,-4.276333 -8.74226,-3.779438 z"
       id="path8572"
       inkscape:connector-curvature="0" />
    <path
       style="color:#000000;clip-rule:nonzero;display:inline;overflow:visible;visibility:visible;opacity:1;isolation:auto;mix-blend-mode:normal;color-interpolation:sRGB;color-interpolation-filters:linearRGB;solid-color:#000000;solid-opacity:1;fill:#e6e6e6;fill-opacity:1;fill-rule:evenodd;stroke:none;stroke-width:7.08661413;stroke-linecap:round;stroke-linejoin:round;stroke-miterlimit:4;stroke-dasharray:none;stroke-dashoffset:0;stroke-opacity:1;marker:none;color-rendering:auto;image-rendering:auto;shape-rendering:auto;text-rendering:auto;enable-background:accumulate"
       d="M 120.50586 30.423828 C 120.13382 30.419178 119.7591 30.428865 119.38281 30.455078 C 112.60914 30.122413 106.46562 35.14398 105.10352 41.722656 C 82.664854 105.42177 61.153525 169.51744 38.335938 233.02734 C 34.005702 241.79913 23.643089 244.70153 14.578125 245.02539 C 9.6353518 244.64226 4.3205095 247.88772 4.2929688 253.22852 C 4.7482672 258.5229 2.6300821 265.47735 7.6601562 269.08789 C 11.812123 272.19852 17.082252 269.55636 21.800781 270.11523 C 40.110637 269.99987 58.509402 269.72641 76.828125 270.375 C 81.760887 271.81784 87.435033 268.73223 87.947266 263.40625 C 87.502718 258.00064 89.620283 251.22487 85.037109 247.1582 C 80.495807 243.84055 74.63088 245.77783 69.75 243.06445 C 66.60346 241.87153 63.751428 238.84125 64.886719 235.24219 C 68.478261 222.976 73.196196 211.06448 77.369141 198.98633 L 143.42773 198.98633 C 148.52783 213.52058 153.68014 228.22097 158.47852 242.93555 C 151.79809 245.72038 144.32965 244.37974 137.41602 245.76367 C 132.66608 247.86802 132.19384 253.37645 132.58203 257.91797 C 132.15282 262.59206 132.79586 268.34792 137.8418 270.24023 C 141.90591 271.10566 145.96782 269.70079 150.11328 270.10547 C 174.43281 269.93787 199.05011 269.78755 223.22852 270.26953 C 224.61589 270.73807 226.06297 270.80244 227.44141 270.55469 C 227.47622 294.32615 227.51023 318.09768 227.54492 341.86914 C 226.4649 344.09089 223.10193 343.15388 221.04492 343.67578 C 214.09522 344.36722 206.81032 343.39007 199.86914 344.96094 C 195.05504 347.23079 194.89049 352.88516 195.21289 357.49023 C 194.68015 362.12097 195.82302 367.98015 200.9707 369.33398 C 206.10375 370.05044 211.31726 368.76687 216.51367 369.10547 C 241.48537 368.97204 266.51888 368.69243 291.49609 369.36133 C 296.08635 370.51975 302.16203 368.98136 303.21094 363.76758 C 303.94898 359.36805 303.85553 354.66667 303.23242 350.24805 C 302.21238 345.09516 296.36302 343.66138 291.79297 344.13281 C 285.09948 343.72428 278.25025 344.39328 271.67188 342.76367 C 270.57322 337.42262 271.25894 331.61471 270.95703 326.0957 C 270.78016 307.66878 270.84428 289.1846 270.81641 270.70703 C 289.3175 270.51705 307.86388 271.1685 326.33398 269.96289 C 351.24564 267.11182 376.22114 254.01578 388.69336 231.60547 C 397.13382 216.85638 397.58533 198.16518 390.27734 182.87305 C 380.19556 160.91575 357.78031 147.04039 334.79102 141.96875 C 325.76197 139.26662 316.2946 140.62012 307.02344 140.26953 C 272.26413 140.25513 237.47866 139.96727 202.73633 140.12305 L 200.0625 140.66992 C 195.22305 142.79842 194.84209 148.41547 195.21289 153.00977 C 194.66813 157.58649 195.95863 163.22543 200.9668 164.59766 C 209.65215 165.92333 218.74186 164.50925 227.28906 166.89062 C 227.32763 193.0794 227.3659 219.26825 227.4043 245.45703 C 223.59421 244.63959 219.37586 245.34857 215.49805 244.85547 C 211.82331 244.31949 207.05884 245.15934 204.30078 242.18945 C 200.26656 234.62781 198.42403 226.08801 195.32227 218.11914 C 174.61815 158.4822 154.40642 98.671581 133.14062 39.232422 C 131.10768 33.980274 126.0864 30.493583 120.50586 30.423828 z M 110.32812 103.97656 L 111.04492 106.00195 C 118.99563 128.58455 126.90864 151.21149 134.64844 173.79102 C 118.61429 173.92665 102.32312 173.92159 86.269531 173.83203 C 94.201229 150.51653 102.24389 127.23961 110.32812 103.97656 z M 291.59766 165.39844 C 305.27801 165.73351 319.96541 163.94326 332.43359 170.88867 C 342.96723 176.25343 347.38026 188.63104 347.15625 199.85547 C 346.8523 208.64873 347.97209 217.86396 344.8457 226.27344 C 341.92562 234.62093 334.9175 241.08889 326.50391 243.68359 C 314.42633 247.85412 301.49569 246.18969 289.0332 246.62305 C 282.79078 246.62705 276.54907 246.62351 270.30664 246.625 C 270.46195 219.8948 269.97031 193.13576 270.625 166.49023 C 271.21938 164.73468 274.68986 165.9494 276.42578 165.48047 C 281.46786 165.38807 286.47386 165.41034 291.59766 165.39844 z "
       id="path4419" />
    <g
       id="g4355"
       transform="matrix(15.721449,0,0,15.721449,-3024.7656,-2993.854)">
      <g
         ns0:preamble="/export/home/hmara/.config/inkscape/extensions/default_packages.tex"
         ns0:text="A"
         word-spacing="normal"
         letter-spacing="normal"
         font-size-adjust="none"
         font-stretch="normal"
         font-weight="normal"
         font-variant="normal"
         font-style="normal"
         stroke-miterlimit="10.433"
         xml:space="preserve"
         transform="matrix(2,0,0,-2,-104.88,1621.38)"
         id="content"
         style="font-style:normal;font-variant:normal;font-weight:normal;font-stretch:normal;letter-spacing:normal;word-spacing:normal;text-anchor:start;fill:#000000;fill-opacity:1;fill-rule:evenodd;stroke:#000000;stroke-linecap:butt;stroke-linejoin:miter;stroke-miterlimit:10.43299961;stroke-dasharray:none;stroke-dashoffset:0;stroke-opacity:1"><path
           id="path4317"
           d="m 152.68,714.06 -0.01,0.01 0,0.01 -0.01,0.01 0,0.01 -0.01,0.01 0,0.01 -0.01,0.01 0,0.01 0,0.01 -0.01,0.01 0,0.01 -0.01,0.01 0,0 -0.01,0.01 0,0.01 -0.01,0 0,0.01 -0.01,0.01 -0.01,0 0,0.01 -0.01,0 -0.01,0.01 -0.01,0 -0.01,0 -0.01,0.01 -0.01,0 -0.01,0 -0.01,0 -0.01,0 -0.02,0.01 -0.01,0 -0.01,0 c -0.16,0 -0.19,-0.06 -0.24,-0.2 l -2.06,-5.96 c -0.19,-0.51 -0.58,-0.66 -1.12,-0.67 l 0,-0.31 c 0.23,0.01 0.66,0.03 1.01,0.03 0.31,0 0.83,-0.02 1.15,-0.03 l 0,0.31 c -0.5,0 -0.75,0.25 -0.75,0.51 0,0.03 0.01,0.13 0.02,0.15 l 0.46,1.3 0.11,0.31 1.12,3.24 1.12,-3.24 -2.24,0 -0.11,-0.31 2.46,0 0.53,-1.52 c 0.01,-0.04 0.03,-0.1 0.03,-0.14 0,-0.3 -0.56,-0.3 -0.83,-0.3 l 0,-0.31 c 0.36,0.03 1.06,0.03 1.44,0.03 0.43,0 0.88,-0.01 1.3,-0.03 l 0,0.31 -0.18,0 c -0.59,0 -0.73,0.07 -0.84,0.4 z"
           inkscape:connector-curvature="0"
           style="fill:#000000;stroke-width:0" /></g>      <g
         id="g4341"
         transform="matrix(2,0,0,-2,-92.802288,1627.6853)"
         xml:space="preserve"
         stroke-miterlimit="10.433"
         font-style="normal"
         font-variant="normal"
         font-weight="normal"
         font-stretch="normal"
         font-size-adjust="none"
         letter-spacing="normal"
         word-spacing="normal"
         ns0:text="P"
         ns0:preamble="/export/home/hmara/.config/inkscape/extensions/default_packages.tex"
         style="font-style:normal;font-variant:normal;font-weight:normal;font-stretch:normal;letter-spacing:normal;word-spacing:normal;text-anchor:start;fill:#000000;fill-opacity:1;fill-rule:evenodd;stroke:#000000;stroke-linecap:butt;stroke-linejoin:miter;stroke-miterlimit:10.43299961;stroke-dasharray:none;stroke-dashoffset:0;stroke-opacity:1"><path
           inkscape:connector-curvature="0"
           d="m 150.97,710.27 -0.03,0.26 0,2.69 c 0,0.33 0.02,0.4 0.49,0.4 l 0.89,0 c 1.58,0 1.58,-1.06 1.58,-1.55 0,-0.46 0,-1.54 -1.58,-1.54 l -1.38,0 0.03,-0.26 1.68,0 c 1.2,0 2.28,0.81 2.28,1.8 0,0.98 -0.99,1.86 -2.35,1.86 l -3.52,0 0,-0.31 0.24,0 c 0.77,0 0.79,-0.11 0.79,-0.47 l 0,-5.25 c 0,-0.36 -0.02,-0.47 -0.79,-0.47 l -0.24,0 0,-0.31 c 0.35,0.03 1.09,0.03 1.46,0.03 0.38,0 1.13,0 1.48,-0.03 l 0,0.31 -0.24,0 c -0.77,0 -0.79,0.11 -0.79,0.47 z"
           font-size-adjust="none"
           font-stretch="normal"
           font-style="normal"
           font-variant="normal"
           font-weight="normal"
           letter-spacing="normal"
           stroke-miterlimit="10.433"
           word-spacing="normal"
           style="font-style:normal;font-variant:normal;font-weight:normal;font-stretch:normal;letter-spacing:normal;word-spacing:normal;text-anchor:start;fill:#000000;fill-opacity:1;fill-rule:evenodd;stroke:#000000;stroke-width:0;stroke-linecap:butt;stroke-linejoin:miter;stroke-miterlimit:10.43299961;stroke-dasharray:none;stroke-dashoffset:0;stroke-opacity:1"
           id="path4343" /></g>    </g>
    <g
       transform="matrix(15.721449,0,0,15.721449,-3024.7656,-2993.854)"
       id="g4361"
       style="">
      <g
         style="font-style:normal;font-variant:normal;font-weight:normal;font-stretch:normal;letter-spacing:normal;word-spacing:normal;text-anchor:start;fill:#000000;fill-opacity:1;fill-rule:evenodd;stroke:#000000;stroke-linecap:butt;stroke-linejoin:miter;stroke-miterlimit:10.43299961;stroke-dasharray:none;stroke-dashoffset:0;stroke-opacity:1"
         id="g4363"
         transform="matrix(2,0,0,-2,-104.88,1621.38)"
         xml:space="preserve"
         stroke-miterlimit="10.433"
         font-style="normal"
         font-variant="normal"
         font-weight="normal"
         font-stretch="normal"
         font-size-adjust="none"
         letter-spacing="normal"
         word-spacing="normal"
         ns0:text="A"
         ns0:preamble="/export/home/hmara/.config/inkscape/extensions/default_packages.tex"><path
           style="fill:#000000;stroke-width:0"
           inkscape:connector-curvature="0"
           d="m 152.68,714.06 -0.01,0.01 0,0.01 -0.01,0.01 0,0.01 -0.01,0.01 0,0.01 -0.01,0.01 0,0.01 0,0.01 -0.01,0.01 0,0.01 -0.01,0.01 0,0 -0.01,0.01 0,0.01 -0.01,0 0,0.01 -0.01,0.01 -0.01,0 0,0.01 -0.01,0 -0.01,0.01 -0.01,0 -0.01,0 -0.01,0.01 -0.01,0 -0.01,0 -0.01,0 -0.01,0 -0.02,0.01 -0.01,0 -0.01,0 c -0.16,0 -0.19,-0.06 -0.24,-0.2 l -2.06,-5.96 c -0.19,-0.51 -0.58,-0.66 -1.12,-0.67 l 0,-0.31 c 0.23,0.01 0.66,0.03 1.01,0.03 0.31,0 0.83,-0.02 1.15,-0.03 l 0,0.31 c -0.5,0 -0.75,0.25 -0.75,0.51 0,0.03 0.01,0.13 0.02,0.15 l 0.46,1.3 0.11,0.31 1.12,3.24 1.12,-3.24 -2.24,0 -0.11,-0.31 2.46,0 0.53,-1.52 c 0.01,-0.04 0.03,-0.1 0.03,-0.14 0,-0.3 -0.56,-0.3 -0.83,-0.3 l 0,-0.31 c 0.36,0.03 1.06,0.03 1.44,0.03 0.43,0 0.88,-0.01 1.3,-0.03 l 0,0.31 -0.18,0 c -0.59,0 -0.73,0.07 -0.84,0.4 z"
           id="path4365" /></g>      <g
         style="font-style:normal;font-variant:normal;font-weight:normal;font-stretch:normal;letter-spacing:normal;word-spacing:normal;text-anchor:start;fill:#000000;fill-opacity:1;fill-rule:evenodd;stroke:#000000;stroke-linecap:butt;stroke-linejoin:miter;stroke-miterlimit:10.43299961;stroke-dasharray:none;stroke-dashoffset:0;stroke-opacity:1"
         ns0:preamble="/export/home/hmara/.config/inkscape/extensions/default_packages.tex"
         ns0:text="P"
         word-spacing="normal"
         letter-spacing="normal"
         font-size-adjust="none"
         font-stretch="normal"
         font-weight="normal"
         font-variant="normal"
         font-style="normal"
         stroke-miterlimit="10.433"
         xml:space="preserve"
         transform="matrix(2,0,0,-2,-92.802288,1627.6853)"
         id="g4367"><path
           id="path4369"
           style="font-style:normal;font-variant:normal;font-weight:normal;font-stretch:normal;letter-spacing:normal;word-spacing:normal;text-anchor:start;fill:#000000;fill-opacity:1;fill-rule:evenodd;stroke:#000000;stroke-width:0;stroke-linecap:butt;stroke-linejoin:miter;stroke-miterlimit:10.43299961;stroke-dasharray:none;stroke-dashoffset:0;stroke-opacity:1"
           word-spacing="normal"
           stroke-miterlimit="10.433"
           letter-spacing="normal"
           font-weight="normal"
           font-variant="normal"
           font-style="normal"
           font-stretch="normal"
           font-size-adjust="none"
           d="m 150.97,710.27 -0.03,0.26 0,2.69 c 0,0.33 0.02,0.4 0.49,0.4 l 0.89,0 c 1.58,0 1.58,-1.06 1.58,-1.55 0,-0.46 0,-1.54 -1.58,-1.54 l -1.38,0 0.03,-0.26 1.68,0 c 1.2,0 2.28,0.81 2.28,1.8 0,0.98 -0.99,1.86 -2.35,1.86 l -3.52,0 0,-0.31 0.24,0 c 0.77,0 0.79,-0.11 0.79,-0.47 l 0,-5.25 c 0,-0.36 -0.02,-0.47 -0.79,-0.47 l -0.24,0 0,-0.31 c 0.35,0.03 1.09,0.03 1.46,0.03 0.38,0 1.13,0 1.48,-0.03 l 0,0.31 -0.24,0 c -0.77,0 -0.79,0.11 -0.79,0.47 z"
           inkscape:connector-curvature="0" /></g>    </g>
    <path
       sodipodi:type="star"
       style="color:#000000;clip-rule:nonzero;display:inline;overflow:visible;visibility:visible;opacity:1;isolation:auto;mix-blend-mode:normal;color-interpolation:sRGB;color-interpolation-filters:linearRGB;solid-color:#000000;solid-opacity:1;fill:#ff0000;fill-opacity:1;fill-rule:evenodd;stroke:none;stroke-width:46;stroke-linecap:round;stroke-linejoin:round;stroke-miterlimit:4;stroke-dasharray:none;stroke-dashoffset:0;stroke-opacity:1;marker:none;color-rendering:auto;image-rendering:auto;shape-rendering:auto;text-rendering:auto;enable-background:accumulate"
       id="path7211"
       sodipodi:sides="5"
       sodipodi:cx="333.95795"
       sodipodi:cy="83.406395"
       sodipodi:r1="58.366402"
       sodipodi:r2="23.34656"
       sodipodi:arg1="0.92729522"
       sodipodi:arg2="1.5707963"
       inkscape:flatsided="false"
       inkscape:rounded="0"
       inkscape:randomized="0"
       d="m 368.97779,130.09952 -35.01984,-23.34657 -33.58607,24.38826 11.38217,-40.520331 -33.57328,-24.405867 42.05441,-1.69638 12.83665,-39.471912 14.60888,39.471911 41.50676,0.01088 -33.02563,26.091363 z"
       inkscape:transform-center-x="1.9951076"
       inkscape:transform-center-y="-1.9951025" />
    <g
       id="g8582"
       transform="translate(40.714285,-2.1428571)">
      <path
         inkscape:connector-curvature="0"
         id="path8574"
         d="m 63.057526,271.95681 c -4.938663,4.71553 -5.234144,12.28876 -7.889229,18.31301 -1.978218,6.05014 -3.921171,12.11174 -5.883092,18.16718 -12.10482,0.98644 -24.441882,0.0351 -36.40625,2.14286 -6.2215688,2.38225 -6.7083207,11.28468 -1.363002,14.88281 8.251824,7.03539 17.450007,12.85233 25.87751,19.66797 -2.85747,11.7685 -6.791407,23.33402 -9.414013,35.11395 -0.386954,7.01675 8.6868,10.64862 13.855978,6.38717 9.227701,-5.86229 17.835136,-12.63476 26.714564,-18.99972 10.540321,6.24305 20.307099,13.7561 30.98772,19.7447 6.592238,2.69045 13.351848,-4.94481 10.287398,-11.26116 -3.13004,-10.51962 -6.66564,-20.91232 -9.993033,-31.36998 9.470383,-7.91203 19.694083,-15.05031 28.810943,-23.29435 4.90053,-4.84263 0.26699,-13.6359 -6.4057,-13.15785 -11.57742,-0.20204 -23.154843,-0.40415 -34.732251,-0.60695 -4.541381,-11.35244 -7.845194,-23.31996 -13.498882,-34.16714 -2.9136,-3.25198 -7.221581,-3.73637 -10.948661,-1.5625 z"
         style="color:#000000;clip-rule:nonzero;display:inline;overflow:visible;visibility:visible;opacity:1;isolation:auto;mix-blend-mode:normal;color-interpolation:sRGB;color-interpolation-filters:linearRGB;solid-color:#000000;solid-opacity:1;fill:#e6e6e6;fill-opacity:1;fill-rule:evenodd;stroke:none;stroke-width:7.08661413;stroke-linecap:round;stroke-linejoin:round;stroke-miterlimit:4;stroke-dasharray:none;stroke-dashoffset:0;stroke-opacity:1;marker:none;color-rendering:auto;image-rendering:auto;shape-rendering:auto;text-rendering:auto;enable-background:accumulate" />
      <path
         sodipodi:type="star"
         style="color:#000000;clip-rule:nonzero;display:inline;overflow:visible;visibility:visible;opacity:1;isolation:auto;mix-blend-mode:normal;color-interpolation:sRGB;color-interpolation-filters:linearRGB;solid-color:#000000;solid-opacity:1;fill:#0000ff;fill-opacity:1;fill-rule:evenodd;stroke:none;stroke-width:46;stroke-linecap:round;stroke-linejoin:round;stroke-miterlimit:4;stroke-dasharray:none;stroke-dashoffset:0;stroke-opacity:1;marker:none;color-rendering:auto;image-rendering:auto;shape-rendering:auto;text-rendering:auto;enable-background:accumulate"
         id="path7213"
         sodipodi:sides="5"
         sodipodi:cx="68.626724"
         sodipodi:cy="334.7471"
         sodipodi:r1="58.366402"
         sodipodi:r2="23.34656"
         sodipodi:arg1="0.92729522"
         sodipodi:arg2="1.5707963"
         inkscape:flatsided="false"
         inkscape:rounded="0"
         inkscape:randomized="0"
         d="M 103.64657,381.44022 68.626725,358.09366 35.040653,382.48192 46.422827,341.96159 12.84955,317.55572 l 42.05441,-1.69638 12.836646,-39.47191 14.608881,39.47191 41.506763,0.0109 -33.025628,26.09136 z"
         inkscape:transform-center-x="1.9950896"
         inkscape:transform-center-y="-1.9950774" />
    </g>
    <g
       id="g8578"
       transform="translate(-157.88569,-10.96779)">
      <path
         inkscape:connector-curvature="0"
         id="path8576"
         d="m 491.94843,292.93198 c -6.78655,2.97305 -6.47281,11.68566 -9.23547,17.54767 -2.1021,6.45593 -4.17478,12.92157 -6.25979,19.38314 -12.1152,0.98808 -24.46284,0.0386 -36.43694,2.14843 -6.21578,2.40079 -6.70322,11.3032 -1.34626,14.90235 8.30604,7.01644 17.38548,13.04533 26.11328,19.51311 -3.22271,12.24176 -7.3166,24.33963 -10.05999,36.65597 0.0138,7.03365 9.40042,10.56251 14.19211,5.49001 8.89526,-6.61181 17.92397,-13.07748 26.89466,-19.46183 10.48534,6.25262 20.22782,13.72787 30.87891,19.68471 6.5324,2.67392 13.28752,-4.8377 10.33622,-11.13281 -3.1027,-10.54754 -6.64319,-20.95935 -9.98745,-31.43136 9.36197,-8.03979 19.62729,-15.01888 28.80091,-23.34509 4.9319,-4.86295 0.23319,-13.6965 -6.4655,-13.1585 -11.51693,-0.10736 -23.03387,-0.21465 -34.55081,-0.32119 -4.49193,-10.9718 -7.65258,-22.60127 -13.05524,-33.20591 -2.11286,-3.17475 -6.2274,-4.46973 -9.81864,-3.2687 z"
         style="color:#000000;clip-rule:nonzero;display:inline;overflow:visible;visibility:visible;opacity:1;isolation:auto;mix-blend-mode:normal;color-interpolation:sRGB;color-interpolation-filters:linearRGB;solid-color:#000000;solid-opacity:1;fill:#e6e6e6;fill-opacity:1;fill-rule:evenodd;stroke:none;stroke-width:7.08661413;stroke-linecap:round;stroke-linejoin:round;stroke-miterlimit:4;stroke-dasharray:none;stroke-dashoffset:0;stroke-opacity:1;marker:none;color-rendering:auto;image-rendering:auto;shape-rendering:auto;text-rendering:auto;enable-background:accumulate" />
      <path
         inkscape:transform-center-y="-1.9950784"
         inkscape:transform-center-x="1.9951069"
         d="m 530.81501,402.86881 -35.01984,-23.34656 -33.58608,24.38826 11.38218,-40.52034 -33.57328,-24.40586 42.05441,-1.69638 12.83665,-39.47192 14.60888,39.47192 41.50676,0.0109 -33.02563,26.09136 z"
         inkscape:randomized="0"
         inkscape:rounded="0"
         inkscape:flatsided="false"
         sodipodi:arg2="1.5707963"
         sodipodi:arg1="0.92729522"
         sodipodi:r2="23.34656"
         sodipodi:r1="58.366402"
         sodipodi:cy="356.17569"
         sodipodi:cx="495.79517"
         sodipodi:sides="5"
         id="path7215"
         style="color:#000000;clip-rule:nonzero;display:inline;overflow:visible;visibility:visible;opacity:1;isolation:auto;mix-blend-mode:normal;color-interpolation:sRGB;color-interpolation-filters:linearRGB;solid-color:#000000;solid-opacity:1;fill:#808000;fill-opacity:1;fill-rule:evenodd;stroke:none;stroke-width:46;stroke-linecap:round;stroke-linejoin:round;stroke-miterlimit:4;stroke-dasharray:none;stroke-dashoffset:0;stroke-opacity:1;marker:none;color-rendering:auto;image-rendering:auto;shape-rendering:auto;text-rendering:auto;enable-background:accumulate"
         sodipodi:type="star" />
    </g>
    <path
       sodipodi:type="star"
       style="color:#000000;clip-rule:nonzero;display:inline;overflow:visible;visibility:visible;opacity:1;isolation:auto;mix-blend-mode:normal;color-interpolation:sRGB;color-interpolation-filters:linearRGB;solid-color:#000000;solid-opacity:1;fill:#800080;fill-opacity:1;fill-rule:evenodd;stroke:none;stroke-width:46;stroke-linecap:round;stroke-linejoin:round;stroke-miterlimit:4;stroke-dasharray:none;stroke-dashoffset:0;stroke-opacity:1;marker:none;color-rendering:auto;image-rendering:auto;shape-rendering:auto;text-rendering:auto;enable-background:accumulate"
       id="path7217"
       sodipodi:sides="5"
       sodipodi:cx="223.49374"
       sodipodi:cy="65.50253"
       sodipodi:r1="58.366402"
       sodipodi:r2="23.34656"
       sodipodi:arg1="0.92729522"
       sodipodi:arg2="1.5707963"
       inkscape:flatsided="false"
       inkscape:rounded="0"
       inkscape:randomized="0"
       d="M 258.51358,112.19565 223.49374,88.849092 189.90767,113.23735 201.28985,72.717017 167.71657,48.31115 l 42.05441,-1.69638 12.83665,-39.4719118 14.60888,39.4719108 41.50676,0.01088 -33.02563,26.091363 z"
       inkscape:transform-center-x="1.9950942"
       inkscape:transform-center-y="-1.9950939" />
  </g>
</svg>
