<?xml version="1.0" encoding="UTF-8" standalone="no"?>
<svg
   xmlns:dc="http://purl.org/dc/elements/1.1/"
   xmlns:cc="http://creativecommons.org/ns#"
   xmlns:rdf="http://www.w3.org/1999/02/22-rdf-syntax-ns#"
   xmlns:svg="http://www.w3.org/2000/svg"
   xmlns="http://www.w3.org/2000/svg"
   xmlns:sodipodi="http://sodipodi.sourceforge.net/DTD/sodipodi-0.dtd"
   xmlns:inkscape="http://www.inkscape.org/namespaces/inkscape"
   inkscape:export-ydpi="90"
   inkscape:export-xdpi="90"
   inkscape:export-filename="/export/home/hmara/Desktop/GigaMesh/forms/gigamesh_icon_background_grids_highlight_center.png"
   sodipodi:docname="gigamesh_icon_empty.svg"
   inkscape:version="1.0 (4035a4fb49, 2020-05-01)"
   version="1.1"
   id="svg2"
   viewBox="0 0 400 400.00001"
   height="400"
   width="400">
  <defs
     id="defs4">
    <g
       id="g1315">
      <symbol
         id="symbol1309"
         overflow="visible">
        <path
           id="path1307"
           d=""
           style="stroke:none" />
      </symbol>
      <symbol
         id="symbol1313"
         overflow="visible">
        <path
           id="path1311"
           d="m 2.9375,-1.640625 v 0.859375 c 0,0.359375 -0.03125,0.46875 -0.765625,0.46875 H 1.96875 V 0 C 2.375,-0.03125 2.890625,-0.03125 3.3125,-0.03125 c 0.421875,0 0.9375,0 1.359375,0.03125 v -0.3125 h -0.21875 c -0.734375,0 -0.75,-0.109375 -0.75,-0.46875 V -1.640625 H 4.6875 v -0.3125 H 3.703125 v -4.53125 c 0,-0.203125 0,-0.265625 -0.171875,-0.265625 -0.078125,0 -0.109375,0 -0.1875,0.125 l -3.0625,4.671875 v 0.3125 z m 0.046875,-0.3125 H 0.5625 l 2.421875,-3.71875 z m 0,0"
           style="stroke:none" />
      </symbol>
    </g>
    <g
       id="g1337">
      <symbol
         id="symbol1331"
         overflow="visible">
        <path
           id="path1329"
           d=""
           style="stroke:none" />
      </symbol>
      <symbol
         id="symbol1335"
         overflow="visible">
        <path
           id="path1333"
           d="m 7.1875,-3.375 c 0,-2.03125 -1.5,-3.65625 -3.3125,-3.65625 -1.796875,0 -3.3125,1.59375 -3.3125,3.65625 0,2.046875 1.53125,3.59375 3.3125,3.59375 1.8125,0 3.3125,-1.578125 3.3125,-3.59375 z M 3.875,-0.046875 c -0.953125,0 -2.296875,-0.875 -2.296875,-3.46875 0,-2.578125 1.46875,-3.265625 2.296875,-3.265625 0.859375,0 2.28125,0.703125 2.28125,3.265625 0,2.640625 -1.359375,3.46875 -2.28125,3.46875 z m 0,0"
           style="stroke:none" />
      </symbol>
    </g>
  </defs>
  <sodipodi:namedview
     inkscape:document-rotation="0"
     inkscape:window-maximized="1"
     inkscape:window-y="27"
     inkscape:window-x="45"
     inkscape:window-height="1016"
     inkscape:window-width="1875"
     inkscape:bbox-paths="true"
     inkscape:snap-bbox="true"
     inkscape:snap-grids="true"
     units="px"
     showgrid="true"
     inkscape:current-layer="layer2"
     inkscape:document-units="px"
     inkscape:cy="213.55471"
     inkscape:cx="140.7395"
     inkscape:zoom="0.9899495"
     inkscape:pageshadow="2"
     inkscape:pageopacity="0.0"
     borderopacity="1.0"
     bordercolor="#666666"
     pagecolor="#ffffff"
     id="base">
    <inkscape:grid
       empspacing="5"
       spacingy="5.0000001"
       spacingx="5"
       id="grid4140"
       type="xygrid" />
  </sodipodi:namedview>
  <metadata
     id="metadata7">
    <rdf:RDF>
      <cc:Work
         rdf:about="">
        <dc:format>image/svg+xml</dc:format>
        <dc:type
           rdf:resource="http://purl.org/dc/dcmitype/StillImage" />
        <dc:title />
      </cc:Work>
    </rdf:RDF>
  </metadata>
  <g
     style="display:none"
     sodipodi:insensitive="true"
     transform="translate(0,-652.3622)"
     id="layer1"
     inkscape:groupmode="layer"
     inkscape:label="White Backgrund">
    <rect
       y="652.36218"
       x="0"
       height="400"
       width="400"
       id="rect4905"
       style="color:#000000;clip-rule:nonzero;display:inline;overflow:visible;visibility:visible;opacity:1;isolation:auto;mix-blend-mode:normal;color-interpolation:sRGB;color-interpolation-filters:linearRGB;solid-color:#000000;solid-opacity:1;fill:#ffffff;fill-opacity:1;fill-rule:evenodd;stroke:none;stroke-width:16;stroke-linecap:butt;stroke-linejoin:miter;stroke-miterlimit:4;stroke-dasharray:none;stroke-dashoffset:0;stroke-opacity:1;marker:none;color-rendering:auto;image-rendering:auto;shape-rendering:auto;text-rendering:auto;enable-background:accumulate" />
  </g>
  <g
     inkscape:label="Icon"
     id="layer2"
     inkscape:groupmode="layer" />
</svg>
