<?xml version="1.0" encoding="UTF-8" standalone="no"?>
<!-- Created with Inkscape (http://www.inkscape.org/) -->

<svg
   width="400"
   height="400"
   viewBox="0 0 400 400.00001"
   id="svg2"
   version="1.1"
   inkscape:version="1.1.2 (0a00cf5339, 2022-02-04)"
   sodipodi:docname="gigamesh_icon_feature_vector_element_index.svg"
   inkscape:export-filename="/export/home/hmara/Desktop/GigaMesh/forms/gigamesh_icon_background_grids_highlight_center.png"
   inkscape:export-xdpi="90"
   inkscape:export-ydpi="90"
   xmlns:inkscape="http://www.inkscape.org/namespaces/inkscape"
   xmlns:sodipodi="http://sodipodi.sourceforge.net/DTD/sodipodi-0.dtd"
   xmlns="http://www.w3.org/2000/svg"
   xmlns:svg="http://www.w3.org/2000/svg"
   xmlns:rdf="http://www.w3.org/1999/02/22-rdf-syntax-ns#"
   xmlns:cc="http://creativecommons.org/ns#"
   xmlns:dc="http://purl.org/dc/elements/1.1/"
   xmlns:ns1="http://www.iki.fi/pav/software/textext/">
  <defs
     id="defs4" />
  <sodipodi:namedview
     id="base"
     pagecolor="#ffffff"
     bordercolor="#666666"
     borderopacity="1.0"
     inkscape:pageopacity="0.0"
     inkscape:pageshadow="2"
     inkscape:zoom="1.979899"
     inkscape:cx="190.41375"
     inkscape:cy="207.08127"
     inkscape:document-units="px"
     inkscape:current-layer="layer2"
     showgrid="true"
     units="px"
     inkscape:snap-grids="true"
     inkscape:snap-bbox="true"
     inkscape:bbox-paths="true"
     inkscape:window-width="2122"
     inkscape:window-height="1177"
     inkscape:window-x="0"
     inkscape:window-y="0"
     inkscape:window-maximized="1"
     inkscape:pagecheckerboard="0">
    <inkscape:grid
       type="xygrid"
       id="grid4140"
       spacingx="5"
       spacingy="5.0000001"
       empspacing="5" />
  </sodipodi:namedview>
  <metadata
     id="metadata7">
    <rdf:RDF>
      <cc:Work
         rdf:about="">
        <dc:format>image/svg+xml</dc:format>
        <dc:type
           rdf:resource="http://purl.org/dc/dcmitype/StillImage" />
      </cc:Work>
    </rdf:RDF>
  </metadata>
  <g
     inkscape:label="White Backgrund"
     inkscape:groupmode="layer"
     id="layer1"
     transform="translate(0,-652.3622)"
     sodipodi:insensitive="true"
     style="display:none">
    <rect
       style="color:#000000;clip-rule:nonzero;display:inline;overflow:visible;visibility:visible;opacity:1;isolation:auto;mix-blend-mode:normal;color-interpolation:sRGB;color-interpolation-filters:linearRGB;solid-color:#000000;solid-opacity:1;fill:#ffffff;fill-opacity:1;fill-rule:evenodd;stroke:none;stroke-width:16;stroke-linecap:butt;stroke-linejoin:miter;stroke-miterlimit:4;stroke-dasharray:none;stroke-dashoffset:0;stroke-opacity:1;marker:none;color-rendering:auto;image-rendering:auto;shape-rendering:auto;text-rendering:auto;enable-background:accumulate"
       id="rect4905"
       width="400"
       height="400"
       x="0"
       y="652.36218" />
  </g>
  <g
     inkscape:groupmode="layer"
     id="layer2"
     inkscape:label="Icon">
    <path
       id="path17962"
       style="fill:#e6e6e6;stroke-width:5.9658;stroke-linecap:round;stop-color:#000000"
       d="M 121.53036,20.44799 C 107.37767,20.41016 93.08654,23.038717 80.257505,29.140289 64.191253,36.418405 50.645443,48.632773 40.655368,63.071621 33.664506,73.145731 28.247576,84.299755 24.588747,96.000968 c -1.865266,5.425432 -3.939101,11.039992 -3.434674,16.878102 0.322833,4.06601 2.083591,7.99058 4.950729,10.89896 4.228139,4.51708 9.945457,7.53207 15.959534,8.85873 6.443178,1.10192 13.15546,-2.12705 16.870134,-7.39442 1.706648,-2.32661 2.718643,-5.08186 3.31418,-7.8837 2.464367,-7.7217 5.327706,-15.59669 10.367678,-22.120495 3.532329,-4.557108 8.367231,-8.395797 14.113549,-9.592065 2.511057,-0.580306 5.105344,-0.723099 7.674972,-0.617323 0.385842,0.01537 1.198565,0.06485 1.744371,0.11396 6.76777,0.629228 13.29304,2.68582 19.74166,4.730398 8.11337,2.658459 16.00677,5.776543 23.86251,9.049096 -11.85207,7.877539 -23.23474,16.987999 -31.68017,28.588129 -3.96557,5.48719 -7.425,11.44731 -9.423457,17.94708 -3.181112,10.51106 -2.417466,22.12277 1.988837,32.17148 3.28251,8.26255 7.91684,15.91853 13.089,23.12478 -9.18149,-7.09516 -21.290371,-9.89275 -32.724771,-8.44773 -17.636502,1.53148 -34.572799,7.54084 -50.374565,15.30175 -6.133462,3.03315 -12.197665,6.22599 -18.057109,9.76034 -5.2600381,3.61768 -8.0287647,10.11428 -7.9372014,16.39359 0.042763,2.4024 0.5247777,4.77315 0.9212213,7.13503 1.8265667,7.8836 9.6608181,13.98485 17.7938641,13.48974 4.480344,-0.26297 8.48771,-2.50403 12.498951,-4.30142 3.657485,-1.70885 7.542037,-3.5558 11.683361,-3.24723 1.471029,0.34266 1.794527,2.10534 1.771087,3.39284 0.04721,3.43566 -0.01875,6.87549 -0.342786,10.2981 -0.04878,0.52864 -0.112414,1.26182 -0.176231,1.79361 -0.457264,4.37177 -1.089604,8.48931 -1.780935,12.82945 -1.77506,11.10499 -3.671692,22.39268 -2.385663,33.66132 0.322951,2.85954 0.797967,5.59319 1.299043,8.39393 3.034092,15.27034 12.150567,29.40745 25.294718,37.87667 11.292669,7.18823 24.619483,10.70888 37.906126,11.45426 13.71134,0.78177 27.46432,-1.01484 40.78836,-4.19378 25.48674,-6.23929 49.65829,-18.70927 68.56212,-37.03172 9.79953,-9.4874 18.23222,-20.55207 23.78439,-33.06209 5.40071,-12.04788 8.14247,-25.55807 6.22374,-38.72358 -0.87114,-6.03144 -2.95339,-11.81775 -5.39696,-17.37481 -5.87227,-13.02105 -14.75906,-24.36041 -23.93227,-35.19554 -2.5348,-2.98925 -5.1336,-5.92397 -7.77724,-8.81729 1.71461,-0.28953 3.64345,0.0556 4.83786,1.41166 0.62385,0.57829 1.30473,1.3156 1.74461,1.84625 3.29175,3.96662 5.95481,8.64452 10.37544,11.51232 4.28196,2.93817 9.98988,3.50051 14.81671,1.64098 5.30285,-1.99635 9.20292,-6.28432 13.49402,-9.79457 2.14425,-1.82284 4.18832,-3.76481 6.34499,-5.57636 4.86345,-4.20819 9.84087,-8.52304 13.19897,-14.0855 2.42697,-4.33012 2.29371,-9.70968 0.48485,-14.23782 -1.89017,-5.04163 -5.04157,-9.45767 -7.7956,-14.04412 -5.8964,-9.37244 -12.57257,-18.48654 -21.33236,-25.39268 -1.08443,-0.90557 -2.28581,-1.67161 -3.56068,-2.28012 4.24761,-2.69824 7.71272,-6.39745 11.60738,-9.54829 3.67411,-3.2441 7.2496,-6.60047 10.86514,-9.91039 12.51434,-11.564597 24.85171,-23.332438 36.72702,-35.553877 3.79336,-4.346659 4.60786,-10.748864 2.80093,-16.128807 -1.03939,-3.32658 -3.11269,-6.202443 -5.34843,-8.825995 -5.07238,-5.531669 -13.63792,-7.24968 -20.55591,-4.483472 -3.14718,1.176064 -5.69837,3.420884 -8.40261,5.338626 -7.19974,5.334688 -14.23124,11.214085 -22.68633,14.47447 -0.90249,0.124464 -1.84117,-0.221507 -2.75044,-0.331819 -0.58865,-0.106632 -1.05444,-0.222443 -1.72031,-0.363326 -8.10277,-1.836649 -15.67554,-5.352542 -23.4405,-8.213917 -21.59644,-8.355757 -42.5594,-18.578885 -65.01666,-24.527575 -8.45606,-2.219562 -17.08162,-3.96148 -25.82153,-4.497826 -2.89964,-0.136175 -5.80273,-0.135224 -8.70505,-0.118972 z m 72.09868,99.11228 c 10.39186,2.67997 20.89945,5.04358 31.58334,6.19541 -2.02704,1.47605 -3.96348,3.07317 -5.98648,4.55661 -12.80497,9.75275 -25.2929,19.91172 -37.98769,29.80603 -5.04304,-6.03424 -10.07905,-12.35393 -12.73685,-19.85336 -0.84291,-2.50284 -1.85385,-5.29007 -0.7913,-7.88864 1.46573,-3.67006 4.80214,-6.11831 8.03402,-8.15863 3.33164,-2.00383 6.88259,-3.63256 10.49386,-5.06011 0.97155,-0.28578 1.96453,-0.81581 2.9821,-0.76084 1.46966,0.38784 2.93933,0.77568 4.409,1.16353 z m -65.2054,99.63722 c 6.21642,7.46136 12.58577,14.79113 18.98033,22.10027 8.40516,9.68927 16.71944,19.59752 23.68558,30.47828 1.85672,2.75216 3.43661,5.74683 4.10127,9.02614 0.65806,2.85952 0.60198,5.83919 0.0626,8.71128 -0.70959,7.29529 -3.88982,14.60429 -9.6838,19.27153 -0.48705,0.3604 -1.13357,0.85265 -1.47655,1.09929 -7.88778,5.68087 -17.30427,9.68325 -27.12859,9.86304 -3.27687,0.0377 -6.62574,-0.24226 -9.72292,-1.37041 -0.23742,-0.10095 -0.95735,-0.44326 -1.35098,-0.69584 -4.26954,-2.64848 -6.51378,-7.6207 -7.09656,-12.46754 -0.38875,-2.87454 0.0361,-5.76291 0.0811,-8.64365 0.91231,-17.0354 5.59728,-33.55346 7.66865,-50.44011 1.01501,-7.86829 1.93821,-15.90988 0.58215,-23.79626 -0.42936,-2.41476 -1.06962,-4.79776 -1.99028,-7.07301 1.09598,1.31233 2.19196,2.62465 3.28794,3.93699 z" />
    <path
       id="path18001"
       style="fill:#e6e6e6;stroke-width:5.9658;stroke-linecap:round;stop-color:#000000"
       d="m 336.59747,229.21797 c -11.00184,0.27777 -21.52914,5.21211 -29.62979,12.5111 -5.0308,4.4597 -9.07082,9.91199 -12.49839,15.66638 -4.91959,8.07425 -8.9368,16.8857 -10.41986,26.2831 -0.76318,6.46757 2.55529,12.99058 7.74938,16.76653 3.65103,2.74603 8.257,4.12644 12.81374,3.95657 3.14949,0.0782 6.29594,-0.74965 9.05683,-2.25081 -3.91768,10.14207 -7.84624,20.29052 -11.27646,30.60816 -3.50764,13.29496 1.36328,28.23863 11.67972,37.23688 6.53424,5.60331 14.8622,9.10442 23.45307,9.76036 12.81016,1.07348 26.00331,-3.60597 35.19252,-12.61549 11.09506,-10.49116 18.9363,-24.35161 22.34346,-39.22571 1.50493,-7.95283 -2.15419,-16.81267 -9.25701,-20.88722 -2.6257,-1.47957 -5.61857,-2.27152 -8.60886,-2.53823 -3.77283,-0.2612 -7.59174,0.647 -10.91328,2.43446 4.18779,-11.2333 9.67816,-22.07167 12.11341,-33.88577 2.29356,-13.75958 -4.18385,-28.36405 -15.54315,-36.33278 -7.4198,-5.20642 -16.57436,-7.73686 -25.60741,-7.49732 -0.21597,0.003 -0.43194,0.006 -0.64792,0.009 z" />
    <path
       id="path18040"
       style="fill:#e6e6e6;stroke-width:5.9658;stroke-linecap:round;stop-color:#000000"
       d="m 362.23162,170.34634 c -8.8159,-0.0135 -17.25136,4.56316 -22.77698,11.30629 -5.4146,6.49343 -8.3188,15.33867 -6.7267,23.75094 1.01658,5.64527 3.86748,11.01977 8.32349,14.69237 7.30524,6.23638 18.12806,8.13515 27.03935,4.43841 9.96879,-3.72426 17.99794,-12.56896 20.3121,-23.00751 1.2999,-6.00007 0.30914,-12.43306 -2.6992,-17.78037 -4.31374,-7.80847 -12.82601,-13.23361 -21.7994,-13.40304 -0.5575,-0.0292 -1.11498,-0.004 -1.67266,0.003 z" />
    <g
       transform="matrix(38.061147,0,0,38.061147,20.053104,35.878019)"
       ns1:version="1.6.0"
       ns1:texconverter="pdflatex"
       ns1:pdfconverter="inkscape"
       ns1:text="$\\boldsymbol{\\mathfrak{F}}_i$"
       ns1:preamble="/home/hmara/Documents/diss/thesis_defines.tex"
       ns1:scale="31.648417046834098"
       ns1:alignment="middle center"
       ns1:stroke-to-path="0"
       ns1:inkscapeversion="1.1.2"
       ns1:jacobian_sqrt="42.1978"
       id="g1067">
      <defs
         id="id-5d5bd9c6-68e8-40e0-8a1a-c18ca214ccb6">
        <g
           id="id-c531d5ec-8b48-4021-88d6-7d19c2ed3aa9">
          <symbol
             overflow="visible"
             id="id-52b14e10-c413-4509-af34-c8e811fe2c8f">
            <path
               style="stroke:none"
               d=""
               id="id-0afbc17f-44e4-43a6-a2ae-f790e64ac03f" />
          </symbol>
          <symbol
             overflow="visible"
             id="id-9fbafc04-23b0-4188-840b-62368c35b78f">
            <path
               style="stroke:none"
               d="M 4.359375,-2.984375 C 4.015625,-3.34375 3.625,-3.796875 3.625,-4.21875 c 0,-0.46875 0.515625,-0.71875 0.96875,-0.859375 0.375,0.109375 0.8125,0.21875 1.21875,0.234375 0.34375,-0.265625 1.046875,-0.953125 1.5,-1.390625 L 7.203125,-6.40625 c -0.3125,0.25 -0.765625,0.609375 -1.015625,0.609375 -0.25,0 -0.875,-0.265625 -1.296875,-0.4375 C 4.265625,-6.5 3.546875,-6.8125 2.875,-6.8125 c -1.375,0 -2.046875,1.015625 -2.28125,2.015625 l 0.25,0.15625 c 0.140625,-0.546875 0.4375,-1.296875 1.25,-1.296875 0.515625,0 1.453125,0.421875 2.140625,0.734375 C 3.5,-4.859375 2.59375,-4.234375 2.59375,-3.59375 c 0,0.546875 0.671875,1.265625 1.125,1.78125 0.390625,0.453125 0.953125,1.078125 0.953125,1.46875 0,0.359375 -0.078125,0.75 -0.390625,1 -0.296875,0.25 -0.671875,0.40625 -1.078125,0.40625 -0.625,0 -0.859375,-0.46875 -0.859375,-0.90625 0,-0.5625 0.25,-1.3125 0.25,-1.90625 0,-0.296875 -0.28125,-0.546875 -0.625,-0.546875 -0.640625,0 -1.25,0.296875 -1.796875,0.609375 l 0.03125,0.234375 C 0.40625,-1.5625 0.671875,-1.6875 0.84375,-1.6875 c 0.359375,0 0.515625,0.265625 0.515625,0.53125 0,0.53125 -0.140625,0.859375 -0.140625,1.296875 0,0.796875 0.46875,1.328125 1.46875,1.328125 1.484375,0 3.09375,-1.09375 3.09375,-2.375 C 5.78125,-1.5 5.078125,-2.25 4.546875,-2.796875 4.734375,-2.953125 5,-3.125 5.21875,-3.125 c 0.328125,0 0.46875,0.21875 0.65625,0.5 l 0.6875,-0.609375 c -0.203125,-0.359375 -0.390625,-0.6875 -0.703125,-0.9375 z m 0,0"
               id="id-de39604f-2590-41ea-a759-bae8cc979389" />
          </symbol>
          <symbol
             overflow="visible"
             id="id-a554f77f-22bd-4096-bae9-c6750dcef628">
            <path
               style="stroke:none"
               d=""
               id="id-2c084e34-60d0-4f46-bfde-2b47b3944847" />
          </symbol>
          <symbol
             overflow="visible"
             id="id-b25108f7-249e-4fd0-a454-266923ba6e10">
            <path
               style="stroke:none"
               d="m 2.265625,-4.359375 c 0,-0.109375 -0.09375,-0.265625 -0.28125,-0.265625 -0.1875,0 -0.390625,0.1875 -0.390625,0.390625 0,0.109375 0.078125,0.265625 0.28125,0.265625 0.1875,0 0.390625,-0.203125 0.390625,-0.390625 z M 0.84375,-0.8125 c -0.03125,0.09375 -0.0625,0.171875 -0.0625,0.296875 0,0.328125 0.265625,0.578125 0.65625,0.578125 0.6875,0 1,-0.953125 1,-1.0625 0,-0.09375 -0.09375,-0.09375 -0.109375,-0.09375 -0.09375,0 -0.109375,0.046875 -0.140625,0.125 -0.15625,0.5625 -0.453125,0.84375 -0.734375,0.84375 -0.140625,0 -0.171875,-0.09375 -0.171875,-0.25 0,-0.15625 0.046875,-0.28125 0.109375,-0.4375 C 1.46875,-1 1.546875,-1.1875 1.609375,-1.375 1.671875,-1.546875 1.9375,-2.171875 1.953125,-2.265625 1.984375,-2.328125 2,-2.40625 2,-2.484375 2,-2.8125 1.71875,-3.078125 1.34375,-3.078125 0.640625,-3.078125 0.328125,-2.125 0.328125,-2 c 0,0.078125 0.09375,0.078125 0.125,0.078125 0.09375,0 0.09375,-0.03125 0.125,-0.109375 C 0.75,-2.625 1.0625,-2.875 1.3125,-2.875 c 0.109375,0 0.171875,0.046875 0.171875,0.234375 0,0.171875 -0.03125,0.265625 -0.203125,0.703125 z m 0,0"
               id="id-6f7c6f7b-df3c-4ca3-83dc-f5734a3d7647" />
          </symbol>
        </g>
      </defs>
      <g
         id="id-0a87f2bb-e3d1-4c1f-9d06-cc42caa9180c"
         transform="translate(-148.884,-127.953)">
        <g
           style="fill:#000000;fill-opacity:1"
           id="id-ecefcbd7-9671-4cbd-ba81-97f080f6e77f">
          <g
             transform="translate(148.712,134.765)"
             id="g17708">
            <path
               style="stroke:none"
               d="M 4.359375,-2.984375 C 4.015625,-3.34375 3.625,-3.796875 3.625,-4.21875 c 0,-0.46875 0.515625,-0.71875 0.96875,-0.859375 0.375,0.109375 0.8125,0.21875 1.21875,0.234375 0.34375,-0.265625 1.046875,-0.953125 1.5,-1.390625 L 7.203125,-6.40625 c -0.3125,0.25 -0.765625,0.609375 -1.015625,0.609375 -0.25,0 -0.875,-0.265625 -1.296875,-0.4375 C 4.265625,-6.5 3.546875,-6.8125 2.875,-6.8125 c -1.375,0 -2.046875,1.015625 -2.28125,2.015625 l 0.25,0.15625 c 0.140625,-0.546875 0.4375,-1.296875 1.25,-1.296875 0.515625,0 1.453125,0.421875 2.140625,0.734375 C 3.5,-4.859375 2.59375,-4.234375 2.59375,-3.59375 c 0,0.546875 0.671875,1.265625 1.125,1.78125 0.390625,0.453125 0.953125,1.078125 0.953125,1.46875 0,0.359375 -0.078125,0.75 -0.390625,1 -0.296875,0.25 -0.671875,0.40625 -1.078125,0.40625 -0.625,0 -0.859375,-0.46875 -0.859375,-0.90625 0,-0.5625 0.25,-1.3125 0.25,-1.90625 0,-0.296875 -0.28125,-0.546875 -0.625,-0.546875 -0.640625,0 -1.25,0.296875 -1.796875,0.609375 l 0.03125,0.234375 C 0.40625,-1.5625 0.671875,-1.6875 0.84375,-1.6875 c 0.359375,0 0.515625,0.265625 0.515625,0.53125 0,0.53125 -0.140625,0.859375 -0.140625,1.296875 0,0.796875 0.46875,1.328125 1.46875,1.328125 1.484375,0 3.09375,-1.09375 3.09375,-2.375 C 5.78125,-1.5 5.078125,-2.25 4.546875,-2.796875 4.734375,-2.953125 5,-3.125 5.21875,-3.125 c 0.328125,0 0.46875,0.21875 0.65625,0.5 l 0.6875,-0.609375 c -0.203125,-0.359375 -0.390625,-0.6875 -0.703125,-0.9375 z m 0,0"
               id="id-2dcc59ea-2bc8-43e4-a5d7-dabd1a45ecfd" />
          </g>
        </g>
        <g
           style="fill:#000000;fill-opacity:1"
           id="id-74f78cd9-8338-467c-ab07-fb2dea6f63bc">
          <g
             transform="translate(155.902,136.518)"
             id="g17712">
            <path
               style="stroke:none"
               d="m 2.265625,-4.359375 c 0,-0.109375 -0.09375,-0.265625 -0.28125,-0.265625 -0.1875,0 -0.390625,0.1875 -0.390625,0.390625 0,0.109375 0.078125,0.265625 0.28125,0.265625 0.1875,0 0.390625,-0.203125 0.390625,-0.390625 z M 0.84375,-0.8125 c -0.03125,0.09375 -0.0625,0.171875 -0.0625,0.296875 0,0.328125 0.265625,0.578125 0.65625,0.578125 0.6875,0 1,-0.953125 1,-1.0625 0,-0.09375 -0.09375,-0.09375 -0.109375,-0.09375 -0.09375,0 -0.109375,0.046875 -0.140625,0.125 -0.15625,0.5625 -0.453125,0.84375 -0.734375,0.84375 -0.140625,0 -0.171875,-0.09375 -0.171875,-0.25 0,-0.15625 0.046875,-0.28125 0.109375,-0.4375 C 1.46875,-1 1.546875,-1.1875 1.609375,-1.375 1.671875,-1.546875 1.9375,-2.171875 1.953125,-2.265625 1.984375,-2.328125 2,-2.40625 2,-2.484375 2,-2.8125 1.71875,-3.078125 1.34375,-3.078125 0.640625,-3.078125 0.328125,-2.125 0.328125,-2 c 0,0.078125 0.09375,0.078125 0.125,0.078125 0.09375,0 0.09375,-0.03125 0.125,-0.109375 C 0.75,-2.625 1.0625,-2.875 1.3125,-2.875 c 0.109375,0 0.171875,0.046875 0.171875,0.234375 0,0.171875 -0.03125,0.265625 -0.203125,0.703125 z m 0,0"
               id="id-daab4c8a-9f79-4dd8-9ae2-eaf547049a91" />
          </g>
        </g>
      </g>
    </g>
  </g>
</svg>
