<?xml version="1.0" encoding="UTF-8" standalone="no"?>
<svg
   xmlns:ns0="http://www.iki.fi/pav/software/textext/"
   xmlns:dc="http://purl.org/dc/elements/1.1/"
   xmlns:cc="http://creativecommons.org/ns#"
   xmlns:rdf="http://www.w3.org/1999/02/22-rdf-syntax-ns#"
   xmlns:svg="http://www.w3.org/2000/svg"
   xmlns="http://www.w3.org/2000/svg"
   xmlns:xlink="http://www.w3.org/1999/xlink"
   width="400.42654"
   height="400.65833"
   id="svg2"
   version="1.0">
  <defs
     id="defs4">
    <linearGradient
       id="linearGradient4271">
      <stop
         style="stop-color:#cccccc;stop-opacity:1;"
         offset="0"
         id="stop4273" />
      <stop
         style="stop-color:#cccccc;stop-opacity:0;"
         offset="1"
         id="stop4275" />
    </linearGradient>
    <linearGradient
       id="linearGradient4195">
      <stop
         style="stop-color:#cccccc;stop-opacity:1;"
         offset="0"
         id="stop4197" />
      <stop
         style="stop-color:#cccccc;stop-opacity:0;"
         offset="1"
         id="stop4199" />
    </linearGradient>
    <linearGradient
       id="linearGradient3295">
      <stop
         style="stop-color:#ffffff;stop-opacity:1;"
         offset="0"
         id="stop3297" />
      <stop
         id="stop3157"
         offset="0.80000001"
         style="stop-color:#ff5c5c;stop-opacity:1;" />
      <stop
         style="stop-color:#990000;stop-opacity:1;"
         offset="1"
         id="stop3299" />
    </linearGradient>
    <radialGradient
       xlink:href="#linearGradient3295"
       id="radialGradient3301"
       cx="300.40311"
       cy="487.02884"
       fx="300.40311"
       fy="487.02884"
       r="105.92635"
       gradientTransform="matrix(1,0,0,1.0749387,0,-36.497331)"
       gradientUnits="userSpaceOnUse"
       spreadMethod="pad" />
    <radialGradient
       xlink:href="#linearGradient3295-1"
       id="radialGradient3301-7"
       cx="300.40311"
       cy="487.02884"
       fx="300.40311"
       fy="487.02884"
       r="105.92635"
       gradientTransform="matrix(1,0,0,1.0749387,0,-36.497331)"
       gradientUnits="userSpaceOnUse"
       spreadMethod="pad" />
    <linearGradient
       id="linearGradient3295-1">
      <stop
         style="stop-color:#ffffff;stop-opacity:1;"
         offset="0"
         id="stop3297-7" />
      <stop
         id="stop3157-2"
         offset="0.80000001"
         style="stop-color:#5cff6f;stop-opacity:1;" />
      <stop
         style="stop-color:#009912;stop-opacity:1;"
         offset="1"
         id="stop3299-7" />
    </linearGradient>
    <radialGradient
       r="105.92635"
       fy="487.02884"
       fx="300.40311"
       cy="487.02884"
       cx="300.40311"
       spreadMethod="pad"
       gradientTransform="matrix(1,0,0,1.0749387,0,-36.497331)"
       gradientUnits="userSpaceOnUse"
       id="radialGradient3028"
       xlink:href="#linearGradient3295-1" />
    <radialGradient
       xlink:href="#linearGradient3295-1"
       id="radialGradient3051"
       gradientUnits="userSpaceOnUse"
       gradientTransform="matrix(1,0,0,1.0749387,0,-36.497331)"
       spreadMethod="pad"
       cx="300.40311"
       cy="487.02884"
       fx="300.40311"
       fy="487.02884"
       r="105.92635" />
    <radialGradient
       xlink:href="#linearGradient3295-7"
       id="radialGradient3301-71"
       cx="300.40311"
       cy="487.02884"
       fx="300.40311"
       fy="487.02884"
       r="105.92635"
       gradientTransform="matrix(1,0,0,1.0749387,0,-36.497331)"
       gradientUnits="userSpaceOnUse"
       spreadMethod="pad" />
    <linearGradient
       id="linearGradient3295-7">
      <stop
         style="stop-color:#ffffff;stop-opacity:1;"
         offset="0"
         id="stop3297-2" />
      <stop
         id="stop3157-7"
         offset="0.80000001"
         style="stop-color:#ff5c5c;stop-opacity:1;" />
      <stop
         style="stop-color:#990000;stop-opacity:1;"
         offset="1"
         id="stop3299-2" />
    </linearGradient>
    <radialGradient
       r="105.92635"
       fy="487.02884"
       fx="300.40311"
       cy="487.02884"
       cx="300.40311"
       spreadMethod="pad"
       gradientTransform="matrix(1,0,0,1.0749387,0,-36.497331)"
       gradientUnits="userSpaceOnUse"
       id="radialGradient3030"
       xlink:href="#linearGradient3295-7" />
    <radialGradient
       xlink:href="#linearGradient3295-79"
       id="radialGradient3301-6"
       cx="300.40311"
       cy="487.02884"
       fx="300.40311"
       fy="487.02884"
       r="105.92635"
       gradientTransform="matrix(1,0,0,1.0749387,0,-36.497331)"
       gradientUnits="userSpaceOnUse"
       spreadMethod="pad" />
    <linearGradient
       id="linearGradient3295-79">
      <stop
         style="stop-color:#ffffff;stop-opacity:1;"
         offset="0"
         id="stop3297-23" />
      <stop
         id="stop3157-8"
         offset="0.80000001"
         style="stop-color:#ff5c5c;stop-opacity:1;" />
      <stop
         style="stop-color:#990000;stop-opacity:1;"
         offset="1"
         id="stop3299-4" />
    </linearGradient>
    <radialGradient
       xlink:href="#linearGradient3295-1-4"
       id="radialGradient3051-9"
       gradientUnits="userSpaceOnUse"
       gradientTransform="matrix(1,0,0,1.0749387,0,-36.497331)"
       spreadMethod="pad"
       cx="300.40311"
       cy="487.02884"
       fx="300.40311"
       fy="487.02884"
       r="105.92635" />
    <linearGradient
       id="linearGradient3295-1-4">
      <stop
         style="stop-color:#ffffff;stop-opacity:1;"
         offset="0"
         id="stop3297-7-0" />
      <stop
         id="stop3157-2-1"
         offset="0.80000001"
         style="stop-color:#adadad;stop-opacity:1;" />
      <stop
         style="stop-color:#4d4d4d;stop-opacity:1;"
         offset="1"
         id="stop3299-7-4" />
    </linearGradient>
    <radialGradient
       r="105.92635"
       fy="487.02884"
       fx="300.40311"
       cy="487.02884"
       cx="300.40311"
       spreadMethod="pad"
       gradientTransform="matrix(1,0,0,1.0749387,0,-36.497331)"
       gradientUnits="userSpaceOnUse"
       id="radialGradient3048"
       xlink:href="#linearGradient3295-1-4" />
    <linearGradient
       xlink:href="#linearGradient4195"
       id="linearGradient4201"
       x1="-223.29315"
       y1="208.04237"
       x2="-61.600281"
       y2="208.04237"
       gradientUnits="userSpaceOnUse"
       gradientTransform="translate(245.78296,-7.7132082)" />
    <linearGradient
       xlink:href="#linearGradient4195"
       id="linearGradient4205"
       gradientUnits="userSpaceOnUse"
       gradientTransform="translate(646.2095,-7.7132082)"
       x1="-223.29315"
       y1="208.04237"
       x2="-61.600281"
       y2="208.04237" />
    <linearGradient
       gradientTransform="translate(0,3.0953125e-6)"
       xlink:href="#linearGradient4260"
       id="linearGradient4266"
       x1="411.70966"
       y1="201.13055"
       x2="555.36438"
       y2="201.13055"
       gradientUnits="userSpaceOnUse" />
    <linearGradient
       id="linearGradient4260">
      <stop
         style="stop-color:#ffffff;stop-opacity:1;"
         offset="0"
         id="stop4262" />
      <stop
         style="stop-color:#ffffff;stop-opacity:0;"
         offset="1"
         id="stop4264" />
    </linearGradient>
    <linearGradient
       xlink:href="#linearGradient4271"
       id="linearGradient4277"
       x1="315.86548"
       y1="200.3291"
       x2="736.12891"
       y2="200.3291"
       gradientUnits="userSpaceOnUse" />
  </defs>
  <metadata
     id="metadata7">
    <rdf:RDF>
      <cc:Work
         rdf:about="">
        <dc:format>image/svg+xml</dc:format>
        <dc:type
           rdf:resource="http://purl.org/dc/dcmitype/StillImage" />
        <dc:title></dc:title>
      </cc:Work>
    </rdf:RDF>
  </metadata>
  <g
     id="layer10"
     style="display:none">
    <rect
       style="color:#000000;display:inline;overflow:visible;visibility:visible;opacity:1;fill:#cccccc;fill-opacity:1;fill-rule:nonzero;stroke:none;stroke-width:10;stroke-linecap:round;stroke-linejoin:round;stroke-miterlimit:10;stroke-dasharray:none;stroke-dashoffset:0;stroke-opacity:1;marker:none;enable-background:accumulate"
       id="rect4191"
       width="444.80905"
       height="427.84085"
       x="-22.191254"
       y="-13.591261"
       ry="0" />
    <rect
       ry="0"
       y="-13.591261"
       x="22.191254"
       height="427.84085"
       width="161.99138"
       id="rect4193"
       style="color:#000000;display:inline;overflow:visible;visibility:visible;opacity:1;fill:url(#linearGradient4201);fill-opacity:1;fill-rule:nonzero;stroke:none;stroke-width:10;stroke-linecap:round;stroke-linejoin:round;stroke-miterlimit:10;stroke-dasharray:none;stroke-dashoffset:0;stroke-opacity:1;marker:none;enable-background:accumulate"
       transform="scale(-1,1)" />
    <rect
       style="color:#000000;display:inline;overflow:visible;visibility:visible;opacity:1;fill:url(#linearGradient4205);fill-opacity:1;fill-rule:nonzero;stroke:none;stroke-width:10;stroke-linecap:round;stroke-linejoin:round;stroke-miterlimit:10;stroke-dasharray:none;stroke-dashoffset:0;stroke-opacity:1;marker:none;enable-background:accumulate"
       id="rect4203"
       width="161.99138"
       height="427.84085"
       x="422.6178"
       y="-13.591261"
       ry="0" />
  </g>
  <g
     id="layer12"
     style="display:none">
    <ellipse
       id="path4209"
       style="display:inline;fill:#ffffff;fill-opacity:1;fill-rule:evenodd;stroke:none;stroke-width:6.29227877;stroke-linecap:butt;stroke-linejoin:miter;stroke-miterlimit:4;stroke-dasharray:none;stroke-opacity:1"
       cx="200.21326"
       cy="200.32916"
       rx="209.75218"
       ry="209.87709" />
    <rect
       style="color:#000000;display:inline;overflow:visible;visibility:visible;opacity:1;fill:url(#linearGradient4266);fill-opacity:1;fill-rule:nonzero;stroke:none;stroke-width:10;stroke-linecap:round;stroke-linejoin:round;stroke-miterlimit:10;stroke-dasharray:none;stroke-dashoffset:0;stroke-opacity:1;marker:none;enable-background:accumulate"
       id="rect4250"
       width="355.79803"
       height="418.75073"
       x="200.21327"
       y="-8.2448082"
       ry="0"
       rx="0" />
  </g>
  <g
     id="layer11"
     style="display:none">
    <path
       style="color:#000000;display:inline;overflow:visible;visibility:visible;opacity:1;fill:url(#linearGradient4277);fill-opacity:1;fill-rule:nonzero;stroke:none;stroke-width:10;stroke-linecap:round;stroke-linejoin:round;stroke-miterlimit:10;stroke-dasharray:none;stroke-dashoffset:0;stroke-opacity:1;marker:none;enable-background:accumulate"
       d="M 200.00781,-8.2441406 A 208.44983,208.57397 0 0 0 -8.4414062,200.33008 208.44983,208.57397 0 0 0 200.00781,408.90234 h 536.1211 V -8.2441406 Z"
       id="rect4250-9" />
  </g>
  <g
     id="layer1"
     transform="translate(-189.92697,-360.08186)"
     style="display:none">
    <ellipse
       style="fill:url(#radialGradient3301);fill-opacity:1;fill-rule:evenodd;stroke:#000000;stroke-width:6.29227877;stroke-linecap:butt;stroke-linejoin:miter;stroke-miterlimit:4;stroke-dasharray:none;stroke-opacity:1"
       id="path2473"
       transform="matrix(1.8459429,0,0,1.7177087,-164.38674,-276.16265)"
       cx="300.40311"
       cy="487.02884"
       rx="105.42635"
       ry="113.36434" />
  </g>
  <g
     id="layer6"
     style="display:none">
    <ellipse
       ry="113.36434"
       rx="105.42635"
       cy="487.02884"
       cx="300.40311"
       style="display:inline;fill:url(#radialGradient3030);fill-opacity:1;fill-rule:evenodd;stroke:#ffffff;stroke-width:6.29227877;stroke-linecap:butt;stroke-linejoin:miter;stroke-miterlimit:4;stroke-dasharray:none;stroke-opacity:1"
       id="path2473-26"
       transform="matrix(1.8459429,0,0,1.7177087,-354.31371,-636.24451)" />
  </g>
  <g
     id="layer5"
     style="display:none">
    <ellipse
       ry="113.36434"
       rx="105.42635"
       cy="487.02884"
       cx="300.40311"
       style="display:inline;fill:url(#radialGradient3051);fill-opacity:1;fill-rule:evenodd;stroke:#000000;stroke-width:6.29227877;stroke-linecap:butt;stroke-linejoin:miter;stroke-miterlimit:4;stroke-dasharray:none;stroke-opacity:1"
       id="path2473-2"
       transform="matrix(1.8459429,0,0,1.7177087,-354.31371,-636.24451)" />
  </g>
  <g
     id="layer9"
     style="display:inline">
    <ellipse
       style="display:inline;fill:url(#radialGradient3048);fill-opacity:1;fill-rule:evenodd;stroke:#000000;stroke-width:6.29227877;stroke-linecap:butt;stroke-linejoin:miter;stroke-miterlimit:4;stroke-dasharray:none;stroke-opacity:1"
       id="path2473-2-9"
       transform="matrix(1.8459429,0,0,1.7177087,-354.31371,-636.24451)"
       cx="300.40311"
       cy="487.02884"
       rx="105.42635"
       ry="113.36434" />
  </g>
  <g
     id="layer2"
     style="display:none">
    <path
       transform="translate(-189.92697,-360.08186)"
       style="fill:#000000;fill-opacity:1;stroke:none"
       d="m 332.55208,673.89633 c -13.10979,-13.0625 -24.08279,-24.7235 -24.38446,-25.91334 -0.30167,-1.18984 -1.522,-2.41017 -2.71184,-2.71184 -1.18984,-0.30167 -12.85084,-11.27467 -25.91334,-24.38446 -24.52671,-24.61549 -26.40213,-27.16533 -21.5,-29.23164 1.2375,-0.52163 13.12729,-2.71614 26.42176,-4.87669 27.88608,-4.53192 27.11678,-4.18842 41.11397,-18.35791 l 8.28572,-8.38772 -10.78572,-10.48696 c -5.93215,-5.76782 -12.13573,-11.01529 -13.78573,-11.66103 -1.65,-0.64575 -13.79385,-3.02172 -26.98633,-5.27994 -13.19248,-2.25822 -24.55498,-4.57779 -25.25,-5.15461 -0.69502,-0.57681 -1.26367,-1.79311 -1.26367,-2.70288 0,-1.87211 48.93502,-51.10098 50.79595,-51.10098 0.66223,0 1.20405,-0.57446 1.20405,-1.27658 0,-1.85803 49.29898,-50.72342 51.17351,-50.72342 0.86988,0 2.0362,0.5625 2.59181,1.25 0.55562,0.6875 2.66639,11.375 4.69061,23.75 5.07877,31.049 4.76945,30.2755 17.16917,42.93317 l 10.33816,10.55323 26.3118,-26.2432 c 14.47149,-14.43376 26.79407,-26.2432 27.38351,-26.2432 2.12983,0 6.34143,4.19447 6.34143,6.31563 0,1.50465 -7.97946,10.1542 -26.01157,28.19595 l -26.01157,26.02547 22.02542,21.94254 22.02542,21.94253 26.27958,-26.21106 c 14.45377,-14.41608 26.76185,-26.21106 27.35129,-26.21106 2.13625,0 6.34143,4.19747 6.34143,6.32979 0,1.52387 -7.86406,10.04433 -26.00013,28.17034 l -26.00014,25.98571 26.00014,26.01403 c 14.30007,14.30771 26.00013,26.69827 26.00013,27.53457 0,2.85261 -3.02636,5.96556 -5.79963,5.96556 -2.17835,0 -7.5558,-4.86688 -28.44264,-25.74213 l -25.75642,-25.74213 -22.00144,21.98439 -22.00145,21.9844 26.00079,26.01468 c 14.30044,14.30808 26.00079,26.69893 26.00079,27.53523 0,2.85261 -3.02636,5.96556 -5.79963,5.96556 -2.17833,0 -7.55479,-4.86588 -28.43646,-25.73596 l -25.75024,-25.73595 -9.07777,8.98595 c -4.99277,4.94228 -10.14085,10.78596 -11.44018,12.98596 -1.81016,3.06494 -3.33791,9.72722 -6.53544,28.5 -2.29517,13.475 -4.63026,25.0625 -5.1891,25.75 -2.59066,3.18711 -5.48178,0.9449 -29.01154,-22.5 z m 4.5172,-35.15064 c 27.18726,-4.49851 26.57904,-4.22371 40.46699,-18.28312 l 8.24383,-8.34561 -21.98765,-21.97062 -21.98765,-21.97061 -9.07711,8.9853 c -4.99242,4.94191 -10.13947,10.7853 -11.43791,12.9853 -1.79685,3.04449 -3.33262,9.67842 -6.42907,27.77114 -2.23755,13.07413 -4.06827,23.98663 -4.06827,24.25 0,0.84556 2.28483,0.54803 26.27684,-3.42178 z m 78.72888,-100.58802 -22,-22 -22.01604,21.99433 -22.01604,21.99433 22.03224,21.97243 22.03223,21.97244 21.9838,-21.96677 21.98381,-21.96676 -22,-22 z m -39.70721,-39.71359 c -5.33068,-5.35076 -11.51608,-10.64811 -13.74533,-11.77188 -3.64139,-1.83565 -50.30591,-10.60647 -51.275,-9.63738 -0.61608,0.61608 6.61701,42.90341 8.29619,48.50259 1.37925,4.59906 3.14384,6.94968 12.01107,16 l 10.39429,10.60892 22.00546,-21.9868 22.00546,-21.98681 -9.69214,-9.72864 z"
       id="path3014" />
  </g>
  <g
     id="layer4"
     style="display:none">
    <g
       style="font-style:normal;font-variant:normal;font-weight:normal;font-stretch:normal;font-size:40px;line-height:125%;font-family:'Khmer OS';-inkscape-font-specification:'Khmer OS';letter-spacing:0px;word-spacing:0px;fill:#000000;fill-opacity:1;stroke:none"
       id="flowRoot3009"
       transform="matrix(6.0704453,0,0,6.0704453,1074.3185,-585.53043)">
      <path
         d="m -124.64063,121.81249 c -4e-5,0.10419 -0.0391,0.19533 -0.11718,0.27344 l -8.57422,7.87109 6.97265,7.08985 c 0.0521,0.0781 0.0781,0.15625 0.0781,0.23437 -4e-5,0.20834 -0.13676,0.44923 -0.41016,0.72266 -0.27348,0.26042 -0.51436,0.39063 -0.72265,0.39062 -0.10421,1e-5 -0.18233,-0.0391 -0.23438,-0.11718 l -6.95312,-7.10938 -7.75391,7.10938 7.79297,7.96875 c 0.0521,0.0781 0.0781,0.15624 0.0781,0.23437 -4e-5,0.15625 -0.14978,0.39713 -0.44922,0.72266 -0.31254,0.24739 -0.53389,0.38411 -0.66407,0.41015 -0.1042,0 -0.18883,-0.0456 -0.2539,-0.13672 l -7.79297,-7.98828 -2.16797,1.99219 c -0.2344,0.20833 -0.60549,0.78125 -1.11328,1.71875 -1.32815,2.42187 -1.99221,5.14322 -1.99219,8.16406 -0.53387,0.45572 -0.83986,0.68359 -0.91797,0.6836 -0.18231,-0.0261 -0.46226,-0.2409 -0.83984,-0.64453 l -1.13281,-2.2461 c -1.02867,-2.03125 -2.66929,-3.58724 -4.92188,-4.66797 -0.0391,-0.026 -0.22136,-0.13672 -0.54687,-0.33203 -0.22137,-0.19531 -0.41017,-0.47526 -0.56641,-0.83984 l 0.11719,-0.23438 0.64453,-0.60547 c 0.67707,0.0521 1.35415,0.0781 2.03125,0.0781 2.64321,0 4.89581,-0.52734 6.75781,-1.58203 0.20831,-0.11719 0.638,-0.38411 1.28906,-0.80078 l 2.07032,-1.9336 -7.34375,-7.55859 -1.81641,1.64062 c -0.27345,0.24741 -0.64454,0.82033 -1.11328,1.71875 -1.32814,2.53907 -1.9922,5.26042 -1.99219,8.16407 -0.53386,0.45573 -0.83985,0.68359 -0.91797,0.68359 -0.1823,0 -0.46225,-0.21484 -0.83984,-0.64453 -0.14324,-0.32552 -0.52084,-1.08724 -1.13281,-2.28516 -1.00262,-1.96614 -2.64324,-3.50911 -4.92188,-4.6289 -0.53386,-0.26041 -0.90495,-0.65104 -1.11328,-1.17188 l 0.11719,-0.23437 0.64453,-0.60547 c 0.67708,0.0521 1.35416,0.0781 2.03125,0.0781 2.64322,10e-6 4.89582,-0.52733 6.75781,-1.58203 0.20832,-0.11717 0.63801,-0.3841 1.28906,-0.80078 l 1.75782,-1.60156 -1.60157,-1.64063 c -0.27345,-0.27342 -0.8724,-0.62498 -1.79687,-1.05468 -2.6823,-1.23697 -5.42969,-1.80988 -8.24219,-1.71875 -0.48177,-0.5078 -0.72266,-0.80077 -0.72265,-0.87891 -1e-5,-0.36457 0.95051,-1.05467 2.85156,-2.07031 1.66666,-0.8854 3.09244,-2.39581 4.27734,-4.53125 0.0911,-0.28644 0.23437,-0.64451 0.42969,-1.07422 0.52082,-0.3906 0.81379,-0.60544 0.87891,-0.64453 0.0781,2e-5 0.35806,0.25393 0.83984,0.76172 v 0.60546 c -1e-5,3.21617 0.54686,5.77476 1.64062,7.67579 0.27343,0.46876 0.63801,1.02866 1.09375,1.67968 l 1.64063,1.67969 7.75391,-7.14844 -2.44141,-2.48047 c -0.27346,-0.28643 -0.87242,-0.63799 -1.79688,-1.05468 -2.70835,-1.23696 -5.45574,-1.80987 -8.24218,-1.71875 -0.48179,-0.50779 -0.72267,-0.80076 -0.72266,-0.87891 -1e-5,-0.36455 0.95051,-1.05466 2.85156,-2.07031 1.66665,-0.88539 3.09243,-2.3958 4.27735,-4.53125 0.0911,-0.28643 0.23435,-0.6445 0.42968,-1.07422 0.52082,-0.39059 0.81379,-0.60543 0.87891,-0.64453 0.0781,3e-5 0.35805,0.25394 0.83984,0.76172 v 0.60547 c -2e-5,3.21617 0.54686,5.77476 1.64063,7.67578 0.27341,0.46877 0.638,1.02867 1.09375,1.67968 l 2.48047,2.5586 8.94531,-8.24219 c 0.0521,-0.052 0.13668,-0.0781 0.25391,-0.0781 0.18225,3e-5 0.40361,0.13675 0.66406,0.41015 0.2734,0.27347 0.41012,0.50133 0.41016,0.6836 -4e-5,0.10419 -0.0391,0.19534 -0.11719,0.27343 l -8.92578,8.20313 7.40234,7.55859 8.59375,-7.89062 c 0.013,-0.013 0.0325,-0.026 0.0586,-0.0391 0.039,-0.026 0.0976,-0.039 0.17578,-0.0391 0.19527,2e-5 0.42314,0.13674 0.6836,0.41016 0.27339,0.26044 0.41011,0.4883 0.41015,0.68359 m -24.53124,-6.73828 c -0.15627,-0.31247 -0.50133,-1.62757 -1.03516,-3.94531 -0.2995,0.44274 -0.70965,0.97659 -1.23047,1.60156 -0.44272,0.29951 -1.01564,0.73571 -1.71875,1.30859 1.71873,0.33857 3.02082,0.71618 3.90625,1.13282 l 0.0781,-0.0977 m 13.32031,14.80469 -7.40235,-7.5586 -7.7539,7.16797 7.40234,7.5586 7.75391,-7.16797 m -21.50391,-5.58594 c -0.1823,-0.35154 -0.53386,-1.67316 -1.05469,-3.96484 -0.29949,0.44273 -0.70964,0.97658 -1.23046,1.60156 -0.44272,0.2995 -1.01564,0.7357 -1.71875,1.30859 1.71874,0.33856 3.02082,0.71617 3.90625,1.13282 l 0.0977,-0.0781 m -0.2539,10.19531 -0.0781,-0.0781 c -0.79428,0.31251 -2.12891,0.60547 -4.00391,0.8789 0.20833,0.1823 0.58593,0.50131 1.13282,0.95704 0.4427,0.37761 0.76171,0.76172 0.95703,1.15234 0.27343,0.35157 0.52733,0.6836 0.76172,0.99609 0.1953,-0.89843 0.60545,-2.20051 1.23047,-3.90625 m 8.28125,9.16016 -0.0781,-0.0781 c -0.79429,0.26042 -2.12892,0.55339 -4.00391,0.87891 0.49478,0.41666 1.01561,0.86588 1.5625,1.34766 0.27342,0.40364 0.6315,0.91145 1.07422,1.52343 0.0651,0.0391 0.1367,0.11719 0.21485,0.23438 0.19529,-0.89844 0.60545,-2.20052 1.23047,-3.90625"
         id="path3018" />
    </g>
  </g>
  <g
     id="layer3"
     style="display:inline">
    <g
       style="font-style:normal;font-variant:normal;font-weight:normal;font-stretch:normal;font-size:40px;line-height:125%;font-family:'Khmer OS';-inkscape-font-specification:'Khmer OS';letter-spacing:0px;word-spacing:0px;display:inline;fill:#000000;fill-opacity:1;stroke:none"
       id="flowRoot3010"
       transform="matrix(6.0704453,0,0,6.0704453,1329.4669,-714.14799)" />
    <g
       style="font-style:normal;font-variant:normal;font-weight:normal;font-stretch:normal;font-size:40px;line-height:125%;font-family:'Khmer OS';-inkscape-font-specification:'Khmer OS';letter-spacing:0px;word-spacing:0px;fill:#000000;fill-opacity:1;stroke:none"
       id="flowRoot3064"
       transform="matrix(6.3851621,0,0,6.3851621,1749.1035,-588.28247)">
      <path
         d="m -223.70312,115.68749 c -5e-5,0.10419 -0.0391,0.19533 -0.11719,0.27344 l -8.57422,7.87109 6.97266,7.08985 c 0.052,0.0781 0.0781,0.15625 0.0781,0.23437 -4e-5,0.20834 -0.13676,0.44923 -0.41016,0.72266 -0.27348,0.26042 -0.51436,0.39063 -0.72265,0.39062 -0.10421,1e-5 -0.18233,-0.0391 -0.23438,-0.11718 l -6.95312,-7.10938 -7.75391,7.10938 7.79297,7.96875 c 0.0521,0.0781 0.0781,0.15624 0.0781,0.23437 -4e-5,0.15625 -0.14978,0.39713 -0.44922,0.72266 -0.31254,0.24739 -0.53389,0.38411 -0.66407,0.41015 -0.1042,0 -0.18883,-0.0456 -0.2539,-0.13672 l -7.79297,-7.98828 -2.16797,1.99219 c -0.2344,0.20833 -0.60549,0.78125 -1.11328,1.71875 -1.32815,2.42187 -1.99221,5.14322 -1.99219,8.16406 -0.53387,0.45572 -0.83986,0.68359 -0.91797,0.6836 -0.18231,-0.0261 -0.46226,-0.2409 -0.83984,-0.64453 l -1.13281,-2.2461 c -1.02867,-2.03125 -2.66929,-3.58724 -4.92188,-4.66797 -0.0391,-0.026 -0.22136,-0.13672 -0.54687,-0.33203 -0.22137,-0.19531 -0.41017,-0.47526 -0.56641,-0.83984 l 0.11719,-0.23438 0.64453,-0.60547 c 0.67707,0.0521 1.35415,0.0781 2.03125,0.0781 2.64321,0 4.89581,-0.52734 6.75781,-1.58203 0.20831,-0.11719 0.638,-0.38411 1.28906,-0.80078 l 2.07032,-1.9336 -7.34375,-7.55859 -1.81641,1.64062 c -0.27345,0.24741 -0.64454,0.82033 -1.11328,1.71875 -1.32814,2.53907 -1.9922,5.26042 -1.99219,8.16407 -0.53386,0.45573 -0.83985,0.68359 -0.91797,0.68359 -0.1823,0 -0.46225,-0.21484 -0.83984,-0.64453 -0.14324,-0.32552 -0.52084,-1.08724 -1.13281,-2.28516 -1.00262,-1.96614 -2.64324,-3.50911 -4.92188,-4.6289 -0.53386,-0.26041 -0.90495,-0.65104 -1.11328,-1.17188 l 0.11719,-0.23437 0.64453,-0.60547 c 0.67708,0.0521 1.35416,0.0781 2.03125,0.0781 2.64322,1e-5 4.89582,-0.52733 6.75781,-1.58203 0.20832,-0.11717 0.63801,-0.3841 1.28906,-0.80078 l 1.75782,-1.60156 -1.60157,-1.64063 c -0.27345,-0.27342 -0.8724,-0.62498 -1.79687,-1.05468 -2.6823,-1.23697 -5.42969,-1.80988 -8.24219,-1.71875 -0.48177,-0.5078 -0.72266,-0.80077 -0.72265,-0.87891 -10e-6,-0.36457 0.95051,-1.05467 2.85156,-2.07031 1.66666,-0.8854 3.09244,-2.39581 4.27734,-4.53125 0.0911,-0.28644 0.23437,-0.64451 0.42969,-1.07422 0.52082,-0.3906 0.81379,-0.60544 0.87891,-0.64453 0.0781,2e-5 0.35806,0.25393 0.83984,0.76172 v 0.60546 c -1e-5,3.21617 0.54686,5.77476 1.64062,7.67579 0.27343,0.46876 0.63801,1.02866 1.09375,1.67968 l 1.64063,1.67969 7.75391,-7.14844 -2.44141,-2.48047 c -0.27346,-0.28643 -0.87242,-0.63799 -1.79688,-1.05468 -2.70835,-1.23696 -5.45574,-1.80987 -8.24218,-1.71875 -0.48179,-0.50779 -0.72267,-0.80076 -0.72266,-0.87891 -1e-5,-0.36455 0.95051,-1.05466 2.85156,-2.07031 1.66665,-0.88539 3.09243,-2.3958 4.27735,-4.53125 0.0911,-0.28643 0.23435,-0.6445 0.42968,-1.07422 0.52082,-0.39059 0.81379,-0.60543 0.87891,-0.64453 0.0781,3e-5 0.35805,0.25394 0.83984,0.76172 v 0.60547 c -2e-5,3.21617 0.54686,5.77476 1.64063,7.67578 0.27341,0.46877 0.638,1.02867 1.09375,1.67968 l 2.48047,2.5586 8.94531,-8.24219 c 0.0521,-0.052 0.13668,-0.0781 0.25391,-0.0781 0.18225,3e-5 0.40361,0.13675 0.66406,0.41015 0.2734,0.27347 0.41012,0.50133 0.41016,0.6836 -4e-5,0.10419 -0.0391,0.19534 -0.11719,0.27343 l -8.92578,8.20313 7.40234,7.55859 8.59375,-7.89062 c 0.013,-0.013 0.0325,-0.026 0.0586,-0.0391 0.039,-0.026 0.0976,-0.039 0.17579,-0.0391 0.19526,2e-5 0.42313,0.13674 0.68359,0.41016 0.27339,0.26044 0.41011,0.4883 0.41016,0.68359 m -11.21097,8.06637 -7.40235,-7.5586 -7.7539,7.16797 7.40234,7.5586 7.75391,-7.16797"
         id="path3073" />
    </g>
  </g>
  <g
     id="layer7"
     style="display:none">
    <ellipse
       style="display:inline;fill:none;stroke:#000000;stroke-width:6.29228;stroke-linecap:butt;stroke-linejoin:miter;stroke-miterlimit:4;stroke-dasharray:none;stroke-opacity:1"
       id="path2473-6"
       transform="matrix(1.8459429,0,0,1.7177087,-354.31371,-636.24451)"
       cx="300.40311"
       cy="487.02884"
       rx="105.42635"
       ry="113.36434" />
  </g>
  <g
     id="layer8"
     style="display:none">
    <g
       style="font-size:40px;font-style:normal;font-variant:normal;font-weight:normal;font-stretch:normal;line-height:125%;letter-spacing:0px;word-spacing:0px;fill:#000000;fill-opacity:1;stroke:none;display:inline;font-family:Khmer OS;-inkscape-font-specification:Khmer OS"
       id="flowRoot3064-8"
       transform="matrix(6.3851621,0,0,6.3851621,1761.0364,-586.30515)">
      <path
         d="m -223.70312,115.68749 c -5e-5,0.10419 -0.0391,0.19533 -0.11719,0.27344 l -8.57422,7.87109 6.97266,7.08985 c 0.052,0.0781 0.0781,0.15625 0.0781,0.23437 -4e-5,0.20834 -0.13676,0.44923 -0.41016,0.72266 -0.27348,0.26042 -0.51436,0.39063 -0.72265,0.39062 -0.10421,1e-5 -0.18233,-0.0391 -0.23438,-0.11718 l -6.95312,-7.10938 -7.75391,7.10938 7.79297,7.96875 c 0.0521,0.0781 0.0781,0.15624 0.0781,0.23437 -4e-5,0.15625 -0.14978,0.39713 -0.44922,0.72266 -0.31254,0.24739 -0.53389,0.38411 -0.66407,0.41015 -0.1042,0 -0.18883,-0.0456 -0.2539,-0.13672 l -7.79297,-7.98828 -2.16797,1.99219 c -0.2344,0.20833 -0.60549,0.78125 -1.11328,1.71875 -1.32815,2.42187 -1.99221,5.14322 -1.99219,8.16406 -0.53387,0.45572 -0.83986,0.68359 -0.91797,0.6836 -0.18231,-0.0261 -0.46226,-0.2409 -0.83984,-0.64453 l -1.13281,-2.2461 c -1.02867,-2.03125 -2.66929,-3.58724 -4.92188,-4.66797 -0.0391,-0.026 -0.22136,-0.13672 -0.54687,-0.33203 -0.22137,-0.19531 -0.41017,-0.47526 -0.56641,-0.83984 l 0.11719,-0.23438 0.64453,-0.60547 c 0.67707,0.0521 1.35415,0.0781 2.03125,0.0781 2.64321,0 4.89581,-0.52734 6.75781,-1.58203 0.20831,-0.11719 0.638,-0.38411 1.28906,-0.80078 l 2.07032,-1.9336 -7.34375,-7.55859 -1.81641,1.64062 c -0.27345,0.24741 -0.64454,0.82033 -1.11328,1.71875 -1.32814,2.53907 -1.9922,5.26042 -1.99219,8.16407 -0.53386,0.45573 -0.83985,0.68359 -0.91797,0.68359 -0.1823,0 -0.46225,-0.21484 -0.83984,-0.64453 -0.14324,-0.32552 -0.52084,-1.08724 -1.13281,-2.28516 -1.00262,-1.96614 -2.64324,-3.50911 -4.92188,-4.6289 -0.53386,-0.26041 -0.90495,-0.65104 -1.11328,-1.17188 l 0.11719,-0.23437 0.64453,-0.60547 c 0.67708,0.0521 1.35416,0.0781 2.03125,0.0781 2.64322,1e-5 4.89582,-0.52733 6.75781,-1.58203 0.20832,-0.11717 0.63801,-0.3841 1.28906,-0.80078 l 1.75782,-1.60156 -1.60157,-1.64063 c -0.27345,-0.27342 -0.8724,-0.62498 -1.79687,-1.05468 -2.6823,-1.23697 -5.42969,-1.80988 -8.24219,-1.71875 -0.48177,-0.5078 -0.72266,-0.80077 -0.72265,-0.87891 -10e-6,-0.36457 0.95051,-1.05467 2.85156,-2.07031 1.66666,-0.8854 3.09244,-2.39581 4.27734,-4.53125 0.0911,-0.28644 0.23437,-0.64451 0.42969,-1.07422 0.52082,-0.3906 0.81379,-0.60544 0.87891,-0.64453 0.0781,2e-5 0.35806,0.25393 0.83984,0.76172 l 0,0.60546 c -1e-5,3.21617 0.54686,5.77476 1.64062,7.67579 0.27343,0.46876 0.63801,1.02866 1.09375,1.67968 l 1.64063,1.67969 7.75391,-7.14844 -2.44141,-2.48047 c -0.27346,-0.28643 -0.87242,-0.63799 -1.79688,-1.05468 -2.70835,-1.23696 -5.45574,-1.80987 -8.24218,-1.71875 -0.48179,-0.50779 -0.72267,-0.80076 -0.72266,-0.87891 -1e-5,-0.36455 0.95051,-1.05466 2.85156,-2.07031 1.66665,-0.88539 3.09243,-2.3958 4.27735,-4.53125 0.0911,-0.28643 0.23435,-0.6445 0.42968,-1.07422 0.52082,-0.39059 0.81379,-0.60543 0.87891,-0.64453 0.0781,3e-5 0.35805,0.25394 0.83984,0.76172 l 0,0.60547 c -2e-5,3.21617 0.54686,5.77476 1.64063,7.67578 0.27341,0.46877 0.638,1.02867 1.09375,1.67968 l 2.48047,2.5586 8.94531,-8.24219 c 0.0521,-0.052 0.13668,-0.0781 0.25391,-0.0781 0.18225,3e-5 0.40361,0.13675 0.66406,0.41015 0.2734,0.27347 0.41012,0.50133 0.41016,0.6836 -4e-5,0.10419 -0.0391,0.19534 -0.11719,0.27343 l -8.92578,8.20313 7.40234,7.55859 8.59375,-7.89062 c 0.013,-0.013 0.0325,-0.026 0.0586,-0.0391 0.039,-0.026 0.0976,-0.039 0.17579,-0.0391 0.19526,2e-5 0.42313,0.13674 0.68359,0.41016 0.27339,0.26044 0.41011,0.4883 0.41016,0.68359 m -11.21097,8.06637 -7.40235,-7.5586 -7.7539,7.16797 7.40234,7.5586 7.75391,-7.16797"
         id="path3073-6" />
    </g>
  </g>
  <g
     id="layer13"
     style="display:none">
    <g
       id="g4225"
       transform="matrix(0.6780836,0,0,0.6780836,350.54493,-28.6859)">
      <rect
         ry="40"
         rx="40"
         y="482.51892"
         x="-116.29261"
         height="141.8056"
         width="181.00677"
         id="rect4215"
         style="color:#000000;clip-rule:nonzero;display:inline;overflow:visible;visibility:visible;opacity:1;isolation:auto;mix-blend-mode:normal;color-interpolation:sRGB;color-interpolation-filters:linearRGB;solid-color:#000000;solid-opacity:1;fill:#000000;fill-opacity:1;fill-rule:nonzero;stroke:#e6e6e6;stroke-width:17.69693375;stroke-linecap:round;stroke-linejoin:miter;stroke-miterlimit:4;stroke-dasharray:none;stroke-dashoffset:0;stroke-opacity:1;marker:none;color-rendering:auto;image-rendering:auto;shape-rendering:auto;text-rendering:auto;enable-background:accumulate" />
      <path
         id="path4217"
         d="m -84.780263,517.06132 52.709984,36.72172 -54.326363,38.19104"
         style="fill:none;fill-rule:evenodd;stroke:#ffffff;stroke-width:14.74744415;stroke-linecap:round;stroke-linejoin:round;stroke-miterlimit:4;stroke-dasharray:none;stroke-opacity:1" />
      <path
         style="fill:none;fill-rule:evenodd;stroke:#ffffff;stroke-width:14.74744415;stroke-linecap:round;stroke-linejoin:round;stroke-miterlimit:4;stroke-dasharray:none;stroke-opacity:1"
         d="m 36.491572,591.97408 -54.894412,0.0325"
         id="path4219" />
    </g>
  </g>
  <g
     id="layer15"
     style="display:none">
    <g
       id="g9149"
       transform="matrix(1.0341345,0,0,1.0341345,45.627044,-246.69251)">
      <g
         style="font-style:normal;font-variant:normal;font-weight:normal;font-stretch:normal;letter-spacing:normal;word-spacing:normal;text-anchor:start;fill:#000000;fill-opacity:1;fill-rule:evenodd;stroke:#000000;stroke-linecap:butt;stroke-linejoin:miter;stroke-miterlimit:10.433;stroke-dasharray:none;stroke-dashoffset:0;stroke-opacity:1"
         ns0:preamble="/export/home/hmara/.config/inkscape/extensions/default_packages.tex"
         ns0:text="\\centering\n\\tt ww\\\\[-0.6\\baselineskip] w"
         word-spacing="normal"
         letter-spacing="normal"
         font-size-adjust="none"
         font-stretch="normal"
         font-weight="normal"
         font-variant="normal"
         font-style="normal"
         stroke-miterlimit="10.433"
         xml:space="preserve"
         transform="matrix(28.71576,0,0,-28.71576,-8626.7705,20762.61)"
         id="content"><path
           id="path9465"
           style="font-style:normal;font-variant:normal;font-weight:normal;font-stretch:normal;letter-spacing:normal;word-spacing:normal;text-anchor:start;fill:#000000;fill-opacity:1;fill-rule:evenodd;stroke:#000000;stroke-width:0;stroke-linecap:butt;stroke-linejoin:miter;stroke-miterlimit:10.433;stroke-dasharray:none;stroke-dashoffset:0;stroke-opacity:1"
           word-spacing="normal"
           stroke-miterlimit="10.433"
           letter-spacing="normal"
           font-weight="normal"
           font-variant="normal"
           font-style="normal"
           font-stretch="normal"
           font-size-adjust="none"
           d="m 304.95,710.81 h 0.03 0.02 0.03 0.03 0.02 0.03 0.02 0.03 l 0.02,0.01 h 0.02 0.02 l 0.02,0.01 h 0.02 0.02 l 0.02,0.01 0.02,0.01 0.01,0.01 h 0.02 l 0.01,0.01 0.02,0.01 0.01,0.02 0.01,0.01 0.01,0.01 0.01,0.02 0.01,0.02 v 0 l 0.01,0.01 v 0.01 0.01 l 0.01,0.01 v 0.02 0.01 0.01 l 0.01,0.01 v 0.01 0.02 0.01 0.01 0.02 c 0,0.3 -0.24,0.3 -0.42,0.3 h -1.15 c -0.18,0 -0.41,0 -0.41,-0.3 0,-0.31 0.22,-0.31 0.41,-0.31 h 0.49 l -0.5,-2.97 h -0.01 c -0.04,0.26 -0.17,0.72 -0.28,1.13 -0.18,0.62 -0.21,0.73 -0.56,0.73 -0.1,0 -0.29,0 -0.4,-0.22 -0.03,-0.07 -0.43,-1.44 -0.47,-1.64 h -0.01 l -0.52,2.97 h 0.49 c 0.18,0 0.42,0 0.42,0.3 0,0.31 -0.23,0.31 -0.42,0.31 h -1.14 c -0.18,0 -0.42,0 -0.42,-0.3 0,-0.31 0.21,-0.31 0.51,-0.31 l 0.59,-3.35 c 0.04,-0.23 0.07,-0.38 0.47,-0.38 0.4,0 0.43,0.09 0.61,0.7 0.25,0.88 0.26,1.02 0.29,1.24 h 0.01 c 0.05,-0.52 0.42,-1.69 0.46,-1.77 0.11,-0.17 0.3,-0.17 0.41,-0.17 0.37,0 0.4,0.16 0.44,0.38 z" /><path
           id="path9467"
           style="font-style:normal;font-variant:normal;font-weight:normal;font-stretch:normal;letter-spacing:normal;word-spacing:normal;text-anchor:start;fill:#000000;fill-opacity:1;fill-rule:evenodd;stroke:#000000;stroke-width:0;stroke-linecap:butt;stroke-linejoin:miter;stroke-miterlimit:10.433;stroke-dasharray:none;stroke-dashoffset:0;stroke-opacity:1"
           word-spacing="normal"
           stroke-miterlimit="10.433"
           letter-spacing="normal"
           font-weight="normal"
           font-variant="normal"
           font-style="normal"
           font-stretch="normal"
           font-size-adjust="none"
           d="m 310.18,710.81 h 0.03 0.02 0.03 0.03 0.02 0.03 0.02 0.02 l 0.03,0.01 h 0.02 0.02 l 0.02,0.01 h 0.02 0.02 l 0.02,0.01 0.01,0.01 0.02,0.01 h 0.02 l 0.01,0.01 0.01,0.01 0.02,0.02 0.01,0.01 0.01,0.01 0.01,0.02 0.01,0.02 v 0 0.01 l 0.01,0.01 v 0.01 0.01 l 0.01,0.02 v 0.01 0.01 0.01 0.01 0.02 l 0.01,0.01 v 0.01 0.02 c 0,0.3 -0.24,0.3 -0.42,0.3 h -1.15 c -0.18,0 -0.42,0 -0.42,-0.3 0,-0.31 0.23,-0.31 0.42,-0.31 h 0.49 l -0.5,-2.97 h -0.01 c -0.04,0.26 -0.17,0.72 -0.29,1.13 -0.18,0.62 -0.21,0.73 -0.55,0.73 -0.11,0 -0.29,0 -0.4,-0.22 -0.03,-0.07 -0.43,-1.44 -0.47,-1.64 h -0.01 l -0.52,2.97 h 0.49 c 0.18,0 0.42,0 0.42,0.3 0,0.31 -0.23,0.31 -0.42,0.31 h -1.15 c -0.18,0 -0.42,0 -0.42,-0.3 0,-0.31 0.21,-0.31 0.51,-0.31 l 0.6,-3.35 c 0.04,-0.23 0.07,-0.38 0.47,-0.38 0.4,0 0.43,0.09 0.61,0.7 0.24,0.88 0.26,1.02 0.29,1.24 h 0.01 c 0.05,-0.52 0.41,-1.69 0.45,-1.77 0.12,-0.17 0.3,-0.17 0.42,-0.17 0.37,0 0.4,0.16 0.44,0.38 z" /><path
           id="path9469"
           style="font-style:normal;font-variant:normal;font-weight:normal;font-stretch:normal;letter-spacing:normal;word-spacing:normal;text-anchor:start;fill:#000000;fill-opacity:1;fill-rule:evenodd;stroke:#000000;stroke-width:0;stroke-linecap:butt;stroke-linejoin:miter;stroke-miterlimit:10.433;stroke-dasharray:none;stroke-dashoffset:0;stroke-opacity:1"
           word-spacing="normal"
           stroke-miterlimit="10.433"
           letter-spacing="normal"
           font-weight="normal"
           font-variant="normal"
           font-style="normal"
           font-stretch="normal"
           font-size-adjust="none"
           d="m 307.56,706.03 h 0.03 0.02 0.03 0.03 0.02 0.03 0.02 l 0.03,0.01 h 0.02 0.02 0.02 l 0.02,0.01 h 0.02 l 0.02,0.01 h 0.02 l 0.02,0.01 0.01,0.01 0.02,0.01 0.01,0.01 0.02,0.01 0.01,0.01 0.01,0.01 0.01,0.02 0.01,0.01 0.01,0.02 v 0.01 l 0.01,0.01 v 0.01 0.01 l 0.01,0.01 v 0.01 0.01 0.01 l 0.01,0.01 v 0.02 0.01 0.01 0.02 0.01 c 0,0.3 -0.24,0.3 -0.42,0.3 h -1.15 c -0.17,0 -0.41,0 -0.41,-0.3 0,-0.31 0.23,-0.31 0.41,-0.31 h 0.49 l -0.5,-2.97 h -0.01 c -0.03,0.26 -0.16,0.72 -0.28,1.13 -0.18,0.63 -0.21,0.73 -0.56,0.73 -0.1,0 -0.29,0 -0.4,-0.21 -0.03,-0.07 -0.43,-1.45 -0.47,-1.65 h -0.01 l -0.52,2.97 h 0.49 c 0.18,0 0.42,0 0.42,0.3 0,0.31 -0.23,0.31 -0.42,0.31 h -1.15 c -0.17,0 -0.41,0 -0.41,-0.3 0,-0.31 0.21,-0.31 0.5,-0.31 l 0.6,-3.35 c 0.04,-0.22 0.07,-0.38 0.47,-0.38 0.4,0 0.43,0.1 0.61,0.7 0.25,0.88 0.26,1.02 0.29,1.24 h 0.01 c 0.05,-0.52 0.42,-1.69 0.46,-1.77 0.12,-0.17 0.29,-0.17 0.41,-0.17 0.37,0 0.4,0.17 0.44,0.38 z" /></g>
    </g>
  </g>
</svg>
