<?xml version="1.0" encoding="UTF-8" standalone="no"?>
<!-- Created with Inkscape (http://www.inkscape.org/) -->

<svg
   width="400"
   height="400"
   viewBox="0 0 400 400.00001"
   id="svg2"
   version="1.1"
   inkscape:version="1.1.2 (0a00cf5339, 2022-02-04)"
   sodipodi:docname="gigamesh_icon_feature_vector_generic.svg"
   inkscape:export-filename="/export/home/hmara/Desktop/GigaMesh/forms/gigamesh_icon_background_grids_highlight_center.png"
   inkscape:export-xdpi="90"
   inkscape:export-ydpi="90"
   xmlns:inkscape="http://www.inkscape.org/namespaces/inkscape"
   xmlns:sodipodi="http://sodipodi.sourceforge.net/DTD/sodipodi-0.dtd"
   xmlns="http://www.w3.org/2000/svg"
   xmlns:svg="http://www.w3.org/2000/svg"
   xmlns:rdf="http://www.w3.org/1999/02/22-rdf-syntax-ns#"
   xmlns:cc="http://creativecommons.org/ns#"
   xmlns:dc="http://purl.org/dc/elements/1.1/"
   xmlns:ns1="http://www.iki.fi/pav/software/textext/">
  <defs
     id="defs4" />
  <sodipodi:namedview
     id="base"
     pagecolor="#ffffff"
     bordercolor="#666666"
     borderopacity="1.0"
     inkscape:pageopacity="0.0"
     inkscape:pageshadow="2"
     inkscape:zoom="1.979899"
     inkscape:cx="189.90868"
     inkscape:cy="207.08127"
     inkscape:document-units="px"
     inkscape:current-layer="layer2"
     showgrid="true"
     units="px"
     inkscape:snap-grids="true"
     inkscape:snap-bbox="true"
     inkscape:bbox-paths="true"
     inkscape:window-width="2122"
     inkscape:window-height="1177"
     inkscape:window-x="0"
     inkscape:window-y="0"
     inkscape:window-maximized="1"
     inkscape:pagecheckerboard="0">
    <inkscape:grid
       type="xygrid"
       id="grid4140"
       spacingx="5"
       spacingy="5.0000001"
       empspacing="5" />
  </sodipodi:namedview>
  <metadata
     id="metadata7">
    <rdf:RDF>
      <cc:Work
         rdf:about="">
        <dc:format>image/svg+xml</dc:format>
        <dc:type
           rdf:resource="http://purl.org/dc/dcmitype/StillImage" />
      </cc:Work>
    </rdf:RDF>
  </metadata>
  <g
     inkscape:label="White Backgrund"
     inkscape:groupmode="layer"
     id="layer1"
     transform="translate(0,-652.3622)"
     sodipodi:insensitive="true"
     style="display:none">
    <rect
       style="color:#000000;clip-rule:nonzero;display:inline;overflow:visible;visibility:visible;opacity:1;isolation:auto;mix-blend-mode:normal;color-interpolation:sRGB;color-interpolation-filters:linearRGB;solid-color:#000000;solid-opacity:1;fill:#ffffff;fill-opacity:1;fill-rule:evenodd;stroke:none;stroke-width:16;stroke-linecap:butt;stroke-linejoin:miter;stroke-miterlimit:4;stroke-dasharray:none;stroke-dashoffset:0;stroke-opacity:1;marker:none;color-rendering:auto;image-rendering:auto;shape-rendering:auto;text-rendering:auto;enable-background:accumulate"
       id="rect4905"
       width="400"
       height="400"
       x="0"
       y="652.36218" />
  </g>
  <g
     inkscape:groupmode="layer"
     id="layer2"
     inkscape:label="Icon">
    <path
       id="path1138"
       style="fill:#e6e6e6;fill-opacity:1;stroke:none;stroke-width:5.72685;stroke-linecap:round;stop-color:#000000"
       d="m 162.11914,10.467142 c -15.49655,0.123802 -31.1549,2.954525 -45.18694,9.703036 -15.92078,6.994504 -29.502861,18.691897 -39.85752,32.567321 -7.891324,10.504775 -14.015462,22.276097 -18.509027,34.607271 -2.700168,7.070537 -5.218202,14.30408 -6.188835,21.84149 -0.22017,5.02027 2.355678,9.84009 6.109902,13.05499 3.561563,3.17572 7.859058,5.39309 12.209827,7.27485 6.623134,2.41768 14.788185,0.49839 19.220744,-5.10433 2.409922,-2.85703 2.972702,-6.66925 4.196432,-10.08717 2.87698,-8.86375 6.338457,-17.757566 12.181517,-25.127919 3.31254,-4.205137 7.451,-7.981346 12.57133,-9.796176 6.78212,-2.534566 14.28395,-2.292031 21.25774,-0.717568 16.24073,3.330566 31.63766,9.684511 46.84444,16.127955 -12.88483,8.221818 -25.25043,17.619708 -35.00546,29.487928 -4.80068,5.88516 -9.08967,12.28154 -11.99259,19.32652 -2.25733,5.64352 -3.42543,11.76941 -3.00684,17.85184 -0.46249,8.74083 2.24716,17.33317 6.09463,25.0856 4.34427,8.78348 9.61029,17.08994 15.47679,24.93201 11.78443,15.86326 25.54744,30.09792 38.18152,45.26336 5.12729,6.27889 10.57698,12.54734 15.46914,19.10811 1.01113,1.37277 1.99719,2.73089 2.91964,4.07865 3.29937,4.85278 6.31561,9.95126 8.41786,15.44606 0.7704,4.04743 0.46686,8.2052 -0.084,12.25976 -0.091,0.57095 -0.21869,1.4814 -0.34098,2.17999 -0.54637,3.60795 -1.27626,7.26492 -3.09051,10.47767 -3.4904,6.58519 -9.47201,11.50558 -15.98262,14.93853 -4.4242,2.51884 -9.18808,4.44762 -14.13667,5.65186 -0.92709,0.23013 -2.11608,0.48739 -3.16001,0.67283 -5.44859,0.95715 -11.08253,1.12295 -16.53729,0.12611 -5.00716,-0.96305 -9.02717,-4.81098 -11.28942,-9.24276 -2.08354,-3.93575 -2.78034,-8.4606 -2.58256,-12.87371 0.0166,-3.25798 0.22042,-6.66754 0.4892,-9.81528 0.27749,-3.06356 0.66609,-6.25088 1.09766,-9.21094 2.21944,-15.20454 5.90886,-30.16895 7.58174,-45.45709 0.93559,-7.84688 1.46356,-15.84907 0.19505,-23.68884 -2.31056,-10.25698 -9.41596,-19.05469 -18.38255,-24.36014 -7.60299,-4.5686 -16.63505,-6.75747 -25.48546,-6.00525 -16.27957,0.43995 -32.22358,4.81541 -47.179387,11.07397 -11.110239,4.63238 -21.785058,10.24627 -32.204514,16.25514 -5.104106,3.35063 -8.574807,9.44265 -8.003395,15.62752 0.190526,1.46317 0.434231,2.91689 0.50586,4.39258 0.531708,5.06516 2.47954,10.26359 6.525177,13.55683 4.191293,3.4253 10.128411,4.20963 15.227337,2.61786 3.806014,-1.07077 7.428502,-3.10823 10.917408,-4.65516 1.406086,-0.60937 2.845048,-1.12883 4.226119,-1.79148 2.939391,-1.12767 6.191413,-1.29517 9.283876,-0.86184 1.750082,0.66526 2.93423,2.52026 2.782328,4.38978 0.543712,6.62565 -0.0057,13.28495 -0.913417,19.85339 -0.273339,1.93786 -0.595307,4.07093 -0.91793,6.08035 -1.484864,9.19838 -3.195044,18.49162 -3.372085,27.86633 -0.246456,5.79897 -0.06291,11.63012 0.887635,17.36386 2.030549,12.88357 7.455646,25.42068 16.436415,34.98852 7.326733,7.85456 16.757273,13.59136 26.892933,17.04955 8.28909,2.86394 17.02699,4.41357 25.78787,4.68992 13.68262,-0.038 27.5404,-0.24946 40.88167,-3.62359 13.12869,-3.11129 25.95207,-7.56594 38.06577,-13.52324 18.2261,-8.93214 34.95492,-21.14652 48.38387,-36.41662 11.07671,-12.79292 19.69048,-28.04205 23.23208,-44.68907 1.70181,-8.11754 2.15503,-16.52445 1.1163,-24.76062 -0.60476,-4.57804 -1.86779,-9.06144 -3.75119,-13.27793 -6.58757,-16.14977 -17.10462,-30.32105 -28.43933,-43.43602 -3.58243,-4.15133 -7.24113,-8.23653 -10.96182,-12.26457 0.63302,-0.30955 1.56835,-0.70806 2.26953,-0.86719 2.71537,-0.75863 6.02923,-0.81223 8.22299,1.21797 1.90239,1.70994 3.58233,3.64434 5.055,5.73369 2.78552,3.81597 5.69681,7.84561 10.03034,10.01607 4.89063,2.5164 10.99075,2.26169 15.76198,-0.42085 4.7898,-2.55305 8.51787,-6.58533 12.69399,-9.96876 6.61477,-6.07797 13.87746,-11.54243 19.57633,-18.54414 2.85293,-4.04951 3.11659,-9.45279 1.58909,-14.05859 -1.1816,-3.77929 -3.51874,-7.02591 -5.40581,-10.46505 -6.7917,-11.65858 -14.56513,-22.96518 -24.72703,-31.96151 -2.44765,-2.27821 -5.28779,-4.29275 -8.60784,-5.01693 -0.71126,-0.18628 -1.60032,-0.3033 -2.23591,-0.39127 4.17546,-1.25049 7.51882,-4.18415 10.65024,-7.08802 1.21446,-1.11288 2.50057,-2.2623 3.87319,-3.30847 18.47374,-16.647063 36.73837,-33.548854 54.07047,-51.392041 4.29926,-4.187986 5.64688,-10.80897 4.06996,-16.504729 -0.72715,-2.791293 -2.25199,-5.279809 -3.74899,-7.712182 -4.0091,-5.886783 -11.65404,-9.287649 -18.68234,-7.658058 -3.84446,0.81744 -6.94636,3.394756 -10.08214,5.602954 -4.85018,3.633423 -9.45354,7.614619 -14.6281,10.797387 -4.04696,2.472549 -7.86938,5.490188 -12.44441,6.943388 -0.8611,0.353594 -1.77315,0.355576 -2.67662,0.186703 -8.41215,-1.002335 -16.1738,-4.610022 -24.06736,-7.449216 -24.73513,-9.238617 -48.50977,-21.079511 -73.9335,-28.431393 -9.71426,-2.795428 -19.63482,-5.000164 -29.70725,-5.978068 -3.9977,-0.332687 -8.01141,-0.3975 -12.02128,-0.363723 z m 76.81055,104.513668 c 15.0596,4.08472 30.40396,7.50865 46.02343,8.38672 -2.80137,0.73068 -5.368,2.21736 -7.49394,4.16823 -16.85705,12.58926 -33.16471,25.88921 -49.79316,38.77708 -2.79485,-3.24553 -5.52335,-6.55319 -8.03125,-10.02734 -0.30857,-0.439 -0.8185,-1.14895 -1.19263,-1.70415 -3.70054,-5.44389 -6.84869,-11.42428 -8.14026,-17.92881 -0.69933,-3.72109 1.1432,-7.43734 3.6141,-10.11852 2.57928,-2.69521 5.81079,-4.65449 9.02095,-6.50416 1.13065,-0.62178 2.17786,-1.15188 3.28843,-1.68514 3.30379,-1.56573 6.72302,-2.87561 10.18089,-4.05727 0.84115,0.23112 1.68229,0.46224 2.52344,0.69336 z" />
    <g
       transform="matrix(42.197805,0,0,42.197805,49.345921,25.376233)"
       ns1:version="1.6.0"
       ns1:texconverter="pdflatex"
       ns1:pdfconverter="inkscape"
       ns1:text="$\\boldsymbol{\\mathfrak{F}}$"
       ns1:preamble="/home/hmara/Documents/diss/thesis_defines.tex"
       ns1:scale="2.834645669291339"
       ns1:alignment="middle center"
       ns1:stroke-to-path="0"
       ns1:inkscapeversion="0.91"
       ns1:jacobian_sqrt="3.77952"
       id="g1067">
      <defs
         id="id-6790ce43-c9db-4e82-ab79-dc41a9bebd98">
        <g
           id="id-0435c7b6-e6f1-41e9-acc2-2609c859dabe">
          <symbol
             overflow="visible"
             id="id-aad1cb5d-e4c1-4408-9a84-8fbf00a086d5">
            <path
               style="stroke:none;stroke-width:0"
               d=""
               id="id-07bfa0de-bc9d-4b34-8f2e-5ff50ec2eb17" />
          </symbol>
          <symbol
             overflow="visible"
             id="id-1b1c8c5c-616a-4002-8c7a-db232b1554ec">
            <path
               style="stroke:none;stroke-width:0"
               d="M 4.359375,-2.984375 C 4.015625,-3.34375 3.625,-3.796875 3.625,-4.21875 c 0,-0.46875 0.515625,-0.71875 0.96875,-0.859375 0.375,0.109375 0.8125,0.21875 1.21875,0.234375 0.34375,-0.265625 1.046875,-0.953125 1.5,-1.390625 L 7.203125,-6.40625 c -0.3125,0.25 -0.765625,0.609375 -1.015625,0.609375 -0.25,0 -0.875,-0.265625 -1.296875,-0.4375 C 4.265625,-6.5 3.546875,-6.8125 2.875,-6.8125 c -1.375,0 -2.046875,1.015625 -2.28125,2.015625 l 0.25,0.15625 c 0.140625,-0.546875 0.4375,-1.296875 1.25,-1.296875 0.515625,0 1.453125,0.421875 2.140625,0.734375 C 3.5,-4.859375 2.59375,-4.234375 2.59375,-3.59375 c 0,0.546875 0.671875,1.265625 1.125,1.78125 0.390625,0.453125 0.953125,1.078125 0.953125,1.46875 0,0.359375 -0.078125,0.75 -0.390625,1 -0.296875,0.25 -0.671875,0.40625 -1.078125,0.40625 -0.625,0 -0.859375,-0.46875 -0.859375,-0.90625 0,-0.5625 0.25,-1.3125 0.25,-1.90625 0,-0.296875 -0.28125,-0.546875 -0.625,-0.546875 -0.640625,0 -1.25,0.296875 -1.796875,0.609375 l 0.03125,0.234375 C 0.40625,-1.5625 0.671875,-1.6875 0.84375,-1.6875 c 0.359375,0 0.515625,0.265625 0.515625,0.53125 0,0.53125 -0.140625,0.859375 -0.140625,1.296875 0,0.796875 0.46875,1.328125 1.46875,1.328125 1.484375,0 3.09375,-1.09375 3.09375,-2.375 C 5.78125,-1.5 5.078125,-2.25 4.546875,-2.796875 4.734375,-2.953125 5,-3.125 5.21875,-3.125 c 0.328125,0 0.46875,0.21875 0.65625,0.5 l 0.6875,-0.609375 c -0.203125,-0.359375 -0.390625,-0.6875 -0.703125,-0.9375 z m 0,0"
               id="id-6743b82f-e77a-4f92-b16e-a910a3fbfbe3" />
          </symbol>
        </g>
      </defs>
      <g
         id="id-b5d27d0f-ae41-474a-9133-791d75328dea"
         transform="translate(-148.884,-127.953)">
        <g
           style="fill:#000000;fill-opacity:1"
           id="id-c61a5d75-e6e4-41ad-9037-a6c6046fc84b">
          <g
             transform="translate(148.712,134.765)"
             id="g1063">
            <path
               style="stroke:none;stroke-width:0"
               d="M 4.359375,-2.984375 C 4.015625,-3.34375 3.625,-3.796875 3.625,-4.21875 c 0,-0.46875 0.515625,-0.71875 0.96875,-0.859375 0.375,0.109375 0.8125,0.21875 1.21875,0.234375 0.34375,-0.265625 1.046875,-0.953125 1.5,-1.390625 L 7.203125,-6.40625 c -0.3125,0.25 -0.765625,0.609375 -1.015625,0.609375 -0.25,0 -0.875,-0.265625 -1.296875,-0.4375 C 4.265625,-6.5 3.546875,-6.8125 2.875,-6.8125 c -1.375,0 -2.046875,1.015625 -2.28125,2.015625 l 0.25,0.15625 c 0.140625,-0.546875 0.4375,-1.296875 1.25,-1.296875 0.515625,0 1.453125,0.421875 2.140625,0.734375 C 3.5,-4.859375 2.59375,-4.234375 2.59375,-3.59375 c 0,0.546875 0.671875,1.265625 1.125,1.78125 0.390625,0.453125 0.953125,1.078125 0.953125,1.46875 0,0.359375 -0.078125,0.75 -0.390625,1 -0.296875,0.25 -0.671875,0.40625 -1.078125,0.40625 -0.625,0 -0.859375,-0.46875 -0.859375,-0.90625 0,-0.5625 0.25,-1.3125 0.25,-1.90625 0,-0.296875 -0.28125,-0.546875 -0.625,-0.546875 -0.640625,0 -1.25,0.296875 -1.796875,0.609375 l 0.03125,0.234375 C 0.40625,-1.5625 0.671875,-1.6875 0.84375,-1.6875 c 0.359375,0 0.515625,0.265625 0.515625,0.53125 0,0.53125 -0.140625,0.859375 -0.140625,1.296875 0,0.796875 0.46875,1.328125 1.46875,1.328125 1.484375,0 3.09375,-1.09375 3.09375,-2.375 C 5.78125,-1.5 5.078125,-2.25 4.546875,-2.796875 4.734375,-2.953125 5,-3.125 5.21875,-3.125 c 0.328125,0 0.46875,0.21875 0.65625,0.5 l 0.6875,-0.609375 c -0.203125,-0.359375 -0.390625,-0.6875 -0.703125,-0.9375 z m 0,0"
               id="id-c9328394-ea15-4894-967e-14a2445eacb6" />
          </g>
        </g>
      </g>
    </g>
  </g>
</svg>
