<?xml version="1.0" encoding="UTF-8" standalone="no"?>
<!-- Created with Inkscape (http://www.inkscape.org/) -->

<svg
   width="400"
   height="400"
   viewBox="0 0 400 400.00001"
   id="svg2"
   version="1.1"
   inkscape:version="1.1.2 (0a00cf5339, 2022-02-04)"
   sodipodi:docname="gigamesh_icon_feature_vector_min_sign.svg"
   inkscape:export-filename="/export/home/hmara/Desktop/GigaMesh/forms/gigamesh_icon_background_grids_highlight_center.png"
   inkscape:export-xdpi="90"
   inkscape:export-ydpi="90"
   xmlns:inkscape="http://www.inkscape.org/namespaces/inkscape"
   xmlns:sodipodi="http://sodipodi.sourceforge.net/DTD/sodipodi-0.dtd"
   xmlns="http://www.w3.org/2000/svg"
   xmlns:svg="http://www.w3.org/2000/svg"
   xmlns:rdf="http://www.w3.org/1999/02/22-rdf-syntax-ns#"
   xmlns:cc="http://creativecommons.org/ns#"
   xmlns:dc="http://purl.org/dc/elements/1.1/"
   xmlns:ns1="http://www.iki.fi/pav/software/textext/">
  <defs
     id="defs4" />
  <sodipodi:namedview
     id="base"
     pagecolor="#ffffff"
     bordercolor="#666666"
     borderopacity="1.0"
     inkscape:pageopacity="0.0"
     inkscape:pageshadow="2"
     inkscape:zoom="1.979899"
     inkscape:cx="223.24371"
     inkscape:cy="229.30463"
     inkscape:document-units="px"
     inkscape:current-layer="layer2"
     showgrid="true"
     units="px"
     inkscape:snap-grids="true"
     inkscape:snap-bbox="true"
     inkscape:bbox-paths="true"
     inkscape:window-width="2122"
     inkscape:window-height="1177"
     inkscape:window-x="0"
     inkscape:window-y="0"
     inkscape:window-maximized="1"
     inkscape:pagecheckerboard="0">
    <inkscape:grid
       type="xygrid"
       id="grid4140"
       spacingx="5"
       spacingy="5.0000001"
       empspacing="5" />
  </sodipodi:namedview>
  <metadata
     id="metadata7">
    <rdf:RDF>
      <cc:Work
         rdf:about="">
        <dc:format>image/svg+xml</dc:format>
        <dc:type
           rdf:resource="http://purl.org/dc/dcmitype/StillImage" />
      </cc:Work>
    </rdf:RDF>
  </metadata>
  <g
     inkscape:label="White Backgrund"
     inkscape:groupmode="layer"
     id="layer1"
     transform="translate(0,-652.3622)"
     sodipodi:insensitive="true"
     style="display:none">
    <rect
       style="color:#000000;clip-rule:nonzero;display:inline;overflow:visible;visibility:visible;opacity:1;isolation:auto;mix-blend-mode:normal;color-interpolation:sRGB;color-interpolation-filters:linearRGB;solid-color:#000000;solid-opacity:1;fill:#ffffff;fill-opacity:1;fill-rule:evenodd;stroke:none;stroke-width:16;stroke-linecap:butt;stroke-linejoin:miter;stroke-miterlimit:4;stroke-dasharray:none;stroke-dashoffset:0;stroke-opacity:1;marker:none;color-rendering:auto;image-rendering:auto;shape-rendering:auto;text-rendering:auto;enable-background:accumulate"
       id="rect4905"
       width="400"
       height="400"
       x="0"
       y="652.36218" />
  </g>
  <g
     inkscape:groupmode="layer"
     id="layer2"
     inkscape:label="Icon">
    <path
       id="path19058"
       style="fill:#e6e6e6;stroke-width:5.68443;stroke-linecap:round;stop-color:#000000"
       d="m 23.361053,77.901348 c -1.015125,0.06768 -2.076204,0.07446 -3.180563,0.07949 -3.901816,0.02842 -8.036114,-0.196165 -11.6249722,1.607147 -5.119245,2.584812 -8.29092616,8.184774 -8.53269866,13.835126 -0.099743,1.992524 0.1651248,3.978366 0.077466,5.972924 0.049852,68.922305 -0.1134808,137.845185 0.094544,206.767125 0.200468,5.91525 4.45625896,11.22895 9.90306886,13.30949 2.546444,1.03847 5.342585,1.24567 8.05932,1.04279 4.617213,0.12124 9.505371,0.16324 13.688763,-2.08383 4.504537,-2.36918 7.145032,-7.34098 7.627783,-12.29097 0.426665,-3.60088 0.027,-7.22939 0.0024,-10.78382 0.03786,-2.16333 0.14288,-4.32378 0.09463,-6.4891 -0.04593,-65.51687 0.112408,-131.03431 -0.0944,-196.55078 -0.206191,-6.040736 -4.636879,-11.457913 -10.258306,-13.431819 -1.86476,-0.696988 -3.867641,-1.023703 -5.857025,-0.98377 z" />
    <path
       id="path19097"
       style="fill:#e6e6e6;stroke-width:5.68443;stroke-linecap:round;stop-color:#000000"
       d="M 101.44247,93.371844 C 82.583268,93.745889 64.431768,104.0495 53.877477,119.58832 c -5.613613,8.49466 -10.126756,17.89637 -11.914145,27.98251 -1.093392,5.5873 1.29522,11.47509 5.461021,15.23316 4.749291,4.43505 11.862682,6.53729 18.155938,4.54301 4.568409,-1.43438 8.352294,-4.98987 10.204027,-9.39068 1.86377,-3.99233 2.405946,-8.63812 5.2917,-12.11234 1.462475,-1.9623 3.512793,-3.88992 6.116454,-3.88831 2.255614,0.13936 4.535117,0.24721 6.738664,0.81162 2.622064,0.61509 5.153725,1.55017 7.668354,2.50245 -6.570039,5.60511 -12.440113,12.39928 -15.520677,20.56858 -2.239526,5.97986 -2.974915,12.6935 -1.144944,18.88196 0.45236,1.64729 1.03317,3.25649 1.672041,4.84004 -8.47364,-0.52292 -16.813276,1.72916 -24.728393,4.53648 -4.736124,1.59919 -9.269934,3.72064 -13.798689,5.82045 -4.217673,2.04702 -8.372841,4.43151 -11.705316,7.77133 -4.237371,4.79458 -5.046266,11.9901 -2.792497,17.86589 1.862126,5.14543 6.375205,9.47717 11.873571,10.37089 3.892556,0.70617 7.891885,-0.0915 11.553824,-1.45213 -1.092229,9.25346 -2.918405,18.73746 -1.938061,28.15858 0.796995,7.73239 3.56125,15.37235 8.558201,21.3943 6.745018,8.24902 16.821942,13.58488 27.386614,14.79075 18.677486,2.53776 37.959886,-1.95514 54.223016,-11.2902 7.60622,-4.37298 14.69678,-9.72877 20.68754,-16.15659 7.4915,-8.18117 13.18578,-18.28386 15.04509,-29.30352 1.28728,-7.60706 0.54081,-15.616 -2.57909,-22.70569 -1.3602,-3.23638 -3.05235,-6.32508 -4.9184,-9.29535 5.25938,-1.48527 9.47676,-5.16264 13.43671,-8.75895 1.68121,-1.58191 3.516,-2.99345 5.17585,-4.59545 3.49349,-3.46685 6.07396,-8.2102 5.86733,-13.24229 -0.16798,-3.69125 -2.02339,-7.00417 -3.68125,-10.21234 -3.07392,-5.65269 -7.12665,-10.69058 -11.25767,-15.59166 -0.24221,-0.46908 -0.91338,-0.87982 -0.14944,-1.20925 8.88697,-7.7948 17.55323,-15.86495 25.61702,-24.51416 5.23589,-6.19817 5.42193,-16.18853 0.0859,-22.3859 -3.82324,-4.42325 -10.12077,-6.38207 -15.80993,-5.17447 -4.54347,0.85967 -8.6197,3.30601 -12.10225,6.26865 -1.97268,1.21153 -3.69204,2.85193 -5.85242,3.74302 -4.06665,-1.09122 -8.09466,-2.49759 -11.96445,-3.96747 -12.81729,-4.90568 -25.21472,-11.048987 -38.55203,-14.489385 -6.82912,-1.756495 -13.88074,-2.687569 -20.93697,-2.563861 -0.63575,-0.01795 -1.27148,-0.0033 -1.90732,-1.5e-4 z m 42.86955,67.988746 c 0.53057,0.14508 1.36286,0.3745 2.02196,0.52186 0.4273,0.13691 1.47725,0.12865 0.63848,0.56229 -2.77316,2.22755 -5.53828,4.46632 -8.38142,6.60458 -1.08475,-1.49632 -2.16835,-3.08669 -2.5125,-4.93776 1.6925,-1.60474 3.93913,-2.40071 6.04473,-3.30542 0.72959,0.18482 1.45916,0.36964 2.18875,0.55445 z m -29.00233,67.5545 c 4.60584,5.32835 9.13297,10.81133 12.4869,17.03693 0.38098,3.33255 0.0444,7.10309 -2.33703,9.67259 -1.51013,1.4151 -3.38157,2.3765 -5.19188,3.34801 -3.15523,1.53357 -6.84138,2.65393 -10.32614,1.63954 -1.0006,-0.10287 -1.21912,-1.20155 -1.30084,-2.02784 -0.17671,-2.48815 0.13349,-5.13078 0.36253,-7.50842 0.89752,-7.75211 2.69426,-15.44269 3.77634,-23.22655 0.0701,-0.53085 0.149,-1.06075 0.21342,-1.59216 0.77223,0.88597 1.54447,1.77194 2.3167,2.6579 z" />
    <path
       id="path19136"
       style="fill:#e6e6e6;stroke-width:5.68443;stroke-linecap:round;stop-color:#000000"
       d="m 223.89588,77.901348 c -1.01512,0.06768 -2.07619,0.07446 -3.18055,0.07949 -3.88745,0.02838 -8.00286,-0.194414 -11.58427,1.585823 -5.10697,2.558667 -8.29314,8.115629 -8.56725,13.743728 -0.1267,1.992395 0.1603,3.978387 0.0693,5.972816 0.0556,68.992295 -0.12117,137.985425 0.10096,206.977185 0.24564,5.95206 4.58344,11.27668 10.10163,13.28758 2.4874,0.9893 5.20767,1.14848 7.85052,0.96743 4.58757,0.11792 9.43795,0.16646 13.60666,-2.03771 4.51637,-2.33331 7.19117,-7.27685 7.70226,-12.21885 0.55422,-4.5005 -0.20897,-9.02808 0.0864,-13.5396 0.0534,-9.15771 0.004,-18.31636 0.0202,-27.47446 -0.0244,-57.67558 0.10312,-115.35199 -0.0951,-173.02699 -0.25217,-6.037869 -4.71415,-11.424571 -10.3466,-13.36739 -1.83879,-0.672411 -3.80725,-0.988677 -5.76404,-0.949048 z" />
    <path
       id="path19175"
       style="fill:#e6e6e6;stroke-width:5.68443;stroke-linecap:round;stop-color:#000000"
       d="m 292.43328,214.40035 c -8.11136,0.23327 -15.93407,5.9275 -18.14389,13.82076 -0.705,2.31019 -0.59051,4.74879 -0.46141,7.12684 0,4.71856 0,9.43713 0,14.15569 -7.49407,-0.013 -15.12292,-0.62929 -22.47898,1.14989 -6.18707,1.87293 -10.77281,7.53398 -12.07459,13.76962 -1.28592,5.61309 0.11415,11.90523 4.11758,16.13204 1.94912,2.36453 4.74103,4.08799 7.50165,5.14128 -6.57468,2.15398 -11.26679,8.54504 -12.004,15.33672 -0.52031,4.16683 0.52769,8.47099 2.81283,11.98479 3.14633,5.40253 9.17902,9.27676 15.52756,9.07656 4.65454,-0.20427 9.3161,-0.0766 13.97378,-0.1245 19.66966,-0.007 39.34803,0.30416 59.01005,-0.36389 6.6903,-0.54088 12.56061,-5.44658 14.93543,-11.62605 1.30077,-3.22881 1.56322,-6.81023 0.96883,-10.22585 -0.92881,-6.12115 -5.36328,-11.45349 -11.02465,-13.8426 6.16508,-2.65695 10.30565,-8.95794 11.05264,-15.53839 0.73167,-5.69019 -1.17332,-11.78883 -5.4525,-15.70252 -3.55612,-3.52135 -8.64767,-4.96724 -13.54213,-5.14303 -4.15383,-0.18638 -8.31295,0.0742 -12.46744,-0.0866 -1.01417,-5.2e-4 -2.02835,-0.001 -3.04252,-0.002 -0.0746,-7.66209 0.48762,-15.41445 -0.93397,-22.98823 -2.98015,-7.15963 -10.48571,-12.22211 -18.27427,-12.05108 z" />
    <path
       id="path19214"
       style="fill:#e6e6e6;stroke-width:5.68443;stroke-linecap:round;stop-color:#000000"
       d="m 286.406,93.367967 c -10.13339,-0.283686 -20.55997,2.965451 -28.11451,9.865213 -2.25359,2.09068 -4.21102,4.47794 -6.14063,6.86303 -9.1998,12.06402 -11.53394,29.12011 -5.5152,43.1015 2.33353,5.37773 5.92267,10.17382 10.19959,14.16142 11.65951,10.62617 29.29706,14.23175 44.14171,8.81088 6.98547,-2.6627 13.28628,-6.85817 19.0066,-11.6242 7.33497,6.59698 15.96701,12.08806 25.65487,14.38183 4.35713,1.05184 8.87764,1.25552 13.33578,0.91701 11.89997,-0.46958 23.21203,-6.72873 30.58504,-15.9741 1.88341,-2.43483 3.66949,-4.95735 5.23435,-7.60919 7.45814,-13.0948 6.90499,-30.41412 -1.66926,-42.85844 -3.5646,-5.1555 -8.11387,-9.67527 -13.53479,-12.86192 -10.90734,-6.53274 -24.75907,-8.168043 -36.75969,-3.798119 -7.26442,2.533751 -13.7578,6.866689 -19.61649,11.787329 -7.65657,-6.96781 -16.95492,-12.450698 -27.21304,-14.395354 -3.1571,-0.604626 -6.38114,-0.860743 -9.59433,-0.766889 z m 71.0906,38.835203 c 1.85893,0.16787 3.97777,1.17856 4.48224,3.11921 -0.0391,0.77675 -0.13612,1.57418 -0.24929,2.33209 -0.34628,0.73048 -0.92161,1.31316 -1.43158,1.92918 -3.00269,0.14917 -6.15166,-0.71168 -8.34949,-2.83798 -0.56424,-0.41729 -1.11689,-0.8493 -1.654,-1.30106 2.08484,-1.6096 4.46653,-3.22395 7.20212,-3.24144 z m -72.4244,1.12636 c 3.06484,0.58235 5.68266,2.43987 8.01442,4.42209 -2.47969,1.86477 -5.59357,3.47699 -8.7828,2.80555 -1.56145,-0.38939 -3.12156,-1.74068 -3.0973,-3.44726 0.7377,-1.54537 2.11749,-2.66984 3.31122,-3.8618 0.18482,0.0271 0.36964,0.0543 0.55446,0.0814 z" />
    <g
       transform="matrix(21.323293,0,0,21.323293,15.300147,92.821736)"
       ns1:version="1.6.0"
       ns1:texconverter="pdflatex"
       ns1:pdfconverter="inkscape"
       ns1:text="$|\\boldsymbol{\\mathfrak{F}}|_\\pm^\\infty$"
       ns1:preamble="/home/hmara/Documents/diss/thesis_defines.tex"
       ns1:scale="28.545920724228715"
       ns1:alignment="middle center"
       ns1:stroke-to-path="0"
       ns1:inkscapeversion="1.1.2"
       ns1:jacobian_sqrt="38.0611"
       id="g1067"
       style="fill:#d40000">
      <defs
         id="id-1aa95bc2-ec2f-47fa-8b65-69d343ca3d2b">
        <g
           id="id-fd2b54d3-0643-49e1-83e0-e7edd7aefcc0">
          <symbol
             overflow="visible"
             id="id-f991873e-8b45-48dd-b095-450e99ec5b0b">
            <path
               style="stroke:none"
               d=""
               id="id-9db9171f-6f77-4c34-bc24-ba55e52a15f0" />
          </symbol>
          <symbol
             overflow="visible"
             id="id-ae9d67c8-7432-4813-9ace-b3e0dbf67135">
            <path
               style="stroke:none"
               d="M 1.3125,-7.53125 H 0.90625 c -0.015625,0 -0.015625,0 -0.015625,0.015625 v 9.9375 c 0,0.015625 0,0.015625 0.015625,0.015625 H 1.3125 c 0,0 0.015625,0 0.015625,-0.015625 v -9.9375 C 1.328125,-7.53125 1.3125,-7.53125 1.3125,-7.53125 Z m 0,0"
               id="id-73a04753-cc32-4480-bcee-1a2d5872731e" />
          </symbol>
          <symbol
             overflow="visible"
             id="id-bf82deb7-2320-42b8-8e07-5f47f1c192ee">
            <path
               style="stroke:none"
               d=""
               id="id-448534f2-6333-4346-93ed-3ca509298f86" />
          </symbol>
          <symbol
             overflow="visible"
             id="id-6347357d-d56b-4550-8af3-1cba78c39879">
            <path
               style="stroke:none"
               d="M 4.359375,-2.984375 C 4.015625,-3.34375 3.625,-3.796875 3.625,-4.21875 c 0,-0.46875 0.515625,-0.71875 0.96875,-0.859375 0.375,0.109375 0.8125,0.21875 1.21875,0.234375 0.34375,-0.265625 1.046875,-0.953125 1.5,-1.390625 L 7.203125,-6.40625 c -0.3125,0.25 -0.765625,0.609375 -1.015625,0.609375 -0.25,0 -0.875,-0.265625 -1.296875,-0.4375 C 4.265625,-6.5 3.546875,-6.8125 2.875,-6.8125 c -1.375,0 -2.046875,1.015625 -2.28125,2.015625 l 0.25,0.15625 c 0.140625,-0.546875 0.4375,-1.296875 1.25,-1.296875 0.515625,0 1.453125,0.421875 2.140625,0.734375 C 3.5,-4.859375 2.59375,-4.234375 2.59375,-3.59375 c 0,0.546875 0.671875,1.265625 1.125,1.78125 0.390625,0.453125 0.953125,1.078125 0.953125,1.46875 0,0.359375 -0.078125,0.75 -0.390625,1 -0.296875,0.25 -0.671875,0.40625 -1.078125,0.40625 -0.625,0 -0.859375,-0.46875 -0.859375,-0.90625 0,-0.5625 0.25,-1.3125 0.25,-1.90625 0,-0.296875 -0.28125,-0.546875 -0.625,-0.546875 -0.640625,0 -1.25,0.296875 -1.796875,0.609375 l 0.03125,0.234375 C 0.40625,-1.5625 0.671875,-1.6875 0.84375,-1.6875 c 0.359375,0 0.515625,0.265625 0.515625,0.53125 0,0.53125 -0.140625,0.859375 -0.140625,1.296875 0,0.796875 0.46875,1.328125 1.46875,1.328125 1.484375,0 3.09375,-1.09375 3.09375,-2.375 C 5.78125,-1.5 5.078125,-2.25 4.546875,-2.796875 4.734375,-2.953125 5,-3.125 5.21875,-3.125 c 0.328125,0 0.46875,0.21875 0.65625,0.5 l 0.6875,-0.609375 c -0.203125,-0.359375 -0.390625,-0.6875 -0.703125,-0.9375 z m 0,0"
               id="id-53b1a5be-4e16-4a30-a18b-5b6c1bfede67" />
          </symbol>
          <symbol
             overflow="visible"
             id="id-546061f0-b3fe-47c1-9418-79941e77d8eb">
            <path
               style="stroke:none"
               d=""
               id="id-86552dc7-94a2-4a75-ab25-e71d8d7cf827" />
          </symbol>
          <symbol
             overflow="visible"
             id="id-83bb3077-3c9b-4eea-90d0-9984d8805ab9">
            <path
               style="stroke:none"
               d="m 3.3125,-1.609375 c -0.40625,0.4375 -0.8125,0.84375 -1.34375,0.84375 -0.515625,0 -0.9375,-0.390625 -0.9375,-0.90625 0,-0.28125 0.21875,-0.5 0.421875,-0.703125 0.109375,-0.125 0.28125,-0.15625 0.453125,-0.15625 0.5625,0 1.046875,0.5625 1.40625,0.921875 z m 1.9375,1.28125 c 0.328125,0 0.65625,-0.109375 0.875,-0.328125 0.28125,-0.28125 0.5,-0.625 0.5,-1.015625 0,-0.71875 -0.59375,-1.28125 -1.3125,-1.28125 -0.671875,0 -1.140625,0.46875 -1.609375,0.953125 C 3.375,-2.359375 2.828125,-3 2.03125,-3 1.703125,-3 1.359375,-2.9375 1.125,-2.703125 c -0.28125,0.28125 -0.46875,0.640625 -0.46875,1.03125 0,0.71875 0.59375,1.28125 1.3125,1.28125 0.671875,0 1.140625,-0.46875 1.609375,-0.9375 0.34375,0.359375 0.875,1 1.671875,1 z m -1.28125,-1.40625 c 0.421875,-0.421875 0.8125,-0.84375 1.34375,-0.84375 0.515625,0 0.9375,0.40625 0.9375,0.90625 0,0.296875 -0.1875,0.53125 -0.375,0.734375 -0.125,0.125 -0.328125,0.125 -0.5,0.125 -0.5625,0 -1.046875,-0.546875 -1.40625,-0.921875 z m 0,0"
               id="id-f8522641-1a7a-4a65-bcab-c5f80fee4753" />
          </symbol>
          <symbol
             overflow="visible"
             id="id-88dd596d-2d0d-49aa-94ef-65b62e06d9d3">
            <path
               style="stroke:none"
               d="m 0.640625,0.0625 h 3.28125 c 0.109375,0 0.1875,-0.09375 0.1875,-0.1875 0,-0.109375 -0.078125,-0.1875 -0.1875,-0.1875 H 2.46875 v -1.265625 h 1.453125 c 0.109375,0 0.1875,-0.09375 0.1875,-0.1875 0,-0.109375 -0.078125,-0.1875 -0.1875,-0.1875 H 2.46875 V -3.40625 c 0,-0.109375 -0.078125,-0.1875 -0.1875,-0.1875 -0.09375,0 -0.1875,0.078125 -0.1875,0.1875 v 1.453125 H 0.640625 c -0.109375,0 -0.1875,0.078125 -0.1875,0.1875 0,0.09375 0.078125,0.1875 0.1875,0.1875 H 2.09375 V -0.3125 H 0.640625 c -0.109375,0 -0.1875,0.078125 -0.1875,0.1875 0,0.09375 0.078125,0.1875 0.1875,0.1875 z m 0,0"
               id="id-9cf44c90-daf3-48e6-ab89-b8a877e79f37" />
          </symbol>
        </g>
      </defs>
      <g
         id="id-8cfdff5e-7033-42c5-8cdb-84f75ab41562"
         transform="translate(-149.603,-127.234)"
         style="fill:#d40000">
        <g
           style="fill:#d40000;fill-opacity:1"
           id="id-e04ee867-85da-499a-8957-e9c147429c8b">
          <g
             transform="translate(148.712,134.765)"
             id="g18706"
             style="fill:#d40000">
            <path
               style="stroke:none;fill:#d40000"
               d="M 1.3125,-7.53125 H 0.90625 c -0.015625,0 -0.015625,0 -0.015625,0.015625 v 9.9375 c 0,0.015625 0,0.015625 0.015625,0.015625 H 1.3125 c 0,0 0.015625,0 0.015625,-0.015625 v -9.9375 C 1.328125,-7.53125 1.3125,-7.53125 1.3125,-7.53125 Z m 0,0"
               id="id-adb6b3ed-5b81-4913-ac3c-8dd9d58de984" />
          </g>
        </g>
        <g
           style="fill:#d40000;fill-opacity:1"
           id="id-f436661d-16e0-4132-acf9-fe9998489587">
          <g
             transform="translate(150.926,134.765)"
             id="g18710"
             style="fill:#d40000">
            <path
               style="stroke:none;fill:#d40000"
               d="M 4.359375,-2.984375 C 4.015625,-3.34375 3.625,-3.796875 3.625,-4.21875 c 0,-0.46875 0.515625,-0.71875 0.96875,-0.859375 0.375,0.109375 0.8125,0.21875 1.21875,0.234375 0.34375,-0.265625 1.046875,-0.953125 1.5,-1.390625 L 7.203125,-6.40625 c -0.3125,0.25 -0.765625,0.609375 -1.015625,0.609375 -0.25,0 -0.875,-0.265625 -1.296875,-0.4375 C 4.265625,-6.5 3.546875,-6.8125 2.875,-6.8125 c -1.375,0 -2.046875,1.015625 -2.28125,2.015625 l 0.25,0.15625 c 0.140625,-0.546875 0.4375,-1.296875 1.25,-1.296875 0.515625,0 1.453125,0.421875 2.140625,0.734375 C 3.5,-4.859375 2.59375,-4.234375 2.59375,-3.59375 c 0,0.546875 0.671875,1.265625 1.125,1.78125 0.390625,0.453125 0.953125,1.078125 0.953125,1.46875 0,0.359375 -0.078125,0.75 -0.390625,1 -0.296875,0.25 -0.671875,0.40625 -1.078125,0.40625 -0.625,0 -0.859375,-0.46875 -0.859375,-0.90625 0,-0.5625 0.25,-1.3125 0.25,-1.90625 0,-0.296875 -0.28125,-0.546875 -0.625,-0.546875 -0.640625,0 -1.25,0.296875 -1.796875,0.609375 l 0.03125,0.234375 C 0.40625,-1.5625 0.671875,-1.6875 0.84375,-1.6875 c 0.359375,0 0.515625,0.265625 0.515625,0.53125 0,0.53125 -0.140625,0.859375 -0.140625,1.296875 0,0.796875 0.46875,1.328125 1.46875,1.328125 1.484375,0 3.09375,-1.09375 3.09375,-2.375 C 5.78125,-1.5 5.078125,-2.25 4.546875,-2.796875 4.734375,-2.953125 5,-3.125 5.21875,-3.125 c 0.328125,0 0.46875,0.21875 0.65625,0.5 l 0.6875,-0.609375 c -0.203125,-0.359375 -0.390625,-0.6875 -0.703125,-0.9375 z m 0,0"
               id="id-f9131ab1-2e64-42d2-9464-41dbe4303604" />
          </g>
        </g>
        <g
           style="fill:#d40000;fill-opacity:1"
           id="id-398833a7-2c68-4110-9aeb-0c1e7b682443">
          <g
             transform="translate(158.116,134.765)"
             id="g18714"
             style="fill:#d40000">
            <path
               style="stroke:none;fill:#d40000"
               d="M 1.3125,-7.53125 H 0.90625 c -0.015625,0 -0.015625,0 -0.015625,0.015625 v 9.9375 c 0,0.015625 0,0.015625 0.015625,0.015625 H 1.3125 c 0,0 0.015625,0 0.015625,-0.015625 v -9.9375 C 1.328125,-7.53125 1.3125,-7.53125 1.3125,-7.53125 Z m 0,0"
               id="id-3bab09f6-f43e-4e42-9bda-81da2cfeae34" />
          </g>
        </g>
        <g
           style="fill:#d40000;fill-opacity:1"
           id="id-d04d09f7-3275-4804-a834-9b86916d8eea">
          <g
             transform="translate(160.329,130.954)"
             id="g18718"
             style="fill:#d40000">
            <path
               style="stroke:none;fill:#d40000"
               d="m 3.3125,-1.609375 c -0.40625,0.4375 -0.8125,0.84375 -1.34375,0.84375 -0.515625,0 -0.9375,-0.390625 -0.9375,-0.90625 0,-0.28125 0.21875,-0.5 0.421875,-0.703125 0.109375,-0.125 0.28125,-0.15625 0.453125,-0.15625 0.5625,0 1.046875,0.5625 1.40625,0.921875 z m 1.9375,1.28125 c 0.328125,0 0.65625,-0.109375 0.875,-0.328125 0.28125,-0.28125 0.5,-0.625 0.5,-1.015625 0,-0.71875 -0.59375,-1.28125 -1.3125,-1.28125 -0.671875,0 -1.140625,0.46875 -1.609375,0.953125 C 3.375,-2.359375 2.828125,-3 2.03125,-3 1.703125,-3 1.359375,-2.9375 1.125,-2.703125 c -0.28125,0.28125 -0.46875,0.640625 -0.46875,1.03125 0,0.71875 0.59375,1.28125 1.3125,1.28125 0.671875,0 1.140625,-0.46875 1.609375,-0.9375 0.34375,0.359375 0.875,1 1.671875,1 z m -1.28125,-1.40625 c 0.421875,-0.421875 0.8125,-0.84375 1.34375,-0.84375 0.515625,0 0.9375,0.40625 0.9375,0.90625 0,0.296875 -0.1875,0.53125 -0.375,0.734375 -0.125,0.125 -0.328125,0.125 -0.5,0.125 -0.5625,0 -1.046875,-0.546875 -1.40625,-0.921875 z m 0,0"
               id="id-88f1246d-0c85-44f1-aada-38f2b00e518a" />
          </g>
        </g>
        <g
           style="fill:#d40000;fill-opacity:1"
           id="id-5546f804-6d50-41b1-a1ca-2f2a6977ec7e">
          <g
             transform="translate(160.329,137.227)"
             id="g18722"
             style="fill:#d40000">
            <path
               style="stroke:none;fill:#d40000"
               d="m 0.640625,0.0625 h 3.28125 c 0.109375,0 0.1875,-0.09375 0.1875,-0.1875 0,-0.109375 -0.078125,-0.1875 -0.1875,-0.1875 H 2.46875 v -1.265625 h 1.453125 c 0.109375,0 0.1875,-0.09375 0.1875,-0.1875 0,-0.109375 -0.078125,-0.1875 -0.1875,-0.1875 H 2.46875 V -3.40625 c 0,-0.109375 -0.078125,-0.1875 -0.1875,-0.1875 -0.09375,0 -0.1875,0.078125 -0.1875,0.1875 v 1.453125 H 0.640625 c -0.109375,0 -0.1875,0.078125 -0.1875,0.1875 0,0.09375 0.078125,0.1875 0.1875,0.1875 H 2.09375 V -0.3125 H 0.640625 c -0.109375,0 -0.1875,0.078125 -0.1875,0.1875 0,0.09375 0.078125,0.1875 0.1875,0.1875 z m 0,0"
               id="id-74da9606-d985-46a2-b975-47115b25f825" />
          </g>
        </g>
      </g>
    </g>
  </g>
</svg>
