<?xml version="1.0" encoding="UTF-8" standalone="no"?>
<!-- Created with Inkscape (http://www.inkscape.org/) -->

<svg
   xmlns:dc="http://purl.org/dc/elements/1.1/"
   xmlns:cc="http://creativecommons.org/ns#"
   xmlns:rdf="http://www.w3.org/1999/02/22-rdf-syntax-ns#"
   xmlns:svg="http://www.w3.org/2000/svg"
   xmlns="http://www.w3.org/2000/svg"
   xmlns:sodipodi="http://sodipodi.sourceforge.net/DTD/sodipodi-0.dtd"
   xmlns:inkscape="http://www.inkscape.org/namespaces/inkscape"
   width="400"
   height="400"
   viewBox="0 0 400 400.00001"
   id="svg2"
   version="1.1"
   inkscape:version="0.91 r13725"
   sodipodi:docname="gigamesh_icon_select_axis_central_pixel.svg"
   inkscape:export-filename="/export/home/hmara/Desktop/GigaMesh/forms/gigamesh_icon_background_grids_highlight_center.png"
   inkscape:export-xdpi="90"
   inkscape:export-ydpi="90">
  <defs
     id="defs4">
    <marker
       inkscape:stockid="Arrow2Sstart"
       orient="auto"
       refY="0.0"
       refX="0.0"
       id="Arrow2Sstart"
       style="overflow:visible"
       inkscape:isstock="true">
      <path
         id="path9164"
         style="fill-rule:evenodd;stroke-width:0.625;stroke-linejoin:round;stroke:#000000;stroke-opacity:1;fill:#000000;fill-opacity:1"
         d="M 8.7185878,4.0337352 L -2.2072895,0.016013256 L 8.7185884,-4.0017078 C 6.9730900,-1.6296469 6.9831476,1.6157441 8.7185878,4.0337352 z "
         transform="scale(0.3) translate(-2.3,0)" />
    </marker>
    <marker
       inkscape:stockid="Arrow1Send"
       orient="auto"
       refY="0.0"
       refX="0.0"
       id="Arrow1Send"
       style="overflow:visible;"
       inkscape:isstock="true">
      <path
         id="path9149"
         d="M 0.0,0.0 L 5.0,-5.0 L -12.5,0.0 L 5.0,5.0 L 0.0,0.0 z "
         style="fill-rule:evenodd;stroke:#000000;stroke-width:1pt;stroke-opacity:1;fill:#000000;fill-opacity:1"
         transform="scale(0.2) rotate(180) translate(6,0)" />
    </marker>
    <marker
       inkscape:stockid="Arrow1Sstart"
       orient="auto"
       refY="0.0"
       refX="0.0"
       id="marker9622"
       style="overflow:visible"
       inkscape:isstock="true">
      <path
         id="path9624"
         d="M 0.0,0.0 L 5.0,-5.0 L -12.5,0.0 L 5.0,5.0 L 0.0,0.0 z "
         style="fill-rule:evenodd;stroke:#000000;stroke-width:1pt;stroke-opacity:1;fill:#000000;fill-opacity:1"
         transform="scale(0.2) translate(6,0)" />
    </marker>
    <marker
       inkscape:stockid="Arrow1Sstart"
       orient="auto"
       refY="0.0"
       refX="0.0"
       id="Arrow1Sstart"
       style="overflow:visible"
       inkscape:isstock="true">
      <path
         id="path9146"
         d="M 0.0,0.0 L 5.0,-5.0 L -12.5,0.0 L 5.0,5.0 L 0.0,0.0 z "
         style="fill-rule:evenodd;stroke:#000000;stroke-width:1pt;stroke-opacity:1;fill:#000000;fill-opacity:1"
         transform="scale(0.2) translate(6,0)" />
    </marker>
    <marker
       inkscape:stockid="Arrow1Lend"
       orient="auto"
       refY="0.0"
       refX="0.0"
       id="Arrow1Lend"
       style="overflow:visible;"
       inkscape:isstock="true">
      <path
         id="path9137"
         d="M 0.0,0.0 L 5.0,-5.0 L -12.5,0.0 L 5.0,5.0 L 0.0,0.0 z "
         style="fill-rule:evenodd;stroke:#000000;stroke-width:1pt;stroke-opacity:1;fill:#000000;fill-opacity:1"
         transform="scale(0.8) rotate(180) translate(12.5,0)" />
    </marker>
  </defs>
  <sodipodi:namedview
     id="base"
     pagecolor="#ffffff"
     bordercolor="#666666"
     borderopacity="1.0"
     inkscape:pageopacity="0.0"
     inkscape:pageshadow="2"
     inkscape:zoom="1.979899"
     inkscape:cx="171.59992"
     inkscape:cy="191.86611"
     inkscape:document-units="px"
     inkscape:current-layer="layer1"
     showgrid="true"
     units="px"
     inkscape:snap-grids="true"
     inkscape:snap-bbox="true"
     inkscape:bbox-paths="true"
     inkscape:window-width="1920"
     inkscape:window-height="1176"
     inkscape:window-x="0"
     inkscape:window-y="24"
     inkscape:window-maximized="1">
    <inkscape:grid
       type="xygrid"
       id="grid4140" />
  </sodipodi:namedview>
  <metadata
     id="metadata7">
    <rdf:RDF>
      <cc:Work
         rdf:about="">
        <dc:format>image/svg+xml</dc:format>
        <dc:type
           rdf:resource="http://purl.org/dc/dcmitype/StillImage" />
        <dc:title></dc:title>
      </cc:Work>
    </rdf:RDF>
  </metadata>
  <g
     inkscape:label="Layer 1"
     inkscape:groupmode="layer"
     id="layer1"
     transform="translate(0,-652.3622)">
    <path
       style="color:#000000;clip-rule:nonzero;display:inline;overflow:visible;visibility:visible;opacity:1;isolation:auto;mix-blend-mode:normal;color-interpolation:sRGB;color-interpolation-filters:linearRGB;solid-color:#000000;solid-opacity:1;fill:none;fill-opacity:1;fill-rule:nonzero;stroke:#e6e6e6;stroke-width:16;stroke-linecap:round;stroke-linejoin:miter;stroke-miterlimit:4;stroke-dasharray:none;stroke-dashoffset:0;stroke-opacity:1;marker:none;color-rendering:auto;image-rendering:auto;shape-rendering:auto;text-rendering:auto;enable-background:accumulate"
       d="M 99.938454,325.97609 C 94.181462,321.5481 84.698649,313.01551 81.920382,309.76352 L 79.595327,307.04201 200.42961,186.90253 C 359.97515,28.274376 350.91479,37.211218 353.97719,35.448315 c 2.44432,-1.407095 2.99261,-1.515229 7.68293,-1.515229 4.64377,0 5.26661,0.119577 7.72946,1.483953 8.82328,4.887942 11.62841,16.099163 6.01989,24.059571 -1.71426,2.433128 -269.83287,269.32796 -270.78554,269.54961 -0.30399,0.0707 -2.41246,-1.30184 -4.685476,-3.05013 z"
       id="path7221"
       inkscape:connector-curvature="0"
       transform="translate(0,652.3622)" />
    <path
       style="color:#000000;clip-rule:nonzero;display:inline;overflow:visible;visibility:visible;opacity:1;isolation:auto;mix-blend-mode:normal;color-interpolation:sRGB;color-interpolation-filters:linearRGB;solid-color:#000000;solid-opacity:1;fill:none;fill-opacity:1;fill-rule:nonzero;stroke:#e6e6e6;stroke-width:16;stroke-linecap:round;stroke-linejoin:miter;stroke-miterlimit:4;stroke-dasharray:none;stroke-dashoffset:0;stroke-opacity:1;marker:none;color-rendering:auto;image-rendering:auto;shape-rendering:auto;text-rendering:auto;enable-background:accumulate;filter-blend-mode:normal;filter-gaussianBlur-deviation:0"
       d="M 174.27682,384.15718 C 128.84114,379.46797 85.534398,357.16744 57.156591,323.84687 32.300784,294.66174 18.197736,262.54399 13.909257,225.35699 c -1.895563,-16.43712 -0.534964,-44.70378 2.479851,-51.51927 1.063577,-2.40439 3.875309,-5.40771 6.177127,-6.59803 1.937586,-1.00196 6.160022,-1.47075 9.17495,-1.01864 4.680081,0.70183 9.209318,5.19021 10.448045,10.3538 0.46724,1.94767 0.432569,3.62722 -0.169089,8.19097 -1.33792,10.14852 -1.424248,11.50217 -1.392651,21.83732 0.05683,18.58972 3.070004,35.45027 9.414766,52.68142 4.286918,11.64245 13.346548,28.12196 20.915626,38.04562 l 2.96854,3.89199 -2.733149,2.73315 -2.73315,2.73315 4.975183,5.80128 c 7.909949,9.22334 22.928624,22.11286 28.192094,24.19537 2.43464,0.96328 4.72675,0.52866 6.9348,-1.31496 1.95049,-1.62857 1.97572,-1.63415 3.28299,-0.72685 2.99062,2.07563 11.83007,6.77811 17.73607,9.43539 41.47354,18.66013 89.90709,17.55485 130.33354,-2.97428 22.80608,-11.58125 43.48681,-29.89431 57.41883,-50.84513 21.48044,-32.30204 29.73525,-70.95531 23.34749,-109.32485 -1.71167,-10.28148 -5.27019,-22.87449 -9.06277,-32.0716 -2.00328,-4.85799 -2.3118,-7.3853 -1.31864,-10.80168 2.44842,-8.42225 11.45505,-12.49891 19.22037,-8.69969 3.52934,1.72675 5.36895,3.97738 7.59229,9.28865 9.82649,23.47419 14.69567,52.99051 12.92888,78.37312 -2.65319,38.11696 -15.59814,71.50548 -39.3601,101.52033 -5.34023,6.7455 -21.4545,22.63806 -28.3675,27.9772 -27.74171,21.42588 -58.33282,33.83482 -92.29731,37.43937 -7.53599,0.79977 -28.76531,0.91682 -35.73952,0.19704 z"
       id="path7373"
       inkscape:connector-curvature="0"
       transform="translate(0,652.3622)" />
    <path
       style="color:#000000;clip-rule:nonzero;display:inline;overflow:visible;visibility:visible;opacity:1;isolation:auto;mix-blend-mode:normal;color-interpolation:sRGB;color-interpolation-filters:linearRGB;solid-color:#000000;solid-opacity:1;fill:none;fill-opacity:1;fill-rule:nonzero;stroke:#e6e6e6;stroke-width:16;stroke-linecap:round;stroke-linejoin:miter;stroke-miterlimit:4;stroke-dasharray:none;stroke-dashoffset:0;stroke-opacity:1;marker:none;color-rendering:auto;image-rendering:auto;shape-rendering:auto;text-rendering:auto;enable-background:accumulate;filter-blend-mode:normal;filter-gaussianBlur-deviation:0"
       d="m 43.714603,377.69901 c -4.565499,-1.49775 -8.797617,-5.26936 -10.712676,-9.547 -0.779002,-1.74005 -1.07928,-3.475 -1.111912,-6.42442 -0.07466,-6.74789 0.818591,-8.1221 13.659151,-21.0139 l 10.869003,-10.91238 6.40864,6.37765 c 3.524752,3.50771 9.019149,8.50459 12.20977,11.10419 3.190622,2.5996 5.859589,4.87242 5.931039,5.05072 0.291309,0.72696 -22.934952,23.21135 -25.131184,24.32847 -1.729186,0.87956 -3.299752,1.19135 -6.565992,1.3035 -2.361232,0.0811 -4.861359,-0.039 -5.555839,-0.26683 z"
       id="path7375"
       inkscape:connector-curvature="0"
       transform="translate(0,652.3622)" />
    <g
       id="g4263"
       transform="matrix(6.7341012,0,0,6.7341012,-20.202304,-6185.1896)">
      <g
         transform="translate(0,1.5000174)"
         id="g4146">
        <rect
           style="color:#000000;clip-rule:nonzero;display:inline;overflow:visible;visibility:visible;opacity:1;isolation:auto;mix-blend-mode:normal;color-interpolation:sRGB;color-interpolation-filters:linearRGB;solid-color:#000000;solid-opacity:1;fill:#000000;fill-opacity:1;fill-rule:evenodd;stroke:none;stroke-width:16;stroke-linecap:butt;stroke-linejoin:miter;stroke-miterlimit:4;stroke-dasharray:none;stroke-dashoffset:0;stroke-opacity:1;marker:none;color-rendering:auto;image-rendering:auto;shape-rendering:auto;text-rendering:auto;enable-background:accumulate"
           id="rect4138"
           width="34"
           height="9.0000172"
           x="3"
           y="1026.3622" />
        <rect
           y="15.499991"
           x="-1047.8622"
           height="9.0000172"
           width="34"
           id="rect4144"
           style="color:#000000;clip-rule:nonzero;display:inline;overflow:visible;visibility:visible;opacity:1;isolation:auto;mix-blend-mode:normal;color-interpolation:sRGB;color-interpolation-filters:linearRGB;solid-color:#000000;solid-opacity:1;fill:#000000;fill-opacity:1;fill-rule:evenodd;stroke:none;stroke-width:16;stroke-linecap:butt;stroke-linejoin:miter;stroke-miterlimit:4;stroke-dasharray:none;stroke-dashoffset:0;stroke-opacity:1;marker:none;color-rendering:auto;image-rendering:auto;shape-rendering:auto;text-rendering:auto;enable-background:accumulate"
           transform="matrix(0,-1,1,0,0,0)" />
      </g>
      <rect
         style="color:#000000;clip-rule:nonzero;display:inline;overflow:visible;visibility:visible;opacity:1;isolation:auto;mix-blend-mode:normal;color-interpolation:sRGB;color-interpolation-filters:linearRGB;solid-color:#000000;solid-opacity:1;fill:#d7d700;fill-opacity:1;fill-rule:evenodd;stroke:none;stroke-width:16;stroke-linecap:butt;stroke-linejoin:miter;stroke-miterlimit:4;stroke-dasharray:none;stroke-dashoffset:0;stroke-opacity:1;marker:none;color-rendering:auto;image-rendering:auto;shape-rendering:auto;text-rendering:auto;enable-background:accumulate"
         id="rect4152"
         width="30"
         height="5.0000172"
         x="5"
         y="1029.8622" />
      <rect
         transform="matrix(0,-1,1,0,0,0)"
         y="17.499992"
         x="-1047.3622"
         height="5.0000172"
         width="30"
         id="rect4158"
         style="color:#000000;clip-rule:nonzero;display:inline;overflow:visible;visibility:visible;opacity:1;isolation:auto;mix-blend-mode:normal;color-interpolation:sRGB;color-interpolation-filters:linearRGB;solid-color:#000000;solid-opacity:1;fill:#d7d700;fill-opacity:1;fill-rule:evenodd;stroke:none;stroke-width:16;stroke-linecap:butt;stroke-linejoin:miter;stroke-miterlimit:4;stroke-dasharray:none;stroke-dashoffset:0;stroke-opacity:1;marker:none;color-rendering:auto;image-rendering:auto;shape-rendering:auto;text-rendering:auto;enable-background:accumulate" />
    </g>
    <path
       sodipodi:nodetypes="cc"
       style="display:inline;fill:#008000;stroke:#008000;stroke-width:34;stroke-linecap:round;stroke-linejoin:miter;stroke-miterlimit:4;stroke-dasharray:none;stroke-opacity:1"
       d="M 361.64108,702.56496 48.432518,1013.9662"
       id="path3112-4-7"
       inkscape:connector-curvature="0" />
    <path
       style="color:#000000;clip-rule:nonzero;display:inline;overflow:visible;visibility:visible;opacity:1;isolation:auto;mix-blend-mode:normal;color-interpolation:sRGB;color-interpolation-filters:linearRGB;solid-color:#000000;solid-opacity:1;fill:none;fill-opacity:1;fill-rule:evenodd;stroke:#000000;stroke-width:28;stroke-linecap:round;stroke-linejoin:round;stroke-miterlimit:4;stroke-dasharray:none;stroke-dashoffset:0;stroke-opacity:1;marker:none;color-rendering:auto;image-rendering:auto;shape-rendering:auto;text-rendering:auto;enable-background:accumulate"
       id="path9128"
       sodipodi:type="arc"
       sodipodi:cx="191.65477"
       sodipodi:cy="858.56519"
       sodipodi:rx="165"
       sodipodi:ry="165"
       sodipodi:start="5.8809415"
       sodipodi:end="3.3038148"
       d="M 343.48528,793.97032 A 165,165 0 0 1 302.63018,980.66948 165,165 0 0 1 112.88779,1003.5506 165,165 0 0 1 28.821085,831.91578"
       sodipodi:open="true" />
  </g>
</svg>
