<?xml version="1.0" encoding="UTF-8" standalone="no"?>
<!-- Created with Inkscape (http://www.inkscape.org/) -->

<svg
   xmlns:dc="http://purl.org/dc/elements/1.1/"
   xmlns:cc="http://creativecommons.org/ns#"
   xmlns:rdf="http://www.w3.org/1999/02/22-rdf-syntax-ns#"
   xmlns:svg="http://www.w3.org/2000/svg"
   xmlns="http://www.w3.org/2000/svg"
   xmlns:sodipodi="http://sodipodi.sourceforge.net/DTD/sodipodi-0.dtd"
   xmlns:inkscape="http://www.inkscape.org/namespaces/inkscape"
   width="400"
   height="400"
   viewBox="0 0 400 400.00001"
   id="svg2"
   version="1.1"
   inkscape:version="0.91 r13725"
   sodipodi:docname="gigamesh_icon_vertices_select_single_vertex.svg"
   inkscape:export-filename="/export/home/hmara/Desktop/GigaMesh/forms/gigamesh_icon_background_grids_highlight_center.png"
   inkscape:export-xdpi="90"
   inkscape:export-ydpi="90">
  <defs
     id="defs4">
    <marker
       style="overflow:visible"
       inkscape:stockid="InfiniteLineStart"
       id="InfiniteLineStart"
       refX="0"
       refY="0"
       orient="auto"
       inkscape:isstock="true">
      <g
         id="g4402"
         style="fill:#000000;stroke:#000000;stroke-opacity:1;fill-opacity:1"
         transform="translate(-13,0)">
        <circle
           id="circle4404"
           r="0.8"
           cy="0"
           cx="3"
           style="stroke:#000000;stroke-opacity:1;fill:#000000;fill-opacity:1" />
        <circle
           id="circle4406"
           r="0.8"
           cy="0"
           cx="6.5"
           style="stroke:#000000;stroke-opacity:1;fill:#000000;fill-opacity:1" />
        <circle
           id="circle4408"
           r="0.8"
           cy="0"
           cx="10"
           style="stroke:#000000;stroke-opacity:1;fill:#000000;fill-opacity:1" />
      </g>
    </marker>
    <marker
       inkscape:stockid="Torso"
       orient="auto"
       refY="0.0"
       refX="0.0"
       id="Torso"
       style="overflow:visible"
       inkscape:isstock="true">
      <g
         id="g4370"
         transform="scale(0.7)"
         style="stroke:#000000;stroke-opacity:1;fill:#000000;fill-opacity:1">
        <path
           id="path4372"
           d="M -4.7792281,-3.2395420 C -2.4288541,-2.8736027 0.52103922,-1.3019943 0.25792722,0.38794346 C -0.0051877922,2.0778819 -2.2126741,2.6176539 -4.5630471,2.2517169 C -6.9134221,1.8857769 -8.5210350,0.75201414 -8.2579220,-0.93792336 C -7.9948090,-2.6278615 -7.1296041,-3.6054813 -4.7792281,-3.2395420 z "
           style="fill:#000000;fill-opacity:1;fill-rule:evenodd;stroke:#000000;stroke-width:1.25;stroke-opacity:1" />
        <path
           id="path4374"
           d="M 4.4598789,0.088665736 C -2.5564571,-4.3783320 5.2248769,-3.9061806 -0.84829578,-8.7197331"
           style="fill:#000000;fill-opacity:1;fill-rule:evenodd;stroke:#000000;stroke-width:1pt;stroke-opacity:1" />
        <path
           id="path4376"
           d="M 4.9298719,0.057520736 C -1.3872731,1.7494689 1.8027579,5.4782079 -4.9448731,7.5462725"
           style="fill:#000000;fill-opacity:1;fill-rule:evenodd;stroke:#000000;stroke-width:1pt;stroke-opacity:1" />
        <rect
           id="rect4378"
           transform="matrix(0.527536,-0.849533,0.887668,0.460484,0,0)"
           y="-1.7408575"
           x="-10.391706"
           height="2.7608147"
           width="2.6366582"
           style="fill-rule:evenodd;stroke-width:1pt;stroke:#000000;stroke-opacity:1;fill:#000000;fill-opacity:1" />
        <rect
           id="rect4380"
           transform="matrix(0.671205,-0.741272,0.790802,0.612072,0,0)"
           y="-7.9629307"
           x="4.9587269"
           height="2.8614161"
           width="2.7327356"
           style="fill-rule:evenodd;stroke-width:1pt;stroke:#000000;stroke-opacity:1;fill:#000000;fill-opacity:1" />
        <path
           id="path4382"
           transform="matrix(0,-1.109517,1.109517,0,25.96648,19.71619)"
           d="M 16.779951 -28.685045 A 0.60731727 0.60731727 0 1 0 15.565317,-28.685045 A 0.60731727 0.60731727 0 1 0 16.779951 -28.685045 z"
           style="fill:#000000;fill-opacity:1;fill-rule:evenodd;stroke:#000000;stroke-width:1pt;stroke-opacity:1" />
        <path
           id="path4384"
           transform="matrix(0,-1.109517,1.109517,0,26.82450,16.99126)"
           d="M 16.779951 -28.685045 A 0.60731727 0.60731727 0 1 0 15.565317,-28.685045 A 0.60731727 0.60731727 0 1 0 16.779951 -28.685045 z"
           style="fill:#000000;fill-opacity:1;fill-rule:evenodd;stroke:#000000;stroke-width:1pt;stroke-opacity:1" />
      </g>
    </marker>
    <marker
       style="overflow:visible"
       inkscape:stockid="InfiniteLineEnd"
       id="marker5440"
       refX="0"
       refY="0"
       orient="auto"
       inkscape:isstock="true">
      <g
         id="g5442"
         style="fill:#000000;stroke:#000000;stroke-opacity:1;fill-opacity:1">
        <circle
           id="circle5444"
           r="0.8"
           cy="0"
           cx="3"
           style="stroke:#000000;stroke-opacity:1;fill:#000000;fill-opacity:1" />
        <circle
           id="circle5446"
           r="0.8"
           cy="0"
           cx="6.5"
           style="stroke:#000000;stroke-opacity:1;fill:#000000;fill-opacity:1" />
        <circle
           id="circle5448"
           r="0.8"
           cy="0"
           cx="10"
           style="stroke:#000000;stroke-opacity:1;fill:#000000;fill-opacity:1" />
      </g>
    </marker>
    <marker
       style="overflow:visible"
       inkscape:stockid="InfiniteLineEnd"
       id="marker5365"
       refX="0"
       refY="0"
       orient="auto"
       inkscape:isstock="true">
      <g
         id="g5367"
         style="fill:#000000;stroke:#000000;stroke-opacity:1;fill-opacity:1">
        <circle
           id="circle5369"
           r="0.8"
           cy="0"
           cx="3"
           style="stroke:#000000;stroke-opacity:1;fill:#000000;fill-opacity:1" />
        <circle
           id="circle5371"
           r="0.8"
           cy="0"
           cx="6.5"
           style="stroke:#000000;stroke-opacity:1;fill:#000000;fill-opacity:1" />
        <circle
           id="circle5373"
           r="0.8"
           cy="0"
           cx="10"
           style="stroke:#000000;stroke-opacity:1;fill:#000000;fill-opacity:1" />
      </g>
    </marker>
    <filter
       inkscape:collect="always"
       style="color-interpolation-filters:sRGB"
       id="filter7427"
       x="-0.060702715"
       width="1.1214054"
       y="-0.059313369"
       height="1.1186267">
      <feGaussianBlur
         inkscape:collect="always"
         stdDeviation="8.7260152"
         id="feGaussianBlur7429" />
    </filter>
  </defs>
  <sodipodi:namedview
     id="base"
     pagecolor="#ffffff"
     bordercolor="#666666"
     borderopacity="1.0"
     inkscape:pageopacity="0.0"
     inkscape:pageshadow="2"
     inkscape:zoom="1.4"
     inkscape:cx="225.00341"
     inkscape:cy="302.08484"
     inkscape:document-units="px"
     inkscape:current-layer="layer3"
     showgrid="true"
     units="px"
     inkscape:snap-grids="false"
     inkscape:snap-bbox="true"
     inkscape:bbox-paths="true"
     inkscape:window-width="1920"
     inkscape:window-height="1176"
     inkscape:window-x="0"
     inkscape:window-y="24"
     inkscape:window-maximized="1"
     inkscape:object-nodes="true">
    <inkscape:grid
       type="xygrid"
       id="grid4140"
       spacingx="5"
       spacingy="5.0000001"
       empspacing="5" />
  </sodipodi:namedview>
  <metadata
     id="metadata7">
    <rdf:RDF>
      <cc:Work
         rdf:about="">
        <dc:format>image/svg+xml</dc:format>
        <dc:type
           rdf:resource="http://purl.org/dc/dcmitype/StillImage" />
        <dc:title />
      </cc:Work>
    </rdf:RDF>
  </metadata>
  <g
     inkscape:label="White Backgrund"
     inkscape:groupmode="layer"
     id="layer1"
     transform="translate(0,-652.3622)"
     sodipodi:insensitive="true"
     style="display:none">
    <rect
       style="color:#000000;clip-rule:nonzero;display:inline;overflow:visible;visibility:visible;opacity:1;isolation:auto;mix-blend-mode:normal;color-interpolation:sRGB;color-interpolation-filters:linearRGB;solid-color:#000000;solid-opacity:1;fill:#ffffff;fill-opacity:1;fill-rule:evenodd;stroke:none;stroke-width:16;stroke-linecap:butt;stroke-linejoin:miter;stroke-miterlimit:4;stroke-dasharray:none;stroke-dashoffset:0;stroke-opacity:1;marker:none;color-rendering:auto;image-rendering:auto;shape-rendering:auto;text-rendering:auto;enable-background:accumulate"
       id="rect4905"
       width="400"
       height="400"
       x="0"
       y="652.36218" />
  </g>
  <g
     inkscape:groupmode="layer"
     id="layer2"
     inkscape:label="Icon">
    <path
       style="fill:#b3b3b3;fill-rule:evenodd;stroke:none;stroke-width:1px;stroke-linecap:butt;stroke-linejoin:miter;stroke-opacity:1;filter:url(#filter7427)"
       d="M 295,20.000002 370,120 348.53553,363.33503 53.736034,373.08122 25,195 60,40.000002 Z"
       id="path7377"
       inkscape:connector-curvature="0"
       sodipodi:nodetypes="ccccccc" />
    <path
       style="fill:none;fill-rule:evenodd;stroke:#000000;stroke-width:22;stroke-linecap:round;stroke-linejoin:miter;stroke-opacity:1;stroke-miterlimit:4;stroke-dasharray:none"
       d="m 25,195 170,0"
       id="path5135"
       inkscape:connector-curvature="0" />
    <path
       style="fill:none;fill-rule:evenodd;stroke:#000000;stroke-width:22;stroke-linecap:round;stroke-linejoin:miter;stroke-opacity:1;stroke-miterlimit:4;stroke-dasharray:none"
       d="M 60,40.000002 195,195 295,20.000002"
       id="path5137"
       inkscape:connector-curvature="0" />
    <path
       style="fill:none;fill-rule:evenodd;stroke:#000000;stroke-width:22;stroke-linecap:round;stroke-linejoin:miter;stroke-opacity:1;stroke-miterlimit:4;stroke-dasharray:none"
       d="M 348.53553,363.33503 195,195 53.736034,373.08122"
       id="path5139"
       inkscape:connector-curvature="0"
       sodipodi:nodetypes="ccc" />
    <path
       style="fill:none;fill-rule:evenodd;stroke:#000000;stroke-width:22;stroke-linecap:round;stroke-linejoin:miter;stroke-opacity:1;stroke-miterlimit:4;stroke-dasharray:none"
       d="M 195,195 370,120"
       id="path5141"
       inkscape:connector-curvature="0" />
  </g>
  <g
     inkscape:groupmode="layer"
     id="layer3"
     inkscape:label="Star"
     style="display:inline">
    <path
       style="fill:#ff8000;fill-opacity:1;stroke:#e6e6e6;stroke-width:18;stroke-miterlimit:4;stroke-dasharray:none;stroke-opacity:1"
       d="m 213.86607,300.38982 c -8.08228,-5.31946 -14.905,-14.52251 -24.11355,-32.52641 -4.53291,-8.86238 -9.21421,-17.08601 -10.40291,-18.2747 -3.60755,-3.60755 -8.16235,-2.51701 -25.07024,6.0025 -18.99018,9.56875 -28.22555,12.52458 -39.13247,12.52458 -15.600562,0 -19.876445,-9.99965 -11.55163,-27.01494 2.58276,-5.27897 8.80256,-13.02596 18.63528,-23.21088 8.11724,-8.40801 15.42333,-16.55764 16.23576,-18.11031 2.18661,-4.17891 -1.35595,-10.38255 -10.28507,-18.01094 -8.98821,-7.67886 -20.9722,-22.29872 -25.31819,-30.88693 -6.876861,-13.58947 -2.71241,-24.38777 9.95604,-25.81568 9.218,-1.03901 21.67281,2.80772 42.19906,13.03332 22.88355,11.39996 22.17175,11.61518 33.29739,-10.0676 11.70969,-22.82106 18.49203,-31.68806 27.97796,-36.5775 9.21061,-4.74754 14.55562,-3.07386 19.25289,6.02868 4.40621,8.53845 4.83863,23.76992 1.28927,45.41433 -3.00252,18.30975 -2.60525,23.29542 1.99696,25.06145 1.29357,0.49639 10.06736,2.14027 19.49732,3.65308 18.98562,3.04574 29.99102,6.43715 37.92291,11.68622 5.25204,3.47564 5.26266,3.50182 5.26266,12.99505 0,8.86511 -0.2801,9.74806 -4.11617,12.9759 -6.24456,5.25445 -17.65093,8.93416 -39.14997,12.62981 -15.81676,2.71888 -19.94328,3.909 -21.9022,6.31679 -2.96088,3.63937 -2.97581,2.73303 0.3591,21.79224 4.51329,25.79366 3.06493,42.83767 -4.30707,50.68481 -4.21197,4.4834 -11.44045,4.36528 -18.53313,-0.30287 z"
       id="path4147"
       inkscape:connector-curvature="0" />
  </g>
</svg>
