<?xml version="1.0" encoding="UTF-8" standalone="no"?>
<!-- Created with Inkscape (http://www.inkscape.org/) -->

<svg
   xmlns:dc="http://purl.org/dc/elements/1.1/"
   xmlns:cc="http://creativecommons.org/ns#"
   xmlns:rdf="http://www.w3.org/1999/02/22-rdf-syntax-ns#"
   xmlns:svg="http://www.w3.org/2000/svg"
   xmlns="http://www.w3.org/2000/svg"
   xmlns:xlink="http://www.w3.org/1999/xlink"
   xmlns:sodipodi="http://sodipodi.sourceforge.net/DTD/sodipodi-0.dtd"
   xmlns:inkscape="http://www.inkscape.org/namespaces/inkscape"
   width="400"
   height="400"
   viewBox="0 0 400 400.00001"
   id="svg2"
   version="1.1"
   inkscape:version="0.91 r13725"
   sodipodi:docname="gigamesh_icon_select_sphere.svg"
   inkscape:export-filename="/export/home/hmara/Desktop/GigaMesh/forms/gigamesh_icon_background_grids_highlight_center.png"
   inkscape:export-xdpi="90"
   inkscape:export-ydpi="90">
  <defs
     id="defs4">
    <radialGradient
       gradientTransform="matrix(-1.240926,0,0,-1.2352579,136.74093,136.54427)"
       gradientUnits="userSpaceOnUse"
       r="75.422585"
       fy="34.694408"
       fx="34.694408"
       cy="34.694408"
       cx="34.694408"
       id="radialGradient7991"
       xlink:href="#linearGradient7977"
       inkscape:collect="always" />
    <linearGradient
       id="linearGradient7977">
      <stop
         id="stop7979"
         offset="0"
         style="stop-color:#ffeded;stop-opacity:1" />
      <stop
         id="stop7981"
         offset="1"
         style="stop-color:#ff8181;stop-opacity:1" />
    </linearGradient>
  </defs>
  <sodipodi:namedview
     id="base"
     pagecolor="#ffffff"
     bordercolor="#666666"
     borderopacity="1.0"
     inkscape:pageopacity="0.0"
     inkscape:pageshadow="2"
     inkscape:zoom="1.979899"
     inkscape:cx="111.40811"
     inkscape:cy="230.874"
     inkscape:document-units="px"
     inkscape:current-layer="layer2"
     showgrid="true"
     units="px"
     inkscape:snap-grids="true"
     inkscape:snap-bbox="true"
     inkscape:bbox-paths="true"
     inkscape:window-width="1920"
     inkscape:window-height="1176"
     inkscape:window-x="0"
     inkscape:window-y="24"
     inkscape:window-maximized="1">
    <inkscape:grid
       type="xygrid"
       id="grid4140"
       spacingx="5"
       spacingy="5.0000001"
       empspacing="5" />
  </sodipodi:namedview>
  <metadata
     id="metadata7">
    <rdf:RDF>
      <cc:Work
         rdf:about="">
        <dc:format>image/svg+xml</dc:format>
        <dc:type
           rdf:resource="http://purl.org/dc/dcmitype/StillImage" />
        <dc:title></dc:title>
      </cc:Work>
    </rdf:RDF>
  </metadata>
  <g
     inkscape:label="White Backgrund"
     inkscape:groupmode="layer"
     id="layer1"
     transform="translate(0,-652.3622)"
     sodipodi:insensitive="true"
     style="display:none">
    <rect
       style="color:#000000;clip-rule:nonzero;display:inline;overflow:visible;visibility:visible;opacity:1;isolation:auto;mix-blend-mode:normal;color-interpolation:sRGB;color-interpolation-filters:linearRGB;solid-color:#000000;solid-opacity:1;fill:#ffffff;fill-opacity:1;fill-rule:evenodd;stroke:none;stroke-width:16;stroke-linecap:butt;stroke-linejoin:miter;stroke-miterlimit:4;stroke-dasharray:none;stroke-dashoffset:0;stroke-opacity:1;marker:none;color-rendering:auto;image-rendering:auto;shape-rendering:auto;text-rendering:auto;enable-background:accumulate"
       id="rect4905"
       width="400"
       height="400"
       x="0"
       y="652.36218" />
  </g>
  <g
     inkscape:groupmode="layer"
     id="layer2"
     inkscape:label="Icon">
    <circle
       r="198.00664"
       cy="200"
       cx="200"
       id="path7467"
       style="display:inline;opacity:1;fill:url(#radialGradient7991);fill-opacity:1;stroke:#000000;stroke-width:3.98671007;stroke-miterlimit:4;stroke-dasharray:none;stroke-opacity:1" />
    <path
       inkscape:connector-curvature="0"
       id="path7467-2"
       d="m 1.333278,200 c 0,-42.53497 88.946121,-77.01638 198.666722,-77.01638 109.72059,0 198.66674,34.48141 198.66674,77.01638"
       style="display:inline;opacity:1;fill:none;stroke:#000000;stroke-width:2;stroke-linecap:round;stroke-miterlimit:4;stroke-dasharray:2,8;stroke-dashoffset:0;stroke-opacity:1" />
    <path
       inkscape:connector-curvature="0"
       id="path8034"
       d="m 398.66674,200 c 0,42.53499 -88.94615,77.01632 -198.66674,77.01632 C 90.279399,277.01632 1.333278,242.53499 1.333278,200"
       style="display:inline;opacity:1;fill:none;stroke:#000000;stroke-width:2;stroke-linecap:round;stroke-miterlimit:4;stroke-dasharray:none;stroke-opacity:1" />
    <path
       inkscape:connector-curvature="0"
       id="path6875"
       d="m 235.30742,102.15982 c -2.12828,-1.40075 -3.92488,-3.824155 -6.34972,-8.565045 -1.19364,-2.3337 -2.42633,-4.49919 -2.73935,-4.81221 -0.94996,-0.94996 -2.14936,-0.66279 -6.60164,1.58061 -5.00061,2.51971 -7.43252,3.29805 -10.30459,3.29805 -4.10803,0 -5.23398,-2.63317 -3.04185,-7.11373 0.68011,-1.39009 2.31795,-3.43007 4.90716,-6.11204 2.13747,-2.21404 4.06136,-4.36005 4.27529,-4.76891 0.57579,-1.10041 -0.35706,-2.73399 -2.70832,-4.74274 -2.36683,-2.02204 -5.52253,-5.87183 -6.66694,-8.13333 -1.81086,-3.57846 -0.71425,-6.42193 2.62169,-6.79793 2.42733,-0.27361 5.70701,0.73934 11.1121,3.432 6.02583,3.00191 5.83839,3.05858 8.76805,-2.65105 3.08347,-6.00938 4.86943,-8.34429 7.36732,-9.63181 2.4254,-1.25014 3.83288,-0.80942 5.06979,1.58751 1.16027,2.24839 1.27414,6.25924 0.3395,11.95877 -0.79064,4.82143 -0.68604,6.13429 0.52585,6.59933 0.34063,0.13071 2.65099,0.56358 5.13415,0.96195 4.9994,0.80202 7.89741,1.69507 9.98608,3.07728 1.383,0.91523 1.3858,0.92212 1.3858,3.42193 0,2.33441 -0.0738,2.56692 -1.0839,3.41689 -1.64435,1.38363 -4.64795,2.35259 -10.3092,3.32576 -4.16496,0.71596 -5.25158,1.02935 -5.76741,1.66338 -0.77968,0.95834 -0.78361,0.71968 0.0946,5.73846 1.18846,6.79214 0.80707,11.280275 -1.13417,13.346625 -1.10912,1.18059 -3.01257,1.1495 -4.88025,-0.0798 z"
       style="fill:#ff0000;fill-opacity:1;stroke:#e6e6e6;stroke-width:4.73987484;stroke-miterlimit:4;stroke-dasharray:none;stroke-opacity:1" />
    <path
       style="fill:#ff0000;fill-opacity:1;stroke:#e6e6e6;stroke-width:4.73987484;stroke-miterlimit:4;stroke-dasharray:none;stroke-opacity:1"
       d="m 102.47236,236.5101 c -2.12828,-1.40075 -3.924879,-3.82415 -6.349719,-8.56504 -1.19364,-2.3337 -2.42633,-4.49919 -2.73935,-4.81221 -0.94996,-0.94996 -2.14936,-0.66279 -6.60164,1.58061 -5.00061,2.51971 -7.43252,3.29805 -10.30459,3.29805 -4.10803,0 -5.23398,-2.63317 -3.04185,-7.11373 0.68011,-1.39009 2.31795,-3.43007 4.90716,-6.11204 2.13747,-2.21404 4.06136,-4.36005 4.27529,-4.76891 0.57579,-1.10041 -0.35706,-2.73399 -2.70832,-4.74274 -2.36683,-2.02204 -5.52253,-5.87183 -6.66694,-8.13333 -1.81086,-3.57846 -0.71425,-6.42193 2.62169,-6.79793 2.42733,-0.27361 5.70701,0.73934 11.1121,3.432 6.02583,3.00191 5.83839,3.05858 8.76805,-2.65105 3.08347,-6.00938 4.869429,-8.34429 7.367319,-9.63181 2.4254,-1.25014 3.83288,-0.80942 5.06979,1.58751 1.16027,2.24839 1.27414,6.25924 0.3395,11.95877 -0.79064,4.82143 -0.68604,6.13429 0.52585,6.59933 0.34063,0.13071 2.65099,0.56358 5.13415,0.96195 4.9994,0.80202 7.89741,1.69507 9.98608,3.07728 1.383,0.91523 1.3858,0.92212 1.3858,3.42193 0,2.33441 -0.0738,2.56692 -1.0839,3.41689 -1.64435,1.38363 -4.64795,2.35259 -10.3092,3.32576 -4.16496,0.71596 -5.25158,1.02935 -5.76741,1.66338 -0.77968,0.95834 -0.78361,0.71968 0.0946,5.73846 1.18846,6.79214 0.80707,11.28027 -1.13417,13.34662 -1.10912,1.18059 -3.01257,1.1495 -4.88025,-0.0798 z"
       id="path5332"
       inkscape:connector-curvature="0" />
    <path
       inkscape:connector-curvature="0"
       id="path5334"
       d="m 306.52317,228.42888 c -2.12828,-1.40075 -3.92488,-3.82415 -6.34972,-8.56504 -1.19364,-2.3337 -2.42633,-4.49919 -2.73935,-4.81221 -0.94996,-0.94996 -2.14936,-0.66279 -6.60164,1.58061 -5.00061,2.51971 -7.43252,3.29805 -10.30459,3.29805 -4.10803,0 -5.23398,-2.63317 -3.04185,-7.11373 0.68011,-1.39009 2.31795,-3.43007 4.90716,-6.11204 2.13747,-2.21404 4.06136,-4.36005 4.27529,-4.76891 0.57579,-1.10041 -0.35706,-2.73399 -2.70832,-4.74274 -2.36683,-2.02204 -5.52253,-5.87183 -6.66694,-8.13333 -1.81086,-3.57846 -0.71425,-6.42193 2.62169,-6.79793 2.42733,-0.27361 5.70701,0.73934 11.1121,3.432 6.02583,3.00191 5.83839,3.05858 8.76805,-2.65105 3.08347,-6.00938 4.86943,-8.34429 7.36732,-9.63181 2.4254,-1.25014 3.83288,-0.80942 5.06979,1.58751 1.16028,2.24839 1.27415,6.25924 0.3395,11.95877 -0.79064,4.82143 -0.68604,6.13429 0.52585,6.59933 0.34064,0.13071 2.651,0.56358 5.13416,0.96195 4.9994,0.80202 7.89741,1.69507 9.98608,3.07728 1.383,0.91523 1.3858,0.92212 1.3858,3.42193 0,2.33441 -0.0738,2.56692 -1.0839,3.41689 -1.64435,1.38363 -4.64795,2.35259 -10.3092,3.32576 -4.16496,0.71596 -5.25159,1.02935 -5.76742,1.66338 -0.77968,0.95834 -0.78361,0.71968 0.0946,5.73846 1.18847,6.79214 0.80708,11.28027 -1.13417,13.34662 -1.10912,1.18059 -3.01257,1.1495 -4.88025,-0.0798 z"
       style="fill:#ff0000;fill-opacity:1;stroke:#e6e6e6;stroke-width:4.73987484;stroke-miterlimit:4;stroke-dasharray:none;stroke-opacity:1" />
    <path
       style="fill:#ff0000;fill-opacity:1;stroke:#e6e6e6;stroke-width:4.73987484;stroke-miterlimit:4;stroke-dasharray:none;stroke-opacity:1"
       d="m 207.52822,359.24363 c -2.12828,-1.40075 -3.92488,-3.82415 -6.34972,-8.56504 -1.19364,-2.3337 -2.42633,-4.49919 -2.73935,-4.81221 -0.94996,-0.94996 -2.14936,-0.66279 -6.60164,1.58061 -5.00061,2.51971 -7.43252,3.29805 -10.30459,3.29805 -4.10803,0 -5.23398,-2.63317 -3.04185,-7.11373 0.68011,-1.39009 2.31795,-3.43007 4.90716,-6.11204 2.13747,-2.21404 4.06136,-4.36005 4.27529,-4.76891 0.57579,-1.10041 -0.35706,-2.73399 -2.70832,-4.74274 -2.36683,-2.02204 -5.52253,-5.87183 -6.66694,-8.13333 -1.81086,-3.57846 -0.71425,-6.42193 2.62169,-6.79793 2.42733,-0.27361 5.70701,0.73934 11.1121,3.432 6.02583,3.00191 5.83839,3.05858 8.76805,-2.65105 3.08347,-6.00938 4.86943,-8.34429 7.36732,-9.63181 2.4254,-1.25014 3.83288,-0.80942 5.06979,1.58751 1.16028,2.24839 1.27415,6.25924 0.3395,11.95877 -0.79064,4.82143 -0.68604,6.13429 0.52585,6.59933 0.34064,0.13071 2.651,0.56358 5.13416,0.96195 4.9994,0.80202 7.89741,1.69507 9.98608,3.07728 1.383,0.91523 1.3858,0.92212 1.3858,3.42193 0,2.33441 -0.0738,2.56692 -1.0839,3.41689 -1.64435,1.38363 -4.64795,2.35259 -10.3092,3.32576 -4.16496,0.71596 -5.25159,1.02935 -5.76742,1.66338 -0.77968,0.95834 -0.78361,0.71968 0.0946,5.73846 1.18847,6.79214 0.80708,11.28027 -1.13417,13.34662 -1.10912,1.18059 -3.01257,1.1495 -4.88025,-0.0798 z"
       id="path5336"
       inkscape:connector-curvature="0" />
  </g>
</svg>
