<?xml version="1.0" encoding="UTF-8" standalone="no"?>
<!-- Created with Inkscape (http://www.inkscape.org/) -->

<svg
   xmlns:dc="http://purl.org/dc/elements/1.1/"
   xmlns:cc="http://creativecommons.org/ns#"
   xmlns:rdf="http://www.w3.org/1999/02/22-rdf-syntax-ns#"
   xmlns:svg="http://www.w3.org/2000/svg"
   xmlns="http://www.w3.org/2000/svg"
   xmlns:xlink="http://www.w3.org/1999/xlink"
   xmlns:sodipodi="http://sodipodi.sourceforge.net/DTD/sodipodi-0.dtd"
   xmlns:inkscape="http://www.inkscape.org/namespaces/inkscape"
   width="400"
   height="400"
   id="svg2"
   sodipodi:version="0.32"
   inkscape:version="0.91 r13725"
   sodipodi:docname="gigamesh_icon_reload.svg"
   inkscape:output_extension="org.inkscape.output.svg.inkscape"
   version="1.0"
   inkscape:export-filename="gigamesh_icon_reload.png"
   inkscape:export-xdpi="9.0627155"
   inkscape:export-ydpi="9.0627155">
  <defs
     id="defs4">
    <linearGradient
       id="linearGradient3939">
      <stop
         style="stop-color:#ffaaaa;stop-opacity:0;"
         offset="0"
         id="stop3941" />
      <stop
         style="stop-color:#ff4242;stop-opacity:1;"
         offset="1"
         id="stop3943" />
    </linearGradient>
    <linearGradient
       id="linearGradient3295">
      <stop
         style="stop-color:#ffffff;stop-opacity:1;"
         offset="0"
         id="stop3297" />
      <stop
         id="stop3157"
         offset="0.80000001"
         style="stop-color:#ff5c5c;stop-opacity:1;" />
      <stop
         style="stop-color:#990000;stop-opacity:1;"
         offset="1"
         id="stop3299" />
    </linearGradient>
    <inkscape:perspective
       sodipodi:type="inkscape:persp3d"
       inkscape:vp_x="0 : 526.18109 : 1"
       inkscape:vp_y="0 : 1000 : 0"
       inkscape:vp_z="744.09448 : 526.18109 : 1"
       inkscape:persp3d-origin="372.04724 : 350.78739 : 1"
       id="perspective10" />
    <inkscape:perspective
       id="perspective2447"
       inkscape:persp3d-origin="372.04724 : 350.78739 : 1"
       inkscape:vp_z="744.09448 : 526.18109 : 1"
       inkscape:vp_y="0 : 1000 : 0"
       inkscape:vp_x="0 : 526.18109 : 1"
       sodipodi:type="inkscape:persp3d" />
    <inkscape:perspective
       id="perspective3289"
       inkscape:persp3d-origin="372.04724 : 350.78739 : 1"
       inkscape:vp_z="744.09448 : 526.18109 : 1"
       inkscape:vp_y="0 : 1000 : 0"
       inkscape:vp_x="0 : 526.18109 : 1"
       sodipodi:type="inkscape:persp3d" />
    <radialGradient
       inkscape:collect="always"
       xlink:href="#linearGradient3295-1"
       id="radialGradient3301-7"
       cx="300.40311"
       cy="487.02884"
       fx="300.40311"
       fy="487.02884"
       r="105.92635"
       gradientTransform="matrix(1,0,0,1.0749387,0,-36.497331)"
       gradientUnits="userSpaceOnUse"
       spreadMethod="pad" />
    <linearGradient
       id="linearGradient3295-1">
      <stop
         style="stop-color:#ffffff;stop-opacity:1;"
         offset="0"
         id="stop3297-7" />
      <stop
         id="stop3157-2"
         offset="0.80000001"
         style="stop-color:#5cff6f;stop-opacity:1;" />
      <stop
         style="stop-color:#009912;stop-opacity:1;"
         offset="1"
         id="stop3299-7" />
    </linearGradient>
    <radialGradient
       r="105.92635"
       fy="487.02884"
       fx="300.40311"
       cy="487.02884"
       cx="300.40311"
       spreadMethod="pad"
       gradientTransform="matrix(1,0,0,1.0749387,0,-36.497331)"
       gradientUnits="userSpaceOnUse"
       id="radialGradient3028"
       xlink:href="#linearGradient3295-1"
       inkscape:collect="always" />
    <radialGradient
       inkscape:collect="always"
       xlink:href="#linearGradient3295-7"
       id="radialGradient3301-71"
       cx="300.40311"
       cy="487.02884"
       fx="300.40311"
       fy="487.02884"
       r="105.92635"
       gradientTransform="matrix(1,0,0,1.0749387,0,-36.497331)"
       gradientUnits="userSpaceOnUse"
       spreadMethod="pad" />
    <linearGradient
       id="linearGradient3295-7">
      <stop
         style="stop-color:#ffffff;stop-opacity:1;"
         offset="0"
         id="stop3297-2" />
      <stop
         id="stop3157-7"
         offset="0.80000001"
         style="stop-color:#ff5c5c;stop-opacity:1;" />
      <stop
         style="stop-color:#990000;stop-opacity:1;"
         offset="1"
         id="stop3299-2" />
    </linearGradient>
    <radialGradient
       inkscape:collect="always"
       xlink:href="#linearGradient3295-79"
       id="radialGradient3301-6"
       cx="300.40311"
       cy="487.02884"
       fx="300.40311"
       fy="487.02884"
       r="105.92635"
       gradientTransform="matrix(1,0,0,1.0749387,0,-36.497331)"
       gradientUnits="userSpaceOnUse"
       spreadMethod="pad" />
    <linearGradient
       id="linearGradient3295-79">
      <stop
         style="stop-color:#ffffff;stop-opacity:1;"
         offset="0"
         id="stop3297-23" />
      <stop
         id="stop3157-8"
         offset="0.80000001"
         style="stop-color:#ff5c5c;stop-opacity:1;" />
      <stop
         style="stop-color:#990000;stop-opacity:1;"
         offset="1"
         id="stop3299-4" />
    </linearGradient>
    <radialGradient
       inkscape:collect="always"
       xlink:href="#linearGradient3295-1-4"
       id="radialGradient3051-9"
       gradientUnits="userSpaceOnUse"
       gradientTransform="matrix(1,0,0,1.0749387,0,-36.497331)"
       spreadMethod="pad"
       cx="300.40311"
       cy="487.02884"
       fx="300.40311"
       fy="487.02884"
       r="105.92635" />
    <linearGradient
       id="linearGradient3295-1-4">
      <stop
         style="stop-color:#ffffff;stop-opacity:1;"
         offset="0"
         id="stop3297-7-0" />
      <stop
         id="stop3157-2-1"
         offset="0.80000001"
         style="stop-color:#adadad;stop-opacity:1;" />
      <stop
         style="stop-color:#4d4d4d;stop-opacity:1;"
         offset="1"
         id="stop3299-7-4" />
    </linearGradient>
    <radialGradient
       inkscape:collect="always"
       xlink:href="#linearGradient3939"
       id="radialGradient3945"
       cx="192.71019"
       cy="222.43999"
       fx="192.71019"
       fy="222.43999"
       r="202.30607"
       gradientUnits="userSpaceOnUse" />
  </defs>
  <sodipodi:namedview
     id="base"
     pagecolor="#ffffff"
     bordercolor="#666666"
     borderopacity="1.0"
     gridtolerance="10000"
     guidetolerance="10"
     objecttolerance="10"
     inkscape:pageopacity="0.0"
     inkscape:pageshadow="2"
     inkscape:zoom="1.6501463"
     inkscape:cx="197.90492"
     inkscape:cy="198.88709"
     inkscape:document-units="px"
     inkscape:current-layer="layer1"
     showgrid="true"
     inkscape:window-width="1920"
     inkscape:window-height="1176"
     inkscape:window-x="0"
     inkscape:window-y="24"
     inkscape:window-maximized="1"
     inkscape:snap-bbox="true"
     inkscape:bbox-nodes="true"
     showguides="true"
     inkscape:guide-bbox="true"
     inkscape:snap-global="false"
     inkscape:snap-nodes="true"
     inkscape:object-paths="false"
     inkscape:object-nodes="true">
    <sodipodi:guide
       orientation="0,1"
       position="65.86547,339.09386"
       id="guide3002" />
    <sodipodi:guide
       orientation="1,0"
       position="65.86547,192.10418"
       id="guide3004" />
    <sodipodi:guide
       orientation="0,1"
       position="315.86547,63.196553"
       id="guide3006" />
    <sodipodi:guide
       orientation="1,0"
       position="315.86547,63.196553"
       id="guide3008" />
    <sodipodi:guide
       orientation="0.70710678,0.70710678"
       position="228.39667,271.83703"
       id="guide3976" />
    <inkscape:grid
       type="xygrid"
       id="grid4189"
       spacingx="5"
       spacingy="5"
       empspacing="5" />
  </sodipodi:namedview>
  <metadata
     id="metadata7">
    <rdf:RDF>
      <cc:Work
         rdf:about="">
        <dc:format>image/svg+xml</dc:format>
        <dc:type
           rdf:resource="http://purl.org/dc/dcmitype/StillImage" />
        <dc:title></dc:title>
      </cc:Work>
    </rdf:RDF>
  </metadata>
  <g
     inkscape:groupmode="layer"
     id="layer3"
     inkscape:label="Wedge"
     style="display:none"
     transform="translate(0,-0.6583252)"
     sodipodi:insensitive="true">
    <g
       style="font-size:40px;font-style:normal;font-variant:normal;font-weight:normal;font-stretch:normal;line-height:125%;letter-spacing:0px;word-spacing:0px;fill:#000000;fill-opacity:1;stroke:none;display:inline;font-family:Khmer OS;-inkscape-font-specification:Khmer OS"
       id="flowRoot3010"
       transform="matrix(6.0704453,0,0,6.0704453,1329.4669,-714.14799)" />
    <g
       style="font-size:40px;font-style:normal;font-variant:normal;font-weight:normal;font-stretch:normal;line-height:125%;letter-spacing:0px;word-spacing:0px;fill:#000000;fill-opacity:1;stroke:none;font-family:Khmer OS;-inkscape-font-specification:Khmer OS"
       id="flowRoot3064"
       transform="matrix(6.3851621,0,0,6.3851621,2126.3712,-587.00094)">
      <path
         d="m -251.33989,124.55465 -1.81641,1.64062 c -0.27345,0.24741 -0.64454,0.82033 -1.11328,1.71875 -1.32814,2.53907 -1.9922,5.26042 -1.99219,8.16407 -0.53386,0.45573 -0.83985,0.68359 -0.91797,0.68359 -0.1823,0 -0.46225,-0.21484 -0.83984,-0.64453 -0.14324,-0.32552 -0.52084,-1.08724 -1.13281,-2.28516 -1.00262,-1.96614 -2.64324,-3.50911 -4.92188,-4.6289 -0.53386,-0.26041 -0.90495,-0.65104 -1.11328,-1.17188 l 0.11719,-0.23437 0.64453,-0.60547 c 0.67708,0.0521 1.35416,0.0781 2.03125,0.0781 2.64322,1e-5 4.89582,-0.52733 6.75781,-1.58203 0.20832,-0.11717 0.63801,-0.3841 1.28906,-0.80078 l 1.75782,-1.60156 19.27734,-17.77344 c 0.0521,-0.052 0.13668,-0.0781 0.25391,-0.0781 0.18225,3e-5 0.40361,0.13675 0.66406,0.41015 0.2734,0.27347 0.41012,0.50133 0.41016,0.6836 -4e-5,0.10419 -0.0391,0.19534 -0.11719,0.27343"
         id="path3073"
         inkscape:connector-curvature="0"
         sodipodi:nodetypes="ccccsccccccscccccccc" />
    </g>
  </g>
  <g
     inkscape:groupmode="layer"
     id="layer1"
     inkscape:label="Reload">
    <path
       sodipodi:type="arc"
       style="fill:url(#radialGradient3945);fill-opacity:1;stroke:#000000;stroke-width:23.77384951;stroke-linecap:butt;stroke-linejoin:miter;stroke-miterlimit:4;stroke-opacity:1;stroke-dasharray:none"
       id="path3140"
       sodipodi:cx="192.71019"
       sodipodi:cy="222.43999"
       sodipodi:rx="195.13422"
       sodipodi:ry="195.13422"
       d="m 387.84441,222.43999 a 195.13422,195.13422 0 1 1 -390.2684365,0 195.13422,195.13422 0 1 1 390.2684365,0 z"
       transform="matrix(0.75713443,0,0,0.75713443,54.092481,31.583028)" />
    <g
       style="font-size:40px;font-style:normal;font-variant:normal;font-weight:normal;font-stretch:normal;line-height:125%;letter-spacing:0px;word-spacing:0px;fill:#000000;fill-opacity:1;stroke:none;display:inline;font-family:Khmer OS;-inkscape-font-specification:Khmer OS"
       id="flowRoot3064-3-2"
       transform="matrix(-1.2494209,9.4958997,-9.4958997,-1.2494209,977.35326,2877.2248)"
       inkscape:transform-center-y="-51.891974"
       inkscape:transform-center-x="47.093894">
      <path
         d="m -253.1563,126.19527 c -0.27345,0.24741 -0.64454,0.82033 -1.11328,1.71875 -1.32814,2.53907 -1.9922,5.26042 -1.99219,8.16407 -0.53386,0.45573 -0.83985,0.68359 -0.91797,0.68359 -0.1823,0 -0.46225,-0.21484 -0.83984,-0.64453 -0.14324,-0.32552 -0.52084,-1.08724 -1.13281,-2.28516 -1.00262,-1.96614 -2.64324,-3.50911 -4.92188,-4.6289 -0.53386,-0.26041 -0.90495,-0.65104 -1.11328,-1.17188 l 0.11719,-0.23437 0.64453,-0.60547 c 0.67708,0.0521 1.35416,0.0781 2.03125,0.0781 2.64322,1e-5 4.89582,-0.52733 6.75781,-1.58203 0.20832,-0.11717 0.63801,-0.3841 1.28906,-0.80078"
         id="path3073-4-6"
         inkscape:connector-curvature="0"
         sodipodi:nodetypes="cccsccccccscc" />
    </g>
    <path
       style="fill:#ffffff;fill-opacity:1;stroke:#000000;stroke-width:12;stroke-miterlimit:4;stroke-opacity:1"
       d="m 131.86667,128.01006 96.42287,0 39.84381,39.88959 0,104.09029 -136.26668,0 z"
       id="rect3971"
       inkscape:connector-curvature="0"
       sodipodi:nodetypes="cccccc" />
    <path
       style="fill:none;stroke:#000000;stroke-width:10;stroke-linecap:round;stroke-linejoin:miter;stroke-miterlimit:4;stroke-opacity:1;stroke-dasharray:none"
       d="m 162.29098,160.60956 75.41804,0"
       id="path3973"
       inkscape:connector-curvature="0" />
    <path
       inkscape:connector-curvature="0"
       id="path3978"
       d="m 162.29098,180.30478 75.41804,0"
       style="fill:none;stroke:#000000;stroke-width:10;stroke-linecap:round;stroke-linejoin:miter;stroke-miterlimit:4;stroke-opacity:1;stroke-dasharray:none" />
    <path
       style="fill:none;stroke:#000000;stroke-width:10;stroke-linecap:round;stroke-linejoin:miter;stroke-miterlimit:4;stroke-opacity:1;stroke-dasharray:none"
       d="m 162.29098,200 75.41804,0"
       id="path3980"
       inkscape:connector-curvature="0" />
    <path
       inkscape:connector-curvature="0"
       id="path3982"
       d="m 162.29098,219.69522 75.41804,0"
       style="fill:none;stroke:#000000;stroke-width:10;stroke-linecap:round;stroke-linejoin:miter;stroke-miterlimit:4;stroke-opacity:1;stroke-dasharray:none" />
    <path
       style="fill:none;stroke:#000000;stroke-width:10;stroke-linecap:round;stroke-linejoin:miter;stroke-miterlimit:4;stroke-opacity:1;stroke-dasharray:none"
       d="m 162.29098,239.39044 75.41804,0"
       id="path3984"
       inkscape:connector-curvature="0" />
    <g
       inkscape:transform-center-x="-51.891944"
       inkscape:transform-center-y="-47.093885"
       transform="matrix(-9.4958997,-1.2494209,1.2494209,-9.4958997,-2478.0773,977.35326)"
       id="g3998"
       style="font-size:40px;font-style:normal;font-variant:normal;font-weight:normal;font-stretch:normal;line-height:125%;letter-spacing:0px;word-spacing:0px;fill:#000000;fill-opacity:1;stroke:none;display:inline;font-family:Khmer OS;-inkscape-font-specification:Khmer OS">
      <path
         sodipodi:nodetypes="cccsccccccscc"
         inkscape:connector-curvature="0"
         id="path4000"
         d="m -253.1563,126.19527 c -0.27345,0.24741 -0.64454,0.82033 -1.11328,1.71875 -1.32814,2.53907 -1.9922,5.26042 -1.99219,8.16407 -0.53386,0.45573 -0.83985,0.68359 -0.91797,0.68359 -0.1823,0 -0.46225,-0.21484 -0.83984,-0.64453 -0.14324,-0.32552 -0.52084,-1.08724 -1.13281,-2.28516 -1.00262,-1.96614 -2.64324,-3.50911 -4.92188,-4.6289 -0.53386,-0.26041 -0.90495,-0.65104 -1.11328,-1.17188 l 0.11719,-0.23437 0.64453,-0.60547 c 0.67708,0.0521 1.35416,0.0781 2.03125,0.0781 2.64322,1e-5 4.89582,-0.52733 6.75781,-1.58203 0.20832,-0.11717 0.63801,-0.3841 1.28906,-0.80078" />
    </g>
    <g
       style="font-size:40px;font-style:normal;font-variant:normal;font-weight:normal;font-stretch:normal;line-height:125%;letter-spacing:0px;word-spacing:0px;fill:#000000;fill-opacity:1;stroke:none;display:inline;font-family:Khmer OS;-inkscape-font-specification:Khmer OS"
       id="g4002"
       transform="matrix(1.2494209,-9.4958997,9.4958997,1.2494209,-577.35326,-2476.2871)"
       inkscape:transform-center-y="51.891943"
       inkscape:transform-center-x="-47.093885">
      <path
         d="m -253.1563,126.19527 c -0.27345,0.24741 -0.64454,0.82033 -1.11328,1.71875 -1.32814,2.53907 -1.9922,5.26042 -1.99219,8.16407 -0.53386,0.45573 -0.83985,0.68359 -0.91797,0.68359 -0.1823,0 -0.46225,-0.21484 -0.83984,-0.64453 -0.14324,-0.32552 -0.52084,-1.08724 -1.13281,-2.28516 -1.00262,-1.96614 -2.64324,-3.50911 -4.92188,-4.6289 -0.53386,-0.26041 -0.90495,-0.65104 -1.11328,-1.17188 l 0.11719,-0.23437 0.64453,-0.60547 c 0.67708,0.0521 1.35416,0.0781 2.03125,0.0781 2.64322,1e-5 4.89582,-0.52733 6.75781,-1.58203 0.20832,-0.11717 0.63801,-0.3841 1.28906,-0.80078"
         id="path4004"
         inkscape:connector-curvature="0"
         sodipodi:nodetypes="cccsccccccscc" />
    </g>
    <g
       inkscape:transform-center-x="51.891953"
       inkscape:transform-center-y="47.093884"
       transform="matrix(9.4958997,1.2494209,-1.2494209,9.4958997,2877.7264,-577.35326)"
       id="g4006"
       style="font-size:40px;font-style:normal;font-variant:normal;font-weight:normal;font-stretch:normal;line-height:125%;letter-spacing:0px;word-spacing:0px;fill:#000000;fill-opacity:1;stroke:none;display:inline;font-family:Khmer OS;-inkscape-font-specification:Khmer OS">
      <path
         sodipodi:nodetypes="cccsccccccscc"
         inkscape:connector-curvature="0"
         id="path4008"
         d="m -253.1563,126.19527 c -0.27345,0.24741 -0.64454,0.82033 -1.11328,1.71875 -1.32814,2.53907 -1.9922,5.26042 -1.99219,8.16407 -0.53386,0.45573 -0.83985,0.68359 -0.91797,0.68359 -0.1823,0 -0.46225,-0.21484 -0.83984,-0.64453 -0.14324,-0.32552 -0.52084,-1.08724 -1.13281,-2.28516 -1.00262,-1.96614 -2.64324,-3.50911 -4.92188,-4.6289 -0.53386,-0.26041 -0.90495,-0.65104 -1.11328,-1.17188 l 0.11719,-0.23437 0.64453,-0.60547 c 0.67708,0.0521 1.35416,0.0781 2.03125,0.0781 2.64322,1e-5 4.89582,-0.52733 6.75781,-1.58203 0.20832,-0.11717 0.63801,-0.3841 1.28906,-0.80078" />
    </g>
  </g>
</svg>
